  0
SECTION
  2
BLOCKS
  0
ENDSEC
  0
SECTION
  2
ENTITIES
  0
LINE
  8
0
 10
-20
 20
130.5
 11
20
 21
130.5
  0
LINE
  8
0
 10
20
 20
130.5
 11
20
 21
127.5
  0
LINE
  8
0
 10
20
 20
127.5
 11
60
 21
127.5
  0
LINE
  8
0
 10
60
 20
127.5
 11
60
 21
130.5
  0
LINE
  8
0
 10
60
 20
130.5
 11
100
 21
130.5
  0
LINE
  8
0
 10
100
 20
130.5
 11
100
 21
170
  0
LINE
  8
0
 10
100
 20
170
 11
97
 21
170
  0
LINE
  8
0
 10
97
 20
170
 11
97
 21
210
  0
LINE
  8
0
 10
97
 20
210
 11
100
 21
210
  0
LINE
  8
0
 10
100
 20
210
 11
100
 21
249.5
  0
LINE
  8
0
 10
100
 20
249.5
 11
60
 21
249.5
  0
LINE
  8
0
 10
60
 20
249.5
 11
60
 21
252.5
  0
LINE
  8
0
 10
60
 20
252.5
 11
20
 21
252.5
  0
LINE
  8
0
 10
20
 20
252.5
 11
20
 21
249.5
  0
LINE
  8
0
 10
20
 20
249.5
 11
-20
 21
249.5
  0
LINE
  8
0
 10
-20
 20
249.5
 11
-20
 21
252.5
  0
LINE
  8
0
 10
-20
 20
252.5
 11
-60
 21
252.5
  0
LINE
  8
0
 10
-60
 20
252.5
 11
-60
 21
249.5
  0
LINE
  8
0
 10
-60
 20
249.5
 11
-100
 21
249.5
  0
LINE
  8
0
 10
-100
 20
249.5
 11
-100
 21
210
  0
LINE
  8
0
 10
-100
 20
210
 11
-97
 21
210
  0
LINE
  8
0
 10
-97
 20
210
 11
-97
 21
170
  0
LINE
  8
0
 10
-97
 20
170
 11
-100
 21
170
  0
LINE
  8
0
 10
-100
 20
170
 11
-100
 21
130.5
  0
LINE
  8
0
 10
-100
 20
130.5
 11
-60
 21
130.5
  0
LINE
  8
0
 10
-60
 20
130.5
 11
-60
 21
127.5
  0
LINE
  8
0
 10
-60
 20
127.5
 11
-20
 21
127.5
  0
LINE
  8
0
 10
-20
 20
127.5
 11
-20
 21
130.5
  0
LINE
  8
0
 10
-90.4693
 20
240.014
 11
-90.6852
 21
240.055
  0
LINE
  8
0
 10
-90.6852
 20
240.055
 11
-90.8942
 21
240.123
  0
LINE
  8
0
 10
-90.8942
 20
240.123
 11
-91.0931
 21
240.216
  0
LINE
  8
0
 10
-91.0931
 20
240.216
 11
-91.2786
 21
240.334
  0
LINE
  8
0
 10
-91.2786
 20
240.334
 11
-91.448
 21
240.474
  0
LINE
  8
0
 10
-91.448
 20
240.474
 11
-91.5984
 21
240.635
  0
LINE
  8
0
 10
-91.5984
 20
240.635
 11
-91.7276
 21
240.812
  0
LINE
  8
0
 10
-91.7276
 20
240.812
 11
-91.8334
 21
241.005
  0
LINE
  8
0
 10
-91.8334
 20
241.005
 11
-91.9143
 21
241.209
  0
LINE
  8
0
 10
-91.9143
 20
241.209
 11
-91.969
 21
241.422
  0
LINE
  8
0
 10
-91.969
 20
241.422
 11
-91.9965
 21
241.64
  0
LINE
  8
0
 10
-91.9965
 20
241.64
 11
-91.9965
 21
241.86
  0
LINE
  8
0
 10
-91.9965
 20
241.86
 11
-91.969
 21
242.078
  0
LINE
  8
0
 10
-91.969
 20
242.078
 11
-91.9143
 21
242.291
  0
LINE
  8
0
 10
-91.9143
 20
242.291
 11
-91.8334
 21
242.495
  0
LINE
  8
0
 10
-91.8334
 20
242.495
 11
-91.7276
 21
242.688
  0
LINE
  8
0
 10
-91.7276
 20
242.688
 11
-91.5984
 21
242.865
  0
LINE
  8
0
 10
-91.5984
 20
242.865
 11
-91.448
 21
243.026
  0
LINE
  8
0
 10
-91.448
 20
243.026
 11
-91.2786
 21
243.166
  0
LINE
  8
0
 10
-91.2786
 20
243.166
 11
-91.0931
 21
243.284
  0
LINE
  8
0
 10
-91.0931
 20
243.284
 11
-90.8942
 21
243.377
  0
LINE
  8
0
 10
-90.8942
 20
243.377
 11
-90.6852
 21
243.445
  0
LINE
  8
0
 10
-90.6852
 20
243.445
 11
-90.4693
 21
243.486
  0
LINE
  8
0
 10
-90.4693
 20
243.486
 11
-90.25
 21
243.5
  0
LINE
  8
0
 10
-90.25
 20
243.5
 11
-90.0307
 21
243.486
  0
LINE
  8
0
 10
-90.0307
 20
243.486
 11
-89.8148
 21
243.445
  0
LINE
  8
0
 10
-89.8148
 20
243.445
 11
-89.6058
 21
243.377
  0
LINE
  8
0
 10
-89.6058
 20
243.377
 11
-89.4069
 21
243.284
  0
LINE
  8
0
 10
-89.4069
 20
243.284
 11
-89.2214
 21
243.166
  0
LINE
  8
0
 10
-89.2214
 20
243.166
 11
-89.052
 21
243.026
  0
LINE
  8
0
 10
-89.052
 20
243.026
 11
-88.9016
 21
242.865
  0
LINE
  8
0
 10
-88.9016
 20
242.865
 11
-88.7724
 21
242.688
  0
LINE
  8
0
 10
-88.7724
 20
242.688
 11
-88.6665
 21
242.495
  0
LINE
  8
0
 10
-88.6665
 20
242.495
 11
-88.5856
 21
242.291
  0
LINE
  8
0
 10
-88.5856
 20
242.291
 11
-88.531
 21
242.078
  0
LINE
  8
0
 10
-88.531
 20
242.078
 11
-88.5034
 21
241.86
  0
LINE
  8
0
 10
-88.5034
 20
241.86
 11
-88.5034
 21
241.64
  0
LINE
  8
0
 10
-88.5034
 20
241.64
 11
-88.531
 21
241.422
  0
LINE
  8
0
 10
-88.531
 20
241.422
 11
-88.5856
 21
241.209
  0
LINE
  8
0
 10
-88.5856
 20
241.209
 11
-88.6665
 21
241.005
  0
LINE
  8
0
 10
-88.6665
 20
241.005
 11
-88.7724
 21
240.812
  0
LINE
  8
0
 10
-88.7724
 20
240.812
 11
-88.9016
 21
240.635
  0
LINE
  8
0
 10
-88.9016
 20
240.635
 11
-89.052
 21
240.474
  0
LINE
  8
0
 10
-89.052
 20
240.474
 11
-89.2214
 21
240.334
  0
LINE
  8
0
 10
-89.2214
 20
240.334
 11
-89.4069
 21
240.216
  0
LINE
  8
0
 10
-89.4069
 20
240.216
 11
-89.6058
 21
240.123
  0
LINE
  8
0
 10
-89.6058
 20
240.123
 11
-89.8148
 21
240.055
  0
LINE
  8
0
 10
-89.8148
 20
240.055
 11
-90.0307
 21
240.014
  0
LINE
  8
0
 10
-90.0307
 20
240.014
 11
-90.25
 21
240
  0
LINE
  8
0
 10
-90.25
 20
240
 11
-90.4693
 21
240.014
  0
LINE
  8
0
 10
-69.9693
 20
240.014
 11
-70.1852
 21
240.055
  0
LINE
  8
0
 10
-70.1852
 20
240.055
 11
-70.3942
 21
240.123
  0
LINE
  8
0
 10
-70.3942
 20
240.123
 11
-70.5931
 21
240.216
  0
LINE
  8
0
 10
-70.5931
 20
240.216
 11
-70.7786
 21
240.334
  0
LINE
  8
0
 10
-70.7786
 20
240.334
 11
-70.948
 21
240.474
  0
LINE
  8
0
 10
-70.948
 20
240.474
 11
-71.0984
 21
240.635
  0
LINE
  8
0
 10
-71.0984
 20
240.635
 11
-71.2276
 21
240.812
  0
LINE
  8
0
 10
-71.2276
 20
240.812
 11
-71.3335
 21
241.005
  0
LINE
  8
0
 10
-71.3335
 20
241.005
 11
-71.4144
 21
241.209
  0
LINE
  8
0
 10
-71.4144
 20
241.209
 11
-71.469
 21
241.422
  0
LINE
  8
0
 10
-71.469
 20
241.422
 11
-71.4966
 21
241.64
  0
LINE
  8
0
 10
-71.4966
 20
241.64
 11
-71.4966
 21
241.86
  0
LINE
  8
0
 10
-71.4966
 20
241.86
 11
-71.469
 21
242.078
  0
LINE
  8
0
 10
-71.469
 20
242.078
 11
-71.4144
 21
242.291
  0
LINE
  8
0
 10
-71.4144
 20
242.291
 11
-71.3335
 21
242.495
  0
LINE
  8
0
 10
-71.3335
 20
242.495
 11
-71.2276
 21
242.688
  0
LINE
  8
0
 10
-71.2276
 20
242.688
 11
-71.0984
 21
242.865
  0
LINE
  8
0
 10
-71.0984
 20
242.865
 11
-70.948
 21
243.026
  0
LINE
  8
0
 10
-70.948
 20
243.026
 11
-70.7786
 21
243.166
  0
LINE
  8
0
 10
-70.7786
 20
243.166
 11
-70.5931
 21
243.284
  0
LINE
  8
0
 10
-70.5931
 20
243.284
 11
-70.3942
 21
243.377
  0
LINE
  8
0
 10
-70.3942
 20
243.377
 11
-70.1852
 21
243.445
  0
LINE
  8
0
 10
-70.1852
 20
243.445
 11
-69.9693
 21
243.486
  0
LINE
  8
0
 10
-69.9693
 20
243.486
 11
-69.75
 21
243.5
  0
LINE
  8
0
 10
-69.75
 20
243.5
 11
-69.5307
 21
243.486
  0
LINE
  8
0
 10
-69.5307
 20
243.486
 11
-69.3148
 21
243.445
  0
LINE
  8
0
 10
-69.3148
 20
243.445
 11
-69.1058
 21
243.377
  0
LINE
  8
0
 10
-69.1058
 20
243.377
 11
-68.9069
 21
243.284
  0
LINE
  8
0
 10
-68.9069
 20
243.284
 11
-68.7214
 21
243.166
  0
LINE
  8
0
 10
-68.7214
 20
243.166
 11
-68.552
 21
243.026
  0
LINE
  8
0
 10
-68.552
 20
243.026
 11
-68.4016
 21
242.865
  0
LINE
  8
0
 10
-68.4016
 20
242.865
 11
-68.2724
 21
242.688
  0
LINE
  8
0
 10
-68.2724
 20
242.688
 11
-68.1666
 21
242.495
  0
LINE
  8
0
 10
-68.1666
 20
242.495
 11
-68.0857
 21
242.291
  0
LINE
  8
0
 10
-68.0857
 20
242.291
 11
-68.031
 21
242.078
  0
LINE
  8
0
 10
-68.031
 20
242.078
 11
-68.0035
 21
241.86
  0
LINE
  8
0
 10
-68.0035
 20
241.86
 11
-68.0035
 21
241.64
  0
LINE
  8
0
 10
-68.0035
 20
241.64
 11
-68.031
 21
241.422
  0
LINE
  8
0
 10
-68.031
 20
241.422
 11
-68.0857
 21
241.209
  0
LINE
  8
0
 10
-68.0857
 20
241.209
 11
-68.1666
 21
241.005
  0
LINE
  8
0
 10
-68.1666
 20
241.005
 11
-68.2724
 21
240.812
  0
LINE
  8
0
 10
-68.2724
 20
240.812
 11
-68.4016
 21
240.635
  0
LINE
  8
0
 10
-68.4016
 20
240.635
 11
-68.552
 21
240.474
  0
LINE
  8
0
 10
-68.552
 20
240.474
 11
-68.7214
 21
240.334
  0
LINE
  8
0
 10
-68.7214
 20
240.334
 11
-68.9069
 21
240.216
  0
LINE
  8
0
 10
-68.9069
 20
240.216
 11
-69.1058
 21
240.123
  0
LINE
  8
0
 10
-69.1058
 20
240.123
 11
-69.3148
 21
240.055
  0
LINE
  8
0
 10
-69.3148
 20
240.055
 11
-69.5307
 21
240.014
  0
LINE
  8
0
 10
-69.5307
 20
240.014
 11
-69.75
 21
240
  0
LINE
  8
0
 10
-69.75
 20
240
 11
-69.9693
 21
240.014
  0
LINE
  8
0
 10
27.8901
 20
238.253
 11
27.6721
 21
238.281
  0
LINE
  8
0
 10
27.6721
 20
238.281
 11
27.4592
 21
238.336
  0
LINE
  8
0
 10
27.4592
 20
238.336
 11
27.2549
 21
238.417
  0
LINE
  8
0
 10
27.2549
 20
238.417
 11
27.0623
 21
238.522
  0
LINE
  8
0
 10
27.0623
 20
238.522
 11
26.8845
 21
238.652
  0
LINE
  8
0
 10
26.8845
 20
238.652
 11
26.7243
 21
238.802
  0
LINE
  8
0
 10
26.7243
 20
238.802
 11
26.5842
 21
238.971
  0
LINE
  8
0
 10
26.5842
 20
238.971
 11
26.4665
 21
239.157
  0
LINE
  8
0
 10
26.4665
 20
239.157
 11
26.3729
 21
239.356
  0
LINE
  8
0
 10
26.3729
 20
239.356
 11
26.305
 21
239.565
  0
LINE
  8
0
 10
26.305
 20
239.565
 11
26.2638
 21
239.781
  0
LINE
  8
0
 10
26.2638
 20
239.781
 11
26.25
 21
240
  0
LINE
  8
0
 10
26.25
 20
240
 11
26.2638
 21
240.219
  0
LINE
  8
0
 10
26.2638
 20
240.219
 11
26.305
 21
240.435
  0
LINE
  8
0
 10
26.305
 20
240.435
 11
26.3729
 21
240.644
  0
LINE
  8
0
 10
26.3729
 20
240.644
 11
26.4665
 21
240.843
  0
LINE
  8
0
 10
26.4665
 20
240.843
 11
26.5842
 21
241.029
  0
LINE
  8
0
 10
26.5842
 20
241.029
 11
26.7243
 21
241.198
  0
LINE
  8
0
 10
26.7243
 20
241.198
 11
26.8845
 21
241.348
  0
LINE
  8
0
 10
26.8845
 20
241.348
 11
27.0623
 21
241.478
  0
LINE
  8
0
 10
27.0623
 20
241.478
 11
27.2549
 21
241.583
  0
LINE
  8
0
 10
27.2549
 20
241.583
 11
27.4592
 21
241.664
  0
LINE
  8
0
 10
27.4592
 20
241.664
 11
27.6721
 21
241.719
  0
LINE
  8
0
 10
27.6721
 20
241.719
 11
27.8901
 21
241.747
  0
LINE
  8
0
 10
27.8901
 20
241.747
 11
28.1099
 21
241.747
  0
LINE
  8
0
 10
28.1099
 20
241.747
 11
28.3279
 21
241.719
  0
LINE
  8
0
 10
28.3279
 20
241.719
 11
28.5408
 21
241.664
  0
LINE
  8
0
 10
28.5408
 20
241.664
 11
28.7451
 21
241.583
  0
LINE
  8
0
 10
28.7451
 20
241.583
 11
28.9377
 21
241.478
  0
LINE
  8
0
 10
28.9377
 20
241.478
 11
29.1155
 21
241.348
  0
LINE
  8
0
 10
29.1155
 20
241.348
 11
29.2757
 21
241.198
  0
LINE
  8
0
 10
29.2757
 20
241.198
 11
29.4158
 21
241.029
  0
LINE
  8
0
 10
29.4158
 20
241.029
 11
29.5335
 21
240.843
  0
LINE
  8
0
 10
29.5335
 20
240.843
 11
29.6271
 21
240.644
  0
LINE
  8
0
 10
29.6271
 20
240.644
 11
29.695
 21
240.435
  0
LINE
  8
0
 10
29.695
 20
240.435
 11
29.7362
 21
240.219
  0
LINE
  8
0
 10
29.7362
 20
240.219
 11
29.75
 21
240
  0
LINE
  8
0
 10
29.75
 20
240
 11
29.7362
 21
239.781
  0
LINE
  8
0
 10
29.7362
 20
239.781
 11
29.695
 21
239.565
  0
LINE
  8
0
 10
29.695
 20
239.565
 11
29.6271
 21
239.356
  0
LINE
  8
0
 10
29.6271
 20
239.356
 11
29.5335
 21
239.157
  0
LINE
  8
0
 10
29.5335
 20
239.157
 11
29.4158
 21
238.971
  0
LINE
  8
0
 10
29.4158
 20
238.971
 11
29.2757
 21
238.802
  0
LINE
  8
0
 10
29.2757
 20
238.802
 11
29.1155
 21
238.652
  0
LINE
  8
0
 10
29.1155
 20
238.652
 11
28.9377
 21
238.522
  0
LINE
  8
0
 10
28.9377
 20
238.522
 11
28.7451
 21
238.417
  0
LINE
  8
0
 10
28.7451
 20
238.417
 11
28.5408
 21
238.336
  0
LINE
  8
0
 10
28.5408
 20
238.336
 11
28.3279
 21
238.281
  0
LINE
  8
0
 10
28.3279
 20
238.281
 11
28.1099
 21
238.253
  0
LINE
  8
0
 10
28.1099
 20
238.253
 11
27.8901
 21
238.253
  0
LINE
  8
0
 10
87.8901
 20
238.253
 11
87.6721
 21
238.281
  0
LINE
  8
0
 10
87.6721
 20
238.281
 11
87.4592
 21
238.336
  0
LINE
  8
0
 10
87.4592
 20
238.336
 11
87.2549
 21
238.417
  0
LINE
  8
0
 10
87.2549
 20
238.417
 11
87.0623
 21
238.522
  0
LINE
  8
0
 10
87.0623
 20
238.522
 11
86.8845
 21
238.652
  0
LINE
  8
0
 10
86.8845
 20
238.652
 11
86.7243
 21
238.802
  0
LINE
  8
0
 10
86.7243
 20
238.802
 11
86.5842
 21
238.971
  0
LINE
  8
0
 10
86.5842
 20
238.971
 11
86.4665
 21
239.157
  0
LINE
  8
0
 10
86.4665
 20
239.157
 11
86.3729
 21
239.356
  0
LINE
  8
0
 10
86.3729
 20
239.356
 11
86.305
 21
239.565
  0
LINE
  8
0
 10
86.305
 20
239.565
 11
86.2638
 21
239.781
  0
LINE
  8
0
 10
86.2638
 20
239.781
 11
86.25
 21
240
  0
LINE
  8
0
 10
86.25
 20
240
 11
86.2638
 21
240.219
  0
LINE
  8
0
 10
86.2638
 20
240.219
 11
86.305
 21
240.435
  0
LINE
  8
0
 10
86.305
 20
240.435
 11
86.3729
 21
240.644
  0
LINE
  8
0
 10
86.3729
 20
240.644
 11
86.4665
 21
240.843
  0
LINE
  8
0
 10
86.4665
 20
240.843
 11
86.5842
 21
241.029
  0
LINE
  8
0
 10
86.5842
 20
241.029
 11
86.7243
 21
241.198
  0
LINE
  8
0
 10
86.7243
 20
241.198
 11
86.8845
 21
241.348
  0
LINE
  8
0
 10
86.8845
 20
241.348
 11
87.0623
 21
241.478
  0
LINE
  8
0
 10
87.0623
 20
241.478
 11
87.2549
 21
241.583
  0
LINE
  8
0
 10
87.2549
 20
241.583
 11
87.4592
 21
241.664
  0
LINE
  8
0
 10
87.4592
 20
241.664
 11
87.6721
 21
241.719
  0
LINE
  8
0
 10
87.6721
 20
241.719
 11
87.8901
 21
241.747
  0
LINE
  8
0
 10
87.8901
 20
241.747
 11
88.1099
 21
241.747
  0
LINE
  8
0
 10
88.1099
 20
241.747
 11
88.3279
 21
241.719
  0
LINE
  8
0
 10
88.3279
 20
241.719
 11
88.5408
 21
241.664
  0
LINE
  8
0
 10
88.5408
 20
241.664
 11
88.7451
 21
241.583
  0
LINE
  8
0
 10
88.7451
 20
241.583
 11
88.9377
 21
241.478
  0
LINE
  8
0
 10
88.9377
 20
241.478
 11
89.1155
 21
241.348
  0
LINE
  8
0
 10
89.1155
 20
241.348
 11
89.2757
 21
241.198
  0
LINE
  8
0
 10
89.2757
 20
241.198
 11
89.4158
 21
241.029
  0
LINE
  8
0
 10
89.4158
 20
241.029
 11
89.5335
 21
240.843
  0
LINE
  8
0
 10
89.5335
 20
240.843
 11
89.6271
 21
240.644
  0
LINE
  8
0
 10
89.6271
 20
240.644
 11
89.695
 21
240.435
  0
LINE
  8
0
 10
89.695
 20
240.435
 11
89.7362
 21
240.219
  0
LINE
  8
0
 10
89.7362
 20
240.219
 11
89.75
 21
240
  0
LINE
  8
0
 10
89.75
 20
240
 11
89.7362
 21
239.781
  0
LINE
  8
0
 10
89.7362
 20
239.781
 11
89.695
 21
239.565
  0
LINE
  8
0
 10
89.695
 20
239.565
 11
89.6271
 21
239.356
  0
LINE
  8
0
 10
89.6271
 20
239.356
 11
89.5335
 21
239.157
  0
LINE
  8
0
 10
89.5335
 20
239.157
 11
89.4158
 21
238.971
  0
LINE
  8
0
 10
89.4158
 20
238.971
 11
89.2757
 21
238.802
  0
LINE
  8
0
 10
89.2757
 20
238.802
 11
89.1155
 21
238.652
  0
LINE
  8
0
 10
89.1155
 20
238.652
 11
88.9377
 21
238.522
  0
LINE
  8
0
 10
88.9377
 20
238.522
 11
88.7451
 21
238.417
  0
LINE
  8
0
 10
88.7451
 20
238.417
 11
88.5408
 21
238.336
  0
LINE
  8
0
 10
88.5408
 20
238.336
 11
88.3279
 21
238.281
  0
LINE
  8
0
 10
88.3279
 20
238.281
 11
88.1099
 21
238.253
  0
LINE
  8
0
 10
88.1099
 20
238.253
 11
87.8901
 21
238.253
  0
LINE
  8
0
 10
-90.4693
 20
196.514
 11
-90.6852
 21
196.555
  0
LINE
  8
0
 10
-90.6852
 20
196.555
 11
-90.8942
 21
196.623
  0
LINE
  8
0
 10
-90.8942
 20
196.623
 11
-91.0931
 21
196.716
  0
LINE
  8
0
 10
-91.0931
 20
196.716
 11
-91.2786
 21
196.834
  0
LINE
  8
0
 10
-91.2786
 20
196.834
 11
-91.448
 21
196.974
  0
LINE
  8
0
 10
-91.448
 20
196.974
 11
-91.5984
 21
197.135
  0
LINE
  8
0
 10
-91.5984
 20
197.135
 11
-91.7276
 21
197.312
  0
LINE
  8
0
 10
-91.7276
 20
197.312
 11
-91.8334
 21
197.505
  0
LINE
  8
0
 10
-91.8334
 20
197.505
 11
-91.9143
 21
197.709
  0
LINE
  8
0
 10
-91.9143
 20
197.709
 11
-91.969
 21
197.922
  0
LINE
  8
0
 10
-91.969
 20
197.922
 11
-91.9965
 21
198.14
  0
LINE
  8
0
 10
-91.9965
 20
198.14
 11
-91.9965
 21
198.36
  0
LINE
  8
0
 10
-91.9965
 20
198.36
 11
-91.969
 21
198.578
  0
LINE
  8
0
 10
-91.969
 20
198.578
 11
-91.9143
 21
198.791
  0
LINE
  8
0
 10
-91.9143
 20
198.791
 11
-91.8334
 21
198.995
  0
LINE
  8
0
 10
-91.8334
 20
198.995
 11
-91.7276
 21
199.188
  0
LINE
  8
0
 10
-91.7276
 20
199.188
 11
-91.5984
 21
199.365
  0
LINE
  8
0
 10
-91.5984
 20
199.365
 11
-91.448
 21
199.526
  0
LINE
  8
0
 10
-91.448
 20
199.526
 11
-91.2786
 21
199.666
  0
LINE
  8
0
 10
-91.2786
 20
199.666
 11
-91.0931
 21
199.784
  0
LINE
  8
0
 10
-91.0931
 20
199.784
 11
-90.8942
 21
199.877
  0
LINE
  8
0
 10
-90.8942
 20
199.877
 11
-90.6852
 21
199.945
  0
LINE
  8
0
 10
-90.6852
 20
199.945
 11
-90.4693
 21
199.986
  0
LINE
  8
0
 10
-90.4693
 20
199.986
 11
-90.25
 21
200
  0
LINE
  8
0
 10
-90.25
 20
200
 11
-90.0307
 21
199.986
  0
LINE
  8
0
 10
-90.0307
 20
199.986
 11
-89.8148
 21
199.945
  0
LINE
  8
0
 10
-89.8148
 20
199.945
 11
-89.6058
 21
199.877
  0
LINE
  8
0
 10
-89.6058
 20
199.877
 11
-89.4069
 21
199.784
  0
LINE
  8
0
 10
-89.4069
 20
199.784
 11
-89.2214
 21
199.666
  0
LINE
  8
0
 10
-89.2214
 20
199.666
 11
-89.052
 21
199.526
  0
LINE
  8
0
 10
-89.052
 20
199.526
 11
-88.9016
 21
199.365
  0
LINE
  8
0
 10
-88.9016
 20
199.365
 11
-88.7724
 21
199.188
  0
LINE
  8
0
 10
-88.7724
 20
199.188
 11
-88.6665
 21
198.995
  0
LINE
  8
0
 10
-88.6665
 20
198.995
 11
-88.5856
 21
198.791
  0
LINE
  8
0
 10
-88.5856
 20
198.791
 11
-88.531
 21
198.578
  0
LINE
  8
0
 10
-88.531
 20
198.578
 11
-88.5034
 21
198.36
  0
LINE
  8
0
 10
-88.5034
 20
198.36
 11
-88.5034
 21
198.14
  0
LINE
  8
0
 10
-88.5034
 20
198.14
 11
-88.531
 21
197.922
  0
LINE
  8
0
 10
-88.531
 20
197.922
 11
-88.5856
 21
197.709
  0
LINE
  8
0
 10
-88.5856
 20
197.709
 11
-88.6665
 21
197.505
  0
LINE
  8
0
 10
-88.6665
 20
197.505
 11
-88.7724
 21
197.312
  0
LINE
  8
0
 10
-88.7724
 20
197.312
 11
-88.9016
 21
197.135
  0
LINE
  8
0
 10
-88.9016
 20
197.135
 11
-89.052
 21
196.974
  0
LINE
  8
0
 10
-89.052
 20
196.974
 11
-89.2214
 21
196.834
  0
LINE
  8
0
 10
-89.2214
 20
196.834
 11
-89.4069
 21
196.716
  0
LINE
  8
0
 10
-89.4069
 20
196.716
 11
-89.6058
 21
196.623
  0
LINE
  8
0
 10
-89.6058
 20
196.623
 11
-89.8148
 21
196.555
  0
LINE
  8
0
 10
-89.8148
 20
196.555
 11
-90.0307
 21
196.514
  0
LINE
  8
0
 10
-90.0307
 20
196.514
 11
-90.25
 21
196.5
  0
LINE
  8
0
 10
-90.25
 20
196.5
 11
-90.4693
 21
196.514
  0
LINE
  8
0
 10
-69.9693
 20
196.514
 11
-70.1852
 21
196.555
  0
LINE
  8
0
 10
-70.1852
 20
196.555
 11
-70.3942
 21
196.623
  0
LINE
  8
0
 10
-70.3942
 20
196.623
 11
-70.5931
 21
196.716
  0
LINE
  8
0
 10
-70.5931
 20
196.716
 11
-70.7786
 21
196.834
  0
LINE
  8
0
 10
-70.7786
 20
196.834
 11
-70.948
 21
196.974
  0
LINE
  8
0
 10
-70.948
 20
196.974
 11
-71.0984
 21
197.135
  0
LINE
  8
0
 10
-71.0984
 20
197.135
 11
-71.2276
 21
197.312
  0
LINE
  8
0
 10
-71.2276
 20
197.312
 11
-71.3335
 21
197.505
  0
LINE
  8
0
 10
-71.3335
 20
197.505
 11
-71.4144
 21
197.709
  0
LINE
  8
0
 10
-71.4144
 20
197.709
 11
-71.469
 21
197.922
  0
LINE
  8
0
 10
-71.469
 20
197.922
 11
-71.4966
 21
198.14
  0
LINE
  8
0
 10
-71.4966
 20
198.14
 11
-71.4966
 21
198.36
  0
LINE
  8
0
 10
-71.4966
 20
198.36
 11
-71.469
 21
198.578
  0
LINE
  8
0
 10
-71.469
 20
198.578
 11
-71.4144
 21
198.791
  0
LINE
  8
0
 10
-71.4144
 20
198.791
 11
-71.3335
 21
198.995
  0
LINE
  8
0
 10
-71.3335
 20
198.995
 11
-71.2276
 21
199.188
  0
LINE
  8
0
 10
-71.2276
 20
199.188
 11
-71.0984
 21
199.365
  0
LINE
  8
0
 10
-71.0984
 20
199.365
 11
-70.948
 21
199.526
  0
LINE
  8
0
 10
-70.948
 20
199.526
 11
-70.7786
 21
199.666
  0
LINE
  8
0
 10
-70.7786
 20
199.666
 11
-70.5931
 21
199.784
  0
LINE
  8
0
 10
-70.5931
 20
199.784
 11
-70.3942
 21
199.877
  0
LINE
  8
0
 10
-70.3942
 20
199.877
 11
-70.1852
 21
199.945
  0
LINE
  8
0
 10
-70.1852
 20
199.945
 11
-69.9693
 21
199.986
  0
LINE
  8
0
 10
-69.9693
 20
199.986
 11
-69.75
 21
200
  0
LINE
  8
0
 10
-69.75
 20
200
 11
-69.5307
 21
199.986
  0
LINE
  8
0
 10
-69.5307
 20
199.986
 11
-69.3148
 21
199.945
  0
LINE
  8
0
 10
-69.3148
 20
199.945
 11
-69.1058
 21
199.877
  0
LINE
  8
0
 10
-69.1058
 20
199.877
 11
-68.9069
 21
199.784
  0
LINE
  8
0
 10
-68.9069
 20
199.784
 11
-68.7214
 21
199.666
  0
LINE
  8
0
 10
-68.7214
 20
199.666
 11
-68.552
 21
199.526
  0
LINE
  8
0
 10
-68.552
 20
199.526
 11
-68.4016
 21
199.365
  0
LINE
  8
0
 10
-68.4016
 20
199.365
 11
-68.2724
 21
199.188
  0
LINE
  8
0
 10
-68.2724
 20
199.188
 11
-68.1666
 21
198.995
  0
LINE
  8
0
 10
-68.1666
 20
198.995
 11
-68.0857
 21
198.791
  0
LINE
  8
0
 10
-68.0857
 20
198.791
 11
-68.031
 21
198.578
  0
LINE
  8
0
 10
-68.031
 20
198.578
 11
-68.0035
 21
198.36
  0
LINE
  8
0
 10
-68.0035
 20
198.36
 11
-68.0035
 21
198.14
  0
LINE
  8
0
 10
-68.0035
 20
198.14
 11
-68.031
 21
197.922
  0
LINE
  8
0
 10
-68.031
 20
197.922
 11
-68.0857
 21
197.709
  0
LINE
  8
0
 10
-68.0857
 20
197.709
 11
-68.1666
 21
197.505
  0
LINE
  8
0
 10
-68.1666
 20
197.505
 11
-68.2724
 21
197.312
  0
LINE
  8
0
 10
-68.2724
 20
197.312
 11
-68.4016
 21
197.135
  0
LINE
  8
0
 10
-68.4016
 20
197.135
 11
-68.552
 21
196.974
  0
LINE
  8
0
 10
-68.552
 20
196.974
 11
-68.7214
 21
196.834
  0
LINE
  8
0
 10
-68.7214
 20
196.834
 11
-68.9069
 21
196.716
  0
LINE
  8
0
 10
-68.9069
 20
196.716
 11
-69.1058
 21
196.623
  0
LINE
  8
0
 10
-69.1058
 20
196.623
 11
-69.3148
 21
196.555
  0
LINE
  8
0
 10
-69.3148
 20
196.555
 11
-69.5307
 21
196.514
  0
LINE
  8
0
 10
-69.5307
 20
196.514
 11
-69.75
 21
196.5
  0
LINE
  8
0
 10
-69.75
 20
196.5
 11
-69.9693
 21
196.514
  0
LINE
  8
0
 10
-72.4199
 20
135.008
 11
-73.2793
 21
135.049
  0
LINE
  8
0
 10
-73.2793
 20
135.049
 11
-74.1362
 21
135.125
  0
LINE
  8
0
 10
-74.1362
 20
135.125
 11
-74.9895
 21
135.236
  0
LINE
  8
0
 10
-74.9895
 20
135.236
 11
-75.8374
 21
135.382
  0
LINE
  8
0
 10
-75.8374
 20
135.382
 11
-76.6787
 21
135.562
  0
LINE
  8
0
 10
-76.6787
 20
135.562
 11
-77.512
 21
135.776
  0
LINE
  8
0
 10
-77.512
 20
135.776
 11
-78.3359
 21
136.024
  0
LINE
  8
0
 10
-78.3359
 20
136.024
 11
-79.1492
 21
136.305
  0
LINE
  8
0
 10
-79.1492
 20
136.305
 11
-79.9504
 21
136.618
  0
LINE
  8
0
 10
-79.9504
 20
136.618
 11
-80.7383
 21
136.964
  0
LINE
  8
0
 10
-80.7383
 20
136.964
 11
-81.5112
 21
137.342
  0
LINE
  8
0
 10
-81.5112
 20
137.342
 11
-81.5691
 21
137.376
  0
LINE
  8
0
 10
-81.5691
 20
137.376
 11
-81.6221
 21
137.417
  0
LINE
  8
0
 10
-81.6221
 20
137.417
 11
-81.6702
 21
137.464
  0
LINE
  8
0
 10
-81.6702
 20
137.464
 11
-81.7124
 21
137.516
  0
LINE
  8
0
 10
-81.7124
 20
137.516
 11
-81.7485
 21
137.573
  0
LINE
  8
0
 10
-81.7485
 20
137.573
 11
-81.7781
 21
137.633
  0
LINE
  8
0
 10
-81.7781
 20
137.633
 11
-81.8003
 21
137.697
  0
LINE
  8
0
 10
-81.8003
 20
137.697
 11
-81.8147
 21
137.762
  0
LINE
  8
0
 10
-81.8147
 20
137.762
 11
-81.821
 21
137.829
  0
LINE
  8
0
 10
-81.821
 20
137.829
 11
-81.8191
 21
137.896
  0
LINE
  8
0
 10
-81.8191
 20
137.896
 11
-81.8096
 21
137.963
  0
LINE
  8
0
 10
-81.8096
 20
137.963
 11
-81.7925
 21
138.028
  0
LINE
  8
0
 10
-81.7925
 20
138.028
 11
-81.7681
 21
138.09
  0
LINE
  8
0
 10
-81.7681
 20
138.09
 11
-81.7366
 21
138.149
  0
LINE
  8
0
 10
-81.7366
 20
138.149
 11
-81.6985
 21
138.205
  0
LINE
  8
0
 10
-81.6985
 20
138.205
 11
-81.6541
 21
138.255
  0
LINE
  8
0
 10
-81.6541
 20
138.255
 11
-77.7625
 21
142.147
  0
LINE
  8
0
 10
-77.7625
 20
142.147
 11
-77.7
 21
142.2
  0
LINE
  8
0
 10
-77.7
 20
142.2
 11
-77.6306
 21
142.244
  0
LINE
  8
0
 10
-77.6306
 20
142.244
 11
-77.5554
 21
142.277
  0
LINE
  8
0
 10
-77.5554
 20
142.277
 11
-77.4763
 21
142.3
  0
LINE
  8
0
 10
-77.4763
 20
142.3
 11
-77.395
 21
142.311
  0
LINE
  8
0
 10
-77.395
 20
142.311
 11
-77.313
 21
142.312
  0
LINE
  8
0
 10
-77.313
 20
142.312
 11
-77.2317
 21
142.3
  0
LINE
  8
0
 10
-77.2317
 20
142.3
 11
-77.1531
 21
142.277
  0
LINE
  8
0
 10
-77.1531
 20
142.277
 11
-76.8457
 21
142.163
  0
LINE
  8
0
 10
-76.8457
 20
142.163
 11
-76.5359
 21
142.056
  0
LINE
  8
0
 10
-76.5359
 20
142.056
 11
-76.2236
 21
141.956
  0
LINE
  8
0
 10
-76.2236
 20
141.956
 11
-75.9094
 21
141.862
  0
LINE
  8
0
 10
-75.9094
 20
141.862
 11
-75.5933
 21
141.776
  0
LINE
  8
0
 10
-75.5933
 20
141.776
 11
-75.2751
 21
141.697
  0
LINE
  8
0
 10
-75.2751
 20
141.697
 11
-74.9556
 21
141.624
  0
LINE
  8
0
 10
-74.9556
 20
141.624
 11
-74.6343
 21
141.559
  0
LINE
  8
0
 10
-74.6343
 20
141.559
 11
-74.5571
 21
141.538
  0
LINE
  8
0
 10
-74.5571
 20
141.538
 11
-74.4841
 21
141.506
  0
LINE
  8
0
 10
-74.4841
 20
141.506
 11
-74.416
 21
141.465
  0
LINE
  8
0
 10
-74.416
 20
141.465
 11
-74.354
 21
141.414
  0
LINE
  8
0
 10
-74.354
 20
141.414
 11
-74.2991
 21
141.356
  0
LINE
  8
0
 10
-74.2991
 20
141.356
 11
-74.2527
 21
141.291
  0
LINE
  8
0
 10
-74.2527
 20
141.291
 11
-74.2158
 21
141.22
  0
LINE
  8
0
 10
-74.2158
 20
141.22
 11
-74.1895
 21
141.145
  0
LINE
  8
0
 10
-74.1895
 20
141.145
 11
-73.9019
 21
140.072
  0
LINE
  8
0
 10
-73.9019
 20
140.072
 11
-73.8728
 21
139.991
  0
LINE
  8
0
 10
-73.8728
 20
139.991
 11
-73.8311
 21
139.915
  0
LINE
  8
0
 10
-73.8311
 20
139.915
 11
-73.7786
 21
139.846
  0
LINE
  8
0
 10
-73.7786
 20
139.846
 11
-73.7166
 21
139.786
  0
LINE
  8
0
 10
-73.7166
 20
139.786
 11
-73.6467
 21
139.735
  0
LINE
  8
0
 10
-73.6467
 20
139.735
 11
-73.5701
 21
139.695
  0
LINE
  8
0
 10
-73.5701
 20
139.695
 11
-73.4885
 21
139.666
  0
LINE
  8
0
 10
-73.4885
 20
139.666
 11
-73.4036
 21
139.651
  0
LINE
  8
0
 10
-73.4036
 20
139.651
 11
-73.0117
 21
139.618
  0
LINE
  8
0
 10
-73.0117
 20
139.618
 11
-72.6191
 21
139.595
  0
LINE
  8
0
 10
-72.6191
 20
139.595
 11
-72.2263
 21
139.581
  0
LINE
  8
0
 10
-72.2263
 20
139.581
 11
-71.833
 21
139.577
  0
LINE
  8
0
 10
-71.833
 20
139.577
 11
-71.4399
 21
139.581
  0
LINE
  8
0
 10
-71.4399
 20
139.581
 11
-71.0469
 21
139.595
  0
LINE
  8
0
 10
-71.0469
 20
139.595
 11
-70.6545
 21
139.618
  0
LINE
  8
0
 10
-70.6545
 20
139.618
 11
-70.2627
 21
139.651
  0
LINE
  8
0
 10
-70.2627
 20
139.651
 11
-70.1775
 21
139.666
  0
LINE
  8
0
 10
-70.1775
 20
139.666
 11
-70.0959
 21
139.695
  0
LINE
  8
0
 10
-70.0959
 20
139.695
 11
-70.0195
 21
139.735
  0
LINE
  8
0
 10
-70.0195
 20
139.735
 11
-69.9495
 21
139.786
  0
LINE
  8
0
 10
-69.9495
 20
139.786
 11
-69.8875
 21
139.846
  0
LINE
  8
0
 10
-69.8875
 20
139.846
 11
-69.835
 21
139.915
  0
LINE
  8
0
 10
-69.835
 20
139.915
 11
-69.7935
 21
139.991
  0
LINE
  8
0
 10
-69.7935
 20
139.991
 11
-69.7642
 21
140.072
  0
LINE
  8
0
 10
-69.7642
 20
140.072
 11
-69.4768
 21
141.145
  0
LINE
  8
0
 10
-69.4768
 20
141.145
 11
-69.4504
 21
141.22
  0
LINE
  8
0
 10
-69.4504
 20
141.22
 11
-69.4133
 21
141.291
  0
LINE
  8
0
 10
-69.4133
 20
141.291
 11
-69.3669
 21
141.356
  0
LINE
  8
0
 10
-69.3669
 20
141.356
 11
-69.3123
 21
141.414
  0
LINE
  8
0
 10
-69.3123
 20
141.414
 11
-69.2502
 21
141.465
  0
LINE
  8
0
 10
-69.2502
 20
141.465
 11
-69.1821
 21
141.506
  0
LINE
  8
0
 10
-69.1821
 20
141.506
 11
-69.1089
 21
141.538
  0
LINE
  8
0
 10
-69.1089
 20
141.538
 11
-69.032
 21
141.559
  0
LINE
  8
0
 10
-69.032
 20
141.559
 11
-68.7683
 21
141.612
  0
LINE
  8
0
 10
-68.7683
 20
141.612
 11
-68.5056
 21
141.67
  0
LINE
  8
0
 10
-68.5056
 20
141.67
 11
-68.2439
 21
141.732
  0
LINE
  8
0
 10
-68.2439
 20
141.732
 11
-67.9834
 21
141.8
  0
LINE
  8
0
 10
-67.9834
 20
141.8
 11
-67.7241
 21
141.872
  0
LINE
  8
0
 10
-67.7241
 20
141.872
 11
-67.4663
 21
141.948
  0
LINE
  8
0
 10
-67.4663
 20
141.948
 11
-67.21
 21
142.03
  0
LINE
  8
0
 10
-67.21
 20
142.03
 11
-66.9551
 21
142.115
  0
LINE
  8
0
 10
-66.9551
 20
142.115
 11
-66.8779
 21
142.136
  0
LINE
  8
0
 10
-66.8779
 20
142.136
 11
-66.7988
 21
142.145
  0
LINE
  8
0
 10
-66.7988
 20
142.145
 11
-66.719
 21
142.143
  0
LINE
  8
0
 10
-66.719
 20
142.143
 11
-66.6399
 21
142.13
  0
LINE
  8
0
 10
-66.6399
 20
142.13
 11
-66.5635
 21
142.107
  0
LINE
  8
0
 10
-66.5635
 20
142.107
 11
-66.4907
 21
142.074
  0
LINE
  8
0
 10
-66.4907
 20
142.074
 11
-66.4236
 21
142.031
  0
LINE
  8
0
 10
-66.4236
 20
142.031
 11
-66.363
 21
141.979
  0
LINE
  8
0
 10
-66.363
 20
141.979
 11
-65.5776
 21
141.194
  0
LINE
  8
0
 10
-65.5776
 20
141.194
 11
-65.5117
 21
141.138
  0
LINE
  8
0
 10
-65.5117
 20
141.138
 11
-65.438
 21
141.094
  0
LINE
  8
0
 10
-65.438
 20
141.094
 11
-65.3582
 21
141.06
  0
LINE
  8
0
 10
-65.3582
 20
141.06
 11
-65.2742
 21
141.039
  0
LINE
  8
0
 10
-65.2742
 20
141.039
 11
-65.188
 21
141.03
  0
LINE
  8
0
 10
-65.188
 20
141.03
 11
-65.1016
 21
141.033
  0
LINE
  8
0
 10
-65.1016
 20
141.033
 11
-65.0168
 21
141.049
  0
LINE
  8
0
 10
-65.0168
 20
141.049
 11
-64.9355
 21
141.079
  0
LINE
  8
0
 10
-64.9355
 20
141.079
 11
-64.5798
 21
141.246
  0
LINE
  8
0
 10
-64.5798
 20
141.246
 11
-64.2283
 21
141.422
  0
LINE
  8
0
 10
-64.2283
 20
141.422
 11
-63.8809
 21
141.607
  0
LINE
  8
0
 10
-63.8809
 20
141.607
 11
-63.5381
 21
141.799
  0
LINE
  8
0
 10
-63.5381
 20
141.799
 11
-63.2
 21
142
  0
LINE
  8
0
 10
-63.2
 20
142
 11
-62.8667
 21
142.208
  0
LINE
  8
0
 10
-62.8667
 20
142.208
 11
-62.5383
 21
142.425
  0
LINE
  8
0
 10
-62.5383
 20
142.425
 11
-62.2151
 21
142.649
  0
LINE
  8
0
 10
-62.2151
 20
142.649
 11
-62.1492
 21
142.705
  0
LINE
  8
0
 10
-62.1492
 20
142.705
 11
-62.0928
 21
142.77
  0
LINE
  8
0
 10
-62.0928
 20
142.77
 11
-62.0466
 21
142.844
  0
LINE
  8
0
 10
-62.0466
 20
142.844
 11
-62.0115
 21
142.923
  0
LINE
  8
0
 10
-62.0115
 20
142.923
 11
-61.988
 21
143.006
  0
LINE
  8
0
 10
-61.988
 20
143.006
 11
-61.9771
 21
143.092
  0
LINE
  8
0
 10
-61.9771
 20
143.092
 11
-61.9788
 21
143.178
  0
LINE
  8
0
 10
-61.9788
 20
143.178
 11
-61.9944
 21
143.263
  0
LINE
  8
0
 10
-61.9944
 20
143.263
 11
-62.2817
 21
144.336
  0
LINE
  8
0
 10
-62.2817
 20
144.336
 11
-62.2966
 21
144.414
  0
LINE
  8
0
 10
-62.2966
 20
144.414
 11
-62.2998
 21
144.494
  0
LINE
  8
0
 10
-62.2998
 20
144.494
 11
-62.2922
 21
144.573
  0
LINE
  8
0
 10
-62.2922
 20
144.573
 11
-62.2737
 21
144.651
  0
LINE
  8
0
 10
-62.2737
 20
144.651
 11
-62.2454
 21
144.726
  0
LINE
  8
0
 10
-62.2454
 20
144.726
 11
-62.207
 21
144.796
  0
LINE
  8
0
 10
-62.207
 20
144.796
 11
-62.1597
 21
144.86
  0
LINE
  8
0
 10
-62.1597
 20
144.86
 11
-62.1033
 21
144.917
  0
LINE
  8
0
 10
-62.1033
 20
144.917
 11
-61.9014
 21
145.094
  0
LINE
  8
0
 10
-61.9014
 20
145.094
 11
-61.7029
 21
145.276
  0
LINE
  8
0
 10
-61.7029
 20
145.276
 11
-61.5076
 21
145.461
  0
LINE
  8
0
 10
-61.5076
 20
145.461
 11
-61.3157
 21
145.649
  0
LINE
  8
0
 10
-61.3157
 20
145.649
 11
-61.1272
 21
145.841
  0
LINE
  8
0
 10
-61.1272
 20
145.841
 11
-60.9421
 21
146.037
  0
LINE
  8
0
 10
-60.9421
 20
146.037
 11
-60.7607
 21
146.235
  0
LINE
  8
0
 10
-60.7607
 20
146.235
 11
-60.583
 21
146.437
  0
LINE
  8
0
 10
-60.583
 20
146.437
 11
-60.5264
 21
146.493
  0
LINE
  8
0
 10
-60.5264
 20
146.493
 11
-60.4622
 21
146.541
  0
LINE
  8
0
 10
-60.4622
 20
146.541
 11
-60.3921
 21
146.579
  0
LINE
  8
0
 10
-60.3921
 20
146.579
 11
-60.3174
 21
146.607
  0
LINE
  8
0
 10
-60.3174
 20
146.607
 11
-60.2397
 21
146.626
  0
LINE
  8
0
 10
-60.2397
 20
146.626
 11
-60.1602
 21
146.634
  0
LINE
  8
0
 10
-60.1602
 20
146.634
 11
-60.0806
 21
146.63
  0
LINE
  8
0
 10
-60.0806
 20
146.63
 11
-60.002
 21
146.615
  0
LINE
  8
0
 10
-60.002
 20
146.615
 11
-58.9294
 21
146.328
  0
LINE
  8
0
 10
-58.9294
 20
146.328
 11
-58.8445
 21
146.313
  0
LINE
  8
0
 10
-58.8445
 20
146.313
 11
-58.7581
 21
146.311
  0
LINE
  8
0
 10
-58.7581
 20
146.311
 11
-58.6724
 21
146.322
  0
LINE
  8
0
 10
-58.6724
 20
146.322
 11
-58.5891
 21
146.345
  0
LINE
  8
0
 10
-58.5891
 20
146.345
 11
-58.5098
 21
146.38
  0
LINE
  8
0
 10
-58.5098
 20
146.38
 11
-58.4365
 21
146.427
  0
LINE
  8
0
 10
-58.4365
 20
146.427
 11
-58.3713
 21
146.483
  0
LINE
  8
0
 10
-58.3713
 20
146.483
 11
-58.3154
 21
146.549
  0
LINE
  8
0
 10
-58.3154
 20
146.549
 11
-58.0913
 21
146.872
  0
LINE
  8
0
 10
-58.0913
 20
146.872
 11
-57.875
 21
147.2
  0
LINE
  8
0
 10
-57.875
 20
147.2
 11
-57.6663
 21
147.534
  0
LINE
  8
0
 10
-57.6663
 20
147.534
 11
-57.4658
 21
147.872
  0
LINE
  8
0
 10
-57.4658
 20
147.872
 11
-57.2732
 21
148.215
  0
LINE
  8
0
 10
-57.2732
 20
148.215
 11
-57.0889
 21
148.562
  0
LINE
  8
0
 10
-57.0889
 20
148.562
 11
-56.9126
 21
148.914
  0
LINE
  8
0
 10
-56.9126
 20
148.914
 11
-56.7449
 21
149.27
  0
LINE
  8
0
 10
-56.7449
 20
149.27
 11
-56.7156
 21
149.351
  0
LINE
  8
0
 10
-56.7156
 20
149.351
 11
-56.6995
 21
149.436
  0
LINE
  8
0
 10
-56.6995
 20
149.436
 11
-56.696
 21
149.522
  0
LINE
  8
0
 10
-56.696
 20
149.522
 11
-56.7053
 21
149.608
  0
LINE
  8
0
 10
-56.7053
 20
149.608
 11
-56.7266
 21
149.692
  0
LINE
  8
0
 10
-56.7266
 20
149.692
 11
-56.76
 21
149.772
  0
LINE
  8
0
 10
-56.76
 20
149.772
 11
-56.8047
 21
149.846
  0
LINE
  8
0
 10
-56.8047
 20
149.846
 11
-56.8606
 21
149.912
  0
LINE
  8
0
 10
-56.8606
 20
149.912
 11
-57.6462
 21
150.696
  0
LINE
  8
0
 10
-57.6462
 20
150.696
 11
-57.6982
 21
150.757
  0
LINE
  8
0
 10
-57.6982
 20
150.757
 11
-57.741
 21
150.824
  0
LINE
  8
0
 10
-57.741
 20
150.824
 11
-57.7739
 21
150.897
  0
LINE
  8
0
 10
-57.7739
 20
150.897
 11
-57.7969
 21
150.973
  0
LINE
  8
0
 10
-57.7969
 20
150.973
 11
-57.8096
 21
151.052
  0
LINE
  8
0
 10
-57.8096
 20
151.052
 11
-57.8115
 21
151.132
  0
LINE
  8
0
 10
-57.8115
 20
151.132
 11
-57.8025
 21
151.211
  0
LINE
  8
0
 10
-57.8025
 20
151.211
 11
-57.782
 21
151.289
  0
LINE
  8
0
 10
-57.782
 20
151.289
 11
-57.696
 21
151.543
  0
LINE
  8
0
 10
-57.696
 20
151.543
 11
-57.6147
 21
151.8
  0
LINE
  8
0
 10
-57.6147
 20
151.8
 11
-57.5383
 21
152.058
  0
LINE
  8
0
 10
-57.5383
 20
152.058
 11
-57.4663
 21
152.317
  0
LINE
  8
0
 10
-57.4663
 20
152.317
 11
-57.3989
 21
152.577
  0
LINE
  8
0
 10
-57.3989
 20
152.577
 11
-57.3364
 21
152.839
  0
LINE
  8
0
 10
-57.3364
 20
152.839
 11
-57.2786
 21
153.102
  0
LINE
  8
0
 10
-57.2786
 20
153.102
 11
-57.2256
 21
153.365
  0
LINE
  8
0
 10
-57.2256
 20
153.365
 11
-57.2048
 21
153.443
  0
LINE
  8
0
 10
-57.2048
 20
153.443
 11
-57.1731
 21
153.516
  0
LINE
  8
0
 10
-57.1731
 20
153.516
 11
-57.1313
 21
153.584
  0
LINE
  8
0
 10
-57.1313
 20
153.584
 11
-57.0811
 21
153.646
  0
LINE
  8
0
 10
-57.0811
 20
153.646
 11
-57.0227
 21
153.701
  0
LINE
  8
0
 10
-57.0227
 20
153.701
 11
-56.9578
 21
153.747
  0
LINE
  8
0
 10
-56.9578
 20
153.747
 11
-56.8872
 21
153.784
  0
LINE
  8
0
 10
-56.8872
 20
153.784
 11
-56.812
 21
153.81
  0
LINE
  8
0
 10
-56.812
 20
153.81
 11
-55.739
 21
154.098
  0
LINE
  8
0
 10
-55.739
 20
154.098
 11
-55.6577
 21
154.127
  0
LINE
  8
0
 10
-55.6577
 20
154.127
 11
-55.582
 21
154.169
  0
LINE
  8
0
 10
-55.582
 20
154.169
 11
-55.5134
 21
154.221
  0
LINE
  8
0
 10
-55.5134
 20
154.221
 11
-55.4529
 21
154.283
  0
LINE
  8
0
 10
-55.4529
 20
154.283
 11
-55.4019
 21
154.353
  0
LINE
  8
0
 10
-55.4019
 20
154.353
 11
-55.3616
 21
154.43
  0
LINE
  8
0
 10
-55.3616
 20
154.43
 11
-55.333
 21
154.511
  0
LINE
  8
0
 10
-55.333
 20
154.511
 11
-55.3179
 21
154.596
  0
LINE
  8
0
 10
-55.3179
 20
154.596
 11
-55.2852
 21
154.988
  0
LINE
  8
0
 10
-55.2852
 20
154.988
 11
-55.262
 21
155.381
  0
LINE
  8
0
 10
-55.262
 20
155.381
 11
-55.248
 21
155.774
  0
LINE
  8
0
 10
-55.248
 20
155.774
 11
-55.2434
 21
156.167
  0
LINE
  8
0
 10
-55.2434
 20
156.167
 11
-55.248
 21
156.56
  0
LINE
  8
0
 10
-55.248
 20
156.56
 11
-55.262
 21
156.953
  0
LINE
  8
0
 10
-55.262
 20
156.953
 11
-55.2852
 21
157.345
  0
LINE
  8
0
 10
-55.2852
 20
157.345
 11
-55.3179
 21
157.737
  0
LINE
  8
0
 10
-55.3179
 20
157.737
 11
-55.333
 21
157.823
  0
LINE
  8
0
 10
-55.333
 20
157.823
 11
-55.3616
 21
157.904
  0
LINE
  8
0
 10
-55.3616
 20
157.904
 11
-55.4019
 21
157.98
  0
LINE
  8
0
 10
-55.4019
 20
157.98
 11
-55.4529
 21
158.051
  0
LINE
  8
0
 10
-55.4529
 20
158.051
 11
-55.5134
 21
158.112
  0
LINE
  8
0
 10
-55.5134
 20
158.112
 11
-55.582
 21
158.165
  0
LINE
  8
0
 10
-55.582
 20
158.165
 11
-55.6577
 21
158.207
  0
LINE
  8
0
 10
-55.6577
 20
158.207
 11
-55.739
 21
158.236
  0
LINE
  8
0
 10
-55.739
 20
158.236
 11
-56.812
 21
158.523
  0
LINE
  8
0
 10
-56.812
 20
158.523
 11
-56.8872
 21
158.55
  0
LINE
  8
0
 10
-56.8872
 20
158.55
 11
-56.9578
 21
158.586
  0
LINE
  8
0
 10
-56.9578
 20
158.586
 11
-57.0227
 21
158.633
  0
LINE
  8
0
 10
-57.0227
 20
158.633
 11
-57.0811
 21
158.688
  0
LINE
  8
0
 10
-57.0811
 20
158.688
 11
-57.1313
 21
158.75
  0
LINE
  8
0
 10
-57.1313
 20
158.75
 11
-57.1731
 21
158.818
  0
LINE
  8
0
 10
-57.1731
 20
158.818
 11
-57.2048
 21
158.891
  0
LINE
  8
0
 10
-57.2048
 20
158.891
 11
-57.2256
 21
158.968
  0
LINE
  8
0
 10
-57.2256
 20
158.968
 11
-57.3091
 21
159.373
  0
LINE
  8
0
 10
-57.3091
 20
159.373
 11
-57.4036
 21
159.774
  0
LINE
  8
0
 10
-57.4036
 20
159.774
 11
-57.5093
 21
160.173
  0
LINE
  8
0
 10
-57.5093
 20
160.173
 11
-57.626
 21
160.569
  0
LINE
  8
0
 10
-57.626
 20
160.569
 11
-57.7537
 21
160.962
  0
LINE
  8
0
 10
-57.7537
 20
160.962
 11
-57.8923
 21
161.351
  0
LINE
  8
0
 10
-57.8923
 20
161.351
 11
-58.0415
 21
161.736
  0
LINE
  8
0
 10
-58.0415
 20
161.736
 11
-58.2014
 21
162.117
  0
LINE
  8
0
 10
-58.2014
 20
162.117
 11
-58.2402
 21
162.189
  0
LINE
  8
0
 10
-58.2402
 20
162.189
 11
-58.2896
 21
162.256
  0
LINE
  8
0
 10
-58.2896
 20
162.256
 11
-58.3479
 21
162.314
  0
LINE
  8
0
 10
-58.3479
 20
162.314
 11
-58.4138
 21
162.364
  0
LINE
  8
0
 10
-58.4138
 20
162.364
 11
-58.4858
 21
162.405
  0
LINE
  8
0
 10
-58.4858
 20
162.405
 11
-58.5627
 21
162.435
  0
LINE
  8
0
 10
-58.5627
 20
162.435
 11
-58.6433
 21
162.453
  0
LINE
  8
0
 10
-58.6433
 20
162.453
 11
-58.7256
 21
162.46
  0
LINE
  8
0
 10
-58.7256
 20
162.46
 11
-61.6631
 21
162.46
  0
LINE
  8
0
 10
-61.6631
 20
162.46
 11
-61.7192
 21
162.457
  0
LINE
  8
0
 10
-61.7192
 20
162.457
 11
-61.7747
 21
162.448
  0
LINE
  8
0
 10
-61.7747
 20
162.448
 11
-61.8289
 21
162.435
  0
LINE
  8
0
 10
-61.8289
 20
162.435
 11
-61.8818
 21
162.416
  0
LINE
  8
0
 10
-61.8818
 20
162.416
 11
-61.9324
 21
162.392
  0
LINE
  8
0
 10
-61.9324
 20
162.392
 11
-61.9807
 21
162.363
  0
LINE
  8
0
 10
-61.9807
 20
162.363
 11
-62.0259
 21
162.33
  0
LINE
  8
0
 10
-62.0259
 20
162.33
 11
-62.0674
 21
162.292
  0
LINE
  8
0
 10
-62.0674
 20
162.292
 11
-63.136
 21
161.224
  0
LINE
  8
0
 10
-63.136
 20
161.224
 11
-62.5288
 21
160.617
  0
LINE
  8
0
 10
-62.5288
 20
160.617
 11
-62.4392
 21
160.543
  0
LINE
  8
0
 10
-62.4392
 20
160.543
 11
-62.3396
 21
160.491
  0
LINE
  8
0
 10
-62.3396
 20
160.491
 11
-62.2336
 21
160.46
  0
LINE
  8
0
 10
-62.2336
 20
160.46
 11
-62.1243
 21
160.449
  0
LINE
  8
0
 10
-62.1243
 20
160.449
 11
-62.0151
 21
160.46
  0
LINE
  8
0
 10
-62.0151
 20
160.46
 11
-61.9092
 21
160.491
  0
LINE
  8
0
 10
-61.9092
 20
160.491
 11
-61.8096
 21
160.543
  0
LINE
  8
0
 10
-61.8096
 20
160.543
 11
-61.6301
 21
160.69
  0
LINE
  8
0
 10
-61.6301
 20
160.69
 11
-61.5308
 21
160.742
  0
LINE
  8
0
 10
-61.5308
 20
160.742
 11
-61.4246
 21
160.774
  0
LINE
  8
0
 10
-61.4246
 20
160.774
 11
-61.3154
 21
160.784
  0
LINE
  8
0
 10
-61.3154
 20
160.784
 11
-61.2061
 21
160.774
  0
LINE
  8
0
 10
-61.2061
 20
160.774
 11
-61.1001
 21
160.742
  0
LINE
  8
0
 10
-61.1001
 20
160.742
 11
-61.0005
 21
160.69
  0
LINE
  8
0
 10
-61.0005
 20
160.69
 11
-60.9106
 21
160.617
  0
LINE
  8
0
 10
-60.9106
 20
160.617
 11
-56.8655
 21
156.571
  0
LINE
  8
0
 10
-56.8655
 20
156.571
 11
-56.7922
 21
156.481
  0
LINE
  8
0
 10
-56.7922
 20
156.481
 11
-56.7397
 21
156.382
  0
LINE
  8
0
 10
-56.7397
 20
156.382
 11
-56.7083
 21
156.276
  0
LINE
  8
0
 10
-56.7083
 20
156.276
 11
-56.698
 21
156.167
  0
LINE
  8
0
 10
-56.698
 20
156.167
 11
-56.7083
 21
156.057
  0
LINE
  8
0
 10
-56.7083
 20
156.057
 11
-56.7397
 21
155.951
  0
LINE
  8
0
 10
-56.7397
 20
155.951
 11
-56.7922
 21
155.852
  0
LINE
  8
0
 10
-56.7922
 20
155.852
 11
-56.8655
 21
155.762
  0
LINE
  8
0
 10
-56.8655
 20
155.762
 11
-61.3154
 21
151.312
  0
LINE
  8
0
 10
-61.3154
 20
151.312
 11
-61.405
 21
151.239
  0
LINE
  8
0
 10
-61.405
 20
151.239
 11
-61.5046
 21
151.186
  0
LINE
  8
0
 10
-61.5046
 20
151.186
 11
-61.6106
 21
151.155
  0
LINE
  8
0
 10
-61.6106
 20
151.155
 11
-61.72
 21
151.144
  0
LINE
  8
0
 10
-61.72
 20
151.144
 11
-61.8291
 21
151.155
  0
LINE
  8
0
 10
-61.8291
 20
151.155
 11
-61.9353
 21
151.186
  0
LINE
  8
0
 10
-61.9353
 20
151.186
 11
-62.0347
 21
151.239
  0
LINE
  8
0
 10
-62.0347
 20
151.239
 11
-62.1245
 21
151.312
  0
LINE
  8
0
 10
-62.1245
 20
151.312
 11
-66.1697
 21
155.357
  0
LINE
  8
0
 10
-66.1697
 20
155.357
 11
-66.2432
 21
155.447
  0
LINE
  8
0
 10
-66.2432
 20
155.447
 11
-66.2954
 21
155.547
  0
LINE
  8
0
 10
-66.2954
 20
155.547
 11
-66.3269
 21
155.653
  0
LINE
  8
0
 10
-66.3269
 20
155.653
 11
-66.3374
 21
155.762
  0
LINE
  8
0
 10
-66.3374
 20
155.762
 11
-66.3269
 21
155.871
  0
LINE
  8
0
 10
-66.3269
 20
155.871
 11
-66.2954
 21
155.977
  0
LINE
  8
0
 10
-66.2954
 20
155.977
 11
-66.2432
 21
156.077
  0
LINE
  8
0
 10
-66.2432
 20
156.077
 11
-66.0964
 21
156.256
  0
LINE
  8
0
 10
-66.0964
 20
156.256
 11
-66.0439
 21
156.356
  0
LINE
  8
0
 10
-66.0439
 20
156.356
 11
-66.0127
 21
156.462
  0
LINE
  8
0
 10
-66.0127
 20
156.462
 11
-66.0022
 21
156.571
  0
LINE
  8
0
 10
-66.0022
 20
156.571
 11
-66.0127
 21
156.68
  0
LINE
  8
0
 10
-66.0127
 20
156.68
 11
-66.0439
 21
156.787
  0
LINE
  8
0
 10
-66.0439
 20
156.787
 11
-66.0964
 21
156.886
  0
LINE
  8
0
 10
-66.0964
 20
156.886
 11
-66.1697
 21
156.976
  0
LINE
  8
0
 10
-66.1697
 20
156.976
 11
-66.3721
 21
157.178
  0
LINE
  8
0
 10
-66.3721
 20
157.178
 11
-66.4619
 21
157.251
  0
LINE
  8
0
 10
-66.4619
 20
157.251
 11
-66.5613
 21
157.303
  0
LINE
  8
0
 10
-66.5613
 20
157.303
 11
-66.6672
 21
157.335
  0
LINE
  8
0
 10
-66.6672
 20
157.335
 11
-66.7766
 21
157.345
  0
LINE
  8
0
 10
-66.7766
 20
157.345
 11
-66.886
 21
157.335
  0
LINE
  8
0
 10
-66.886
 20
157.335
 11
-66.9919
 21
157.303
  0
LINE
  8
0
 10
-66.9919
 20
157.303
 11
-67.0916
 21
157.251
  0
LINE
  8
0
 10
-67.0916
 20
157.251
 11
-67.1812
 21
157.178
  0
LINE
  8
0
 10
-67.1812
 20
157.178
 11
-67.3521
 21
157.007
  0
LINE
  8
0
 10
-67.3521
 20
157.007
 11
-67.4021
 21
156.95
  0
LINE
  8
0
 10
-67.4021
 20
156.95
 11
-67.4436
 21
156.887
  0
LINE
  8
0
 10
-67.4436
 20
156.887
 11
-67.4766
 21
156.821
  0
LINE
  8
0
 10
-67.4766
 20
156.821
 11
-67.5002
 21
156.75
  0
LINE
  8
0
 10
-67.5002
 20
156.75
 11
-67.5146
 21
156.678
  0
LINE
  8
0
 10
-67.5146
 20
156.678
 11
-67.5198
 21
156.604
  0
LINE
  8
0
 10
-67.5198
 20
156.604
 11
-67.5149
 21
156.529
  0
LINE
  8
0
 10
-67.5149
 20
156.529
 11
-67.5002
 21
156.454
  0
LINE
  8
0
 10
-67.5002
 20
156.454
 11
-66.0654
 21
151.099
  0
LINE
  8
0
 10
-66.0654
 20
151.099
 11
-66.0454
 21
150.942
  0
LINE
  8
0
 10
-66.0454
 20
150.942
 11
-66.0671
 21
150.794
  0
LINE
  8
0
 10
-66.0671
 20
150.794
 11
-66.125
 21
150.66
  0
LINE
  8
0
 10
-66.125
 20
150.66
 11
-66.2136
 21
150.547
  0
LINE
  8
0
 10
-66.2136
 20
150.547
 11
-66.3274
 21
150.458
  0
LINE
  8
0
 10
-66.3274
 20
150.458
 11
-66.4609
 21
150.4
  0
LINE
  8
0
 10
-66.4609
 20
150.4
 11
-66.6091
 21
150.378
  0
LINE
  8
0
 10
-66.6091
 20
150.378
 11
-66.7659
 21
150.398
  0
LINE
  8
0
 10
-66.7659
 20
150.398
 11
-72.1208
 21
151.833
  0
LINE
  8
0
 10
-72.1208
 20
151.833
 11
-72.1956
 21
151.848
  0
LINE
  8
0
 10
-72.1956
 20
151.848
 11
-72.2703
 21
151.853
  0
LINE
  8
0
 10
-72.2703
 20
151.853
 11
-72.3445
 21
151.848
  0
LINE
  8
0
 10
-72.3445
 20
151.848
 11
-72.417
 21
151.833
  0
LINE
  8
0
 10
-72.417
 20
151.833
 11
-72.4873
 21
151.81
  0
LINE
  8
0
 10
-72.4873
 20
151.81
 11
-72.554
 21
151.777
  0
LINE
  8
0
 10
-72.554
 20
151.777
 11
-72.6165
 21
151.735
  0
LINE
  8
0
 10
-72.6165
 20
151.735
 11
-72.6736
 21
151.685
  0
LINE
  8
0
 10
-72.6736
 20
151.685
 11
-72.8425
 21
151.516
  0
LINE
  8
0
 10
-72.8425
 20
151.516
 11
-72.918
 21
151.424
  0
LINE
  8
0
 10
-72.918
 20
151.424
 11
-72.9702
 21
151.325
  0
LINE
  8
0
 10
-72.9702
 20
151.325
 11
-73.0017
 21
151.219
  0
LINE
  8
0
 10
-73.0017
 20
151.219
 11
-73.0122
 21
151.11
  0
LINE
  8
0
 10
-73.0122
 20
151.11
 11
-73.0017
 21
151
  0
LINE
  8
0
 10
-73.0017
 20
151
 11
-72.9702
 21
150.894
  0
LINE
  8
0
 10
-72.9702
 20
150.894
 11
-72.918
 21
150.795
  0
LINE
  8
0
 10
-72.918
 20
150.795
 11
-72.8445
 21
150.705
  0
LINE
  8
0
 10
-72.8445
 20
150.705
 11
-72.6426
 21
150.503
  0
LINE
  8
0
 10
-72.6426
 20
150.503
 11
-72.5527
 21
150.429
  0
LINE
  8
0
 10
-72.5527
 20
150.429
 11
-72.4531
 21
150.377
  0
LINE
  8
0
 10
-72.4531
 20
150.377
 11
-72.3472
 21
150.346
  0
LINE
  8
0
 10
-72.3472
 20
150.346
 11
-72.238
 21
150.335
  0
LINE
  8
0
 10
-72.238
 20
150.335
 11
-72.1287
 21
150.346
  0
LINE
  8
0
 10
-72.1287
 20
150.346
 11
-72.0227
 21
150.377
  0
LINE
  8
0
 10
-72.0227
 20
150.377
 11
-71.9231
 21
150.429
  0
LINE
  8
0
 10
-71.9231
 20
150.429
 11
-71.7437
 21
150.576
  0
LINE
  8
0
 10
-71.7437
 20
150.576
 11
-71.644
 21
150.628
  0
LINE
  8
0
 10
-71.644
 20
150.628
 11
-71.5381
 21
150.66
  0
LINE
  8
0
 10
-71.5381
 20
150.66
 11
-71.4287
 21
150.67
  0
LINE
  8
0
 10
-71.4287
 20
150.67
 11
-71.3193
 21
150.66
  0
LINE
  8
0
 10
-71.3193
 20
150.66
 11
-71.2134
 21
150.628
  0
LINE
  8
0
 10
-71.2134
 20
150.628
 11
-71.114
 21
150.576
  0
LINE
  8
0
 10
-71.114
 20
150.576
 11
-71.0242
 21
150.503
  0
LINE
  8
0
 10
-71.0242
 20
150.503
 11
-66.979
 21
146.457
  0
LINE
  8
0
 10
-66.979
 20
146.457
 11
-66.9055
 21
146.367
  0
LINE
  8
0
 10
-66.9055
 20
146.367
 11
-66.8533
 21
146.268
  0
LINE
  8
0
 10
-66.8533
 20
146.268
 11
-66.8218
 21
146.162
  0
LINE
  8
0
 10
-66.8218
 20
146.162
 11
-66.8113
 21
146.053
  0
LINE
  8
0
 10
-66.8113
 20
146.053
 11
-66.8218
 21
145.943
  0
LINE
  8
0
 10
-66.8218
 20
145.943
 11
-66.8533
 21
145.837
  0
LINE
  8
0
 10
-66.8533
 20
145.837
 11
-66.9055
 21
145.738
  0
LINE
  8
0
 10
-66.9055
 20
145.738
 11
-66.979
 21
145.648
  0
LINE
  8
0
 10
-66.979
 20
145.648
 11
-71.4287
 21
141.198
  0
LINE
  8
0
 10
-71.4287
 20
141.198
 11
-71.5186
 21
141.125
  0
LINE
  8
0
 10
-71.5186
 20
141.125
 11
-71.6179
 21
141.072
  0
LINE
  8
0
 10
-71.6179
 20
141.072
 11
-71.7241
 21
141.041
  0
LINE
  8
0
 10
-71.7241
 20
141.041
 11
-71.8333
 21
141.03
  0
LINE
  8
0
 10
-71.8333
 20
141.03
 11
-71.9426
 21
141.041
  0
LINE
  8
0
 10
-71.9426
 20
141.041
 11
-72.0486
 21
141.072
  0
LINE
  8
0
 10
-72.0486
 20
141.072
 11
-72.1482
 21
141.125
  0
LINE
  8
0
 10
-72.1482
 20
141.125
 11
-72.238
 21
141.198
  0
LINE
  8
0
 10
-72.238
 20
141.198
 11
-76.2832
 21
145.243
  0
LINE
  8
0
 10
-76.2832
 20
145.243
 11
-76.3564
 21
145.333
  0
LINE
  8
0
 10
-76.3564
 20
145.333
 11
-76.4089
 21
145.433
  0
LINE
  8
0
 10
-76.4089
 20
145.433
 11
-76.4402
 21
145.539
  0
LINE
  8
0
 10
-76.4402
 20
145.539
 11
-76.4507
 21
145.648
  0
LINE
  8
0
 10
-76.4507
 20
145.648
 11
-76.4402
 21
145.757
  0
LINE
  8
0
 10
-76.4402
 20
145.757
 11
-76.4089
 21
145.864
  0
LINE
  8
0
 10
-76.4089
 20
145.864
 11
-76.3564
 21
145.963
  0
LINE
  8
0
 10
-76.3564
 20
145.963
 11
-76.21
 21
146.142
  0
LINE
  8
0
 10
-76.21
 20
146.142
 11
-76.1575
 21
146.242
  0
LINE
  8
0
 10
-76.1575
 20
146.242
 11
-76.1262
 21
146.348
  0
LINE
  8
0
 10
-76.1262
 20
146.348
 11
-76.1157
 21
146.457
  0
LINE
  8
0
 10
-76.1157
 20
146.457
 11
-76.1262
 21
146.566
  0
LINE
  8
0
 10
-76.1262
 20
146.566
 11
-76.1575
 21
146.672
  0
LINE
  8
0
 10
-76.1575
 20
146.672
 11
-76.21
 21
146.772
  0
LINE
  8
0
 10
-76.21
 20
146.772
 11
-76.2832
 21
146.862
  0
LINE
  8
0
 10
-76.2832
 20
146.862
 11
-76.8899
 21
147.469
  0
LINE
  8
0
 10
-76.8899
 20
147.469
 11
-79.4668
 21
144.891
  0
LINE
  8
0
 10
-79.4668
 20
144.891
 11
-79.5085
 21
144.854
  0
LINE
  8
0
 10
-79.5085
 20
144.854
 11
-79.5537
 21
144.82
  0
LINE
  8
0
 10
-79.5537
 20
144.82
 11
-79.6018
 21
144.792
  0
LINE
  8
0
 10
-79.6018
 20
144.792
 11
-79.6526
 21
144.768
  0
LINE
  8
0
 10
-79.6526
 20
144.768
 11
-79.7056
 21
144.749
  0
LINE
  8
0
 10
-79.7056
 20
144.749
 11
-79.76
 21
144.735
  0
LINE
  8
0
 10
-79.76
 20
144.735
 11
-79.8154
 21
144.727
  0
LINE
  8
0
 10
-79.8154
 20
144.727
 11
-79.8713
 21
144.724
  0
LINE
  8
0
 10
-79.8713
 20
144.724
 11
-89.3262
 21
144.724
  0
LINE
  8
0
 10
-89.3262
 20
144.724
 11
-89.3987
 21
144.729
  0
LINE
  8
0
 10
-89.3987
 20
144.729
 11
-89.4695
 21
144.743
  0
LINE
  8
0
 10
-89.4695
 20
144.743
 11
-89.5383
 21
144.766
  0
LINE
  8
0
 10
-89.5383
 20
144.766
 11
-89.6035
 21
144.797
  0
LINE
  8
0
 10
-89.6035
 20
144.797
 11
-89.6648
 21
144.836
  0
LINE
  8
0
 10
-89.6648
 20
144.836
 11
-89.7205
 21
144.882
  0
LINE
  8
0
 10
-89.7205
 20
144.882
 11
-89.77
 21
144.935
  0
LINE
  8
0
 10
-89.77
 20
144.935
 11
-89.8123
 21
144.994
  0
LINE
  8
0
 10
-89.8123
 20
144.994
 11
-90.2515
 21
145.734
  0
LINE
  8
0
 10
-90.2515
 20
145.734
 11
-90.6599
 21
146.491
  0
LINE
  8
0
 10
-90.6599
 20
146.491
 11
-91.0374
 21
147.264
  0
LINE
  8
0
 10
-91.0374
 20
147.264
 11
-91.3831
 21
148.052
  0
LINE
  8
0
 10
-91.3831
 20
148.052
 11
-91.6968
 21
148.854
  0
LINE
  8
0
 10
-91.6968
 20
148.854
 11
-91.9778
 21
149.667
  0
LINE
  8
0
 10
-91.9778
 20
149.667
 11
-92.2253
 21
150.491
  0
LINE
  8
0
 10
-92.2253
 20
150.491
 11
-92.4392
 21
151.324
  0
LINE
  8
0
 10
-92.4392
 20
151.324
 11
-92.6189
 21
152.166
  0
LINE
  8
0
 10
-92.6189
 20
152.166
 11
-92.7642
 21
153.014
  0
LINE
  8
0
 10
-92.7642
 20
153.014
 11
-92.8748
 21
153.867
  0
LINE
  8
0
 10
-92.8748
 20
153.867
 11
-92.9507
 21
154.724
  0
LINE
  8
0
 10
-92.9507
 20
154.724
 11
-92.9919
 21
155.583
  0
LINE
  8
0
 10
-92.9919
 20
155.583
 11
-92.9983
 21
156.444
  0
LINE
  8
0
 10
-92.9983
 20
156.444
 11
-92.9697
 21
157.304
  0
LINE
  8
0
 10
-92.9697
 20
157.304
 11
-92.9062
 21
158.162
  0
LINE
  8
0
 10
-92.9062
 20
158.162
 11
-92.8076
 21
159.017
  0
LINE
  8
0
 10
-92.8076
 20
159.017
 11
-92.6741
 21
159.867
  0
LINE
  8
0
 10
-92.6741
 20
159.867
 11
-92.5063
 21
160.711
  0
LINE
  8
0
 10
-92.5063
 20
160.711
 11
-92.3044
 21
161.547
  0
LINE
  8
0
 10
-92.3044
 20
161.547
 11
-92.0688
 21
162.375
  0
LINE
  8
0
 10
-92.0688
 20
162.375
 11
-91.8
 21
163.192
  0
LINE
  8
0
 10
-91.8
 20
163.192
 11
-91.4983
 21
163.998
  0
LINE
  8
0
 10
-91.4983
 20
163.998
 11
-91.1638
 21
164.791
  0
LINE
  8
0
 10
-91.1638
 20
164.791
 11
-90.7974
 21
165.569
  0
LINE
  8
0
 10
-90.7974
 20
165.569
 11
-90.3994
 21
166.332
  0
LINE
  8
0
 10
-90.3994
 20
166.332
 11
-89.9707
 21
167.078
  0
LINE
  8
0
 10
-89.9707
 20
167.078
 11
-89.5122
 21
167.806
  0
LINE
  8
0
 10
-89.5122
 20
167.806
 11
-89.0247
 21
168.515
  0
LINE
  8
0
 10
-89.0247
 20
168.515
 11
-88.5088
 21
169.203
  0
LINE
  8
0
 10
-88.5088
 20
169.203
 11
-87.9653
 21
169.87
  0
LINE
  8
0
 10
-87.9653
 20
169.87
 11
-87.3953
 21
170.515
  0
LINE
  8
0
 10
-87.3953
 20
170.515
 11
-86.7993
 21
171.135
  0
LINE
  8
0
 10
-86.7993
 20
171.135
 11
-86.1785
 21
171.731
  0
LINE
  8
0
 10
-86.1785
 20
171.731
 11
-85.5339
 21
172.301
  0
LINE
  8
0
 10
-85.5339
 20
172.301
 11
-84.8667
 21
172.844
  0
LINE
  8
0
 10
-84.8667
 20
172.844
 11
-84.1782
 21
173.36
  0
LINE
  8
0
 10
-84.1782
 20
173.36
 11
-83.4695
 21
173.848
  0
LINE
  8
0
 10
-83.4695
 20
173.848
 11
-82.7415
 21
174.307
  0
LINE
  8
0
 10
-82.7415
 20
174.307
 11
-81.9954
 21
174.735
  0
LINE
  8
0
 10
-81.9954
 20
174.735
 11
-81.2322
 21
175.133
  0
LINE
  8
0
 10
-81.2322
 20
175.133
 11
-80.4536
 21
175.499
  0
LINE
  8
0
 10
-80.4536
 20
175.499
 11
-79.6606
 21
175.833
  0
LINE
  8
0
 10
-79.6606
 20
175.833
 11
-78.855
 21
176.135
  0
LINE
  8
0
 10
-78.855
 20
176.135
 11
-78.0378
 21
176.404
  0
LINE
  8
0
 10
-78.0378
 20
176.404
 11
-77.2102
 21
176.639
  0
LINE
  8
0
 10
-77.2102
 20
176.639
 11
-76.3738
 21
176.841
  0
LINE
  8
0
 10
-76.3738
 20
176.841
 11
-75.53
 21
177.009
  0
LINE
  8
0
 10
-75.53
 20
177.009
 11
-75.0525
 21
177.088
  0
LINE
  8
0
 10
-75.0525
 20
177.088
 11
-74.5732
 21
177.156
  0
LINE
  8
0
 10
-74.5732
 20
177.156
 11
-74.0928
 21
177.213
  0
LINE
  8
0
 10
-74.0928
 20
177.213
 11
-73.6108
 21
177.259
  0
LINE
  8
0
 10
-73.6108
 20
177.259
 11
-73.1282
 21
177.294
  0
LINE
  8
0
 10
-73.1282
 20
177.294
 11
-72.6448
 21
177.318
  0
LINE
  8
0
 10
-72.6448
 20
177.318
 11
-72.1611
 21
177.331
  0
LINE
  8
0
 10
-72.1611
 20
177.331
 11
-71.677
 21
177.333
  0
LINE
  8
0
 10
-71.677
 20
177.333
 11
-71.3008
 21
177.327
  0
LINE
  8
0
 10
-71.3008
 20
177.327
 11
-70.9246
 21
177.314
  0
LINE
  8
0
 10
-70.9246
 20
177.314
 11
-70.5486
 21
177.294
  0
LINE
  8
0
 10
-70.5486
 20
177.294
 11
-70.1729
 21
177.268
  0
LINE
  8
0
 10
-70.1729
 20
177.268
 11
-69.7979
 21
177.236
  0
LINE
  8
0
 10
-69.7979
 20
177.236
 11
-69.4236
 21
177.196
  0
LINE
  8
0
 10
-69.4236
 20
177.196
 11
-69.05
 21
177.15
  0
LINE
  8
0
 10
-69.05
 20
177.15
 11
-68.6772
 21
177.097
  0
LINE
  8
0
 10
-68.6772
 20
177.097
 11
-67.8293
 21
176.952
  0
LINE
  8
0
 10
-67.8293
 20
176.952
 11
-66.988
 21
176.771
  0
LINE
  8
0
 10
-66.988
 20
176.771
 11
-66.1545
 21
176.557
  0
LINE
  8
0
 10
-66.1545
 20
176.557
 11
-65.3308
 21
176.31
  0
LINE
  8
0
 10
-65.3308
 20
176.31
 11
-64.5173
 21
176.029
  0
LINE
  8
0
 10
-64.5173
 20
176.029
 11
-63.7163
 21
175.715
  0
LINE
  8
0
 10
-63.7163
 20
175.715
 11
-62.9285
 21
175.369
  0
LINE
  8
0
 10
-62.9285
 20
175.369
 11
-62.1553
 21
174.992
  0
LINE
  8
0
 10
-62.1553
 20
174.992
 11
-62.0977
 21
174.957
  0
LINE
  8
0
 10
-62.0977
 20
174.957
 11
-62.0447
 21
174.916
  0
LINE
  8
0
 10
-62.0447
 20
174.916
 11
-61.9966
 21
174.869
  0
LINE
  8
0
 10
-61.9966
 20
174.869
 11
-61.9543
 21
174.817
  0
LINE
  8
0
 10
-61.9543
 20
174.817
 11
-61.918
 21
174.76
  0
LINE
  8
0
 10
-61.918
 20
174.76
 11
-61.8887
 21
174.7
  0
LINE
  8
0
 10
-61.8887
 20
174.7
 11
-61.8665
 21
174.637
  0
LINE
  8
0
 10
-61.8665
 20
174.637
 11
-61.8521
 21
174.571
  0
LINE
  8
0
 10
-61.8521
 20
174.571
 11
-61.8457
 21
174.504
  0
LINE
  8
0
 10
-61.8457
 20
174.504
 11
-61.8474
 21
174.437
  0
LINE
  8
0
 10
-61.8474
 20
174.437
 11
-61.8572
 21
174.371
  0
LINE
  8
0
 10
-61.8572
 20
174.371
 11
-61.8743
 21
174.306
  0
LINE
  8
0
 10
-61.8743
 20
174.306
 11
-61.8987
 21
174.243
  0
LINE
  8
0
 10
-61.8987
 20
174.243
 11
-61.9302
 21
174.184
  0
LINE
  8
0
 10
-61.9302
 20
174.184
 11
-61.9683
 21
174.129
  0
LINE
  8
0
 10
-61.9683
 20
174.129
 11
-62.0127
 21
174.078
  0
LINE
  8
0
 10
-62.0127
 20
174.078
 11
-65.9043
 21
170.186
  0
LINE
  8
0
 10
-65.9043
 20
170.186
 11
-65.9666
 21
170.133
  0
LINE
  8
0
 10
-65.9666
 20
170.133
 11
-66.0361
 21
170.09
  0
LINE
  8
0
 10
-66.0361
 20
170.09
 11
-66.1113
 21
170.056
  0
LINE
  8
0
 10
-66.1113
 20
170.056
 11
-66.1902
 21
170.034
  0
LINE
  8
0
 10
-66.1902
 20
170.034
 11
-66.2717
 21
170.022
  0
LINE
  8
0
 10
-66.2717
 20
170.022
 11
-66.3538
 21
170.022
  0
LINE
  8
0
 10
-66.3538
 20
170.022
 11
-66.4348
 21
170.033
  0
LINE
  8
0
 10
-66.4348
 20
170.033
 11
-66.5137
 21
170.057
  0
LINE
  8
0
 10
-66.5137
 20
170.057
 11
-66.821
 21
170.171
  0
LINE
  8
0
 10
-66.821
 20
170.171
 11
-67.1309
 21
170.278
  0
LINE
  8
0
 10
-67.1309
 20
170.278
 11
-67.4429
 21
170.378
  0
LINE
  8
0
 10
-67.4429
 20
170.378
 11
-67.7571
 21
170.471
  0
LINE
  8
0
 10
-67.7571
 20
170.471
 11
-68.0735
 21
170.558
  0
LINE
  8
0
 10
-68.0735
 20
170.558
 11
-68.3916
 21
170.637
  0
LINE
  8
0
 10
-68.3916
 20
170.637
 11
-68.7112
 21
170.709
  0
LINE
  8
0
 10
-68.7112
 20
170.709
 11
-69.0325
 21
170.775
  0
LINE
  8
0
 10
-69.0325
 20
170.775
 11
-69.1096
 21
170.795
  0
LINE
  8
0
 10
-69.1096
 20
170.795
 11
-69.1826
 21
170.827
  0
LINE
  8
0
 10
-69.1826
 20
170.827
 11
-69.2507
 21
170.869
  0
LINE
  8
0
 10
-69.2507
 20
170.869
 11
-69.3127
 21
170.919
  0
LINE
  8
0
 10
-69.3127
 20
170.919
 11
-69.3677
 21
170.977
  0
LINE
  8
0
 10
-69.3677
 20
170.977
 11
-69.4141
 21
171.042
  0
LINE
  8
0
 10
-69.4141
 20
171.042
 11
-69.4509
 21
171.113
  0
LINE
  8
0
 10
-69.4509
 20
171.113
 11
-69.4773
 21
171.188
  0
LINE
  8
0
 10
-69.4773
 20
171.188
 11
-69.7649
 21
172.261
  0
LINE
  8
0
 10
-69.7649
 20
172.261
 11
-69.7939
 21
172.343
  0
LINE
  8
0
 10
-69.7939
 20
172.343
 11
-69.8354
 21
172.418
  0
LINE
  8
0
 10
-69.8354
 20
172.418
 11
-69.8879
 21
172.487
  0
LINE
  8
0
 10
-69.8879
 20
172.487
 11
-69.95
 21
172.547
  0
LINE
  8
0
 10
-69.95
 20
172.547
 11
-70.02
 21
172.599
  0
LINE
  8
0
 10
-70.02
 20
172.599
 11
-70.0964
 21
172.639
  0
LINE
  8
0
 10
-70.0964
 20
172.639
 11
-70.178
 21
172.667
  0
LINE
  8
0
 10
-70.178
 20
172.667
 11
-70.2632
 21
172.683
  0
LINE
  8
0
 10
-70.2632
 20
172.683
 11
-70.655
 21
172.715
  0
LINE
  8
0
 10
-70.655
 20
172.715
 11
-71.0476
 21
172.739
  0
LINE
  8
0
 10
-71.0476
 20
172.739
 11
-71.4404
 21
172.752
  0
LINE
  8
0
 10
-71.4404
 20
172.752
 11
-71.8337
 21
172.757
  0
LINE
  8
0
 10
-71.8337
 20
172.757
 11
-72.2268
 21
172.752
  0
LINE
  8
0
 10
-72.2268
 20
172.752
 11
-72.6196
 21
172.739
  0
LINE
  8
0
 10
-72.6196
 20
172.739
 11
-73.0122
 21
172.715
  0
LINE
  8
0
 10
-73.0122
 20
172.715
 11
-73.4041
 21
172.683
  0
LINE
  8
0
 10
-73.4041
 20
172.683
 11
-73.4893
 21
172.667
  0
LINE
  8
0
 10
-73.4893
 20
172.667
 11
-73.5708
 21
172.639
  0
LINE
  8
0
 10
-73.5708
 20
172.639
 11
-73.6472
 21
172.599
  0
LINE
  8
0
 10
-73.6472
 20
172.599
 11
-73.7173
 21
172.547
  0
LINE
  8
0
 10
-73.7173
 20
172.547
 11
-73.7793
 21
172.487
  0
LINE
  8
0
 10
-73.7793
 20
172.487
 11
-73.8318
 21
172.418
  0
LINE
  8
0
 10
-73.8318
 20
172.418
 11
-73.8733
 21
172.343
  0
LINE
  8
0
 10
-73.8733
 20
172.343
 11
-73.9026
 21
172.261
  0
LINE
  8
0
 10
-73.9026
 20
172.261
 11
-74.1899
 21
171.188
  0
LINE
  8
0
 10
-74.1899
 20
171.188
 11
-74.2163
 21
171.113
  0
LINE
  8
0
 10
-74.2163
 20
171.113
 11
-74.2532
 21
171.042
  0
LINE
  8
0
 10
-74.2532
 20
171.042
 11
-74.2996
 21
170.977
  0
LINE
  8
0
 10
-74.2996
 20
170.977
 11
-74.3545
 21
170.919
  0
LINE
  8
0
 10
-74.3545
 20
170.919
 11
-74.4165
 21
170.869
  0
LINE
  8
0
 10
-74.4165
 20
170.869
 11
-74.4846
 21
170.827
  0
LINE
  8
0
 10
-74.4846
 20
170.827
 11
-74.5576
 21
170.795
  0
LINE
  8
0
 10
-74.5576
 20
170.795
 11
-74.6348
 21
170.775
  0
LINE
  8
0
 10
-74.6348
 20
170.775
 11
-74.8984
 21
170.721
  0
LINE
  8
0
 10
-74.8984
 20
170.721
 11
-75.1611
 21
170.664
  0
LINE
  8
0
 10
-75.1611
 20
170.664
 11
-75.4229
 21
170.601
  0
LINE
  8
0
 10
-75.4229
 20
170.601
 11
-75.6833
 21
170.534
  0
LINE
  8
0
 10
-75.6833
 20
170.534
 11
-75.9424
 21
170.462
  0
LINE
  8
0
 10
-75.9424
 20
170.462
 11
-76.2002
 21
170.385
  0
LINE
  8
0
 10
-76.2002
 20
170.385
 11
-76.4568
 21
170.304
  0
LINE
  8
0
 10
-76.4568
 20
170.304
 11
-76.7117
 21
170.218
  0
LINE
  8
0
 10
-76.7117
 20
170.218
 11
-76.7888
 21
170.198
  0
LINE
  8
0
 10
-76.7888
 20
170.198
 11
-76.8679
 21
170.188
  0
LINE
  8
0
 10
-76.8679
 20
170.188
 11
-76.9478
 21
170.19
  0
LINE
  8
0
 10
-76.9478
 20
170.19
 11
-77.0266
 21
170.203
  0
LINE
  8
0
 10
-77.0266
 20
170.203
 11
-77.1033
 21
170.226
  0
LINE
  8
0
 10
-77.1033
 20
170.226
 11
-77.1758
 21
170.259
  0
LINE
  8
0
 10
-77.1758
 20
170.259
 11
-77.2432
 21
170.302
  0
LINE
  8
0
 10
-77.2432
 20
170.302
 11
-77.3037
 21
170.354
  0
LINE
  8
0
 10
-77.3037
 20
170.354
 11
-78.0889
 21
171.139
  0
LINE
  8
0
 10
-78.0889
 20
171.139
 11
-78.155
 21
171.195
  0
LINE
  8
0
 10
-78.155
 20
171.195
 11
-78.2288
 21
171.24
  0
LINE
  8
0
 10
-78.2288
 20
171.24
 11
-78.3086
 21
171.273
  0
LINE
  8
0
 10
-78.3086
 20
171.273
 11
-78.3926
 21
171.295
  0
LINE
  8
0
 10
-78.3926
 20
171.295
 11
-78.4788
 21
171.304
  0
LINE
  8
0
 10
-78.4788
 20
171.304
 11
-78.5652
 21
171.301
  0
LINE
  8
0
 10
-78.5652
 20
171.301
 11
-78.6499
 21
171.284
  0
LINE
  8
0
 10
-78.6499
 20
171.284
 11
-78.7312
 21
171.255
  0
LINE
  8
0
 10
-78.7312
 20
171.255
 11
-79.0869
 21
171.087
  0
LINE
  8
0
 10
-79.0869
 20
171.087
 11
-79.4385
 21
170.911
  0
LINE
  8
0
 10
-79.4385
 20
170.911
 11
-79.7859
 21
170.727
  0
LINE
  8
0
 10
-79.7859
 20
170.727
 11
-80.1287
 21
170.534
  0
LINE
  8
0
 10
-80.1287
 20
170.534
 11
-80.4668
 21
170.334
  0
LINE
  8
0
 10
-80.4668
 20
170.334
 11
-80.8
 21
170.125
  0
LINE
  8
0
 10
-80.8
 20
170.125
 11
-81.1284
 21
169.909
  0
LINE
  8
0
 10
-81.1284
 20
169.909
 11
-81.4514
 21
169.685
  0
LINE
  8
0
 10
-81.4514
 20
169.685
 11
-81.5176
 21
169.629
  0
LINE
  8
0
 10
-81.5176
 20
169.629
 11
-81.574
 21
169.563
  0
LINE
  8
0
 10
-81.574
 20
169.563
 11
-81.6201
 21
169.49
  0
LINE
  8
0
 10
-81.6201
 20
169.49
 11
-81.6553
 21
169.411
  0
LINE
  8
0
 10
-81.6553
 20
169.411
 11
-81.6785
 21
169.328
  0
LINE
  8
0
 10
-81.6785
 20
169.328
 11
-81.6897
 21
169.242
  0
LINE
  8
0
 10
-81.6897
 20
169.242
 11
-81.6877
 21
169.156
  0
LINE
  8
0
 10
-81.6877
 20
169.156
 11
-81.6724
 21
169.07
  0
LINE
  8
0
 10
-81.6724
 20
169.07
 11
-81.3848
 21
167.998
  0
LINE
  8
0
 10
-81.3848
 20
167.998
 11
-81.3701
 21
167.92
  0
LINE
  8
0
 10
-81.3701
 20
167.92
 11
-81.3667
 21
167.84
  0
LINE
  8
0
 10
-81.3667
 20
167.84
 11
-81.3745
 21
167.76
  0
LINE
  8
0
 10
-81.3745
 20
167.76
 11
-81.3928
 21
167.683
  0
LINE
  8
0
 10
-81.3928
 20
167.683
 11
-81.4214
 21
167.608
  0
LINE
  8
0
 10
-81.4214
 20
167.608
 11
-81.4595
 21
167.538
  0
LINE
  8
0
 10
-81.4595
 20
167.538
 11
-81.5071
 21
167.474
  0
LINE
  8
0
 10
-81.5071
 20
167.474
 11
-81.5635
 21
167.417
  0
LINE
  8
0
 10
-81.5635
 20
167.417
 11
-81.7651
 21
167.24
  0
LINE
  8
0
 10
-81.7651
 20
167.24
 11
-81.9639
 21
167.058
  0
LINE
  8
0
 10
-81.9639
 20
167.058
 11
-82.1592
 21
166.873
  0
LINE
  8
0
 10
-82.1592
 20
166.873
 11
-82.3511
 21
166.685
  0
LINE
  8
0
 10
-82.3511
 20
166.685
 11
-82.5396
 21
166.493
  0
LINE
  8
0
 10
-82.5396
 20
166.493
 11
-82.7244
 21
166.297
  0
LINE
  8
0
 10
-82.7244
 20
166.297
 11
-82.9058
 21
166.099
  0
LINE
  8
0
 10
-82.9058
 20
166.099
 11
-83.0837
 21
165.897
  0
LINE
  8
0
 10
-83.0837
 20
165.897
 11
-83.1401
 21
165.841
  0
LINE
  8
0
 10
-83.1401
 20
165.841
 11
-83.2043
 21
165.793
  0
LINE
  8
0
 10
-83.2043
 20
165.793
 11
-83.2744
 21
165.755
  0
LINE
  8
0
 10
-83.2744
 20
165.755
 11
-83.3491
 21
165.726
  0
LINE
  8
0
 10
-83.3491
 20
165.726
 11
-83.427
 21
165.708
  0
LINE
  8
0
 10
-83.427
 20
165.708
 11
-83.5063
 21
165.7
  0
LINE
  8
0
 10
-83.5063
 20
165.7
 11
-83.5859
 21
165.704
  0
LINE
  8
0
 10
-83.5859
 20
165.704
 11
-83.6646
 21
165.719
  0
LINE
  8
0
 10
-83.6646
 20
165.719
 11
-84.7371
 21
166.006
  0
LINE
  8
0
 10
-84.7371
 20
166.006
 11
-84.822
 21
166.021
  0
LINE
  8
0
 10
-84.822
 20
166.021
 11
-84.9084
 21
166.023
  0
LINE
  8
0
 10
-84.9084
 20
166.023
 11
-84.9941
 21
166.012
  0
LINE
  8
0
 10
-84.9941
 20
166.012
 11
-85.0776
 21
165.989
  0
LINE
  8
0
 10
-85.0776
 20
165.989
 11
-85.1567
 21
165.954
  0
LINE
  8
0
 10
-85.1567
 20
165.954
 11
-85.23
 21
165.907
  0
LINE
  8
0
 10
-85.23
 20
165.907
 11
-85.2954
 21
165.851
  0
LINE
  8
0
 10
-85.2954
 20
165.851
 11
-85.3513
 21
165.785
  0
LINE
  8
0
 10
-85.3513
 20
165.785
 11
-85.5754
 21
165.462
  0
LINE
  8
0
 10
-85.5754
 20
165.462
 11
-85.7917
 21
165.134
  0
LINE
  8
0
 10
-85.7917
 20
165.134
 11
-86.0002
 21
164.8
  0
LINE
  8
0
 10
-86.0002
 20
164.8
 11
-86.2009
 21
164.462
  0
LINE
  8
0
 10
-86.2009
 20
164.462
 11
-86.3936
 21
164.119
  0
LINE
  8
0
 10
-86.3936
 20
164.119
 11
-86.5779
 21
163.772
  0
LINE
  8
0
 10
-86.5779
 20
163.772
 11
-86.7539
 21
163.42
  0
LINE
  8
0
 10
-86.7539
 20
163.42
 11
-86.9216
 21
163.064
  0
LINE
  8
0
 10
-86.9216
 20
163.064
 11
-86.9509
 21
162.983
  0
LINE
  8
0
 10
-86.9509
 20
162.983
 11
-86.9673
 21
162.898
  0
LINE
  8
0
 10
-86.9673
 20
162.898
 11
-86.9705
 21
162.812
  0
LINE
  8
0
 10
-86.9705
 20
162.812
 11
-86.9612
 21
162.726
  0
LINE
  8
0
 10
-86.9612
 20
162.726
 11
-86.9399
 21
162.642
  0
LINE
  8
0
 10
-86.9399
 20
162.642
 11
-86.9067
 21
162.562
  0
LINE
  8
0
 10
-86.9067
 20
162.562
 11
-86.8618
 21
162.488
  0
LINE
  8
0
 10
-86.8618
 20
162.488
 11
-86.8059
 21
162.422
  0
LINE
  8
0
 10
-86.8059
 20
162.422
 11
-86.0208
 21
161.637
  0
LINE
  8
0
 10
-86.0208
 20
161.637
 11
-85.9685
 21
161.576
  0
LINE
  8
0
 10
-85.9685
 20
161.576
 11
-85.9258
 21
161.509
  0
LINE
  8
0
 10
-85.9258
 20
161.509
 11
-85.8928
 21
161.436
  0
LINE
  8
0
 10
-85.8928
 20
161.436
 11
-85.8699
 21
161.36
  0
LINE
  8
0
 10
-85.8699
 20
161.36
 11
-85.8572
 21
161.281
  0
LINE
  8
0
 10
-85.8572
 20
161.281
 11
-85.8552
 21
161.201
  0
LINE
  8
0
 10
-85.8552
 20
161.201
 11
-85.8643
 21
161.122
  0
LINE
  8
0
 10
-85.8643
 20
161.122
 11
-85.8848
 21
161.045
  0
LINE
  8
0
 10
-85.8848
 20
161.045
 11
-85.9707
 21
160.79
  0
LINE
  8
0
 10
-85.9707
 20
160.79
 11
-86.052
 21
160.533
  0
LINE
  8
0
 10
-86.052
 20
160.533
 11
-86.1287
 21
160.276
  0
LINE
  8
0
 10
-86.1287
 20
160.276
 11
-86.2007
 21
160.016
  0
LINE
  8
0
 10
-86.2007
 20
160.016
 11
-86.2678
 21
159.756
  0
LINE
  8
0
 10
-86.2678
 20
159.756
 11
-86.3303
 21
159.494
  0
LINE
  8
0
 10
-86.3303
 20
159.494
 11
-86.3882
 21
159.231
  0
LINE
  8
0
 10
-86.3882
 20
159.231
 11
-86.4412
 21
158.968
  0
LINE
  8
0
 10
-86.4412
 20
158.968
 11
-86.4622
 21
158.891
  0
LINE
  8
0
 10
-86.4622
 20
158.891
 11
-86.4939
 21
158.818
  0
LINE
  8
0
 10
-86.4939
 20
158.818
 11
-86.5354
 21
158.75
  0
LINE
  8
0
 10
-86.5354
 20
158.75
 11
-86.5859
 21
158.688
  0
LINE
  8
0
 10
-86.5859
 20
158.688
 11
-86.644
 21
158.633
  0
LINE
  8
0
 10
-86.644
 20
158.633
 11
-86.709
 21
158.586
  0
LINE
  8
0
 10
-86.709
 20
158.586
 11
-86.7795
 21
158.549
  0
LINE
  8
0
 10
-86.7795
 20
158.549
 11
-86.855
 21
158.523
  0
LINE
  8
0
 10
-86.855
 20
158.523
 11
-87.9277
 21
158.236
  0
LINE
  8
0
 10
-87.9277
 20
158.236
 11
-88.009
 21
158.206
  0
LINE
  8
0
 10
-88.009
 20
158.206
 11
-88.0847
 21
158.165
  0
LINE
  8
0
 10
-88.0847
 20
158.165
 11
-88.1536
 21
158.112
  0
LINE
  8
0
 10
-88.1536
 20
158.112
 11
-88.2141
 21
158.05
  0
LINE
  8
0
 10
-88.2141
 20
158.05
 11
-88.2651
 21
157.98
  0
LINE
  8
0
 10
-88.2651
 20
157.98
 11
-88.3054
 21
157.904
  0
LINE
  8
0
 10
-88.3054
 20
157.904
 11
-88.3337
 21
157.822
  0
LINE
  8
0
 10
-88.3337
 20
157.822
 11
-88.3491
 21
157.737
  0
LINE
  8
0
 10
-88.3491
 20
157.737
 11
-88.3816
 21
157.345
  0
LINE
  8
0
 10
-88.3816
 20
157.345
 11
-88.4048
 21
156.953
  0
LINE
  8
0
 10
-88.4048
 20
156.953
 11
-88.4187
 21
156.56
  0
LINE
  8
0
 10
-88.4187
 20
156.56
 11
-88.4233
 21
156.167
  0
LINE
  8
0
 10
-88.4233
 20
156.167
 11
-88.4187
 21
155.773
  0
LINE
  8
0
 10
-88.4187
 20
155.773
 11
-88.4048
 21
155.38
  0
LINE
  8
0
 10
-88.4048
 20
155.38
 11
-88.3816
 21
154.988
  0
LINE
  8
0
 10
-88.3816
 20
154.988
 11
-88.3491
 21
154.596
  0
LINE
  8
0
 10
-88.3491
 20
154.596
 11
-88.3337
 21
154.511
  0
LINE
  8
0
 10
-88.3337
 20
154.511
 11
-88.3054
 21
154.429
  0
LINE
  8
0
 10
-88.3054
 20
154.429
 11
-88.2651
 21
154.353
  0
LINE
  8
0
 10
-88.2651
 20
154.353
 11
-88.2141
 21
154.283
  0
LINE
  8
0
 10
-88.2141
 20
154.283
 11
-88.1536
 21
154.221
  0
LINE
  8
0
 10
-88.1536
 20
154.221
 11
-88.0847
 21
154.168
  0
LINE
  8
0
 10
-88.0847
 20
154.168
 11
-88.009
 21
154.127
  0
LINE
  8
0
 10
-88.009
 20
154.127
 11
-87.9277
 21
154.097
  0
LINE
  8
0
 10
-87.9277
 20
154.097
 11
-86.855
 21
153.81
  0
LINE
  8
0
 10
-86.855
 20
153.81
 11
-86.7795
 21
153.784
  0
LINE
  8
0
 10
-86.7795
 20
153.784
 11
-86.709
 21
153.747
  0
LINE
  8
0
 10
-86.709
 20
153.747
 11
-86.644
 21
153.7
  0
LINE
  8
0
 10
-86.644
 20
153.7
 11
-86.5859
 21
153.646
  0
LINE
  8
0
 10
-86.5859
 20
153.646
 11
-86.5354
 21
153.583
  0
LINE
  8
0
 10
-86.5354
 20
153.583
 11
-86.4939
 21
153.515
  0
LINE
  8
0
 10
-86.4939
 20
153.515
 11
-86.4622
 21
153.442
  0
LINE
  8
0
 10
-86.4622
 20
153.442
 11
-86.4412
 21
153.365
  0
LINE
  8
0
 10
-86.4412
 20
153.365
 11
-86.3579
 21
152.961
  0
LINE
  8
0
 10
-86.3579
 20
152.961
 11
-86.2632
 21
152.559
  0
LINE
  8
0
 10
-86.2632
 20
152.559
 11
-86.1575
 21
152.16
  0
LINE
  8
0
 10
-86.1575
 20
152.16
 11
-86.0408
 21
151.764
  0
LINE
  8
0
 10
-86.0408
 20
151.764
 11
-85.9131
 21
151.371
  0
LINE
  8
0
 10
-85.9131
 20
151.371
 11
-85.7747
 21
150.982
  0
LINE
  8
0
 10
-85.7747
 20
150.982
 11
-85.6252
 21
150.597
  0
LINE
  8
0
 10
-85.6252
 20
150.597
 11
-85.4656
 21
150.217
  0
LINE
  8
0
 10
-85.4656
 20
150.217
 11
-85.4265
 21
150.144
  0
LINE
  8
0
 10
-85.4265
 20
150.144
 11
-85.3774
 21
150.077
  0
LINE
  8
0
 10
-85.3774
 20
150.077
 11
-85.3191
 21
150.019
  0
LINE
  8
0
 10
-85.3191
 20
150.019
 11
-85.2532
 21
149.969
  0
LINE
  8
0
 10
-85.2532
 20
149.969
 11
-85.1809
 21
149.928
  0
LINE
  8
0
 10
-85.1809
 20
149.928
 11
-85.104
 21
149.898
  0
LINE
  8
0
 10
-85.104
 20
149.898
 11
-85.0237
 21
149.88
  0
LINE
  8
0
 10
-85.0237
 20
149.88
 11
-84.9412
 21
149.873
  0
LINE
  8
0
 10
-84.9412
 20
149.873
 11
-82.0037
 21
149.873
  0
LINE
  8
0
 10
-82.0037
 20
149.873
 11
-81.9478
 21
149.876
  0
LINE
  8
0
 10
-81.9478
 20
149.876
 11
-81.8923
 21
149.885
  0
LINE
  8
0
 10
-81.8923
 20
149.885
 11
-81.8379
 21
149.898
  0
LINE
  8
0
 10
-81.8379
 20
149.898
 11
-81.7852
 21
149.917
  0
LINE
  8
0
 10
-81.7852
 20
149.917
 11
-81.7344
 21
149.941
  0
LINE
  8
0
 10
-81.7344
 20
149.941
 11
-81.6863
 21
149.97
  0
LINE
  8
0
 10
-81.6863
 20
149.97
 11
-81.6411
 21
150.003
  0
LINE
  8
0
 10
-81.6411
 20
150.003
 11
-81.5994
 21
150.041
  0
LINE
  8
0
 10
-81.5994
 20
150.041
 11
-80.5308
 21
151.11
  0
LINE
  8
0
 10
-80.5308
 20
151.11
 11
-81.1377
 21
151.717
  0
LINE
  8
0
 10
-81.1377
 20
151.717
 11
-81.2275
 21
151.79
  0
LINE
  8
0
 10
-81.2275
 20
151.79
 11
-81.3269
 21
151.842
  0
LINE
  8
0
 10
-81.3269
 20
151.842
 11
-81.4329
 21
151.874
  0
LINE
  8
0
 10
-81.4329
 20
151.874
 11
-81.5422
 21
151.884
  0
LINE
  8
0
 10
-81.5422
 20
151.884
 11
-81.6514
 21
151.874
  0
LINE
  8
0
 10
-81.6514
 20
151.874
 11
-81.7573
 21
151.842
  0
LINE
  8
0
 10
-81.7573
 20
151.842
 11
-81.8569
 21
151.79
  0
LINE
  8
0
 10
-81.8569
 20
151.79
 11
-82.0364
 21
151.643
  0
LINE
  8
0
 10
-82.0364
 20
151.643
 11
-82.136
 21
151.591
  0
LINE
  8
0
 10
-82.136
 20
151.591
 11
-82.2419
 21
151.559
  0
LINE
  8
0
 10
-82.2419
 20
151.559
 11
-82.3513
 21
151.549
  0
LINE
  8
0
 10
-82.3513
 20
151.549
 11
-82.4604
 21
151.559
  0
LINE
  8
0
 10
-82.4604
 20
151.559
 11
-82.5667
 21
151.591
  0
LINE
  8
0
 10
-82.5667
 20
151.591
 11
-82.666
 21
151.643
  0
LINE
  8
0
 10
-82.666
 20
151.643
 11
-82.7559
 21
151.717
  0
LINE
  8
0
 10
-82.7559
 20
151.717
 11
-86.8013
 21
155.762
  0
LINE
  8
0
 10
-86.8013
 20
155.762
 11
-86.8745
 21
155.852
  0
LINE
  8
0
 10
-86.8745
 20
155.852
 11
-86.927
 21
155.951
  0
LINE
  8
0
 10
-86.927
 20
155.951
 11
-86.9583
 21
156.057
  0
LINE
  8
0
 10
-86.9583
 20
156.057
 11
-86.9688
 21
156.167
  0
LINE
  8
0
 10
-86.9688
 20
156.167
 11
-86.9583
 21
156.276
  0
LINE
  8
0
 10
-86.9583
 20
156.276
 11
-86.927
 21
156.382
  0
LINE
  8
0
 10
-86.927
 20
156.382
 11
-86.8745
 21
156.481
  0
LINE
  8
0
 10
-86.8745
 20
156.481
 11
-86.8013
 21
156.571
  0
LINE
  8
0
 10
-86.8013
 20
156.571
 11
-82.9895
 21
160.383
  0
LINE
  8
0
 10
-82.9895
 20
160.383
 11
-82.9324
 21
160.433
  0
LINE
  8
0
 10
-82.9324
 20
160.433
 11
-82.8699
 21
160.475
  0
LINE
  8
0
 10
-82.8699
 20
160.475
 11
-82.803
 21
160.508
  0
LINE
  8
0
 10
-82.803
 20
160.508
 11
-82.7329
 21
160.531
  0
LINE
  8
0
 10
-82.7329
 20
160.531
 11
-82.6604
 21
160.546
  0
LINE
  8
0
 10
-82.6604
 20
160.546
 11
-82.5862
 21
160.551
  0
LINE
  8
0
 10
-82.5862
 20
160.551
 11
-82.5112
 21
160.546
  0
LINE
  8
0
 10
-82.5112
 20
160.546
 11
-82.4368
 21
160.531
  0
LINE
  8
0
 10
-82.4368
 20
160.531
 11
-74.8711
 21
158.504
  0
LINE
  8
0
 10
-74.8711
 20
158.504
 11
-74.7141
 21
158.484
  0
LINE
  8
0
 10
-74.7141
 20
158.484
 11
-74.5662
 21
158.506
  0
LINE
  8
0
 10
-74.5662
 20
158.506
 11
-74.4324
 21
158.563
  0
LINE
  8
0
 10
-74.4324
 20
158.563
 11
-74.3186
 21
158.652
  0
LINE
  8
0
 10
-74.3186
 20
158.652
 11
-74.23
 21
158.766
  0
LINE
  8
0
 10
-74.23
 20
158.766
 11
-74.1721
 21
158.9
  0
LINE
  8
0
 10
-74.1721
 20
158.9
 11
-74.1504
 21
159.048
  0
LINE
  8
0
 10
-74.1504
 20
159.048
 11
-74.1704
 21
159.205
  0
LINE
  8
0
 10
-74.1704
 20
159.205
 11
-76.1978
 21
166.771
  0
LINE
  8
0
 10
-76.1978
 20
166.771
 11
-76.2124
 21
166.845
  0
LINE
  8
0
 10
-76.2124
 20
166.845
 11
-76.2173
 21
166.92
  0
LINE
  8
0
 10
-76.2173
 20
166.92
 11
-76.2122
 21
166.994
  0
LINE
  8
0
 10
-76.2122
 20
166.994
 11
-76.1978
 21
167.067
  0
LINE
  8
0
 10
-76.1978
 20
167.067
 11
-76.1741
 21
167.137
  0
LINE
  8
0
 10
-76.1741
 20
167.137
 11
-76.1414
 21
167.204
  0
LINE
  8
0
 10
-76.1414
 20
167.204
 11
-76.0999
 21
167.266
  0
LINE
  8
0
 10
-76.0999
 20
167.266
 11
-76.0498
 21
167.323
  0
LINE
  8
0
 10
-76.0498
 20
167.323
 11
-72.238
 21
171.135
  0
LINE
  8
0
 10
-72.238
 20
171.135
 11
-72.1482
 21
171.209
  0
LINE
  8
0
 10
-72.1482
 20
171.209
 11
-72.0486
 21
171.261
  0
LINE
  8
0
 10
-72.0486
 20
171.261
 11
-71.9426
 21
171.292
  0
LINE
  8
0
 10
-71.9426
 20
171.292
 11
-71.8333
 21
171.303
  0
LINE
  8
0
 10
-71.8333
 20
171.303
 11
-71.7241
 21
171.292
  0
LINE
  8
0
 10
-71.7241
 20
171.292
 11
-71.6179
 21
171.261
  0
LINE
  8
0
 10
-71.6179
 20
171.261
 11
-71.5186
 21
171.209
  0
LINE
  8
0
 10
-71.5186
 20
171.209
 11
-71.4287
 21
171.135
  0
LINE
  8
0
 10
-71.4287
 20
171.135
 11
-67.3835
 21
167.09
  0
LINE
  8
0
 10
-67.3835
 20
167.09
 11
-67.3103
 21
167
  0
LINE
  8
0
 10
-67.3103
 20
167
 11
-67.2578
 21
166.9
  0
LINE
  8
0
 10
-67.2578
 20
166.9
 11
-67.2263
 21
166.794
  0
LINE
  8
0
 10
-67.2263
 20
166.794
 11
-67.2161
 21
166.685
  0
LINE
  8
0
 10
-67.2161
 20
166.685
 11
-67.2263
 21
166.576
  0
LINE
  8
0
 10
-67.2263
 20
166.576
 11
-67.2578
 21
166.47
  0
LINE
  8
0
 10
-67.2578
 20
166.47
 11
-67.3103
 21
166.37
  0
LINE
  8
0
 10
-67.3103
 20
166.37
 11
-67.4568
 21
166.191
  0
LINE
  8
0
 10
-67.4568
 20
166.191
 11
-67.5093
 21
166.091
  0
LINE
  8
0
 10
-67.5093
 20
166.091
 11
-67.5405
 21
165.985
  0
LINE
  8
0
 10
-67.5405
 20
165.985
 11
-67.551
 21
165.876
  0
LINE
  8
0
 10
-67.551
 20
165.876
 11
-67.5405
 21
165.767
  0
LINE
  8
0
 10
-67.5405
 20
165.767
 11
-67.5093
 21
165.661
  0
LINE
  8
0
 10
-67.5093
 20
165.661
 11
-67.4568
 21
165.561
  0
LINE
  8
0
 10
-67.4568
 20
165.561
 11
-67.3835
 21
165.471
  0
LINE
  8
0
 10
-67.3835
 20
165.471
 11
-66.7769
 21
164.865
  0
LINE
  8
0
 10
-66.7769
 20
164.865
 11
-64.2
 21
167.442
  0
LINE
  8
0
 10
-64.2
 20
167.442
 11
-64.1584
 21
167.48
  0
LINE
  8
0
 10
-64.1584
 20
167.48
 11
-64.113
 21
167.513
  0
LINE
  8
0
 10
-64.113
 20
167.513
 11
-64.0649
 21
167.542
  0
LINE
  8
0
 10
-64.0649
 20
167.542
 11
-64.0142
 21
167.565
  0
LINE
  8
0
 10
-64.0142
 20
167.565
 11
-63.9614
 21
167.584
  0
LINE
  8
0
 10
-63.9614
 20
167.584
 11
-63.907
 21
167.598
  0
LINE
  8
0
 10
-63.907
 20
167.598
 11
-63.8513
 21
167.607
  0
LINE
  8
0
 10
-63.8513
 20
167.607
 11
-63.7954
 21
167.61
  0
LINE
  8
0
 10
-63.7954
 20
167.61
 11
-54.3403
 21
167.61
  0
LINE
  8
0
 10
-54.3403
 20
167.61
 11
-54.2681
 21
167.605
  0
LINE
  8
0
 10
-54.2681
 20
167.605
 11
-54.1973
 21
167.591
  0
LINE
  8
0
 10
-54.1973
 20
167.591
 11
-54.1284
 21
167.567
  0
LINE
  8
0
 10
-54.1284
 20
167.567
 11
-54.063
 21
167.536
  0
LINE
  8
0
 10
-54.063
 20
167.536
 11
-54.002
 21
167.497
  0
LINE
  8
0
 10
-54.002
 20
167.497
 11
-53.9463
 21
167.451
  0
LINE
  8
0
 10
-53.9463
 20
167.451
 11
-53.8967
 21
167.398
  0
LINE
  8
0
 10
-53.8967
 20
167.398
 11
-53.8542
 21
167.339
  0
LINE
  8
0
 10
-53.8542
 20
167.339
 11
-53.4153
 21
166.599
  0
LINE
  8
0
 10
-53.4153
 20
166.599
 11
-53.0068
 21
165.842
  0
LINE
  8
0
 10
-53.0068
 20
165.842
 11
-52.6294
 21
165.069
  0
LINE
  8
0
 10
-52.6294
 20
165.069
 11
-52.2834
 21
164.281
  0
LINE
  8
0
 10
-52.2834
 20
164.281
 11
-51.97
 21
163.48
  0
LINE
  8
0
 10
-51.97
 20
163.48
 11
-51.689
 21
162.667
  0
LINE
  8
0
 10
-51.689
 20
162.667
 11
-51.4414
 21
161.843
  0
LINE
  8
0
 10
-51.4414
 20
161.843
 11
-51.2273
 21
161.009
  0
LINE
  8
0
 10
-51.2273
 20
161.009
 11
-51.0479
 21
160.168
  0
LINE
  8
0
 10
-51.0479
 20
160.168
 11
-50.9026
 21
159.32
  0
LINE
  8
0
 10
-50.9026
 20
159.32
 11
-50.792
 21
158.466
  0
LINE
  8
0
 10
-50.792
 20
158.466
 11
-50.7161
 21
157.609
  0
LINE
  8
0
 10
-50.7161
 20
157.609
 11
-50.6748
 21
156.75
  0
LINE
  8
0
 10
-50.6748
 20
156.75
 11
-50.6685
 21
155.889
  0
LINE
  8
0
 10
-50.6685
 20
155.889
 11
-50.697
 21
155.03
  0
LINE
  8
0
 10
-50.697
 20
155.03
 11
-50.7605
 21
154.171
  0
LINE
  8
0
 10
-50.7605
 20
154.171
 11
-50.8591
 21
153.317
  0
LINE
  8
0
 10
-50.8591
 20
153.317
 11
-50.9927
 21
152.467
  0
LINE
  8
0
 10
-50.9927
 20
152.467
 11
-51.1604
 21
151.623
  0
LINE
  8
0
 10
-51.1604
 20
151.623
 11
-51.3623
 21
150.786
  0
LINE
  8
0
 10
-51.3623
 20
150.786
 11
-51.5977
 21
149.959
  0
LINE
  8
0
 10
-51.5977
 20
149.959
 11
-51.8667
 21
149.141
  0
LINE
  8
0
 10
-51.8667
 20
149.141
 11
-52.1685
 21
148.336
  0
LINE
  8
0
 10
-52.1685
 20
148.336
 11
-52.5027
 21
147.543
  0
LINE
  8
0
 10
-52.5027
 20
147.543
 11
-52.8694
 21
146.764
  0
LINE
  8
0
 10
-52.8694
 20
146.764
 11
-53.2673
 21
146.002
  0
LINE
  8
0
 10
-53.2673
 20
146.002
 11
-53.6958
 21
145.256
  0
LINE
  8
0
 10
-53.6958
 20
145.256
 11
-54.1543
 21
144.527
  0
LINE
  8
0
 10
-54.1543
 20
144.527
 11
-54.6421
 21
143.818
  0
LINE
  8
0
 10
-54.6421
 20
143.818
 11
-55.158
 21
143.13
  0
LINE
  8
0
 10
-55.158
 20
143.13
 11
-55.7012
 21
142.463
  0
LINE
  8
0
 10
-55.7012
 20
142.463
 11
-56.2715
 21
141.818
  0
LINE
  8
0
 10
-56.2715
 20
141.818
 11
-56.8674
 21
141.198
  0
LINE
  8
0
 10
-56.8674
 20
141.198
 11
-57.4883
 21
140.602
  0
LINE
  8
0
 10
-57.4883
 20
140.602
 11
-58.1328
 21
140.032
  0
LINE
  8
0
 10
-58.1328
 20
140.032
 11
-58.7998
 21
139.489
  0
LINE
  8
0
 10
-58.7998
 20
139.489
 11
-59.4885
 21
138.973
  0
LINE
  8
0
 10
-59.4885
 20
138.973
 11
-60.1973
 21
138.485
  0
LINE
  8
0
 10
-60.1973
 20
138.485
 11
-60.9253
 21
138.027
  0
LINE
  8
0
 10
-60.9253
 20
138.027
 11
-61.6714
 21
137.598
  0
LINE
  8
0
 10
-61.6714
 20
137.598
 11
-62.4346
 21
137.201
  0
LINE
  8
0
 10
-62.4346
 20
137.201
 11
-63.2131
 21
136.835
  0
LINE
  8
0
 10
-63.2131
 20
136.835
 11
-64.0059
 21
136.5
  0
LINE
  8
0
 10
-64.0059
 20
136.5
 11
-64.8115
 21
136.199
  0
LINE
  8
0
 10
-64.8115
 20
136.199
 11
-65.6289
 21
135.93
  0
LINE
  8
0
 10
-65.6289
 20
135.93
 11
-66.4563
 21
135.694
  0
LINE
  8
0
 10
-66.4563
 20
135.694
 11
-67.2927
 21
135.492
  0
LINE
  8
0
 10
-67.2927
 20
135.492
 11
-68.1367
 21
135.325
  0
LINE
  8
0
 10
-68.1367
 20
135.325
 11
-68.9866
 21
135.192
  0
LINE
  8
0
 10
-68.9866
 20
135.192
 11
-69.8416
 21
135.094
  0
LINE
  8
0
 10
-69.8416
 20
135.094
 11
-70.6995
 21
135.03
  0
LINE
  8
0
 10
-70.6995
 20
135.03
 11
-71.5593
 21
135.002
  0
LINE
  8
0
 10
-71.5593
 20
135.002
 11
-72.4199
 21
135.008
  0
LINE
  8
0
 10
87.8901
 20
158.253
 11
87.6721
 21
158.281
  0
LINE
  8
0
 10
87.6721
 20
158.281
 11
87.4592
 21
158.336
  0
LINE
  8
0
 10
87.4592
 20
158.336
 11
87.2549
 21
158.417
  0
LINE
  8
0
 10
87.2549
 20
158.417
 11
87.0623
 21
158.522
  0
LINE
  8
0
 10
87.0623
 20
158.522
 11
86.8845
 21
158.652
  0
LINE
  8
0
 10
86.8845
 20
158.652
 11
86.7243
 21
158.802
  0
LINE
  8
0
 10
86.7243
 20
158.802
 11
86.5842
 21
158.971
  0
LINE
  8
0
 10
86.5842
 20
158.971
 11
86.4665
 21
159.157
  0
LINE
  8
0
 10
86.4665
 20
159.157
 11
86.3729
 21
159.356
  0
LINE
  8
0
 10
86.3729
 20
159.356
 11
86.305
 21
159.565
  0
LINE
  8
0
 10
86.305
 20
159.565
 11
86.2638
 21
159.781
  0
LINE
  8
0
 10
86.2638
 20
159.781
 11
86.25
 21
160
  0
LINE
  8
0
 10
86.25
 20
160
 11
86.2638
 21
160.219
  0
LINE
  8
0
 10
86.2638
 20
160.219
 11
86.305
 21
160.435
  0
LINE
  8
0
 10
86.305
 20
160.435
 11
86.3729
 21
160.644
  0
LINE
  8
0
 10
86.3729
 20
160.644
 11
86.4665
 21
160.843
  0
LINE
  8
0
 10
86.4665
 20
160.843
 11
86.5842
 21
161.029
  0
LINE
  8
0
 10
86.5842
 20
161.029
 11
86.7243
 21
161.198
  0
LINE
  8
0
 10
86.7243
 20
161.198
 11
86.8845
 21
161.348
  0
LINE
  8
0
 10
86.8845
 20
161.348
 11
87.0623
 21
161.478
  0
LINE
  8
0
 10
87.0623
 20
161.478
 11
87.2549
 21
161.583
  0
LINE
  8
0
 10
87.2549
 20
161.583
 11
87.4592
 21
161.664
  0
LINE
  8
0
 10
87.4592
 20
161.664
 11
87.6721
 21
161.719
  0
LINE
  8
0
 10
87.6721
 20
161.719
 11
87.8901
 21
161.747
  0
LINE
  8
0
 10
87.8901
 20
161.747
 11
88.1099
 21
161.747
  0
LINE
  8
0
 10
88.1099
 20
161.747
 11
88.3279
 21
161.719
  0
LINE
  8
0
 10
88.3279
 20
161.719
 11
88.5408
 21
161.664
  0
LINE
  8
0
 10
88.5408
 20
161.664
 11
88.7451
 21
161.583
  0
LINE
  8
0
 10
88.7451
 20
161.583
 11
88.9377
 21
161.478
  0
LINE
  8
0
 10
88.9377
 20
161.478
 11
89.1155
 21
161.348
  0
LINE
  8
0
 10
89.1155
 20
161.348
 11
89.2757
 21
161.198
  0
LINE
  8
0
 10
89.2757
 20
161.198
 11
89.4158
 21
161.029
  0
LINE
  8
0
 10
89.4158
 20
161.029
 11
89.5335
 21
160.843
  0
LINE
  8
0
 10
89.5335
 20
160.843
 11
89.6271
 21
160.644
  0
LINE
  8
0
 10
89.6271
 20
160.644
 11
89.695
 21
160.435
  0
LINE
  8
0
 10
89.695
 20
160.435
 11
89.7362
 21
160.219
  0
LINE
  8
0
 10
89.7362
 20
160.219
 11
89.75
 21
160
  0
LINE
  8
0
 10
89.75
 20
160
 11
89.7362
 21
159.781
  0
LINE
  8
0
 10
89.7362
 20
159.781
 11
89.695
 21
159.565
  0
LINE
  8
0
 10
89.695
 20
159.565
 11
89.6271
 21
159.356
  0
LINE
  8
0
 10
89.6271
 20
159.356
 11
89.5335
 21
159.157
  0
LINE
  8
0
 10
89.5335
 20
159.157
 11
89.4158
 21
158.971
  0
LINE
  8
0
 10
89.4158
 20
158.971
 11
89.2757
 21
158.802
  0
LINE
  8
0
 10
89.2757
 20
158.802
 11
89.1155
 21
158.652
  0
LINE
  8
0
 10
89.1155
 20
158.652
 11
88.9377
 21
158.522
  0
LINE
  8
0
 10
88.9377
 20
158.522
 11
88.7451
 21
158.417
  0
LINE
  8
0
 10
88.7451
 20
158.417
 11
88.5408
 21
158.336
  0
LINE
  8
0
 10
88.5408
 20
158.336
 11
88.3279
 21
158.281
  0
LINE
  8
0
 10
88.3279
 20
158.281
 11
88.1099
 21
158.253
  0
LINE
  8
0
 10
88.1099
 20
158.253
 11
87.8901
 21
158.253
  0
LINE
  8
0
 10
27.8901
 20
158.253
 11
27.6721
 21
158.281
  0
LINE
  8
0
 10
27.6721
 20
158.281
 11
27.4592
 21
158.336
  0
LINE
  8
0
 10
27.4592
 20
158.336
 11
27.2549
 21
158.417
  0
LINE
  8
0
 10
27.2549
 20
158.417
 11
27.0623
 21
158.522
  0
LINE
  8
0
 10
27.0623
 20
158.522
 11
26.8845
 21
158.652
  0
LINE
  8
0
 10
26.8845
 20
158.652
 11
26.7243
 21
158.802
  0
LINE
  8
0
 10
26.7243
 20
158.802
 11
26.5842
 21
158.971
  0
LINE
  8
0
 10
26.5842
 20
158.971
 11
26.4665
 21
159.157
  0
LINE
  8
0
 10
26.4665
 20
159.157
 11
26.3729
 21
159.356
  0
LINE
  8
0
 10
26.3729
 20
159.356
 11
26.305
 21
159.565
  0
LINE
  8
0
 10
26.305
 20
159.565
 11
26.2638
 21
159.781
  0
LINE
  8
0
 10
26.2638
 20
159.781
 11
26.25
 21
160
  0
LINE
  8
0
 10
26.25
 20
160
 11
26.2638
 21
160.219
  0
LINE
  8
0
 10
26.2638
 20
160.219
 11
26.305
 21
160.435
  0
LINE
  8
0
 10
26.305
 20
160.435
 11
26.3729
 21
160.644
  0
LINE
  8
0
 10
26.3729
 20
160.644
 11
26.4665
 21
160.843
  0
LINE
  8
0
 10
26.4665
 20
160.843
 11
26.5842
 21
161.029
  0
LINE
  8
0
 10
26.5842
 20
161.029
 11
26.7243
 21
161.198
  0
LINE
  8
0
 10
26.7243
 20
161.198
 11
26.8845
 21
161.348
  0
LINE
  8
0
 10
26.8845
 20
161.348
 11
27.0623
 21
161.478
  0
LINE
  8
0
 10
27.0623
 20
161.478
 11
27.2549
 21
161.583
  0
LINE
  8
0
 10
27.2549
 20
161.583
 11
27.4592
 21
161.664
  0
LINE
  8
0
 10
27.4592
 20
161.664
 11
27.6721
 21
161.719
  0
LINE
  8
0
 10
27.6721
 20
161.719
 11
27.8901
 21
161.747
  0
LINE
  8
0
 10
27.8901
 20
161.747
 11
28.1099
 21
161.747
  0
LINE
  8
0
 10
28.1099
 20
161.747
 11
28.3279
 21
161.719
  0
LINE
  8
0
 10
28.3279
 20
161.719
 11
28.5408
 21
161.664
  0
LINE
  8
0
 10
28.5408
 20
161.664
 11
28.7451
 21
161.583
  0
LINE
  8
0
 10
28.7451
 20
161.583
 11
28.9377
 21
161.478
  0
LINE
  8
0
 10
28.9377
 20
161.478
 11
29.1155
 21
161.348
  0
LINE
  8
0
 10
29.1155
 20
161.348
 11
29.2757
 21
161.198
  0
LINE
  8
0
 10
29.2757
 20
161.198
 11
29.4158
 21
161.029
  0
LINE
  8
0
 10
29.4158
 20
161.029
 11
29.5335
 21
160.843
  0
LINE
  8
0
 10
29.5335
 20
160.843
 11
29.6271
 21
160.644
  0
LINE
  8
0
 10
29.6271
 20
160.644
 11
29.695
 21
160.435
  0
LINE
  8
0
 10
29.695
 20
160.435
 11
29.7362
 21
160.219
  0
LINE
  8
0
 10
29.7362
 20
160.219
 11
29.75
 21
160
  0
LINE
  8
0
 10
29.75
 20
160
 11
29.7362
 21
159.781
  0
LINE
  8
0
 10
29.7362
 20
159.781
 11
29.695
 21
159.565
  0
LINE
  8
0
 10
29.695
 20
159.565
 11
29.6271
 21
159.356
  0
LINE
  8
0
 10
29.6271
 20
159.356
 11
29.5335
 21
159.157
  0
LINE
  8
0
 10
29.5335
 20
159.157
 11
29.4158
 21
158.971
  0
LINE
  8
0
 10
29.4158
 20
158.971
 11
29.2757
 21
158.802
  0
LINE
  8
0
 10
29.2757
 20
158.802
 11
29.1155
 21
158.652
  0
LINE
  8
0
 10
29.1155
 20
158.652
 11
28.9377
 21
158.522
  0
LINE
  8
0
 10
28.9377
 20
158.522
 11
28.7451
 21
158.417
  0
LINE
  8
0
 10
28.7451
 20
158.417
 11
28.5408
 21
158.336
  0
LINE
  8
0
 10
28.5408
 20
158.336
 11
28.3279
 21
158.281
  0
LINE
  8
0
 10
28.3279
 20
158.281
 11
28.1099
 21
158.253
  0
LINE
  8
0
 10
28.1099
 20
158.253
 11
27.8901
 21
158.253
  0
LINE
  8
0
 10
-60
 20
73
 11
-20
 21
73
  0
LINE
  8
0
 10
-20
 20
73
 11
-20
 21
70
  0
LINE
  8
0
 10
-20
 20
70
 11
20
 21
70
  0
LINE
  8
0
 10
20
 20
70
 11
20
 21
73
  0
LINE
  8
0
 10
20
 20
73
 11
60
 21
73
  0
LINE
  8
0
 10
60
 20
73
 11
60
 21
70
  0
LINE
  8
0
 10
60
 20
70
 11
100
 21
70
  0
LINE
  8
0
 10
100
 20
70
 11
100
 21
120
  0
LINE
  8
0
 10
100
 20
120
 11
60
 21
120
  0
LINE
  8
0
 10
60
 20
120
 11
60
 21
117
  0
LINE
  8
0
 10
60
 20
117
 11
20
 21
117
  0
LINE
  8
0
 10
20
 20
117
 11
20
 21
120
  0
LINE
  8
0
 10
20
 20
120
 11
-20
 21
120
  0
LINE
  8
0
 10
-20
 20
120
 11
-20
 21
117
  0
LINE
  8
0
 10
-20
 20
117
 11
-60
 21
117
  0
LINE
  8
0
 10
-60
 20
117
 11
-60
 21
120
  0
LINE
  8
0
 10
-60
 20
120
 11
-100
 21
120
  0
LINE
  8
0
 10
-100
 20
120
 11
-100
 21
70
  0
LINE
  8
0
 10
-100
 20
70
 11
-60
 21
70
  0
LINE
  8
0
 10
-60
 20
70
 11
-60
 21
73
  0
LINE
  8
0
 10
-11.5
 20
79
 11
-11.5
 21
111
  0
LINE
  8
0
 10
-11.5
 20
111
 11
-8.5
 21
111
  0
LINE
  8
0
 10
-8.5
 20
111
 11
-8.5
 21
79
  0
LINE
  8
0
 10
-8.5
 20
79
 11
-11.5
 21
79
  0
LINE
  8
0
 10
88.5
 20
79
 11
88.5
 21
111
  0
LINE
  8
0
 10
88.5
 20
111
 11
91.5
 21
111
  0
LINE
  8
0
 10
91.5
 20
111
 11
91.5
 21
79
  0
LINE
  8
0
 10
91.5
 20
79
 11
88.5
 21
79
  0
LINE
  8
0
 10
78.5
 20
79
 11
78.5
 21
111
  0
LINE
  8
0
 10
78.5
 20
111
 11
81.5
 21
111
  0
LINE
  8
0
 10
81.5
 20
111
 11
81.5
 21
79
  0
LINE
  8
0
 10
81.5
 20
79
 11
78.5
 21
79
  0
LINE
  8
0
 10
68.5
 20
79
 11
68.5
 21
111
  0
LINE
  8
0
 10
68.5
 20
111
 11
71.5
 21
111
  0
LINE
  8
0
 10
71.5
 20
111
 11
71.5
 21
79
  0
LINE
  8
0
 10
71.5
 20
79
 11
68.5
 21
79
  0
LINE
  8
0
 10
58.5
 20
79
 11
58.5
 21
111
  0
LINE
  8
0
 10
58.5
 20
111
 11
61.5
 21
111
  0
LINE
  8
0
 10
61.5
 20
111
 11
61.5
 21
79
  0
LINE
  8
0
 10
61.5
 20
79
 11
58.5
 21
79
  0
LINE
  8
0
 10
48.5
 20
79
 11
48.5
 21
111
  0
LINE
  8
0
 10
48.5
 20
111
 11
51.5
 21
111
  0
LINE
  8
0
 10
51.5
 20
111
 11
51.5
 21
79
  0
LINE
  8
0
 10
51.5
 20
79
 11
48.5
 21
79
  0
LINE
  8
0
 10
38.5
 20
79
 11
38.5
 21
111
  0
LINE
  8
0
 10
38.5
 20
111
 11
41.5
 21
111
  0
LINE
  8
0
 10
41.5
 20
111
 11
41.5
 21
79
  0
LINE
  8
0
 10
41.5
 20
79
 11
38.5
 21
79
  0
LINE
  8
0
 10
28.5
 20
79
 11
28.5
 21
111
  0
LINE
  8
0
 10
28.5
 20
111
 11
31.5
 21
111
  0
LINE
  8
0
 10
31.5
 20
111
 11
31.5
 21
79
  0
LINE
  8
0
 10
31.5
 20
79
 11
28.5
 21
79
  0
LINE
  8
0
 10
18.5
 20
79
 11
18.5
 21
111
  0
LINE
  8
0
 10
18.5
 20
111
 11
21.5
 21
111
  0
LINE
  8
0
 10
21.5
 20
111
 11
21.5
 21
79
  0
LINE
  8
0
 10
21.5
 20
79
 11
18.5
 21
79
  0
LINE
  8
0
 10
8.5
 20
79
 11
8.5
 21
111
  0
LINE
  8
0
 10
8.5
 20
111
 11
11.5
 21
111
  0
LINE
  8
0
 10
11.5
 20
111
 11
11.5
 21
79
  0
LINE
  8
0
 10
11.5
 20
79
 11
8.5
 21
79
  0
LINE
  8
0
 10
-91.5
 20
79
 11
-91.5
 21
111
  0
LINE
  8
0
 10
-91.5
 20
111
 11
-88.5
 21
111
  0
LINE
  8
0
 10
-88.5
 20
111
 11
-88.5
 21
79
  0
LINE
  8
0
 10
-88.5
 20
79
 11
-91.5
 21
79
  0
LINE
  8
0
 10
-21.5
 20
79
 11
-21.5
 21
111
  0
LINE
  8
0
 10
-21.5
 20
111
 11
-18.5
 21
111
  0
LINE
  8
0
 10
-18.5
 20
111
 11
-18.5
 21
79
  0
LINE
  8
0
 10
-18.5
 20
79
 11
-21.5
 21
79
  0
LINE
  8
0
 10
-31.5
 20
79
 11
-31.5
 21
111
  0
LINE
  8
0
 10
-31.5
 20
111
 11
-28.5
 21
111
  0
LINE
  8
0
 10
-28.5
 20
111
 11
-28.5
 21
79
  0
LINE
  8
0
 10
-28.5
 20
79
 11
-31.5
 21
79
  0
LINE
  8
0
 10
-41.5
 20
79
 11
-41.5
 21
111
  0
LINE
  8
0
 10
-41.5
 20
111
 11
-38.5
 21
111
  0
LINE
  8
0
 10
-38.5
 20
111
 11
-38.5
 21
79
  0
LINE
  8
0
 10
-38.5
 20
79
 11
-41.5
 21
79
  0
LINE
  8
0
 10
-51.5
 20
79
 11
-51.5
 21
111
  0
LINE
  8
0
 10
-51.5
 20
111
 11
-48.5
 21
111
  0
LINE
  8
0
 10
-48.5
 20
111
 11
-48.5
 21
79
  0
LINE
  8
0
 10
-48.5
 20
79
 11
-51.5
 21
79
  0
LINE
  8
0
 10
-61.5
 20
79
 11
-61.5
 21
111
  0
LINE
  8
0
 10
-61.5
 20
111
 11
-58.5
 21
111
  0
LINE
  8
0
 10
-58.5
 20
111
 11
-58.5
 21
79
  0
LINE
  8
0
 10
-58.5
 20
79
 11
-61.5
 21
79
  0
LINE
  8
0
 10
-71.5
 20
79
 11
-71.5
 21
111
  0
LINE
  8
0
 10
-71.5
 20
111
 11
-68.5
 21
111
  0
LINE
  8
0
 10
-68.5
 20
111
 11
-68.5
 21
79
  0
LINE
  8
0
 10
-68.5
 20
79
 11
-71.5
 21
79
  0
LINE
  8
0
 10
-81.5
 20
79
 11
-81.5
 21
111
  0
LINE
  8
0
 10
-81.5
 20
111
 11
-78.5
 21
111
  0
LINE
  8
0
 10
-78.5
 20
111
 11
-78.5
 21
79
  0
LINE
  8
0
 10
-78.5
 20
79
 11
-81.5
 21
79
  0
LINE
  8
0
 10
-1.5
 20
79
 11
-1.5
 21
111
  0
LINE
  8
0
 10
-1.5
 20
111
 11
1.5
 21
111
  0
LINE
  8
0
 10
1.5
 20
111
 11
1.5
 21
79
  0
LINE
  8
0
 10
1.5
 20
79
 11
-1.5
 21
79
  0
LINE
  8
0
 10
20
 20
-59.5
 11
20
 21
-62.5
  0
LINE
  8
0
 10
20
 20
-62.5
 11
35
 21
-62.5
  0
LINE
  8
0
 10
35
 20
-62.5
 11
35
 21
-52.5
  0
LINE
  8
0
 10
35
 20
-52.5
 11
35.0789
 21
-51.2467
  0
LINE
  8
0
 10
35.0789
 20
-51.2467
 11
35.3142
 21
-50.0131
  0
LINE
  8
0
 10
35.3142
 20
-50.0131
 11
35.7022
 21
-48.8188
  0
LINE
  8
0
 10
35.7022
 20
-48.8188
 11
36.2369
 21
-47.6825
  0
LINE
  8
0
 10
36.2369
 20
-47.6825
 11
36.9098
 21
-46.6222
  0
LINE
  8
0
 10
36.9098
 20
-46.6222
 11
37.7103
 21
-45.6545
  0
LINE
  8
0
 10
37.7103
 20
-45.6545
 11
38.6258
 21
-44.7949
  0
LINE
  8
0
 10
38.6258
 20
-44.7949
 11
39.6417
 21
-44.0567
  0
LINE
  8
0
 10
39.6417
 20
-44.0567
 11
40.7422
 21
-43.4517
  0
LINE
  8
0
 10
40.7422
 20
-43.4517
 11
41.9098
 21
-42.9894
  0
LINE
  8
0
 10
41.9098
 20
-42.9894
 11
43.1262
 21
-42.6771
  0
LINE
  8
0
 10
43.1262
 20
-42.6771
 11
44.3721
 21
-42.5197
  0
LINE
  8
0
 10
44.3721
 20
-42.5197
 11
45.6279
 21
-42.5197
  0
LINE
  8
0
 10
45.6279
 20
-42.5197
 11
46.8738
 21
-42.6771
  0
LINE
  8
0
 10
46.8738
 20
-42.6771
 11
48.0902
 21
-42.9894
  0
LINE
  8
0
 10
48.0902
 20
-42.9894
 11
49.2578
 21
-43.4517
  0
LINE
  8
0
 10
49.2578
 20
-43.4517
 11
50.3583
 21
-44.0567
  0
LINE
  8
0
 10
50.3583
 20
-44.0567
 11
51.3742
 21
-44.7949
  0
LINE
  8
0
 10
51.3742
 20
-44.7949
 11
52.2897
 21
-45.6545
  0
LINE
  8
0
 10
52.2897
 20
-45.6545
 11
53.0902
 21
-46.6222
  0
LINE
  8
0
 10
53.0902
 20
-46.6222
 11
53.7631
 21
-47.6825
  0
LINE
  8
0
 10
53.7631
 20
-47.6825
 11
54.2978
 21
-48.8188
  0
LINE
  8
0
 10
54.2978
 20
-48.8188
 11
54.6858
 21
-50.0131
  0
LINE
  8
0
 10
54.6858
 20
-50.0131
 11
54.9211
 21
-51.2467
  0
LINE
  8
0
 10
54.9211
 20
-51.2467
 11
55
 21
-52.5
  0
LINE
  8
0
 10
55
 20
-52.5
 11
55
 21
-62.5
  0
LINE
  8
0
 10
55
 20
-62.5
 11
60
 21
-62.5
  0
LINE
  8
0
 10
60
 20
-62.5
 11
60
 21
-59.5
  0
LINE
  8
0
 10
60
 20
-59.5
 11
100
 21
-59.5
  0
LINE
  8
0
 10
100
 20
-59.5
 11
100
 21
-62.5
  0
LINE
  8
0
 10
100
 20
-62.5
 11
103
 21
-62.5
  0
LINE
  8
0
 10
103
 20
-62.5
 11
103
 21
62.5
  0
LINE
  8
0
 10
103
 20
62.5
 11
100
 21
62.5
  0
LINE
  8
0
 10
100
 20
62.5
 11
100
 21
59.5
  0
LINE
  8
0
 10
100
 20
59.5
 11
85
 21
59.5
  0
LINE
  8
0
 10
85
 20
59.5
 11
85
 21
57.5
  0
LINE
  8
0
 10
85
 20
57.5
 11
84.9606
 21
56.8733
  0
LINE
  8
0
 10
84.9606
 20
56.8733
 11
84.8429
 21
56.2566
  0
LINE
  8
0
 10
84.8429
 20
56.2566
 11
84.6489
 21
55.6594
  0
LINE
  8
0
 10
84.6489
 20
55.6594
 11
84.3815
 21
55.0912
  0
LINE
  8
0
 10
84.3815
 20
55.0912
 11
84.0451
 21
54.5611
  0
LINE
  8
0
 10
84.0451
 20
54.5611
 11
83.6448
 21
54.0773
  0
LINE
  8
0
 10
83.6448
 20
54.0773
 11
83.1871
 21
53.6474
  0
LINE
  8
0
 10
83.1871
 20
53.6474
 11
82.6791
 21
53.2784
  0
LINE
  8
0
 10
82.6791
 20
53.2784
 11
82.1289
 21
52.9759
  0
LINE
  8
0
 10
82.1289
 20
52.9759
 11
81.5451
 21
52.7447
  0
LINE
  8
0
 10
81.5451
 20
52.7447
 11
80.9369
 21
52.5886
  0
LINE
  8
0
 10
80.9369
 20
52.5886
 11
80.3139
 21
52.5099
  0
LINE
  8
0
 10
80.3139
 20
52.5099
 11
79.6861
 21
52.5099
  0
LINE
  8
0
 10
79.6861
 20
52.5099
 11
79.0631
 21
52.5886
  0
LINE
  8
0
 10
79.0631
 20
52.5886
 11
78.4549
 21
52.7447
  0
LINE
  8
0
 10
78.4549
 20
52.7447
 11
77.8711
 21
52.9759
  0
LINE
  8
0
 10
77.8711
 20
52.9759
 11
77.3209
 21
53.2784
  0
LINE
  8
0
 10
77.3209
 20
53.2784
 11
76.8129
 21
53.6474
  0
LINE
  8
0
 10
76.8129
 20
53.6474
 11
76.3552
 21
54.0773
  0
LINE
  8
0
 10
76.3552
 20
54.0773
 11
75.9549
 21
54.5611
  0
LINE
  8
0
 10
75.9549
 20
54.5611
 11
75.6185
 21
55.0912
  0
LINE
  8
0
 10
75.6185
 20
55.0912
 11
75.3511
 21
55.6594
  0
LINE
  8
0
 10
75.3511
 20
55.6594
 11
75.1571
 21
56.2566
  0
LINE
  8
0
 10
75.1571
 20
56.2566
 11
75.0394
 21
56.8733
  0
LINE
  8
0
 10
75.0394
 20
56.8733
 11
75
 21
57.5
  0
LINE
  8
0
 10
75
 20
57.5
 11
75
 21
59.5
  0
LINE
  8
0
 10
75
 20
59.5
 11
60
 21
59.5
  0
LINE
  8
0
 10
60
 20
59.5
 11
60
 21
62.5
  0
LINE
  8
0
 10
60
 20
62.5
 11
20
 21
62.5
  0
LINE
  8
0
 10
20
 20
62.5
 11
20
 21
59.5
  0
LINE
  8
0
 10
20
 20
59.5
 11
-20
 21
59.5
  0
LINE
  8
0
 10
-20
 20
59.5
 11
-20
 21
62.5
  0
LINE
  8
0
 10
-20
 20
62.5
 11
-60
 21
62.5
  0
LINE
  8
0
 10
-60
 20
62.5
 11
-60
 21
59.5
  0
LINE
  8
0
 10
-60
 20
59.5
 11
-75
 21
59.5
  0
LINE
  8
0
 10
-75
 20
59.5
 11
-75
 21
57.5
  0
LINE
  8
0
 10
-75
 20
57.5
 11
-75.0394
 21
56.8733
  0
LINE
  8
0
 10
-75.0394
 20
56.8733
 11
-75.1571
 21
56.2566
  0
LINE
  8
0
 10
-75.1571
 20
56.2566
 11
-75.3511
 21
55.6594
  0
LINE
  8
0
 10
-75.3511
 20
55.6594
 11
-75.6185
 21
55.0912
  0
LINE
  8
0
 10
-75.6185
 20
55.0912
 11
-75.9549
 21
54.5611
  0
LINE
  8
0
 10
-75.9549
 20
54.5611
 11
-76.3552
 21
54.0773
  0
LINE
  8
0
 10
-76.3552
 20
54.0773
 11
-76.8129
 21
53.6474
  0
LINE
  8
0
 10
-76.8129
 20
53.6474
 11
-77.3209
 21
53.2784
  0
LINE
  8
0
 10
-77.3209
 20
53.2784
 11
-77.8711
 21
52.9759
  0
LINE
  8
0
 10
-77.8711
 20
52.9759
 11
-78.4549
 21
52.7447
  0
LINE
  8
0
 10
-78.4549
 20
52.7447
 11
-79.0631
 21
52.5886
  0
LINE
  8
0
 10
-79.0631
 20
52.5886
 11
-79.6861
 21
52.5099
  0
LINE
  8
0
 10
-79.6861
 20
52.5099
 11
-80.3139
 21
52.5099
  0
LINE
  8
0
 10
-80.3139
 20
52.5099
 11
-80.9369
 21
52.5886
  0
LINE
  8
0
 10
-80.9369
 20
52.5886
 11
-81.5451
 21
52.7447
  0
LINE
  8
0
 10
-81.5451
 20
52.7447
 11
-82.1289
 21
52.9759
  0
LINE
  8
0
 10
-82.1289
 20
52.9759
 11
-82.6791
 21
53.2784
  0
LINE
  8
0
 10
-82.6791
 20
53.2784
 11
-83.1871
 21
53.6474
  0
LINE
  8
0
 10
-83.1871
 20
53.6474
 11
-83.6448
 21
54.0773
  0
LINE
  8
0
 10
-83.6448
 20
54.0773
 11
-84.0451
 21
54.5611
  0
LINE
  8
0
 10
-84.0451
 20
54.5611
 11
-84.3815
 21
55.0912
  0
LINE
  8
0
 10
-84.3815
 20
55.0912
 11
-84.6489
 21
55.6594
  0
LINE
  8
0
 10
-84.6489
 20
55.6594
 11
-84.8429
 21
56.2566
  0
LINE
  8
0
 10
-84.8429
 20
56.2566
 11
-84.9606
 21
56.8733
  0
LINE
  8
0
 10
-84.9606
 20
56.8733
 11
-85
 21
57.5
  0
LINE
  8
0
 10
-85
 20
57.5
 11
-85
 21
59.5
  0
LINE
  8
0
 10
-85
 20
59.5
 11
-100
 21
59.5
  0
LINE
  8
0
 10
-100
 20
59.5
 11
-100
 21
62.5
  0
LINE
  8
0
 10
-100
 20
62.5
 11
-103
 21
62.5
  0
LINE
  8
0
 10
-103
 20
62.5
 11
-103
 21
-62.5
  0
LINE
  8
0
 10
-103
 20
-62.5
 11
-100
 21
-62.5
  0
LINE
  8
0
 10
-100
 20
-62.5
 11
-100
 21
-59.5
  0
LINE
  8
0
 10
-100
 20
-59.5
 11
-60
 21
-59.5
  0
LINE
  8
0
 10
-60
 20
-59.5
 11
-60
 21
-62.5
  0
LINE
  8
0
 10
-60
 20
-62.5
 11
-55
 21
-62.5
  0
LINE
  8
0
 10
-55
 20
-62.5
 11
-55
 21
-52.5
  0
LINE
  8
0
 10
-55
 20
-52.5
 11
-54.9211
 21
-51.2467
  0
LINE
  8
0
 10
-54.9211
 20
-51.2467
 11
-54.6858
 21
-50.0131
  0
LINE
  8
0
 10
-54.6858
 20
-50.0131
 11
-54.2978
 21
-48.8188
  0
LINE
  8
0
 10
-54.2978
 20
-48.8188
 11
-53.7631
 21
-47.6825
  0
LINE
  8
0
 10
-53.7631
 20
-47.6825
 11
-53.0902
 21
-46.6222
  0
LINE
  8
0
 10
-53.0902
 20
-46.6222
 11
-52.2897
 21
-45.6545
  0
LINE
  8
0
 10
-52.2897
 20
-45.6545
 11
-51.3742
 21
-44.7949
  0
LINE
  8
0
 10
-51.3742
 20
-44.7949
 11
-50.3583
 21
-44.0567
  0
LINE
  8
0
 10
-50.3583
 20
-44.0567
 11
-49.2578
 21
-43.4517
  0
LINE
  8
0
 10
-49.2578
 20
-43.4517
 11
-48.0902
 21
-42.9894
  0
LINE
  8
0
 10
-48.0902
 20
-42.9894
 11
-46.8738
 21
-42.6771
  0
LINE
  8
0
 10
-46.8738
 20
-42.6771
 11
-45.6279
 21
-42.5197
  0
LINE
  8
0
 10
-45.6279
 20
-42.5197
 11
-44.3721
 21
-42.5197
  0
LINE
  8
0
 10
-44.3721
 20
-42.5197
 11
-43.1262
 21
-42.6771
  0
LINE
  8
0
 10
-43.1262
 20
-42.6771
 11
-41.9098
 21
-42.9894
  0
LINE
  8
0
 10
-41.9098
 20
-42.9894
 11
-40.7422
 21
-43.4517
  0
LINE
  8
0
 10
-40.7422
 20
-43.4517
 11
-39.6417
 21
-44.0567
  0
LINE
  8
0
 10
-39.6417
 20
-44.0567
 11
-38.6258
 21
-44.7949
  0
LINE
  8
0
 10
-38.6258
 20
-44.7949
 11
-37.7103
 21
-45.6545
  0
LINE
  8
0
 10
-37.7103
 20
-45.6545
 11
-36.9098
 21
-46.6222
  0
LINE
  8
0
 10
-36.9098
 20
-46.6222
 11
-36.2369
 21
-47.6825
  0
LINE
  8
0
 10
-36.2369
 20
-47.6825
 11
-35.7022
 21
-48.8188
  0
LINE
  8
0
 10
-35.7022
 20
-48.8188
 11
-35.3142
 21
-50.0131
  0
LINE
  8
0
 10
-35.3142
 20
-50.0131
 11
-35.0789
 21
-51.2467
  0
LINE
  8
0
 10
-35.0789
 20
-51.2467
 11
-35
 21
-52.5
  0
LINE
  8
0
 10
-35
 20
-52.5
 11
-35
 21
-62.5
  0
LINE
  8
0
 10
-35
 20
-62.5
 11
-20
 21
-62.5
  0
LINE
  8
0
 10
-20
 20
-62.5
 11
-20
 21
-59.5
  0
LINE
  8
0
 10
-20
 20
-59.5
 11
20
 21
-59.5
  0
LINE
  8
0
 10
-50.1413
 20
48.7544
 11
-50.4216
 21
48.7898
  0
LINE
  8
0
 10
-50.4216
 20
48.7898
 11
-50.6953
 21
48.8601
  0
LINE
  8
0
 10
-50.6953
 20
48.8601
 11
-50.958
 21
48.9641
  0
LINE
  8
0
 10
-50.958
 20
48.9641
 11
-51.2056
 21
49.1003
  0
LINE
  8
0
 10
-51.2056
 20
49.1003
 11
-51.4342
 21
49.2663
  0
LINE
  8
0
 10
-51.4342
 20
49.2663
 11
-51.6402
 21
49.4598
  0
LINE
  8
0
 10
-51.6402
 20
49.4598
 11
-51.8203
 21
49.6775
  0
LINE
  8
0
 10
-51.8203
 20
49.6775
 11
-51.9717
 21
49.916
  0
LINE
  8
0
 10
-51.9717
 20
49.916
 11
-52.092
 21
50.1717
  0
LINE
  8
0
 10
-52.092
 20
50.1717
 11
-52.1793
 21
50.4404
  0
LINE
  8
0
 10
-52.1793
 20
50.4404
 11
-52.2323
 21
50.718
  0
LINE
  8
0
 10
-52.2323
 20
50.718
 11
-52.25
 21
51
  0
LINE
  8
0
 10
-52.25
 20
51
 11
-52.2323
 21
51.282
  0
LINE
  8
0
 10
-52.2323
 20
51.282
 11
-52.1793
 21
51.5595
  0
LINE
  8
0
 10
-52.1793
 20
51.5595
 11
-52.092
 21
51.8283
  0
LINE
  8
0
 10
-52.092
 20
51.8283
 11
-51.9717
 21
52.0839
  0
LINE
  8
0
 10
-51.9717
 20
52.0839
 11
-51.8203
 21
52.3225
  0
LINE
  8
0
 10
-51.8203
 20
52.3225
 11
-51.6402
 21
52.5402
  0
LINE
  8
0
 10
-51.6402
 20
52.5402
 11
-51.4342
 21
52.7336
  0
LINE
  8
0
 10
-51.4342
 20
52.7336
 11
-51.2056
 21
52.8997
  0
LINE
  8
0
 10
-51.2056
 20
52.8997
 11
-50.958
 21
53.0359
  0
LINE
  8
0
 10
-50.958
 20
53.0359
 11
-50.6953
 21
53.1399
  0
LINE
  8
0
 10
-50.6953
 20
53.1399
 11
-50.4216
 21
53.2101
  0
LINE
  8
0
 10
-50.4216
 20
53.2101
 11
-50.1413
 21
53.2456
  0
LINE
  8
0
 10
-50.1413
 20
53.2456
 11
-49.8587
 21
53.2456
  0
LINE
  8
0
 10
-49.8587
 20
53.2456
 11
-49.5784
 21
53.2101
  0
LINE
  8
0
 10
-49.5784
 20
53.2101
 11
-49.3047
 21
53.1399
  0
LINE
  8
0
 10
-49.3047
 20
53.1399
 11
-49.042
 21
53.0359
  0
LINE
  8
0
 10
-49.042
 20
53.0359
 11
-48.7944
 21
52.8997
  0
LINE
  8
0
 10
-48.7944
 20
52.8997
 11
-48.5658
 21
52.7336
  0
LINE
  8
0
 10
-48.5658
 20
52.7336
 11
-48.3598
 21
52.5402
  0
LINE
  8
0
 10
-48.3598
 20
52.5402
 11
-48.1797
 21
52.3225
  0
LINE
  8
0
 10
-48.1797
 20
52.3225
 11
-48.0283
 21
52.0839
  0
LINE
  8
0
 10
-48.0283
 20
52.0839
 11
-47.908
 21
51.8283
  0
LINE
  8
0
 10
-47.908
 20
51.8283
 11
-47.8207
 21
51.5595
  0
LINE
  8
0
 10
-47.8207
 20
51.5595
 11
-47.7677
 21
51.282
  0
LINE
  8
0
 10
-47.7677
 20
51.282
 11
-47.75
 21
51
  0
LINE
  8
0
 10
-47.75
 20
51
 11
-47.7677
 21
50.718
  0
LINE
  8
0
 10
-47.7677
 20
50.718
 11
-47.8207
 21
50.4404
  0
LINE
  8
0
 10
-47.8207
 20
50.4404
 11
-47.908
 21
50.1717
  0
LINE
  8
0
 10
-47.908
 20
50.1717
 11
-48.0283
 21
49.916
  0
LINE
  8
0
 10
-48.0283
 20
49.916
 11
-48.1797
 21
49.6775
  0
LINE
  8
0
 10
-48.1797
 20
49.6775
 11
-48.3598
 21
49.4598
  0
LINE
  8
0
 10
-48.3598
 20
49.4598
 11
-48.5658
 21
49.2663
  0
LINE
  8
0
 10
-48.5658
 20
49.2663
 11
-48.7944
 21
49.1003
  0
LINE
  8
0
 10
-48.7944
 20
49.1003
 11
-49.042
 21
48.9641
  0
LINE
  8
0
 10
-49.042
 20
48.9641
 11
-49.3047
 21
48.8601
  0
LINE
  8
0
 10
-49.3047
 20
48.8601
 11
-49.5784
 21
48.7898
  0
LINE
  8
0
 10
-49.5784
 20
48.7898
 11
-49.8587
 21
48.7544
  0
LINE
  8
0
 10
-49.8587
 20
48.7544
 11
-50.1413
 21
48.7544
  0
LINE
  8
0
 10
49.8587
 20
48.7544
 11
49.5784
 21
48.7898
  0
LINE
  8
0
 10
49.5784
 20
48.7898
 11
49.3047
 21
48.8601
  0
LINE
  8
0
 10
49.3047
 20
48.8601
 11
49.042
 21
48.9641
  0
LINE
  8
0
 10
49.042
 20
48.9641
 11
48.7944
 21
49.1003
  0
LINE
  8
0
 10
48.7944
 20
49.1003
 11
48.5658
 21
49.2663
  0
LINE
  8
0
 10
48.5658
 20
49.2663
 11
48.3598
 21
49.4598
  0
LINE
  8
0
 10
48.3598
 20
49.4598
 11
48.1797
 21
49.6775
  0
LINE
  8
0
 10
48.1797
 20
49.6775
 11
48.0283
 21
49.916
  0
LINE
  8
0
 10
48.0283
 20
49.916
 11
47.908
 21
50.1717
  0
LINE
  8
0
 10
47.908
 20
50.1717
 11
47.8207
 21
50.4404
  0
LINE
  8
0
 10
47.8207
 20
50.4404
 11
47.7677
 21
50.718
  0
LINE
  8
0
 10
47.7677
 20
50.718
 11
47.75
 21
51
  0
LINE
  8
0
 10
47.75
 20
51
 11
47.7677
 21
51.282
  0
LINE
  8
0
 10
47.7677
 20
51.282
 11
47.8207
 21
51.5595
  0
LINE
  8
0
 10
47.8207
 20
51.5595
 11
47.908
 21
51.8283
  0
LINE
  8
0
 10
47.908
 20
51.8283
 11
48.0283
 21
52.0839
  0
LINE
  8
0
 10
48.0283
 20
52.0839
 11
48.1797
 21
52.3225
  0
LINE
  8
0
 10
48.1797
 20
52.3225
 11
48.3598
 21
52.5402
  0
LINE
  8
0
 10
48.3598
 20
52.5402
 11
48.5658
 21
52.7336
  0
LINE
  8
0
 10
48.5658
 20
52.7336
 11
48.7944
 21
52.8997
  0
LINE
  8
0
 10
48.7944
 20
52.8997
 11
49.042
 21
53.0359
  0
LINE
  8
0
 10
49.042
 20
53.0359
 11
49.3047
 21
53.1399
  0
LINE
  8
0
 10
49.3047
 20
53.1399
 11
49.5784
 21
53.2101
  0
LINE
  8
0
 10
49.5784
 20
53.2101
 11
49.8587
 21
53.2456
  0
LINE
  8
0
 10
49.8587
 20
53.2456
 11
50.1413
 21
53.2456
  0
LINE
  8
0
 10
50.1413
 20
53.2456
 11
50.4216
 21
53.2101
  0
LINE
  8
0
 10
50.4216
 20
53.2101
 11
50.6953
 21
53.1399
  0
LINE
  8
0
 10
50.6953
 20
53.1399
 11
50.958
 21
53.0359
  0
LINE
  8
0
 10
50.958
 20
53.0359
 11
51.2056
 21
52.8997
  0
LINE
  8
0
 10
51.2056
 20
52.8997
 11
51.4342
 21
52.7336
  0
LINE
  8
0
 10
51.4342
 20
52.7336
 11
51.6402
 21
52.5402
  0
LINE
  8
0
 10
51.6402
 20
52.5402
 11
51.8203
 21
52.3225
  0
LINE
  8
0
 10
51.8203
 20
52.3225
 11
51.9717
 21
52.0839
  0
LINE
  8
0
 10
51.9717
 20
52.0839
 11
52.092
 21
51.8283
  0
LINE
  8
0
 10
52.092
 20
51.8283
 11
52.1793
 21
51.5595
  0
LINE
  8
0
 10
52.1793
 20
51.5595
 11
52.2323
 21
51.282
  0
LINE
  8
0
 10
52.2323
 20
51.282
 11
52.25
 21
51
  0
LINE
  8
0
 10
52.25
 20
51
 11
52.2323
 21
50.718
  0
LINE
  8
0
 10
52.2323
 20
50.718
 11
52.1793
 21
50.4404
  0
LINE
  8
0
 10
52.1793
 20
50.4404
 11
52.092
 21
50.1717
  0
LINE
  8
0
 10
52.092
 20
50.1717
 11
51.9717
 21
49.916
  0
LINE
  8
0
 10
51.9717
 20
49.916
 11
51.8203
 21
49.6775
  0
LINE
  8
0
 10
51.8203
 20
49.6775
 11
51.6402
 21
49.4598
  0
LINE
  8
0
 10
51.6402
 20
49.4598
 11
51.4342
 21
49.2663
  0
LINE
  8
0
 10
51.4342
 20
49.2663
 11
51.2056
 21
49.1003
  0
LINE
  8
0
 10
51.2056
 20
49.1003
 11
50.958
 21
48.9641
  0
LINE
  8
0
 10
50.958
 20
48.9641
 11
50.6953
 21
48.8601
  0
LINE
  8
0
 10
50.6953
 20
48.8601
 11
50.4216
 21
48.7898
  0
LINE
  8
0
 10
50.4216
 20
48.7898
 11
50.1413
 21
48.7544
  0
LINE
  8
0
 10
50.1413
 20
48.7544
 11
49.8587
 21
48.7544
  0
LINE
  8
0
 10
98.3901
 20
38.2534
 11
98.1721
 21
38.281
  0
LINE
  8
0
 10
98.1721
 20
38.281
 11
97.9592
 21
38.3356
  0
LINE
  8
0
 10
97.9592
 20
38.3356
 11
97.7549
 21
38.4165
  0
LINE
  8
0
 10
97.7549
 20
38.4165
 11
97.5623
 21
38.5224
  0
LINE
  8
0
 10
97.5623
 20
38.5224
 11
97.3845
 21
38.6516
  0
LINE
  8
0
 10
97.3845
 20
38.6516
 11
97.2243
 21
38.802
  0
LINE
  8
0
 10
97.2243
 20
38.802
 11
97.0842
 21
38.9714
  0
LINE
  8
0
 10
97.0842
 20
38.9714
 11
96.9665
 21
39.1569
  0
LINE
  8
0
 10
96.9665
 20
39.1569
 11
96.8729
 21
39.3558
  0
LINE
  8
0
 10
96.8729
 20
39.3558
 11
96.805
 21
39.5648
  0
LINE
  8
0
 10
96.805
 20
39.5648
 11
96.7638
 21
39.7807
  0
LINE
  8
0
 10
96.7638
 20
39.7807
 11
96.75
 21
40
  0
LINE
  8
0
 10
96.75
 20
40
 11
96.7638
 21
40.2193
  0
LINE
  8
0
 10
96.7638
 20
40.2193
 11
96.805
 21
40.4352
  0
LINE
  8
0
 10
96.805
 20
40.4352
 11
96.8729
 21
40.6442
  0
LINE
  8
0
 10
96.8729
 20
40.6442
 11
96.9665
 21
40.8431
  0
LINE
  8
0
 10
96.9665
 20
40.8431
 11
97.0842
 21
41.0286
  0
LINE
  8
0
 10
97.0842
 20
41.0286
 11
97.2243
 21
41.198
  0
LINE
  8
0
 10
97.2243
 20
41.198
 11
97.3845
 21
41.3484
  0
LINE
  8
0
 10
97.3845
 20
41.3484
 11
97.5623
 21
41.4776
  0
LINE
  8
0
 10
97.5623
 20
41.4776
 11
97.7549
 21
41.5834
  0
LINE
  8
0
 10
97.7549
 20
41.5834
 11
97.9592
 21
41.6643
  0
LINE
  8
0
 10
97.9592
 20
41.6643
 11
98.1721
 21
41.719
  0
LINE
  8
0
 10
98.1721
 20
41.719
 11
98.3901
 21
41.7465
  0
LINE
  8
0
 10
98.3901
 20
41.7465
 11
98.6099
 21
41.7465
  0
LINE
  8
0
 10
98.6099
 20
41.7465
 11
98.8279
 21
41.719
  0
LINE
  8
0
 10
98.8279
 20
41.719
 11
99.0408
 21
41.6643
  0
LINE
  8
0
 10
99.0408
 20
41.6643
 11
99.2451
 21
41.5834
  0
LINE
  8
0
 10
99.2451
 20
41.5834
 11
99.4377
 21
41.4776
  0
LINE
  8
0
 10
99.4377
 20
41.4776
 11
99.6155
 21
41.3484
  0
LINE
  8
0
 10
99.6155
 20
41.3484
 11
99.7757
 21
41.198
  0
LINE
  8
0
 10
99.7757
 20
41.198
 11
99.9158
 21
41.0286
  0
LINE
  8
0
 10
99.9158
 20
41.0286
 11
100.034
 21
40.8431
  0
LINE
  8
0
 10
100.034
 20
40.8431
 11
100.127
 21
40.6442
  0
LINE
  8
0
 10
100.127
 20
40.6442
 11
100.195
 21
40.4352
  0
LINE
  8
0
 10
100.195
 20
40.4352
 11
100.236
 21
40.2193
  0
LINE
  8
0
 10
100.236
 20
40.2193
 11
100.25
 21
40
  0
LINE
  8
0
 10
100.25
 20
40
 11
100.236
 21
39.7807
  0
LINE
  8
0
 10
100.236
 20
39.7807
 11
100.195
 21
39.5648
  0
LINE
  8
0
 10
100.195
 20
39.5648
 11
100.127
 21
39.3558
  0
LINE
  8
0
 10
100.127
 20
39.3558
 11
100.034
 21
39.1569
  0
LINE
  8
0
 10
100.034
 20
39.1569
 11
99.9158
 21
38.9714
  0
LINE
  8
0
 10
99.9158
 20
38.9714
 11
99.7757
 21
38.802
  0
LINE
  8
0
 10
99.7757
 20
38.802
 11
99.6155
 21
38.6516
  0
LINE
  8
0
 10
99.6155
 20
38.6516
 11
99.4377
 21
38.5224
  0
LINE
  8
0
 10
99.4377
 20
38.5224
 11
99.2451
 21
38.4165
  0
LINE
  8
0
 10
99.2451
 20
38.4165
 11
99.0408
 21
38.3356
  0
LINE
  8
0
 10
99.0408
 20
38.3356
 11
98.8279
 21
38.281
  0
LINE
  8
0
 10
98.8279
 20
38.281
 11
98.6099
 21
38.2534
  0
LINE
  8
0
 10
98.6099
 20
38.2534
 11
98.3901
 21
38.2534
  0
LINE
  8
0
 10
-98.6099
 20
38.2534
 11
-98.8279
 21
38.281
  0
LINE
  8
0
 10
-98.8279
 20
38.281
 11
-99.0408
 21
38.3356
  0
LINE
  8
0
 10
-99.0408
 20
38.3356
 11
-99.2451
 21
38.4165
  0
LINE
  8
0
 10
-99.2451
 20
38.4165
 11
-99.4377
 21
38.5224
  0
LINE
  8
0
 10
-99.4377
 20
38.5224
 11
-99.6155
 21
38.6516
  0
LINE
  8
0
 10
-99.6155
 20
38.6516
 11
-99.7757
 21
38.802
  0
LINE
  8
0
 10
-99.7757
 20
38.802
 11
-99.9158
 21
38.9714
  0
LINE
  8
0
 10
-99.9158
 20
38.9714
 11
-100.034
 21
39.1569
  0
LINE
  8
0
 10
-100.034
 20
39.1569
 11
-100.127
 21
39.3558
  0
LINE
  8
0
 10
-100.127
 20
39.3558
 11
-100.195
 21
39.5648
  0
LINE
  8
0
 10
-100.195
 20
39.5648
 11
-100.236
 21
39.7807
  0
LINE
  8
0
 10
-100.236
 20
39.7807
 11
-100.25
 21
40
  0
LINE
  8
0
 10
-100.25
 20
40
 11
-100.236
 21
40.2193
  0
LINE
  8
0
 10
-100.236
 20
40.2193
 11
-100.195
 21
40.4352
  0
LINE
  8
0
 10
-100.195
 20
40.4352
 11
-100.127
 21
40.6442
  0
LINE
  8
0
 10
-100.127
 20
40.6442
 11
-100.034
 21
40.8431
  0
LINE
  8
0
 10
-100.034
 20
40.8431
 11
-99.9158
 21
41.0286
  0
LINE
  8
0
 10
-99.9158
 20
41.0286
 11
-99.7757
 21
41.198
  0
LINE
  8
0
 10
-99.7757
 20
41.198
 11
-99.6155
 21
41.3484
  0
LINE
  8
0
 10
-99.6155
 20
41.3484
 11
-99.4377
 21
41.4776
  0
LINE
  8
0
 10
-99.4377
 20
41.4776
 11
-99.2451
 21
41.5834
  0
LINE
  8
0
 10
-99.2451
 20
41.5834
 11
-99.0408
 21
41.6643
  0
LINE
  8
0
 10
-99.0408
 20
41.6643
 11
-98.8279
 21
41.719
  0
LINE
  8
0
 10
-98.8279
 20
41.719
 11
-98.6099
 21
41.7465
  0
LINE
  8
0
 10
-98.6099
 20
41.7465
 11
-98.3901
 21
41.7465
  0
LINE
  8
0
 10
-98.3901
 20
41.7465
 11
-98.1721
 21
41.719
  0
LINE
  8
0
 10
-98.1721
 20
41.719
 11
-97.9592
 21
41.6643
  0
LINE
  8
0
 10
-97.9592
 20
41.6643
 11
-97.7549
 21
41.5834
  0
LINE
  8
0
 10
-97.7549
 20
41.5834
 11
-97.5623
 21
41.4776
  0
LINE
  8
0
 10
-97.5623
 20
41.4776
 11
-97.3845
 21
41.3484
  0
LINE
  8
0
 10
-97.3845
 20
41.3484
 11
-97.2243
 21
41.198
  0
LINE
  8
0
 10
-97.2243
 20
41.198
 11
-97.0842
 21
41.0286
  0
LINE
  8
0
 10
-97.0842
 20
41.0286
 11
-96.9665
 21
40.8431
  0
LINE
  8
0
 10
-96.9665
 20
40.8431
 11
-96.8729
 21
40.6442
  0
LINE
  8
0
 10
-96.8729
 20
40.6442
 11
-96.805
 21
40.4352
  0
LINE
  8
0
 10
-96.805
 20
40.4352
 11
-96.7638
 21
40.2193
  0
LINE
  8
0
 10
-96.7638
 20
40.2193
 11
-96.75
 21
40
  0
LINE
  8
0
 10
-96.75
 20
40
 11
-96.7638
 21
39.7807
  0
LINE
  8
0
 10
-96.7638
 20
39.7807
 11
-96.805
 21
39.5648
  0
LINE
  8
0
 10
-96.805
 20
39.5648
 11
-96.8729
 21
39.3558
  0
LINE
  8
0
 10
-96.8729
 20
39.3558
 11
-96.9665
 21
39.1569
  0
LINE
  8
0
 10
-96.9665
 20
39.1569
 11
-97.0842
 21
38.9714
  0
LINE
  8
0
 10
-97.0842
 20
38.9714
 11
-97.2243
 21
38.802
  0
LINE
  8
0
 10
-97.2243
 20
38.802
 11
-97.3845
 21
38.6516
  0
LINE
  8
0
 10
-97.3845
 20
38.6516
 11
-97.5623
 21
38.5224
  0
LINE
  8
0
 10
-97.5623
 20
38.5224
 11
-97.7549
 21
38.4165
  0
LINE
  8
0
 10
-97.7549
 20
38.4165
 11
-97.9592
 21
38.3356
  0
LINE
  8
0
 10
-97.9592
 20
38.3356
 11
-98.1721
 21
38.281
  0
LINE
  8
0
 10
-98.1721
 20
38.281
 11
-98.3901
 21
38.2534
  0
LINE
  8
0
 10
-98.3901
 20
38.2534
 11
-98.6099
 21
38.2534
  0
LINE
  8
0
 10
69.5291
 20
7.5148
 11
68.5947
 21
7.63286
  0
LINE
  8
0
 10
68.5947
 20
7.63286
 11
67.6824
 21
7.86708
  0
LINE
  8
0
 10
67.6824
 20
7.86708
 11
66.8067
 21
8.21381
  0
LINE
  8
0
 10
66.8067
 20
8.21381
 11
65.9813
 21
8.66754
  0
LINE
  8
0
 10
65.9813
 20
8.66754
 11
65.2193
 21
9.22116
  0
LINE
  8
0
 10
65.2193
 20
9.22116
 11
64.5327
 21
9.86591
  0
LINE
  8
0
 10
64.5327
 20
9.86591
 11
63.9324
 21
10.5916
  0
LINE
  8
0
 10
63.9324
 20
10.5916
 11
63.4277
 21
11.3869
  0
LINE
  8
0
 10
63.4277
 20
11.3869
 11
63.0267
 21
12.2391
  0
LINE
  8
0
 10
63.0267
 20
12.2391
 11
62.7356
 21
13.1348
  0
LINE
  8
0
 10
62.7356
 20
13.1348
 11
62.5591
 21
14.06
  0
LINE
  8
0
 10
62.5591
 20
14.06
 11
62.5
 21
15
  0
LINE
  8
0
 10
62.5
 20
15
 11
62.5591
 21
15.94
  0
LINE
  8
0
 10
62.5591
 20
15.94
 11
62.7356
 21
16.8652
  0
LINE
  8
0
 10
62.7356
 20
16.8652
 11
63.0267
 21
17.7609
  0
LINE
  8
0
 10
63.0267
 20
17.7609
 11
63.4277
 21
18.6132
  0
LINE
  8
0
 10
63.4277
 20
18.6132
 11
63.9324
 21
19.4084
  0
LINE
  8
0
 10
63.9324
 20
19.4084
 11
64.5327
 21
20.1341
  0
LINE
  8
0
 10
64.5327
 20
20.1341
 11
65.2193
 21
20.7789
  0
LINE
  8
0
 10
65.2193
 20
20.7789
 11
65.9813
 21
21.3325
  0
LINE
  8
0
 10
65.9813
 20
21.3325
 11
66.5
 21
21.6176
  0
LINE
  8
0
 10
66.5
 20
21.6176
 11
66.5
 21
35
  0
LINE
  8
0
 10
66.5
 20
35
 11
66.5276
 21
35.4387
  0
LINE
  8
0
 10
66.5276
 20
35.4387
 11
66.61
 21
35.8704
  0
LINE
  8
0
 10
66.61
 20
35.8704
 11
66.7458
 21
36.2884
  0
LINE
  8
0
 10
66.7458
 20
36.2884
 11
66.9329
 21
36.6861
  0
LINE
  8
0
 10
66.9329
 20
36.6861
 11
67.1684
 21
37.0572
  0
LINE
  8
0
 10
67.1684
 20
37.0572
 11
67.4486
 21
37.3959
  0
LINE
  8
0
 10
67.4486
 20
37.3959
 11
67.769
 21
37.6968
  0
LINE
  8
0
 10
67.769
 20
37.6968
 11
68.1246
 21
37.9551
  0
LINE
  8
0
 10
68.1246
 20
37.9551
 11
68.5098
 21
38.1669
  0
LINE
  8
0
 10
68.5098
 20
38.1669
 11
68.9184
 21
38.3287
  0
LINE
  8
0
 10
68.9184
 20
38.3287
 11
69.3442
 21
38.438
  0
LINE
  8
0
 10
69.3442
 20
38.438
 11
69.7802
 21
38.4931
  0
LINE
  8
0
 10
69.7802
 20
38.4931
 11
70.2198
 21
38.4931
  0
LINE
  8
0
 10
70.2198
 20
38.4931
 11
70.6558
 21
38.438
  0
LINE
  8
0
 10
70.6558
 20
38.438
 11
71.0816
 21
38.3287
  0
LINE
  8
0
 10
71.0816
 20
38.3287
 11
71.4902
 21
38.1669
  0
LINE
  8
0
 10
71.4902
 20
38.1669
 11
71.8754
 21
37.9551
  0
LINE
  8
0
 10
71.8754
 20
37.9551
 11
72.231
 21
37.6968
  0
LINE
  8
0
 10
72.231
 20
37.6968
 11
72.5514
 21
37.3959
  0
LINE
  8
0
 10
72.5514
 20
37.3959
 11
72.8316
 21
37.0572
  0
LINE
  8
0
 10
72.8316
 20
37.0572
 11
73.0671
 21
36.6861
  0
LINE
  8
0
 10
73.0671
 20
36.6861
 11
73.2542
 21
36.2884
  0
LINE
  8
0
 10
73.2542
 20
36.2884
 11
73.39
 21
35.8704
  0
LINE
  8
0
 10
73.39
 20
35.8704
 11
73.4724
 21
35.4387
  0
LINE
  8
0
 10
73.4724
 20
35.4387
 11
73.5
 21
35
  0
LINE
  8
0
 10
73.5
 20
35
 11
73.5
 21
21.6176
  0
LINE
  8
0
 10
73.5
 20
21.6176
 11
74.0187
 21
21.3325
  0
LINE
  8
0
 10
74.0187
 20
21.3325
 11
74.7807
 21
20.7789
  0
LINE
  8
0
 10
74.7807
 20
20.7789
 11
75.4673
 21
20.1341
  0
LINE
  8
0
 10
75.4673
 20
20.1341
 11
76.0676
 21
19.4084
  0
LINE
  8
0
 10
76.0676
 20
19.4084
 11
76.5723
 21
18.6132
  0
LINE
  8
0
 10
76.5723
 20
18.6132
 11
76.9733
 21
17.7609
  0
LINE
  8
0
 10
76.9733
 20
17.7609
 11
77.2644
 21
16.8652
  0
LINE
  8
0
 10
77.2644
 20
16.8652
 11
77.4409
 21
15.94
  0
LINE
  8
0
 10
77.4409
 20
15.94
 11
77.5
 21
15
  0
LINE
  8
0
 10
77.5
 20
15
 11
77.4409
 21
14.06
  0
LINE
  8
0
 10
77.4409
 20
14.06
 11
77.2644
 21
13.1348
  0
LINE
  8
0
 10
77.2644
 20
13.1348
 11
76.9733
 21
12.2391
  0
LINE
  8
0
 10
76.9733
 20
12.2391
 11
76.5723
 21
11.3869
  0
LINE
  8
0
 10
76.5723
 20
11.3869
 11
76.0676
 21
10.5916
  0
LINE
  8
0
 10
76.0676
 20
10.5916
 11
75.4673
 21
9.86591
  0
LINE
  8
0
 10
75.4673
 20
9.86591
 11
74.7807
 21
9.22116
  0
LINE
  8
0
 10
74.7807
 20
9.22116
 11
74.0187
 21
8.66754
  0
LINE
  8
0
 10
74.0187
 20
8.66754
 11
73.1933
 21
8.21381
  0
LINE
  8
0
 10
73.1933
 20
8.21381
 11
72.3176
 21
7.86708
  0
LINE
  8
0
 10
72.3176
 20
7.86708
 11
71.4053
 21
7.63286
  0
LINE
  8
0
 10
71.4053
 20
7.63286
 11
70.4709
 21
7.5148
  0
LINE
  8
0
 10
70.4709
 20
7.5148
 11
69.5291
 21
7.5148
  0
LINE
  8
0
 10
-70.4709
 20
7.5148
 11
-71.4053
 21
7.63286
  0
LINE
  8
0
 10
-71.4053
 20
7.63286
 11
-72.3176
 21
7.86708
  0
LINE
  8
0
 10
-72.3176
 20
7.86708
 11
-73.1933
 21
8.21381
  0
LINE
  8
0
 10
-73.1933
 20
8.21381
 11
-74.0187
 21
8.66754
  0
LINE
  8
0
 10
-74.0187
 20
8.66754
 11
-74.7807
 21
9.22116
  0
LINE
  8
0
 10
-74.7807
 20
9.22116
 11
-75.4673
 21
9.86591
  0
LINE
  8
0
 10
-75.4673
 20
9.86591
 11
-76.0676
 21
10.5916
  0
LINE
  8
0
 10
-76.0676
 20
10.5916
 11
-76.5723
 21
11.3869
  0
LINE
  8
0
 10
-76.5723
 20
11.3869
 11
-76.9733
 21
12.2391
  0
LINE
  8
0
 10
-76.9733
 20
12.2391
 11
-77.2644
 21
13.1348
  0
LINE
  8
0
 10
-77.2644
 20
13.1348
 11
-77.4409
 21
14.06
  0
LINE
  8
0
 10
-77.4409
 20
14.06
 11
-77.5
 21
15
  0
LINE
  8
0
 10
-77.5
 20
15
 11
-77.4409
 21
15.94
  0
LINE
  8
0
 10
-77.4409
 20
15.94
 11
-77.2644
 21
16.8652
  0
LINE
  8
0
 10
-77.2644
 20
16.8652
 11
-76.9733
 21
17.7609
  0
LINE
  8
0
 10
-76.9733
 20
17.7609
 11
-76.5723
 21
18.6132
  0
LINE
  8
0
 10
-76.5723
 20
18.6132
 11
-76.0676
 21
19.4084
  0
LINE
  8
0
 10
-76.0676
 20
19.4084
 11
-75.4673
 21
20.1341
  0
LINE
  8
0
 10
-75.4673
 20
20.1341
 11
-74.7807
 21
20.7789
  0
LINE
  8
0
 10
-74.7807
 20
20.7789
 11
-74.0187
 21
21.3325
  0
LINE
  8
0
 10
-74.0187
 20
21.3325
 11
-73.5
 21
21.6176
  0
LINE
  8
0
 10
-73.5
 20
21.6176
 11
-73.5
 21
35
  0
LINE
  8
0
 10
-73.5
 20
35
 11
-73.4724
 21
35.4387
  0
LINE
  8
0
 10
-73.4724
 20
35.4387
 11
-73.39
 21
35.8704
  0
LINE
  8
0
 10
-73.39
 20
35.8704
 11
-73.2542
 21
36.2884
  0
LINE
  8
0
 10
-73.2542
 20
36.2884
 11
-73.0671
 21
36.6861
  0
LINE
  8
0
 10
-73.0671
 20
36.6861
 11
-72.8316
 21
37.0572
  0
LINE
  8
0
 10
-72.8316
 20
37.0572
 11
-72.5514
 21
37.3959
  0
LINE
  8
0
 10
-72.5514
 20
37.3959
 11
-72.231
 21
37.6968
  0
LINE
  8
0
 10
-72.231
 20
37.6968
 11
-71.8754
 21
37.9551
  0
LINE
  8
0
 10
-71.8754
 20
37.9551
 11
-71.4902
 21
38.1669
  0
LINE
  8
0
 10
-71.4902
 20
38.1669
 11
-71.0816
 21
38.3287
  0
LINE
  8
0
 10
-71.0816
 20
38.3287
 11
-70.6558
 21
38.438
  0
LINE
  8
0
 10
-70.6558
 20
38.438
 11
-70.2198
 21
38.4931
  0
LINE
  8
0
 10
-70.2198
 20
38.4931
 11
-69.7802
 21
38.4931
  0
LINE
  8
0
 10
-69.7802
 20
38.4931
 11
-69.3442
 21
38.438
  0
LINE
  8
0
 10
-69.3442
 20
38.438
 11
-68.9184
 21
38.3287
  0
LINE
  8
0
 10
-68.9184
 20
38.3287
 11
-68.5098
 21
38.1669
  0
LINE
  8
0
 10
-68.5098
 20
38.1669
 11
-68.1246
 21
37.9551
  0
LINE
  8
0
 10
-68.1246
 20
37.9551
 11
-67.769
 21
37.6968
  0
LINE
  8
0
 10
-67.769
 20
37.6968
 11
-67.4486
 21
37.3959
  0
LINE
  8
0
 10
-67.4486
 20
37.3959
 11
-67.1684
 21
37.0572
  0
LINE
  8
0
 10
-67.1684
 20
37.0572
 11
-66.9329
 21
36.6861
  0
LINE
  8
0
 10
-66.9329
 20
36.6861
 11
-66.7458
 21
36.2884
  0
LINE
  8
0
 10
-66.7458
 20
36.2884
 11
-66.61
 21
35.8704
  0
LINE
  8
0
 10
-66.61
 20
35.8704
 11
-66.5276
 21
35.4387
  0
LINE
  8
0
 10
-66.5276
 20
35.4387
 11
-66.5
 21
35
  0
LINE
  8
0
 10
-66.5
 20
35
 11
-66.5
 21
21.6176
  0
LINE
  8
0
 10
-66.5
 20
21.6176
 11
-65.9813
 21
21.3325
  0
LINE
  8
0
 10
-65.9813
 20
21.3325
 11
-65.2193
 21
20.7789
  0
LINE
  8
0
 10
-65.2193
 20
20.7789
 11
-64.5327
 21
20.1341
  0
LINE
  8
0
 10
-64.5327
 20
20.1341
 11
-63.9324
 21
19.4084
  0
LINE
  8
0
 10
-63.9324
 20
19.4084
 11
-63.4277
 21
18.6132
  0
LINE
  8
0
 10
-63.4277
 20
18.6132
 11
-63.0267
 21
17.7609
  0
LINE
  8
0
 10
-63.0267
 20
17.7609
 11
-62.7356
 21
16.8652
  0
LINE
  8
0
 10
-62.7356
 20
16.8652
 11
-62.5591
 21
15.94
  0
LINE
  8
0
 10
-62.5591
 20
15.94
 11
-62.5
 21
15
  0
LINE
  8
0
 10
-62.5
 20
15
 11
-62.5591
 21
14.06
  0
LINE
  8
0
 10
-62.5591
 20
14.06
 11
-62.7356
 21
13.1348
  0
LINE
  8
0
 10
-62.7356
 20
13.1348
 11
-63.0267
 21
12.2391
  0
LINE
  8
0
 10
-63.0267
 20
12.2391
 11
-63.4277
 21
11.3869
  0
LINE
  8
0
 10
-63.4277
 20
11.3869
 11
-63.9324
 21
10.5916
  0
LINE
  8
0
 10
-63.9324
 20
10.5916
 11
-64.5327
 21
9.86591
  0
LINE
  8
0
 10
-64.5327
 20
9.86591
 11
-65.2193
 21
9.22116
  0
LINE
  8
0
 10
-65.2193
 20
9.22116
 11
-65.9813
 21
8.66754
  0
LINE
  8
0
 10
-65.9813
 20
8.66754
 11
-66.8067
 21
8.21381
  0
LINE
  8
0
 10
-66.8067
 20
8.21381
 11
-67.6824
 21
7.86708
  0
LINE
  8
0
 10
-67.6824
 20
7.86708
 11
-68.5947
 21
7.63286
  0
LINE
  8
0
 10
-68.5947
 20
7.63286
 11
-69.5291
 21
7.5148
  0
LINE
  8
0
 10
-69.5291
 20
7.5148
 11
-70.4709
 21
7.5148
  0
LINE
  8
0
 10
-100
 20
-20
 11
-100
 21
20
  0
LINE
  8
0
 10
-100
 20
20
 11
-97
 21
20
  0
LINE
  8
0
 10
-97
 20
20
 11
-97
 21
-20
  0
LINE
  8
0
 10
-97
 20
-20
 11
-100
 21
-20
  0
LINE
  8
0
 10
97
 20
-20
 11
97
 21
20
  0
LINE
  8
0
 10
97
 20
20
 11
100
 21
20
  0
LINE
  8
0
 10
100
 20
20
 11
100
 21
-20
  0
LINE
  8
0
 10
100
 20
-20
 11
97
 21
-20
  0
LINE
  8
0
 10
-50.1413
 20
-1.24556
 11
-50.4216
 21
-1.21014
  0
LINE
  8
0
 10
-50.4216
 20
-1.21014
 11
-50.6953
 21
-1.13986
  0
LINE
  8
0
 10
-50.6953
 20
-1.13986
 11
-50.958
 21
-1.03586
  0
LINE
  8
0
 10
-50.958
 20
-1.03586
 11
-51.2056
 21
-0.899734
  0
LINE
  8
0
 10
-51.2056
 20
-0.899734
 11
-51.4342
 21
-0.733643
  0
LINE
  8
0
 10
-51.4342
 20
-0.733643
 11
-51.6402
 21
-0.540222
  0
LINE
  8
0
 10
-51.6402
 20
-0.540222
 11
-51.8203
 21
-0.32251
  0
LINE
  8
0
 10
-51.8203
 20
-0.32251
 11
-51.9717
 21
-0.0839386
  0
LINE
  8
0
 10
-51.9717
 20
-0.0839386
 11
-52.092
 21
0.171722
  0
LINE
  8
0
 10
-52.092
 20
0.171722
 11
-52.1793
 21
0.44046
  0
LINE
  8
0
 10
-52.1793
 20
0.44046
 11
-52.2323
 21
0.718002
  0
LINE
  8
0
 10
-52.2323
 20
0.718002
 11
-52.25
 21
1
  0
LINE
  8
0
 10
-52.25
 20
1
 11
-52.2323
 21
1.28201
  0
LINE
  8
0
 10
-52.2323
 20
1.28201
 11
-52.1793
 21
1.55956
  0
LINE
  8
0
 10
-52.1793
 20
1.55956
 11
-52.092
 21
1.82829
  0
LINE
  8
0
 10
-52.092
 20
1.82829
 11
-51.9717
 21
2.08395
  0
LINE
  8
0
 10
-51.9717
 20
2.08395
 11
-51.8203
 21
2.32253
  0
LINE
  8
0
 10
-51.8203
 20
2.32253
 11
-51.6402
 21
2.54024
  0
LINE
  8
0
 10
-51.6402
 20
2.54024
 11
-51.4342
 21
2.73366
  0
LINE
  8
0
 10
-51.4342
 20
2.73366
 11
-51.2056
 21
2.89975
  0
LINE
  8
0
 10
-51.2056
 20
2.89975
 11
-50.958
 21
3.03587
  0
LINE
  8
0
 10
-50.958
 20
3.03587
 11
-50.6953
 21
3.13988
  0
LINE
  8
0
 10
-50.6953
 20
3.13988
 11
-50.4216
 21
3.21016
  0
LINE
  8
0
 10
-50.4216
 20
3.21016
 11
-50.1413
 21
3.24557
  0
LINE
  8
0
 10
-50.1413
 20
3.24557
 11
-49.8587
 21
3.24557
  0
LINE
  8
0
 10
-49.8587
 20
3.24557
 11
-49.5784
 21
3.21016
  0
LINE
  8
0
 10
-49.5784
 20
3.21016
 11
-49.3047
 21
3.13988
  0
LINE
  8
0
 10
-49.3047
 20
3.13988
 11
-49.042
 21
3.03587
  0
LINE
  8
0
 10
-49.042
 20
3.03587
 11
-48.7944
 21
2.89975
  0
LINE
  8
0
 10
-48.7944
 20
2.89975
 11
-48.5658
 21
2.73366
  0
LINE
  8
0
 10
-48.5658
 20
2.73366
 11
-48.3598
 21
2.54024
  0
LINE
  8
0
 10
-48.3598
 20
2.54024
 11
-48.1797
 21
2.32253
  0
LINE
  8
0
 10
-48.1797
 20
2.32253
 11
-48.0283
 21
2.08395
  0
LINE
  8
0
 10
-48.0283
 20
2.08395
 11
-47.908
 21
1.82829
  0
LINE
  8
0
 10
-47.908
 20
1.82829
 11
-47.8207
 21
1.55956
  0
LINE
  8
0
 10
-47.8207
 20
1.55956
 11
-47.7677
 21
1.28201
  0
LINE
  8
0
 10
-47.7677
 20
1.28201
 11
-47.75
 21
1
  0
LINE
  8
0
 10
-47.75
 20
1
 11
-47.7677
 21
0.718002
  0
LINE
  8
0
 10
-47.7677
 20
0.718002
 11
-47.8207
 21
0.44046
  0
LINE
  8
0
 10
-47.8207
 20
0.44046
 11
-47.908
 21
0.171722
  0
LINE
  8
0
 10
-47.908
 20
0.171722
 11
-48.0283
 21
-0.0839386
  0
LINE
  8
0
 10
-48.0283
 20
-0.0839386
 11
-48.1797
 21
-0.32251
  0
LINE
  8
0
 10
-48.1797
 20
-0.32251
 11
-48.3598
 21
-0.540222
  0
LINE
  8
0
 10
-48.3598
 20
-0.540222
 11
-48.5658
 21
-0.733643
  0
LINE
  8
0
 10
-48.5658
 20
-0.733643
 11
-48.7944
 21
-0.899734
  0
LINE
  8
0
 10
-48.7944
 20
-0.899734
 11
-49.042
 21
-1.03586
  0
LINE
  8
0
 10
-49.042
 20
-1.03586
 11
-49.3047
 21
-1.13986
  0
LINE
  8
0
 10
-49.3047
 20
-1.13986
 11
-49.5784
 21
-1.21014
  0
LINE
  8
0
 10
-49.5784
 20
-1.21014
 11
-49.8587
 21
-1.24556
  0
LINE
  8
0
 10
-49.8587
 20
-1.24556
 11
-50.1413
 21
-1.24556
  0
LINE
  8
0
 10
49.8587
 20
-1.24556
 11
49.5784
 21
-1.21014
  0
LINE
  8
0
 10
49.5784
 20
-1.21014
 11
49.3047
 21
-1.13986
  0
LINE
  8
0
 10
49.3047
 20
-1.13986
 11
49.042
 21
-1.03586
  0
LINE
  8
0
 10
49.042
 20
-1.03586
 11
48.7944
 21
-0.899734
  0
LINE
  8
0
 10
48.7944
 20
-0.899734
 11
48.5658
 21
-0.733643
  0
LINE
  8
0
 10
48.5658
 20
-0.733643
 11
48.3598
 21
-0.540222
  0
LINE
  8
0
 10
48.3598
 20
-0.540222
 11
48.1797
 21
-0.32251
  0
LINE
  8
0
 10
48.1797
 20
-0.32251
 11
48.0283
 21
-0.0839386
  0
LINE
  8
0
 10
48.0283
 20
-0.0839386
 11
47.908
 21
0.171722
  0
LINE
  8
0
 10
47.908
 20
0.171722
 11
47.8207
 21
0.44046
  0
LINE
  8
0
 10
47.8207
 20
0.44046
 11
47.7677
 21
0.718002
  0
LINE
  8
0
 10
47.7677
 20
0.718002
 11
47.75
 21
1
  0
LINE
  8
0
 10
47.75
 20
1
 11
47.7677
 21
1.28201
  0
LINE
  8
0
 10
47.7677
 20
1.28201
 11
47.8207
 21
1.55956
  0
LINE
  8
0
 10
47.8207
 20
1.55956
 11
47.908
 21
1.82829
  0
LINE
  8
0
 10
47.908
 20
1.82829
 11
48.0283
 21
2.08395
  0
LINE
  8
0
 10
48.0283
 20
2.08395
 11
48.1797
 21
2.32253
  0
LINE
  8
0
 10
48.1797
 20
2.32253
 11
48.3598
 21
2.54024
  0
LINE
  8
0
 10
48.3598
 20
2.54024
 11
48.5658
 21
2.73366
  0
LINE
  8
0
 10
48.5658
 20
2.73366
 11
48.7944
 21
2.89975
  0
LINE
  8
0
 10
48.7944
 20
2.89975
 11
49.042
 21
3.03587
  0
LINE
  8
0
 10
49.042
 20
3.03587
 11
49.3047
 21
3.13988
  0
LINE
  8
0
 10
49.3047
 20
3.13988
 11
49.5784
 21
3.21016
  0
LINE
  8
0
 10
49.5784
 20
3.21016
 11
49.8587
 21
3.24557
  0
LINE
  8
0
 10
49.8587
 20
3.24557
 11
50.1413
 21
3.24557
  0
LINE
  8
0
 10
50.1413
 20
3.24557
 11
50.4216
 21
3.21016
  0
LINE
  8
0
 10
50.4216
 20
3.21016
 11
50.6953
 21
3.13988
  0
LINE
  8
0
 10
50.6953
 20
3.13988
 11
50.958
 21
3.03587
  0
LINE
  8
0
 10
50.958
 20
3.03587
 11
51.2056
 21
2.89975
  0
LINE
  8
0
 10
51.2056
 20
2.89975
 11
51.4342
 21
2.73366
  0
LINE
  8
0
 10
51.4342
 20
2.73366
 11
51.6402
 21
2.54024
  0
LINE
  8
0
 10
51.6402
 20
2.54024
 11
51.8203
 21
2.32253
  0
LINE
  8
0
 10
51.8203
 20
2.32253
 11
51.9717
 21
2.08395
  0
LINE
  8
0
 10
51.9717
 20
2.08395
 11
52.092
 21
1.82829
  0
LINE
  8
0
 10
52.092
 20
1.82829
 11
52.1793
 21
1.55956
  0
LINE
  8
0
 10
52.1793
 20
1.55956
 11
52.2323
 21
1.28201
  0
LINE
  8
0
 10
52.2323
 20
1.28201
 11
52.25
 21
1
  0
LINE
  8
0
 10
52.25
 20
1
 11
52.2323
 21
0.718002
  0
LINE
  8
0
 10
52.2323
 20
0.718002
 11
52.1793
 21
0.44046
  0
LINE
  8
0
 10
52.1793
 20
0.44046
 11
52.092
 21
0.171722
  0
LINE
  8
0
 10
52.092
 20
0.171722
 11
51.9717
 21
-0.0839386
  0
LINE
  8
0
 10
51.9717
 20
-0.0839386
 11
51.8203
 21
-0.32251
  0
LINE
  8
0
 10
51.8203
 20
-0.32251
 11
51.6402
 21
-0.540222
  0
LINE
  8
0
 10
51.6402
 20
-0.540222
 11
51.4342
 21
-0.733643
  0
LINE
  8
0
 10
51.4342
 20
-0.733643
 11
51.2056
 21
-0.899734
  0
LINE
  8
0
 10
51.2056
 20
-0.899734
 11
50.958
 21
-1.03586
  0
LINE
  8
0
 10
50.958
 20
-1.03586
 11
50.6953
 21
-1.13986
  0
LINE
  8
0
 10
50.6953
 20
-1.13986
 11
50.4216
 21
-1.21014
  0
LINE
  8
0
 10
50.4216
 20
-1.21014
 11
50.1413
 21
-1.24556
  0
LINE
  8
0
 10
50.1413
 20
-1.24556
 11
49.8587
 21
-1.24556
  0
LINE
  8
0
 10
-46.5
 20
-34
 11
-46.5
 21
-26
  0
LINE
  8
0
 10
-46.5
 20
-26
 11
-43.5
 21
-26
  0
LINE
  8
0
 10
-43.5
 20
-26
 11
-43.5
 21
-34
  0
LINE
  8
0
 10
-43.5
 20
-34
 11
-46.5
 21
-34
  0
LINE
  8
0
 10
43.5
 20
-34
 11
43.5
 21
-26
  0
LINE
  8
0
 10
43.5
 20
-26
 11
46.5
 21
-26
  0
LINE
  8
0
 10
46.5
 20
-26
 11
46.5
 21
-34
  0
LINE
  8
0
 10
46.5
 20
-34
 11
43.5
 21
-34
  0
LINE
  8
0
 10
98.3901
 20
-41.7465
 11
98.1721
 21
-41.719
  0
LINE
  8
0
 10
98.1721
 20
-41.719
 11
97.9592
 21
-41.6643
  0
LINE
  8
0
 10
97.9592
 20
-41.6643
 11
97.7549
 21
-41.5834
  0
LINE
  8
0
 10
97.7549
 20
-41.5834
 11
97.5623
 21
-41.4776
  0
LINE
  8
0
 10
97.5623
 20
-41.4776
 11
97.3845
 21
-41.3484
  0
LINE
  8
0
 10
97.3845
 20
-41.3484
 11
97.2243
 21
-41.198
  0
LINE
  8
0
 10
97.2243
 20
-41.198
 11
97.0842
 21
-41.0286
  0
LINE
  8
0
 10
97.0842
 20
-41.0286
 11
96.9665
 21
-40.8431
  0
LINE
  8
0
 10
96.9665
 20
-40.8431
 11
96.8729
 21
-40.6442
  0
LINE
  8
0
 10
96.8729
 20
-40.6442
 11
96.805
 21
-40.4352
  0
LINE
  8
0
 10
96.805
 20
-40.4352
 11
96.7638
 21
-40.2193
  0
LINE
  8
0
 10
96.7638
 20
-40.2193
 11
96.75
 21
-40
  0
LINE
  8
0
 10
96.75
 20
-40
 11
96.7638
 21
-39.7807
  0
LINE
  8
0
 10
96.7638
 20
-39.7807
 11
96.805
 21
-39.5648
  0
LINE
  8
0
 10
96.805
 20
-39.5648
 11
96.8729
 21
-39.3558
  0
LINE
  8
0
 10
96.8729
 20
-39.3558
 11
96.9665
 21
-39.1569
  0
LINE
  8
0
 10
96.9665
 20
-39.1569
 11
97.0842
 21
-38.9714
  0
LINE
  8
0
 10
97.0842
 20
-38.9714
 11
97.2243
 21
-38.802
  0
LINE
  8
0
 10
97.2243
 20
-38.802
 11
97.3845
 21
-38.6516
  0
LINE
  8
0
 10
97.3845
 20
-38.6516
 11
97.5623
 21
-38.5224
  0
LINE
  8
0
 10
97.5623
 20
-38.5224
 11
97.7549
 21
-38.4165
  0
LINE
  8
0
 10
97.7549
 20
-38.4165
 11
97.9592
 21
-38.3356
  0
LINE
  8
0
 10
97.9592
 20
-38.3356
 11
98.1721
 21
-38.281
  0
LINE
  8
0
 10
98.1721
 20
-38.281
 11
98.3901
 21
-38.2534
  0
LINE
  8
0
 10
98.3901
 20
-38.2534
 11
98.6099
 21
-38.2534
  0
LINE
  8
0
 10
98.6099
 20
-38.2534
 11
98.8279
 21
-38.281
  0
LINE
  8
0
 10
98.8279
 20
-38.281
 11
99.0408
 21
-38.3356
  0
LINE
  8
0
 10
99.0408
 20
-38.3356
 11
99.2451
 21
-38.4165
  0
LINE
  8
0
 10
99.2451
 20
-38.4165
 11
99.4377
 21
-38.5224
  0
LINE
  8
0
 10
99.4377
 20
-38.5224
 11
99.6155
 21
-38.6516
  0
LINE
  8
0
 10
99.6155
 20
-38.6516
 11
99.7757
 21
-38.802
  0
LINE
  8
0
 10
99.7757
 20
-38.802
 11
99.9158
 21
-38.9714
  0
LINE
  8
0
 10
99.9158
 20
-38.9714
 11
100.034
 21
-39.1569
  0
LINE
  8
0
 10
100.034
 20
-39.1569
 11
100.127
 21
-39.3558
  0
LINE
  8
0
 10
100.127
 20
-39.3558
 11
100.195
 21
-39.5648
  0
LINE
  8
0
 10
100.195
 20
-39.5648
 11
100.236
 21
-39.7807
  0
LINE
  8
0
 10
100.236
 20
-39.7807
 11
100.25
 21
-40
  0
LINE
  8
0
 10
100.25
 20
-40
 11
100.236
 21
-40.2193
  0
LINE
  8
0
 10
100.236
 20
-40.2193
 11
100.195
 21
-40.4352
  0
LINE
  8
0
 10
100.195
 20
-40.4352
 11
100.127
 21
-40.6442
  0
LINE
  8
0
 10
100.127
 20
-40.6442
 11
100.034
 21
-40.8431
  0
LINE
  8
0
 10
100.034
 20
-40.8431
 11
99.9158
 21
-41.0286
  0
LINE
  8
0
 10
99.9158
 20
-41.0286
 11
99.7757
 21
-41.198
  0
LINE
  8
0
 10
99.7757
 20
-41.198
 11
99.6155
 21
-41.3484
  0
LINE
  8
0
 10
99.6155
 20
-41.3484
 11
99.4377
 21
-41.4776
  0
LINE
  8
0
 10
99.4377
 20
-41.4776
 11
99.2451
 21
-41.5834
  0
LINE
  8
0
 10
99.2451
 20
-41.5834
 11
99.0408
 21
-41.6643
  0
LINE
  8
0
 10
99.0408
 20
-41.6643
 11
98.8279
 21
-41.719
  0
LINE
  8
0
 10
98.8279
 20
-41.719
 11
98.6099
 21
-41.7465
  0
LINE
  8
0
 10
98.6099
 20
-41.7465
 11
98.3901
 21
-41.7465
  0
LINE
  8
0
 10
-98.6099
 20
-41.7465
 11
-98.8279
 21
-41.719
  0
LINE
  8
0
 10
-98.8279
 20
-41.719
 11
-99.0408
 21
-41.6643
  0
LINE
  8
0
 10
-99.0408
 20
-41.6643
 11
-99.2451
 21
-41.5834
  0
LINE
  8
0
 10
-99.2451
 20
-41.5834
 11
-99.4377
 21
-41.4776
  0
LINE
  8
0
 10
-99.4377
 20
-41.4776
 11
-99.6155
 21
-41.3484
  0
LINE
  8
0
 10
-99.6155
 20
-41.3484
 11
-99.7757
 21
-41.198
  0
LINE
  8
0
 10
-99.7757
 20
-41.198
 11
-99.9158
 21
-41.0286
  0
LINE
  8
0
 10
-99.9158
 20
-41.0286
 11
-100.034
 21
-40.8431
  0
LINE
  8
0
 10
-100.034
 20
-40.8431
 11
-100.127
 21
-40.6442
  0
LINE
  8
0
 10
-100.127
 20
-40.6442
 11
-100.195
 21
-40.4352
  0
LINE
  8
0
 10
-100.195
 20
-40.4352
 11
-100.236
 21
-40.2193
  0
LINE
  8
0
 10
-100.236
 20
-40.2193
 11
-100.25
 21
-40
  0
LINE
  8
0
 10
-100.25
 20
-40
 11
-100.236
 21
-39.7807
  0
LINE
  8
0
 10
-100.236
 20
-39.7807
 11
-100.195
 21
-39.5648
  0
LINE
  8
0
 10
-100.195
 20
-39.5648
 11
-100.127
 21
-39.3558
  0
LINE
  8
0
 10
-100.127
 20
-39.3558
 11
-100.034
 21
-39.1569
  0
LINE
  8
0
 10
-100.034
 20
-39.1569
 11
-99.9158
 21
-38.9714
  0
LINE
  8
0
 10
-99.9158
 20
-38.9714
 11
-99.7757
 21
-38.802
  0
LINE
  8
0
 10
-99.7757
 20
-38.802
 11
-99.6155
 21
-38.6516
  0
LINE
  8
0
 10
-99.6155
 20
-38.6516
 11
-99.4377
 21
-38.5224
  0
LINE
  8
0
 10
-99.4377
 20
-38.5224
 11
-99.2451
 21
-38.4165
  0
LINE
  8
0
 10
-99.2451
 20
-38.4165
 11
-99.0408
 21
-38.3356
  0
LINE
  8
0
 10
-99.0408
 20
-38.3356
 11
-98.8279
 21
-38.281
  0
LINE
  8
0
 10
-98.8279
 20
-38.281
 11
-98.6099
 21
-38.2534
  0
LINE
  8
0
 10
-98.6099
 20
-38.2534
 11
-98.3901
 21
-38.2534
  0
LINE
  8
0
 10
-98.3901
 20
-38.2534
 11
-98.1721
 21
-38.281
  0
LINE
  8
0
 10
-98.1721
 20
-38.281
 11
-97.9592
 21
-38.3356
  0
LINE
  8
0
 10
-97.9592
 20
-38.3356
 11
-97.7549
 21
-38.4165
  0
LINE
  8
0
 10
-97.7549
 20
-38.4165
 11
-97.5623
 21
-38.5224
  0
LINE
  8
0
 10
-97.5623
 20
-38.5224
 11
-97.3845
 21
-38.6516
  0
LINE
  8
0
 10
-97.3845
 20
-38.6516
 11
-97.2243
 21
-38.802
  0
LINE
  8
0
 10
-97.2243
 20
-38.802
 11
-97.0842
 21
-38.9714
  0
LINE
  8
0
 10
-97.0842
 20
-38.9714
 11
-96.9665
 21
-39.1569
  0
LINE
  8
0
 10
-96.9665
 20
-39.1569
 11
-96.8729
 21
-39.3558
  0
LINE
  8
0
 10
-96.8729
 20
-39.3558
 11
-96.805
 21
-39.5648
  0
LINE
  8
0
 10
-96.805
 20
-39.5648
 11
-96.7638
 21
-39.7807
  0
LINE
  8
0
 10
-96.7638
 20
-39.7807
 11
-96.75
 21
-40
  0
LINE
  8
0
 10
-96.75
 20
-40
 11
-96.7638
 21
-40.2193
  0
LINE
  8
0
 10
-96.7638
 20
-40.2193
 11
-96.805
 21
-40.4352
  0
LINE
  8
0
 10
-96.805
 20
-40.4352
 11
-96.8729
 21
-40.6442
  0
LINE
  8
0
 10
-96.8729
 20
-40.6442
 11
-96.9665
 21
-40.8431
  0
LINE
  8
0
 10
-96.9665
 20
-40.8431
 11
-97.0842
 21
-41.0286
  0
LINE
  8
0
 10
-97.0842
 20
-41.0286
 11
-97.2243
 21
-41.198
  0
LINE
  8
0
 10
-97.2243
 20
-41.198
 11
-97.3845
 21
-41.3484
  0
LINE
  8
0
 10
-97.3845
 20
-41.3484
 11
-97.5623
 21
-41.4776
  0
LINE
  8
0
 10
-97.5623
 20
-41.4776
 11
-97.7549
 21
-41.5834
  0
LINE
  8
0
 10
-97.7549
 20
-41.5834
 11
-97.9592
 21
-41.6643
  0
LINE
  8
0
 10
-97.9592
 20
-41.6643
 11
-98.1721
 21
-41.719
  0
LINE
  8
0
 10
-98.1721
 20
-41.719
 11
-98.3901
 21
-41.7465
  0
LINE
  8
0
 10
-98.3901
 20
-41.7465
 11
-98.6099
 21
-41.7465
  0
LINE
  8
0
 10
157
 20
-20
 11
160
 21
-20
  0
LINE
  8
0
 10
160
 20
-20
 11
160
 21
20
  0
LINE
  8
0
 10
160
 20
20
 11
157
 21
20
  0
LINE
  8
0
 10
157
 20
20
 11
157
 21
59.5
  0
LINE
  8
0
 10
157
 20
59.5
 11
113
 21
59.5
  0
LINE
  8
0
 10
113
 20
59.5
 11
113
 21
41.75
  0
LINE
  8
0
 10
113
 20
41.75
 11
120.25
 21
41.75
  0
LINE
  8
0
 10
120.25
 20
41.75
 11
120.25
 21
43
  0
LINE
  8
0
 10
120.25
 20
43
 11
122.75
 21
43
  0
LINE
  8
0
 10
122.75
 20
43
 11
122.75
 21
41.75
  0
LINE
  8
0
 10
122.75
 20
41.75
 11
125
 21
41.75
  0
LINE
  8
0
 10
125
 20
41.75
 11
125
 21
38.25
  0
LINE
  8
0
 10
125
 20
38.25
 11
122.75
 21
38.25
  0
LINE
  8
0
 10
122.75
 20
38.25
 11
122.75
 21
37
  0
LINE
  8
0
 10
122.75
 20
37
 11
120.25
 21
37
  0
LINE
  8
0
 10
120.25
 20
37
 11
120.25
 21
38.25
  0
LINE
  8
0
 10
120.25
 20
38.25
 11
113
 21
38.25
  0
LINE
  8
0
 10
113
 20
38.25
 11
113
 21
20
  0
LINE
  8
0
 10
113
 20
20
 11
110
 21
20
  0
LINE
  8
0
 10
110
 20
20
 11
110
 21
-20
  0
LINE
  8
0
 10
110
 20
-20
 11
113
 21
-20
  0
LINE
  8
0
 10
113
 20
-20
 11
113
 21
-38.25
  0
LINE
  8
0
 10
113
 20
-38.25
 11
120.25
 21
-38.25
  0
LINE
  8
0
 10
120.25
 20
-38.25
 11
120.25
 21
-37
  0
LINE
  8
0
 10
120.25
 20
-37
 11
122.75
 21
-37
  0
LINE
  8
0
 10
122.75
 20
-37
 11
122.75
 21
-38.25
  0
LINE
  8
0
 10
122.75
 20
-38.25
 11
125
 21
-38.25
  0
LINE
  8
0
 10
125
 20
-38.25
 11
125
 21
-41.75
  0
LINE
  8
0
 10
125
 20
-41.75
 11
122.75
 21
-41.75
  0
LINE
  8
0
 10
122.75
 20
-41.75
 11
122.75
 21
-43
  0
LINE
  8
0
 10
122.75
 20
-43
 11
120.25
 21
-43
  0
LINE
  8
0
 10
120.25
 20
-43
 11
120.25
 21
-41.75
  0
LINE
  8
0
 10
120.25
 20
-41.75
 11
113
 21
-41.75
  0
LINE
  8
0
 10
113
 20
-41.75
 11
113
 21
-59.5
  0
LINE
  8
0
 10
113
 20
-59.5
 11
157
 21
-59.5
  0
LINE
  8
0
 10
157
 20
-59.5
 11
157
 21
-20
  0
LINE
  8
0
 10
119
 20
-11.5
 11
119
 21
-8.5
  0
LINE
  8
0
 10
119
 20
-8.5
 11
151
 21
-8.5
  0
LINE
  8
0
 10
151
 20
-8.5
 11
151
 21
-11.5
  0
LINE
  8
0
 10
151
 20
-11.5
 11
119
 21
-11.5
  0
LINE
  8
0
 10
119
 20
-21.5
 11
119
 21
-18.5
  0
LINE
  8
0
 10
119
 20
-18.5
 11
151
 21
-18.5
  0
LINE
  8
0
 10
151
 20
-18.5
 11
151
 21
-21.5
  0
LINE
  8
0
 10
151
 20
-21.5
 11
119
 21
-21.5
  0
LINE
  8
0
 10
119
 20
-31.5
 11
119
 21
-28.5
  0
LINE
  8
0
 10
119
 20
-28.5
 11
151
 21
-28.5
  0
LINE
  8
0
 10
151
 20
-28.5
 11
151
 21
-31.5
  0
LINE
  8
0
 10
151
 20
-31.5
 11
119
 21
-31.5
  0
LINE
  8
0
 10
119
 20
-51.5
 11
119
 21
-48.5
  0
LINE
  8
0
 10
119
 20
-48.5
 11
151
 21
-48.5
  0
LINE
  8
0
 10
151
 20
-48.5
 11
151
 21
-51.5
  0
LINE
  8
0
 10
151
 20
-51.5
 11
119
 21
-51.5
  0
LINE
  8
0
 10
-113
 20
-41.75
 11
-120.25
 21
-41.75
  0
LINE
  8
0
 10
-120.25
 20
-41.75
 11
-120.25
 21
-43
  0
LINE
  8
0
 10
-120.25
 20
-43
 11
-122.75
 21
-43
  0
LINE
  8
0
 10
-122.75
 20
-43
 11
-122.75
 21
-41.75
  0
LINE
  8
0
 10
-122.75
 20
-41.75
 11
-125
 21
-41.75
  0
LINE
  8
0
 10
-125
 20
-41.75
 11
-125
 21
-38.25
  0
LINE
  8
0
 10
-125
 20
-38.25
 11
-122.75
 21
-38.25
  0
LINE
  8
0
 10
-122.75
 20
-38.25
 11
-122.75
 21
-37
  0
LINE
  8
0
 10
-122.75
 20
-37
 11
-120.25
 21
-37
  0
LINE
  8
0
 10
-120.25
 20
-37
 11
-120.25
 21
-38.25
  0
LINE
  8
0
 10
-120.25
 20
-38.25
 11
-113
 21
-38.25
  0
LINE
  8
0
 10
-113
 20
-38.25
 11
-113
 21
-20
  0
LINE
  8
0
 10
-113
 20
-20
 11
-110
 21
-20
  0
LINE
  8
0
 10
-110
 20
-20
 11
-110
 21
20
  0
LINE
  8
0
 10
-110
 20
20
 11
-113
 21
20
  0
LINE
  8
0
 10
-113
 20
20
 11
-113
 21
38.25
  0
LINE
  8
0
 10
-113
 20
38.25
 11
-120.25
 21
38.25
  0
LINE
  8
0
 10
-120.25
 20
38.25
 11
-120.25
 21
37
  0
LINE
  8
0
 10
-120.25
 20
37
 11
-122.75
 21
37
  0
LINE
  8
0
 10
-122.75
 20
37
 11
-122.75
 21
38.25
  0
LINE
  8
0
 10
-122.75
 20
38.25
 11
-125
 21
38.25
  0
LINE
  8
0
 10
-125
 20
38.25
 11
-125
 21
41.75
  0
LINE
  8
0
 10
-125
 20
41.75
 11
-122.75
 21
41.75
  0
LINE
  8
0
 10
-122.75
 20
41.75
 11
-122.75
 21
43
  0
LINE
  8
0
 10
-122.75
 20
43
 11
-120.25
 21
43
  0
LINE
  8
0
 10
-120.25
 20
43
 11
-120.25
 21
41.75
  0
LINE
  8
0
 10
-120.25
 20
41.75
 11
-113
 21
41.75
  0
LINE
  8
0
 10
-113
 20
41.75
 11
-113
 21
59.5
  0
LINE
  8
0
 10
-113
 20
59.5
 11
-157
 21
59.5
  0
LINE
  8
0
 10
-157
 20
59.5
 11
-157
 21
20
  0
LINE
  8
0
 10
-157
 20
20
 11
-160
 21
20
  0
LINE
  8
0
 10
-160
 20
20
 11
-160
 21
-20
  0
LINE
  8
0
 10
-160
 20
-20
 11
-157
 21
-20
  0
LINE
  8
0
 10
-157
 20
-20
 11
-157
 21
-59.5
  0
LINE
  8
0
 10
-157
 20
-59.5
 11
-113
 21
-59.5
  0
LINE
  8
0
 10
-113
 20
-59.5
 11
-113
 21
-41.75
  0
LINE
  8
0
 10
-151
 20
-11.5
 11
-151
 21
-8.5
  0
LINE
  8
0
 10
-151
 20
-8.5
 11
-119
 21
-8.5
  0
LINE
  8
0
 10
-119
 20
-8.5
 11
-119
 21
-11.5
  0
LINE
  8
0
 10
-119
 20
-11.5
 11
-151
 21
-11.5
  0
LINE
  8
0
 10
-151
 20
-21.5
 11
-151
 21
-18.5
  0
LINE
  8
0
 10
-151
 20
-18.5
 11
-119
 21
-18.5
  0
LINE
  8
0
 10
-119
 20
-18.5
 11
-119
 21
-21.5
  0
LINE
  8
0
 10
-119
 20
-21.5
 11
-151
 21
-21.5
  0
LINE
  8
0
 10
-151
 20
-31.5
 11
-151
 21
-28.5
  0
LINE
  8
0
 10
-151
 20
-28.5
 11
-119
 21
-28.5
  0
LINE
  8
0
 10
-119
 20
-28.5
 11
-119
 21
-31.5
  0
LINE
  8
0
 10
-119
 20
-31.5
 11
-151
 21
-31.5
  0
LINE
  8
0
 10
-151
 20
-51.5
 11
-151
 21
-48.5
  0
LINE
  8
0
 10
-151
 20
-48.5
 11
-119
 21
-48.5
  0
LINE
  8
0
 10
-119
 20
-48.5
 11
-119
 21
-51.5
  0
LINE
  8
0
 10
-119
 20
-51.5
 11
-151
 21
-51.5
  0
LINE
  8
0
 10
-60
 20
-117
 11
-20
 21
-117
  0
LINE
  8
0
 10
-20
 20
-117
 11
-20
 21
-120
  0
LINE
  8
0
 10
-20
 20
-120
 11
20
 21
-120
  0
LINE
  8
0
 10
20
 20
-120
 11
20
 21
-117
  0
LINE
  8
0
 10
20
 20
-117
 11
60
 21
-117
  0
LINE
  8
0
 10
60
 20
-117
 11
60
 21
-120
  0
LINE
  8
0
 10
60
 20
-120
 11
100
 21
-120
  0
LINE
  8
0
 10
100
 20
-120
 11
100
 21
-70
  0
LINE
  8
0
 10
100
 20
-70
 11
60
 21
-70
  0
LINE
  8
0
 10
60
 20
-70
 11
60
 21
-73
  0
LINE
  8
0
 10
60
 20
-73
 11
20
 21
-73
  0
LINE
  8
0
 10
20
 20
-73
 11
20
 21
-70
  0
LINE
  8
0
 10
20
 20
-70
 11
-20
 21
-70
  0
LINE
  8
0
 10
-20
 20
-70
 11
-20
 21
-73
  0
LINE
  8
0
 10
-20
 20
-73
 11
-60
 21
-73
  0
LINE
  8
0
 10
-60
 20
-73
 11
-60
 21
-70
  0
LINE
  8
0
 10
-60
 20
-70
 11
-100
 21
-70
  0
LINE
  8
0
 10
-100
 20
-70
 11
-100
 21
-120
  0
LINE
  8
0
 10
-100
 20
-120
 11
-60
 21
-120
  0
LINE
  8
0
 10
-60
 20
-120
 11
-60
 21
-117
  0
LINE
  8
0
 10
48.5
 20
-91
 11
48.5
 21
-83
  0
LINE
  8
0
 10
48.5
 20
-83
 11
51.5
 21
-83
  0
LINE
  8
0
 10
51.5
 20
-83
 11
51.5
 21
-91
  0
LINE
  8
0
 10
51.5
 20
-91
 11
48.5
 21
-91
  0
LINE
  8
0
 10
-51.5
 20
-91
 11
-51.5
 21
-83
  0
LINE
  8
0
 10
-51.5
 20
-83
 11
-48.5
 21
-83
  0
LINE
  8
0
 10
-48.5
 20
-83
 11
-48.5
 21
-91
  0
LINE
  8
0
 10
-48.5
 20
-91
 11
-51.5
 21
-91
  0
LINE
  8
0
 10
-94.1099
 20
-86.7466
 11
-94.3279
 21
-86.719
  0
LINE
  8
0
 10
-94.3279
 20
-86.719
 11
-94.5408
 21
-86.6644
  0
LINE
  8
0
 10
-94.5408
 20
-86.6644
 11
-94.7451
 21
-86.5835
  0
LINE
  8
0
 10
-94.7451
 20
-86.5835
 11
-94.9377
 21
-86.4776
  0
LINE
  8
0
 10
-94.9377
 20
-86.4776
 11
-95.1155
 21
-86.3484
  0
LINE
  8
0
 10
-95.1155
 20
-86.3484
 11
-95.2757
 21
-86.198
  0
LINE
  8
0
 10
-95.2757
 20
-86.198
 11
-95.4158
 21
-86.0286
  0
LINE
  8
0
 10
-95.4158
 20
-86.0286
 11
-95.5335
 21
-85.8431
  0
LINE
  8
0
 10
-95.5335
 20
-85.8431
 11
-95.6271
 21
-85.6442
  0
LINE
  8
0
 10
-95.6271
 20
-85.6442
 11
-95.695
 21
-85.4352
  0
LINE
  8
0
 10
-95.695
 20
-85.4352
 11
-95.7362
 21
-85.2193
  0
LINE
  8
0
 10
-95.7362
 20
-85.2193
 11
-95.75
 21
-85
  0
LINE
  8
0
 10
-95.75
 20
-85
 11
-95.7362
 21
-84.7807
  0
LINE
  8
0
 10
-95.7362
 20
-84.7807
 11
-95.695
 21
-84.5648
  0
LINE
  8
0
 10
-95.695
 20
-84.5648
 11
-95.6271
 21
-84.3558
  0
LINE
  8
0
 10
-95.6271
 20
-84.3558
 11
-95.5335
 21
-84.1569
  0
LINE
  8
0
 10
-95.5335
 20
-84.1569
 11
-95.4158
 21
-83.9714
  0
LINE
  8
0
 10
-95.4158
 20
-83.9714
 11
-95.2757
 21
-83.802
  0
LINE
  8
0
 10
-95.2757
 20
-83.802
 11
-95.1155
 21
-83.6516
  0
LINE
  8
0
 10
-95.1155
 20
-83.6516
 11
-94.9377
 21
-83.5224
  0
LINE
  8
0
 10
-94.9377
 20
-83.5224
 11
-94.7451
 21
-83.4166
  0
LINE
  8
0
 10
-94.7451
 20
-83.4166
 11
-94.5408
 21
-83.3357
  0
LINE
  8
0
 10
-94.5408
 20
-83.3357
 11
-94.3279
 21
-83.281
  0
LINE
  8
0
 10
-94.3279
 20
-83.281
 11
-94.1099
 21
-83.2535
  0
LINE
  8
0
 10
-94.1099
 20
-83.2535
 11
-93.8901
 21
-83.2535
  0
LINE
  8
0
 10
-93.8901
 20
-83.2535
 11
-93.6721
 21
-83.281
  0
LINE
  8
0
 10
-93.6721
 20
-83.281
 11
-93.4592
 21
-83.3357
  0
LINE
  8
0
 10
-93.4592
 20
-83.3357
 11
-93.2549
 21
-83.4166
  0
LINE
  8
0
 10
-93.2549
 20
-83.4166
 11
-93.0623
 21
-83.5224
  0
LINE
  8
0
 10
-93.0623
 20
-83.5224
 11
-92.8845
 21
-83.6516
  0
LINE
  8
0
 10
-92.8845
 20
-83.6516
 11
-92.7243
 21
-83.802
  0
LINE
  8
0
 10
-92.7243
 20
-83.802
 11
-92.5842
 21
-83.9714
  0
LINE
  8
0
 10
-92.5842
 20
-83.9714
 11
-92.4665
 21
-84.1569
  0
LINE
  8
0
 10
-92.4665
 20
-84.1569
 11
-92.3729
 21
-84.3558
  0
LINE
  8
0
 10
-92.3729
 20
-84.3558
 11
-92.305
 21
-84.5648
  0
LINE
  8
0
 10
-92.305
 20
-84.5648
 11
-92.2638
 21
-84.7807
  0
LINE
  8
0
 10
-92.2638
 20
-84.7807
 11
-92.25
 21
-85
  0
LINE
  8
0
 10
-92.25
 20
-85
 11
-92.2638
 21
-85.2193
  0
LINE
  8
0
 10
-92.2638
 20
-85.2193
 11
-92.305
 21
-85.4352
  0
LINE
  8
0
 10
-92.305
 20
-85.4352
 11
-92.3729
 21
-85.6442
  0
LINE
  8
0
 10
-92.3729
 20
-85.6442
 11
-92.4665
 21
-85.8431
  0
LINE
  8
0
 10
-92.4665
 20
-85.8431
 11
-92.5842
 21
-86.0286
  0
LINE
  8
0
 10
-92.5842
 20
-86.0286
 11
-92.7243
 21
-86.198
  0
LINE
  8
0
 10
-92.7243
 20
-86.198
 11
-92.8845
 21
-86.3484
  0
LINE
  8
0
 10
-92.8845
 20
-86.3484
 11
-93.0623
 21
-86.4776
  0
LINE
  8
0
 10
-93.0623
 20
-86.4776
 11
-93.2549
 21
-86.5835
  0
LINE
  8
0
 10
-93.2549
 20
-86.5835
 11
-93.4592
 21
-86.6644
  0
LINE
  8
0
 10
-93.4592
 20
-86.6644
 11
-93.6721
 21
-86.719
  0
LINE
  8
0
 10
-93.6721
 20
-86.719
 11
-93.8901
 21
-86.7466
  0
LINE
  8
0
 10
-93.8901
 20
-86.7466
 11
-94.1099
 21
-86.7466
  0
LINE
  8
0
 10
93.8901
 20
-86.7466
 11
93.6721
 21
-86.719
  0
LINE
  8
0
 10
93.6721
 20
-86.719
 11
93.4592
 21
-86.6644
  0
LINE
  8
0
 10
93.4592
 20
-86.6644
 11
93.2549
 21
-86.5835
  0
LINE
  8
0
 10
93.2549
 20
-86.5835
 11
93.0623
 21
-86.4776
  0
LINE
  8
0
 10
93.0623
 20
-86.4776
 11
92.8845
 21
-86.3484
  0
LINE
  8
0
 10
92.8845
 20
-86.3484
 11
92.7243
 21
-86.198
  0
LINE
  8
0
 10
92.7243
 20
-86.198
 11
92.5842
 21
-86.0286
  0
LINE
  8
0
 10
92.5842
 20
-86.0286
 11
92.4665
 21
-85.8431
  0
LINE
  8
0
 10
92.4665
 20
-85.8431
 11
92.3729
 21
-85.6442
  0
LINE
  8
0
 10
92.3729
 20
-85.6442
 11
92.305
 21
-85.4352
  0
LINE
  8
0
 10
92.305
 20
-85.4352
 11
92.2638
 21
-85.2193
  0
LINE
  8
0
 10
92.2638
 20
-85.2193
 11
92.25
 21
-85
  0
LINE
  8
0
 10
92.25
 20
-85
 11
92.2638
 21
-84.7807
  0
LINE
  8
0
 10
92.2638
 20
-84.7807
 11
92.305
 21
-84.5648
  0
LINE
  8
0
 10
92.305
 20
-84.5648
 11
92.3729
 21
-84.3558
  0
LINE
  8
0
 10
92.3729
 20
-84.3558
 11
92.4665
 21
-84.1569
  0
LINE
  8
0
 10
92.4665
 20
-84.1569
 11
92.5842
 21
-83.9714
  0
LINE
  8
0
 10
92.5842
 20
-83.9714
 11
92.7243
 21
-83.802
  0
LINE
  8
0
 10
92.7243
 20
-83.802
 11
92.8845
 21
-83.6516
  0
LINE
  8
0
 10
92.8845
 20
-83.6516
 11
93.0623
 21
-83.5224
  0
LINE
  8
0
 10
93.0623
 20
-83.5224
 11
93.2549
 21
-83.4166
  0
LINE
  8
0
 10
93.2549
 20
-83.4166
 11
93.4592
 21
-83.3357
  0
LINE
  8
0
 10
93.4592
 20
-83.3357
 11
93.6721
 21
-83.281
  0
LINE
  8
0
 10
93.6721
 20
-83.281
 11
93.8901
 21
-83.2535
  0
LINE
  8
0
 10
93.8901
 20
-83.2535
 11
94.1099
 21
-83.2535
  0
LINE
  8
0
 10
94.1099
 20
-83.2535
 11
94.3279
 21
-83.281
  0
LINE
  8
0
 10
94.3279
 20
-83.281
 11
94.5408
 21
-83.3357
  0
LINE
  8
0
 10
94.5408
 20
-83.3357
 11
94.7451
 21
-83.4166
  0
LINE
  8
0
 10
94.7451
 20
-83.4166
 11
94.9377
 21
-83.5224
  0
LINE
  8
0
 10
94.9377
 20
-83.5224
 11
95.1155
 21
-83.6516
  0
LINE
  8
0
 10
95.1155
 20
-83.6516
 11
95.2757
 21
-83.802
  0
LINE
  8
0
 10
95.2757
 20
-83.802
 11
95.4158
 21
-83.9714
  0
LINE
  8
0
 10
95.4158
 20
-83.9714
 11
95.5335
 21
-84.1569
  0
LINE
  8
0
 10
95.5335
 20
-84.1569
 11
95.6271
 21
-84.3558
  0
LINE
  8
0
 10
95.6271
 20
-84.3558
 11
95.695
 21
-84.5648
  0
LINE
  8
0
 10
95.695
 20
-84.5648
 11
95.7362
 21
-84.7807
  0
LINE
  8
0
 10
95.7362
 20
-84.7807
 11
95.75
 21
-85
  0
LINE
  8
0
 10
95.75
 20
-85
 11
95.7362
 21
-85.2193
  0
LINE
  8
0
 10
95.7362
 20
-85.2193
 11
95.695
 21
-85.4352
  0
LINE
  8
0
 10
95.695
 20
-85.4352
 11
95.6271
 21
-85.6442
  0
LINE
  8
0
 10
95.6271
 20
-85.6442
 11
95.5335
 21
-85.8431
  0
LINE
  8
0
 10
95.5335
 20
-85.8431
 11
95.4158
 21
-86.0286
  0
LINE
  8
0
 10
95.4158
 20
-86.0286
 11
95.2757
 21
-86.198
  0
LINE
  8
0
 10
95.2757
 20
-86.198
 11
95.1155
 21
-86.3484
  0
LINE
  8
0
 10
95.1155
 20
-86.3484
 11
94.9377
 21
-86.4776
  0
LINE
  8
0
 10
94.9377
 20
-86.4776
 11
94.7451
 21
-86.5835
  0
LINE
  8
0
 10
94.7451
 20
-86.5835
 11
94.5408
 21
-86.6644
  0
LINE
  8
0
 10
94.5408
 20
-86.6644
 11
94.3279
 21
-86.719
  0
LINE
  8
0
 10
94.3279
 20
-86.719
 11
94.1099
 21
-86.7466
  0
LINE
  8
0
 10
94.1099
 20
-86.7466
 11
93.8901
 21
-86.7466
  0
LINE
  8
0
 10
-94.1099
 20
-106.747
 11
-94.3279
 21
-106.719
  0
LINE
  8
0
 10
-94.3279
 20
-106.719
 11
-94.5408
 21
-106.664
  0
LINE
  8
0
 10
-94.5408
 20
-106.664
 11
-94.7451
 21
-106.583
  0
LINE
  8
0
 10
-94.7451
 20
-106.583
 11
-94.9377
 21
-106.478
  0
LINE
  8
0
 10
-94.9377
 20
-106.478
 11
-95.1155
 21
-106.348
  0
LINE
  8
0
 10
-95.1155
 20
-106.348
 11
-95.2757
 21
-106.198
  0
LINE
  8
0
 10
-95.2757
 20
-106.198
 11
-95.4158
 21
-106.029
  0
LINE
  8
0
 10
-95.4158
 20
-106.029
 11
-95.5335
 21
-105.843
  0
LINE
  8
0
 10
-95.5335
 20
-105.843
 11
-95.6271
 21
-105.644
  0
LINE
  8
0
 10
-95.6271
 20
-105.644
 11
-95.695
 21
-105.435
  0
LINE
  8
0
 10
-95.695
 20
-105.435
 11
-95.7362
 21
-105.219
  0
LINE
  8
0
 10
-95.7362
 20
-105.219
 11
-95.75
 21
-105
  0
LINE
  8
0
 10
-95.75
 20
-105
 11
-95.7362
 21
-104.781
  0
LINE
  8
0
 10
-95.7362
 20
-104.781
 11
-95.695
 21
-104.565
  0
LINE
  8
0
 10
-95.695
 20
-104.565
 11
-95.6271
 21
-104.356
  0
LINE
  8
0
 10
-95.6271
 20
-104.356
 11
-95.5335
 21
-104.157
  0
LINE
  8
0
 10
-95.5335
 20
-104.157
 11
-95.4158
 21
-103.971
  0
LINE
  8
0
 10
-95.4158
 20
-103.971
 11
-95.2757
 21
-103.802
  0
LINE
  8
0
 10
-95.2757
 20
-103.802
 11
-95.1155
 21
-103.652
  0
LINE
  8
0
 10
-95.1155
 20
-103.652
 11
-94.9377
 21
-103.522
  0
LINE
  8
0
 10
-94.9377
 20
-103.522
 11
-94.7451
 21
-103.417
  0
LINE
  8
0
 10
-94.7451
 20
-103.417
 11
-94.5408
 21
-103.336
  0
LINE
  8
0
 10
-94.5408
 20
-103.336
 11
-94.3279
 21
-103.281
  0
LINE
  8
0
 10
-94.3279
 20
-103.281
 11
-94.1099
 21
-103.253
  0
LINE
  8
0
 10
-94.1099
 20
-103.253
 11
-93.8901
 21
-103.253
  0
LINE
  8
0
 10
-93.8901
 20
-103.253
 11
-93.6721
 21
-103.281
  0
LINE
  8
0
 10
-93.6721
 20
-103.281
 11
-93.4592
 21
-103.336
  0
LINE
  8
0
 10
-93.4592
 20
-103.336
 11
-93.2549
 21
-103.417
  0
LINE
  8
0
 10
-93.2549
 20
-103.417
 11
-93.0623
 21
-103.522
  0
LINE
  8
0
 10
-93.0623
 20
-103.522
 11
-92.8845
 21
-103.652
  0
LINE
  8
0
 10
-92.8845
 20
-103.652
 11
-92.7243
 21
-103.802
  0
LINE
  8
0
 10
-92.7243
 20
-103.802
 11
-92.5842
 21
-103.971
  0
LINE
  8
0
 10
-92.5842
 20
-103.971
 11
-92.4665
 21
-104.157
  0
LINE
  8
0
 10
-92.4665
 20
-104.157
 11
-92.3729
 21
-104.356
  0
LINE
  8
0
 10
-92.3729
 20
-104.356
 11
-92.305
 21
-104.565
  0
LINE
  8
0
 10
-92.305
 20
-104.565
 11
-92.2638
 21
-104.781
  0
LINE
  8
0
 10
-92.2638
 20
-104.781
 11
-92.25
 21
-105
  0
LINE
  8
0
 10
-92.25
 20
-105
 11
-92.2638
 21
-105.219
  0
LINE
  8
0
 10
-92.2638
 20
-105.219
 11
-92.305
 21
-105.435
  0
LINE
  8
0
 10
-92.305
 20
-105.435
 11
-92.3729
 21
-105.644
  0
LINE
  8
0
 10
-92.3729
 20
-105.644
 11
-92.4665
 21
-105.843
  0
LINE
  8
0
 10
-92.4665
 20
-105.843
 11
-92.5842
 21
-106.029
  0
LINE
  8
0
 10
-92.5842
 20
-106.029
 11
-92.7243
 21
-106.198
  0
LINE
  8
0
 10
-92.7243
 20
-106.198
 11
-92.8845
 21
-106.348
  0
LINE
  8
0
 10
-92.8845
 20
-106.348
 11
-93.0623
 21
-106.478
  0
LINE
  8
0
 10
-93.0623
 20
-106.478
 11
-93.2549
 21
-106.583
  0
LINE
  8
0
 10
-93.2549
 20
-106.583
 11
-93.4592
 21
-106.664
  0
LINE
  8
0
 10
-93.4592
 20
-106.664
 11
-93.6721
 21
-106.719
  0
LINE
  8
0
 10
-93.6721
 20
-106.719
 11
-93.8901
 21
-106.747
  0
LINE
  8
0
 10
-93.8901
 20
-106.747
 11
-94.1099
 21
-106.747
  0
LINE
  8
0
 10
93.8901
 20
-106.747
 11
93.6721
 21
-106.719
  0
LINE
  8
0
 10
93.6721
 20
-106.719
 11
93.4592
 21
-106.664
  0
LINE
  8
0
 10
93.4592
 20
-106.664
 11
93.2549
 21
-106.583
  0
LINE
  8
0
 10
93.2549
 20
-106.583
 11
93.0623
 21
-106.478
  0
LINE
  8
0
 10
93.0623
 20
-106.478
 11
92.8845
 21
-106.348
  0
LINE
  8
0
 10
92.8845
 20
-106.348
 11
92.7243
 21
-106.198
  0
LINE
  8
0
 10
92.7243
 20
-106.198
 11
92.5842
 21
-106.029
  0
LINE
  8
0
 10
92.5842
 20
-106.029
 11
92.4665
 21
-105.843
  0
LINE
  8
0
 10
92.4665
 20
-105.843
 11
92.3729
 21
-105.644
  0
LINE
  8
0
 10
92.3729
 20
-105.644
 11
92.305
 21
-105.435
  0
LINE
  8
0
 10
92.305
 20
-105.435
 11
92.2638
 21
-105.219
  0
LINE
  8
0
 10
92.2638
 20
-105.219
 11
92.25
 21
-105
  0
LINE
  8
0
 10
92.25
 20
-105
 11
92.2638
 21
-104.781
  0
LINE
  8
0
 10
92.2638
 20
-104.781
 11
92.305
 21
-104.565
  0
LINE
  8
0
 10
92.305
 20
-104.565
 11
92.3729
 21
-104.356
  0
LINE
  8
0
 10
92.3729
 20
-104.356
 11
92.4665
 21
-104.157
  0
LINE
  8
0
 10
92.4665
 20
-104.157
 11
92.5842
 21
-103.971
  0
LINE
  8
0
 10
92.5842
 20
-103.971
 11
92.7243
 21
-103.802
  0
LINE
  8
0
 10
92.7243
 20
-103.802
 11
92.8845
 21
-103.652
  0
LINE
  8
0
 10
92.8845
 20
-103.652
 11
93.0623
 21
-103.522
  0
LINE
  8
0
 10
93.0623
 20
-103.522
 11
93.2549
 21
-103.417
  0
LINE
  8
0
 10
93.2549
 20
-103.417
 11
93.4592
 21
-103.336
  0
LINE
  8
0
 10
93.4592
 20
-103.336
 11
93.6721
 21
-103.281
  0
LINE
  8
0
 10
93.6721
 20
-103.281
 11
93.8901
 21
-103.253
  0
LINE
  8
0
 10
93.8901
 20
-103.253
 11
94.1099
 21
-103.253
  0
LINE
  8
0
 10
94.1099
 20
-103.253
 11
94.3279
 21
-103.281
  0
LINE
  8
0
 10
94.3279
 20
-103.281
 11
94.5408
 21
-103.336
  0
LINE
  8
0
 10
94.5408
 20
-103.336
 11
94.7451
 21
-103.417
  0
LINE
  8
0
 10
94.7451
 20
-103.417
 11
94.9377
 21
-103.522
  0
LINE
  8
0
 10
94.9377
 20
-103.522
 11
95.1155
 21
-103.652
  0
LINE
  8
0
 10
95.1155
 20
-103.652
 11
95.2757
 21
-103.802
  0
LINE
  8
0
 10
95.2757
 20
-103.802
 11
95.4158
 21
-103.971
  0
LINE
  8
0
 10
95.4158
 20
-103.971
 11
95.5335
 21
-104.157
  0
LINE
  8
0
 10
95.5335
 20
-104.157
 11
95.6271
 21
-104.356
  0
LINE
  8
0
 10
95.6271
 20
-104.356
 11
95.695
 21
-104.565
  0
LINE
  8
0
 10
95.695
 20
-104.565
 11
95.7362
 21
-104.781
  0
LINE
  8
0
 10
95.7362
 20
-104.781
 11
95.75
 21
-105
  0
LINE
  8
0
 10
95.75
 20
-105
 11
95.7362
 21
-105.219
  0
LINE
  8
0
 10
95.7362
 20
-105.219
 11
95.695
 21
-105.435
  0
LINE
  8
0
 10
95.695
 20
-105.435
 11
95.6271
 21
-105.644
  0
LINE
  8
0
 10
95.6271
 20
-105.644
 11
95.5335
 21
-105.843
  0
LINE
  8
0
 10
95.5335
 20
-105.843
 11
95.4158
 21
-106.029
  0
LINE
  8
0
 10
95.4158
 20
-106.029
 11
95.2757
 21
-106.198
  0
LINE
  8
0
 10
95.2757
 20
-106.198
 11
95.1155
 21
-106.348
  0
LINE
  8
0
 10
95.1155
 20
-106.348
 11
94.9377
 21
-106.478
  0
LINE
  8
0
 10
94.9377
 20
-106.478
 11
94.7451
 21
-106.583
  0
LINE
  8
0
 10
94.7451
 20
-106.583
 11
94.5408
 21
-106.664
  0
LINE
  8
0
 10
94.5408
 20
-106.664
 11
94.3279
 21
-106.719
  0
LINE
  8
0
 10
94.3279
 20
-106.719
 11
94.1099
 21
-106.747
  0
LINE
  8
0
 10
94.1099
 20
-106.747
 11
93.8901
 21
-106.747
  0
ENDSEC
  0
SECTION
  2
OBJECTS
  0
DICTIONARY
  0
ENDSEC
  0
EOF
