<?xml version="1.0" encoding="UTF-8" standalone="no"?>
<svg
   xmlns:dsy="http://www.3ds.com/print"
   xmlns:dc="http://purl.org/dc/elements/1.1/"
   xmlns:cc="http://creativecommons.org/ns#"
   xmlns:rdf="http://www.w3.org/1999/02/22-rdf-syntax-ns#"
   xmlns:svg="http://www.w3.org/2000/svg"
   xmlns="http://www.w3.org/2000/svg"
   xmlns:sodipodi="http://sodipodi.sourceforge.net/DTD/sodipodi-0.dtd"
   xmlns:inkscape="http://www.inkscape.org/namespaces/inkscape"
   id="svg2"
   xlink="http://www.w3.org/1999/xlink"
   height="600"
   dsy:text-version="20000"
   width="600"
   version="1.1"
   viewBox="0 0 600 600"
   inkscape:version="0.91+devel+osxmenu r12922"
   sodipodi:docname="2D MASTER - WITHOUT TEXT.svg"
   inkscape:export-filename="/Volumes/Backup/Documents/Stuff/REPRAP/Models/Swindon Hackspace Logo/Swindon Makerspace/IMAGE 2D - MakerSpace WITH TEXT.png"
   inkscape:export-xdpi="64"
   inkscape:export-ydpi="64">
  <defs
     id="defs3345" />
  <sodipodi:namedview
     pagecolor="#ffffff"
     bordercolor="#666666"
     borderopacity="1"
     objecttolerance="10"
     gridtolerance="10"
     guidetolerance="10"
     inkscape:pageopacity="0"
     inkscape:pageshadow="2"
     inkscape:window-width="1440"
     inkscape:window-height="760"
     id="namedview3343"
     showgrid="false"
     inkscape:zoom="0.5525"
     inkscape:cx="101.80046"
     inkscape:cy="336.64934"
     inkscape:window-x="51"
     inkscape:window-y="23"
     inkscape:window-maximized="0"
     inkscape:current-layer="layer3"
     fit-margin-top="0"
     fit-margin-left="0"
     fit-margin-right="0"
     fit-margin-bottom="0" />
  <title
     id="title4024">Swindon Hackspace Logo</title>
  <metadata
     id="metadata68">
    <rdf:RDF>
      <cc:Work
         rdf:about="">
        <dc:format>image/svg+xml</dc:format>
        <dc:type
           rdf:resource="http://purl.org/dc/dcmitype/StillImage" />
        <dc:title>Swindon Hackspace Logo</dc:title>
        <cc:license
           rdf:resource="http://creativecommons.org/licenses/by-nc-sa/4.0/" />
        <dc:date>03/08/2013</dc:date>
        <dc:creator>
          <cc:Agent>
            <dc:title>Steve Wood</dc:title>
          </cc:Agent>
        </dc:creator>
        <dc:publisher>
          <cc:Agent>
            <dc:title>Steve Wood</dc:title>
          </cc:Agent>
        </dc:publisher>
        <dc:contributor>
          <cc:Agent>
            <dc:title>Members of the Swindon Hackspace</dc:title>
          </cc:Agent>
        </dc:contributor>
        <dc:rights>
          <cc:Agent>
            <dc:title>Swindon Hackspace</dc:title>
          </cc:Agent>
        </dc:rights>
        <dc:source>https://github.com/snhack/HackspaceLogo</dc:source>
      </cc:Work>
      <cc:License
         rdf:about="http://creativecommons.org/licenses/by-nc-sa/4.0/">
        <cc:permits
           rdf:resource="http://creativecommons.org/ns#Reproduction" />
        <cc:permits
           rdf:resource="http://creativecommons.org/ns#Distribution" />
        <cc:requires
           rdf:resource="http://creativecommons.org/ns#Notice" />
        <cc:requires
           rdf:resource="http://creativecommons.org/ns#Attribution" />
        <cc:prohibits
           rdf:resource="http://creativecommons.org/ns#CommercialUse" />
        <cc:permits
           rdf:resource="http://creativecommons.org/ns#DerivativeWorks" />
        <cc:requires
           rdf:resource="http://creativecommons.org/ns#ShareAlike" />
      </cc:License>
    </rdf:RDF>
  </metadata>
  <g
     inkscape:groupmode="layer"
     id="layer1"
     inkscape:label="Construction"
     style="display:inline"
     transform="translate(-50.173677,49.271649)" />
  <g
     inkscape:groupmode="layer"
     id="layer2"
     inkscape:label="Text"
     style="display:inline"
     transform="translate(-50.173677,49.271649)" />
  <g
     inkscape:groupmode="layer"
     id="layer3"
     inkscape:label="S"
     transform="translate(-175.1775,-124.80695)">
    <path
       inkscape:connector-curvature="0"
       d="m 335.72802,241.91403 4.07357,15.20376 c 0.78263,2.92318 -0.24058,6.25258 -2.5297,8.23157 -7.68977,6.6507 -14.89725,13.85881 -21.54846,21.54858 -1.97887,2.28946 -5.3083,3.31269 -8.23142,2.52984 l -15.20072,-4.0738 c -3.16939,-0.84963 -6.80206,0.45652 -8.70496,3.12994 -8.61578,12.11105 -16.07947,25.04085 -22.258,38.55798 -1.36485,2.98398 -0.68138,6.78323 1.63785,9.10435 l 11.13119,11.12854 c 2.14,2.1399 2.91919,5.53512 1.92648,8.394 -3.33445,9.60522 -5.97277,19.45148 -7.88757,29.43703 -0.56972,2.97165 -2.94135,5.52181 -5.86382,6.3053 l -15.20399,4.07381 c -3.16885,0.85015 -5.66035,3.79793 -5.97091,7.06423 -1.40676,14.79547 -1.40676,29.72414 0,44.51961 0.31052,3.2663 2.80206,6.21404 5.97091,7.06423 l 15.20399,4.07381 c 2.92247,0.78341 5.29411,3.33365 5.86382,6.3053 2.93928,15.32603 7.58694,30.32456 13.82966,44.6266 1.25317,2.87154 4.29746,4.86483 7.43028,4.86516 l 41.63415,0 c 2.12177,-4.6e-4 4.23033,-0.874 5.73086,-2.37418 L 583.36767,264.99838 c 1.50118,-1.50116 3.61116,-2.37505 5.73413,-2.37483 l 134.0065,0 c 2.74333,-5.7e-4 5.44082,1.49887 6.88873,3.82916 17.16453,27.62376 29.7945,58.05858 37.23276,89.71935 7.4388,31.66077 9.68349,64.53548 6.61703,96.91348 -3.06634,32.378 -11.44229,64.24728 -24.6923,93.9485 -13.25,29.70121 -31.36861,57.22344 -53.41374,81.13331 -22.04514,23.91097 -48.00699,44.20085 -76.53522,59.81399 -28.52823,15.61314 -59.61193,26.54409 -91.63332,32.22408 -32.0214,5.67955 -64.96848,6.10552 -97.12633,1.25564 -32.15784,-4.84977 -63.51335,-14.97342 -92.43566,-29.84422 -2.26051,-1.16296 -3.90906,-3.4462 -4.30172,-5.95793 -0.39269,-2.51172 0.48028,-5.18917 2.27798,-6.98672 l 55.15815,-55.16127 c 2.19993,-2.20038 5.72791,-2.95189 8.63357,-1.83903 11.5711,4.43198 23.53301,7.84117 35.70232,10.17463 2.97148,0.56976 5.5216,2.94152 6.30494,5.86415 l 4.07357,15.20486 c 0.85011,3.16891 3.79773,5.66066 7.06383,5.97113 14.79464,1.40685 29.72246,1.40685 44.5171,0 3.26611,-0.31053 6.21368,-2.80222 7.06383,-5.97113 l 4.07358,-15.20486 c 0.78336,-2.92263 3.33346,-5.29441 6.30494,-5.86415 9.98499,-1.91491 19.83134,-4.55349 29.43536,-7.88801 2.85872,-0.9928 6.25385,-0.21352 8.39353,1.92659 l 11.12791,11.13181 c 2.32098,2.31938 6.12002,3.00287 9.10384,1.63795 13.51636,-6.1791 26.44543,-13.64376 38.55579,-22.25926 2.67325,-1.9029 3.97937,-5.53578 3.12976,-8.70535 l -4.07357,-15.20158 c -0.78276,-2.92318 0.24046,-6.25279 2.52971,-8.23189 7.68976,-6.65103 14.89725,-13.85881 21.54845,-21.54967 1.97888,-2.28946 5.3083,-3.31269 8.23142,-2.52985 l 15.20072,4.07381 c 3.16939,0.84963 6.80206,-0.45652 8.70496,-3.12994 8.61578,-12.11105 16.07947,-25.04085 22.25801,-38.55798 1.36484,-2.98399 0.68137,-6.78323 -1.63786,-9.10435 l -11.13446,-11.11872 c -2.14,-2.1399 -2.91919,-5.53512 -1.92648,-8.394 3.33444,-9.60522 5.97276,-19.45147 7.88756,-29.43703 0.56973,-2.97165 2.94136,-5.5218 5.86382,-6.3053 l 15.204,-4.0738 c 3.16884,-0.85016 5.66034,-3.79794 5.97091,-7.06423 1.40676,-14.79548 1.40676,-29.72414 0,-44.51962 -0.31053,-3.26629 -2.80207,-6.21403 -5.97091,-7.06423 l -15.204,-4.07381 c -2.92246,-0.7834 -5.2941,-3.33354 -5.86382,-6.3053 -2.93927,-15.32603 -7.58693,-30.32456 -13.82965,-44.62659 -1.25317,-2.87155 -4.29746,-4.86484 -7.43029,-4.86517 l -41.63414,0 c -2.12177,4.5e-4 -4.23033,0.87399 -5.73086,2.37418 L 366.98561,584.61649 c -1.5013,1.50095 -3.61128,2.37461 -5.73414,2.37418 l -134.00649,0 c -2.74366,2.9e-4 -5.44115,-1.49975 -6.88873,-3.83047 -17.16345,-27.62376 -29.79342,-58.05858 -37.23167,-89.71935 -7.43847,-31.66077 -9.68283,-64.53548 -6.61627,-96.91348 3.06656,-32.378 11.44338,-64.24619 24.69339,-93.94741 13.25001,-29.70121 31.36861,-57.22235 53.41375,-81.13331 22.04514,-23.90988 48.00698,-44.19976 76.53521,-59.81399 28.52823,-15.61314 59.61193,-26.54409 91.63333,-32.22408 32.02139,-5.67955 64.96738,-6.10563 97.12523,-1.25597 32.15785,4.84966 63.51336,14.97342 92.43566,29.84313 2.26062,1.16296 3.90929,3.4462 4.30194,5.95804 0.39271,2.51183 -0.48035,5.18939 -2.2782,6.98683 l -55.15814,55.16127 c -2.20004,2.20027 -5.72803,2.95167 -8.63358,1.83871 -11.5711,-4.4321 -23.533,-7.8414 -35.70231,-10.17496 -2.97159,-0.56986 -5.52171,-2.94196 -6.30494,-5.86481 l -4.07358,-15.20377 c -0.84931,-3.16979 -3.79718,-5.66263 -7.06383,-5.97343 -14.79464,-1.40684 -29.72246,-1.40684 -44.5171,0 -3.26665,0.31086 -6.21455,2.80364 -7.06383,5.97343 l -4.07357,15.20377 c -0.78316,2.92285 -3.33325,5.29495 -6.30495,5.86481 -9.98499,1.91468 -19.83134,4.55305 -29.43536,7.88735 -2.85871,0.99288 -6.25374,0.21373 -8.39352,-1.92626 L 386.516,212.596 c -2.32034,-2.32036 -6.11948,-3.00506 -9.10384,-1.6409 -13.51745,6.17943 -26.44543,13.64376 -38.5558,22.26035 -2.67336,1.90279 -3.97947,5.53589 -3.12976,8.70557 z"
       style="fill:#ffbb00;stroke-width:1.09164453"
       id="path3364"
       inkscape:export-xdpi="67.387146"
       inkscape:export-ydpi="67.387146" />
  </g>
  <g
     inkscape:groupmode="layer"
     id="layer4"
     inkscape:label="M"
     transform="translate(-175.1775,-124.80695)">
    <path
       style="display:inline;fill:#ff7700;fill-opacity:1;stroke:none;stroke-width:0.42165491;stroke-linecap:butt;stroke-linejoin:miter"
       inkscape:connector-curvature="0"
       id="path15731"
       d="m 543.98057,562.42021 -57.33372,-57.33696 c -3.16673,-3.16775 -8.30196,-3.16775 -11.46869,0 -3.16673,3.16776 -8.30195,3.16776 -11.46869,0 l -2.86393,-2.86734 c -3.16758,-3.1669 -3.16758,-8.30242 0,-11.46933 l 2.42283,-2.42297 c 2.04856,-2.04868 5.03448,-2.84868 7.83283,-2.0986 l 75.89898,20.33732 c 6.02664,1.61177 11.53975,-3.90165 9.92807,-9.92863 l -20.33616,-75.90328 c -0.75005,-2.79851 0.0499,-5.78459 2.09847,-7.83327 l 2.42283,-2.42296 c 3.16674,-3.1678 8.30196,-3.1678 11.46869,0 l 2.86718,2.86408 c 3.16757,3.16692 3.16757,8.30243 0,11.46934 -3.16758,3.16692 -3.16758,8.30243 0,11.46934 l 57.33372,57.33697 c 3.16672,3.16775 8.30195,3.16775 11.46869,0 l 63.06805,-63.07164 c 3.16758,-3.16691 3.16758,-8.30242 0,-11.46934 L 629.98601,361.7347 c -3.16674,-3.16779 -8.30196,-3.16779 -11.46869,0 -3.16638,3.16556 -8.29907,3.16556 -11.46545,0 l -68.80565,-68.80696 c -3.1667,-3.16678 -3.1667,-8.30129 0,-11.46804 3.16651,-3.16675 3.16651,-8.301 0,-11.46771 L 480.9125,212.65275 c -3.16673,-3.16779 -8.30195,-3.16779 -11.46869,0 l -54.02544,54.02882 c -2.04834,2.04853 -2.84826,5.03432 -2.09848,7.83263 l 28.73335,107.23377 c 1.61583,6.02987 -3.90182,11.54763 -9.93132,9.93155 l -107.2303,-28.73336 c -2.79769,-0.74913 -5.7825,0.0509 -7.83056,2.09894 l -54.02577,54.02784 c -3.1676,3.16692 -3.1676,8.30243 0,11.46934 l 57.33502,57.33697 c 3.16673,3.16775 8.30195,3.16775 11.46869,0 3.16638,-3.16559 8.29907,-3.16559 11.46545,0 l 68.80565,68.80954 c 3.1654,3.16655 3.1654,8.29954 0,11.46609 -3.16758,3.16692 -3.16758,8.30243 0,11.46934 l 57.33371,57.33696 c 3.16674,3.16776 8.30196,3.16776 11.46869,0 l 63.06807,-63.07163 c 3.16758,-3.16691 3.16758,-8.30242 0,-11.46934 z"
       sodipodi:nodetypes="ccccccccccccccccccccccccccccccccccccccccccccccc"
       inkscape:export-xdpi="67.387146"
       inkscape:export-ydpi="67.387146" />
  </g>
</svg>
