  0
SECTION
  2
HEADER
  9
$ACADVER
  1
AC1014
  9
$HANDSEED
  5
FFFF
  9
$MEASUREMENT
 70
     1
  0
ENDSEC
  0
SECTION
  2
TABLES
  0
TABLE
  2
VPORT
  5
8
330
0
100
AcDbSymbolTable
 70
     4
  0
VPORT
  5
2E
330
8
100
AcDbSymbolTableRecord
100
AcDbViewportTableRecord
  2
*ACTIVE
 70
     0
 10
0.0
 20
0.0
 11
1.0
 21
1.0
 12
210.0
 22
148.5
 13
0.0
 23
0.0
 14
10.0
 24
10.0
 15
10.0
 25
10.0
 16
0.0
 26
0.0
 36
1.0
 17
0.0
 27
0.0
 37
0.0
 40
341.0
 41
1.24
 42
50.0
 43
0.0
 44
0.0
 50
0.0
 51
0.0
 71
     0
 72
   100
 73
     1
 74
     3
 75
     0
 76
     0
 77
     0
 78
     0
  0
ENDTAB
  0
TABLE
  2
LTYPE
  5
5
330
0
100
AcDbSymbolTable
 70
     1
  0
LTYPE
  5
14
330
5
100
AcDbSymbolTableRecord
100
AcDbLinetypeTableRecord
  2
BYBLOCK
 70
     0
  3

 72
    65
 73
     0
 40
0.0
  0
LTYPE
  5
15
330
5
100
AcDbSymbolTableRecord
100
AcDbLinetypeTableRecord
  2
BYLAYER
 70
     0
  3

 72
    65
 73
     0
 40
0.0
  0
LTYPE
  5
16
330
5
100
AcDbSymbolTableRecord
100
AcDbLinetypeTableRecord
  2
CONTINUOUS
 70
     0
  3
Solid line
 72
    65
 73
     0
 40
0.0
  0
ENDTAB
  0
TABLE
  2
LAYER
  5
2
100
AcDbSymbolTable
 70
5
  0
LAYER
  5
50
100
AcDbSymbolTableRecord
100
AcDbLayerTableRecord
  2
0
 70
0
  6
CONTINUOUS
  0
LAYER
  5
51
100
AcDbSymbolTableRecord
100
AcDbLayerTableRecord
  2
Construction
 70
0
  6
CONTINUOUS
  0
LAYER
  5
52
100
AcDbSymbolTableRecord
100
AcDbLayerTableRecord
  2
Text
 70
0
  6
CONTINUOUS
  0
LAYER
  5
53
100
AcDbSymbolTableRecord
100
AcDbLayerTableRecord
  2
S
 70
0
  6
CONTINUOUS
  0
LAYER
  5
54
100
AcDbSymbolTableRecord
100
AcDbLayerTableRecord
  2
M
 70
0
  6
CONTINUOUS
  0
ENDTAB
  0
TABLE
  2
STYLE
  5
3
330
0
100
AcDbSymbolTable
 70
     1
  0
STYLE
  5
11
330
3
100
AcDbSymbolTableRecord
100
AcDbTextStyleTableRecord
  2
STANDARD
 70
     0
 40
0.0
 41
1.0
 50
0.0
 71
     0
 42
2.5
  3
txt
  4

  0
ENDTAB
  0
TABLE
  2
VIEW
  5
6
330
0
100
AcDbSymbolTable
 70
     0
  0
ENDTAB
  0
TABLE
  2
UCS
  5
7
330
0
100
AcDbSymbolTable
 70
     0
  0
ENDTAB
  0
TABLE
  2
APPID
  5
9
330
0
100
AcDbSymbolTable
 70
     2
  0
APPID
  5
12
330
9
100
AcDbSymbolTableRecord
100
AcDbRegAppTableRecord
  2
ACAD
 70
     0
  0
ENDTAB
  0
TABLE
  2
DIMSTYLE
  5
A
330
0
100
AcDbSymbolTable
 70
     1
  0
DIMSTYLE
105
27
330
A
100
AcDbSymbolTableRecord
100
AcDbDimStyleTableRecord
  2
ISO-25
 70
     0
  3

  4

  5

  6

  7

 40
1.0
 41
2.5
 42
0.625
 43
3.75
 44
1.25
 45
0.0
 46
0.0
 47
0.0
 48
0.0
140
2.5
141
2.5
142
0.0
143
0.03937007874016
144
1.0
145
0.0
146
1.0
147
0.625
 71
     0
 72
     0
 73
     0
 74
     0
 75
     0
 76
     0
 77
     1
 78
     8
170
     0
171
     3
172
     1
173
     0
174
     0
175
     0
176
     0
177
     0
178
     0
270
     2
271
     2
272
     2
273
     2
274
     3
340
11
275
     0
280
     0
281
     0
282
     0
283
     0
284
     8
285
     0
286
     0
287
     3
288
     0
  0
ENDTAB
  0
TABLE
  2
BLOCK_RECORD
  5
1
330
0
100
AcDbSymbolTable
 70
     1
  0
BLOCK_RECORD
  5
1F
330
1
100
AcDbSymbolTableRecord
100
AcDbBlockTableRecord
  2
*MODEL_SPACE
  0
BLOCK_RECORD
  5
1B
330
1
100
AcDbSymbolTableRecord
100
AcDbBlockTableRecord
  2
*PAPER_SPACE
  0
ENDTAB
  0
ENDSEC
  0
SECTION
  2
BLOCKS
  0
BLOCK
  5
20
330
1F
100
AcDbEntity
  8
0
100
AcDbBlockBegin
  2
*MODEL_SPACE
 70
     0
 10
0.0
 20
0.0
 30
0.0
  3
*MODEL_SPACE
  1

  0
ENDBLK
  5
21
330
1F
100
AcDbEntity
  8
0
100
AcDbBlockEnd
  0
BLOCK
  5
1C
330
1B
100
AcDbEntity
 67
     1
  8
0
100
AcDbBlockBegin
  2
*PAPER_SPACE
  1

  0
ENDBLK
  5
1D
330
1B
100
AcDbEntity
 67
     1
  8
0
100
AcDbBlockEnd
  0
ENDSEC
  0
SECTION
  2
ENTITIES
  0
LINE
  5
100
100
AcDbEntity
  8
S
 62
7
100
AcDbLine
 10
85.291744
 20
169.331128
 30
0.0
 11
83.355832
 21
169.323234
 31
0.0
  0
LINE
  5
101
100
AcDbEntity
  8
S
 62
7
100
AcDbLine
 10
83.355832
 20
169.323234
 30
0.0
 11
81.420634
 21
169.271264
 31
0.0
  0
LINE
  5
102
100
AcDbEntity
  8
S
 62
7
100
AcDbLine
 10
81.420634
 20
169.271264
 30
0.0
 11
79.487147
 21
169.175234
 31
0.0
  0
LINE
  5
103
100
AcDbEntity
  8
S
 62
7
100
AcDbLine
 10
79.487147
 20
169.175234
 30
0.0
 11
77.556368
 21
169.035158
 31
0.0
  0
LINE
  5
104
100
AcDbEntity
  8
S
 62
7
100
AcDbLine
 10
77.556368
 20
169.035158
 30
0.0
 11
75.629299
 21
168.851049
 31
0.0
  0
LINE
  5
105
100
AcDbEntity
  8
S
 62
7
100
AcDbLine
 10
75.629299
 20
168.851049
 30
0.0
 11
73.706934
 21
168.622922
 31
0.0
  0
LINE
  5
106
100
AcDbEntity
  8
S
 62
7
100
AcDbLine
 10
73.706934
 20
168.622922
 30
0.0
 11
71.790275
 21
168.350791
 31
0.0
  0
LINE
  5
107
100
AcDbEntity
  8
S
 62
7
100
AcDbLine
 10
71.790275
 20
168.350791
 30
0.0
 11
69.880316
 21
168.034670
 31
0.0
  0
LINE
  5
108
100
AcDbEntity
  8
S
 62
7
100
AcDbLine
 10
69.880316
 20
168.034670
 30
0.0
 11
66.504665
 21
167.364379
 31
0.0
  0
LINE
  5
109
100
AcDbEntity
  8
S
 62
7
100
AcDbLine
 10
66.504665
 20
167.364379
 30
0.0
 11
63.159143
 21
166.557027
 31
0.0
  0
LINE
  5
10a
100
AcDbEntity
  8
S
 62
7
100
AcDbLine
 10
63.159143
 20
166.557027
 30
0.0
 11
59.849117
 21
165.614498
 31
0.0
  0
LINE
  5
10b
100
AcDbEntity
  8
S
 62
7
100
AcDbLine
 10
59.849117
 20
165.614498
 30
0.0
 11
56.579939
 21
164.538678
 31
0.0
  0
LINE
  5
10c
100
AcDbEntity
  8
S
 62
7
100
AcDbLine
 10
56.579939
 20
164.538678
 30
0.0
 11
53.356976
 21
163.331450
 31
0.0
  0
LINE
  5
10d
100
AcDbEntity
  8
S
 62
7
100
AcDbLine
 10
53.356976
 20
163.331450
 30
0.0
 11
50.185582
 21
161.994700
 31
0.0
  0
LINE
  5
10e
100
AcDbEntity
  8
S
 62
7
100
AcDbLine
 10
50.185582
 20
161.994700
 30
0.0
 11
47.071122
 21
160.530311
 31
0.0
  0
LINE
  5
10f
100
AcDbEntity
  8
S
 62
7
100
AcDbLine
 10
47.071122
 20
160.530311
 30
0.0
 11
44.018951
 21
158.940169
 31
0.0
  0
LINE
  5
110
100
AcDbEntity
  8
S
 62
7
100
AcDbLine
 10
44.018951
 20
158.940169
 30
0.0
 11
41.034408
 21
157.226385
 31
0.0
  0
LINE
  5
111
100
AcDbEntity
  8
S
 62
7
100
AcDbLine
 10
41.034408
 20
157.226385
 30
0.0
 11
38.122236
 21
155.392372
 31
0.0
  0
LINE
  5
112
100
AcDbEntity
  8
S
 62
7
100
AcDbLine
 10
38.122236
 20
155.392372
 30
0.0
 11
35.286899
 21
153.441626
 31
0.0
  0
LINE
  5
113
100
AcDbEntity
  8
S
 62
7
100
AcDbLine
 10
35.286899
 20
153.441626
 30
0.0
 11
32.532862
 21
151.377642
 31
0.0
  0
LINE
  5
114
100
AcDbEntity
  8
S
 62
7
100
AcDbLine
 10
32.532862
 20
151.377642
 30
0.0
 11
29.864592
 21
149.203912
 31
0.0
  0
LINE
  5
115
100
AcDbEntity
  8
S
 62
7
100
AcDbLine
 10
29.864592
 20
149.203912
 30
0.0
 11
27.286551
 21
146.923933
 31
0.0
  0
LINE
  5
116
100
AcDbEntity
  8
S
 62
7
100
AcDbLine
 10
27.286551
 20
146.923933
 30
0.0
 11
24.803208
 21
144.541198
 31
0.0
  0
LINE
  5
117
100
AcDbEntity
  8
S
 62
7
100
AcDbLine
 10
24.803208
 20
144.541198
 30
0.0
 11
22.419028
 21
142.059201
 31
0.0
  0
LINE
  5
118
100
AcDbEntity
  8
S
 62
7
100
AcDbLine
 10
22.419028
 20
142.059201
 30
0.0
 11
20.138378
 21
139.481659
 31
0.0
  0
LINE
  5
119
100
AcDbEntity
  8
S
 62
7
100
AcDbLine
 10
20.138378
 20
139.481659
 30
0.0
 11
17.964726
 21
136.813338
 31
0.0
  0
LINE
  5
11a
100
AcDbEntity
  8
S
 62
7
100
AcDbLine
 10
17.964726
 20
136.813338
 30
0.0
 11
15.901192
 21
134.058965
 31
0.0
  0
LINE
  5
11b
100
AcDbEntity
  8
S
 62
7
100
AcDbLine
 10
15.901192
 20
134.058965
 30
0.0
 11
13.950892
 21
131.223261
 31
0.0
  0
LINE
  5
11c
100
AcDbEntity
  8
S
 62
7
100
AcDbLine
 10
13.950892
 20
131.223261
 30
0.0
 11
12.116945
 21
128.310959
 31
0.0
  0
LINE
  5
11d
100
AcDbEntity
  8
S
 62
7
100
AcDbLine
 10
12.116945
 20
128.310959
 30
0.0
 11
10.402467
 21
125.326783
 31
0.0
  0
LINE
  5
11e
100
AcDbEntity
  8
S
 62
7
100
AcDbLine
 10
10.402467
 20
125.326783
 30
0.0
 11
8.810577
 21
122.275462
 31
0.0
  0
LINE
  5
11f
100
AcDbEntity
  8
S
 62
7
100
AcDbLine
 10
8.810577
 20
122.275462
 30
0.0
 11
7.344393
 21
119.161718
 31
0.0
  0
LINE
  5
120
100
AcDbEntity
  8
S
 62
7
100
AcDbLine
 10
7.344393
 20
119.161718
 30
0.0
 11
6.006809
 21
115.990587
 31
0.0
  0
LINE
  5
121
100
AcDbEntity
  8
S
 62
7
100
AcDbLine
 10
6.006809
 20
115.990587
 30
0.0
 11
4.799608
 21
112.767607
 31
0.0
  0
LINE
  5
122
100
AcDbEntity
  8
S
 62
7
100
AcDbLine
 10
4.799608
 20
112.767607
 30
0.0
 11
3.724235
 21
109.498251
 31
0.0
  0
LINE
  5
123
100
AcDbEntity
  8
S
 62
7
100
AcDbLine
 10
3.724235
 20
109.498251
 30
0.0
 11
2.782136
 21
106.188008
 31
0.0
  0
LINE
  5
124
100
AcDbEntity
  8
S
 62
7
100
AcDbLine
 10
2.782136
 20
106.188008
 30
0.0
 11
1.974755
 21
102.842354
 31
0.0
  0
LINE
  5
125
100
AcDbEntity
  8
S
 62
7
100
AcDbLine
 10
1.974755
 20
102.842354
 30
0.0
 11
1.303539
 21
99.466764
 31
0.0
  0
LINE
  5
126
100
AcDbEntity
  8
S
 62
7
100
AcDbLine
 10
1.303539
 20
99.466764
 30
0.0
 11
0.769931
 21
96.066726
 31
0.0
  0
LINE
  5
127
100
AcDbEntity
  8
S
 62
7
100
AcDbLine
 10
0.769931
 20
96.066726
 30
0.0
 11
0.375378
 21
92.647714
 31
0.0
  0
LINE
  5
128
100
AcDbEntity
  8
S
 62
7
100
AcDbLine
 10
0.375378
 20
92.647714
 30
0.0
 11
0.121039
 21
89.215406
 31
0.0
  0
LINE
  5
129
100
AcDbEntity
  8
S
 62
7
100
AcDbLine
 10
0.121039
 20
89.215406
 30
0.0
 11
0.006851
 21
85.775602
 31
0.0
  0
LINE
  5
12a
100
AcDbEntity
  8
S
 62
7
100
AcDbLine
 10
0.006851
 20
85.775602
 30
0.0
 11
0.032420
 21
82.333965
 31
0.0
  0
LINE
  5
12b
100
AcDbEntity
  8
S
 62
7
100
AcDbLine
 10
0.032420
 20
82.333965
 30
0.0
 11
0.197354
 21
78.896154
 31
0.0
  0
LINE
  5
12c
100
AcDbEntity
  8
S
 62
7
100
AcDbLine
 10
0.197354
 20
78.896154
 30
0.0
 11
0.501261
 21
75.467831
 31
0.0
  0
LINE
  5
12d
100
AcDbEntity
  8
S
 62
7
100
AcDbLine
 10
0.501261
 20
75.467831
 30
0.0
 11
0.943748
 21
72.054658
 31
0.0
  0
LINE
  5
12e
100
AcDbEntity
  8
S
 62
7
100
AcDbLine
 10
0.943748
 20
72.054658
 30
0.0
 11
1.524424
 21
68.662299
 31
0.0
  0
LINE
  5
12f
100
AcDbEntity
  8
S
 62
7
100
AcDbLine
 10
1.524424
 20
68.662299
 30
0.0
 11
2.242895
 21
65.296409
 31
0.0
  0
LINE
  5
130
100
AcDbEntity
  8
S
 62
7
100
AcDbLine
 10
2.242895
 20
65.296409
 30
0.0
 11
3.098455
 21
61.962747
 31
0.0
  0
LINE
  5
131
100
AcDbEntity
  8
S
 62
7
100
AcDbLine
 10
3.098455
 20
61.962747
 30
0.0
 11
4.089208
 21
58.666775
 31
0.0
  0
LINE
  5
132
100
AcDbEntity
  8
S
 62
7
100
AcDbLine
 10
4.089208
 20
58.666775
 30
0.0
 11
5.212975
 21
55.413729
 31
0.0
  0
LINE
  5
133
100
AcDbEntity
  8
S
 62
7
100
AcDbLine
 10
5.212975
 20
55.413729
 30
0.0
 11
6.467575
 21
52.208851
 31
0.0
  0
LINE
  5
134
100
AcDbEntity
  8
S
 62
7
100
AcDbLine
 10
6.467575
 20
52.208851
 30
0.0
 11
7.850829
 21
49.057379
 31
0.0
  0
LINE
  5
135
100
AcDbEntity
  8
S
 62
7
100
AcDbLine
 10
7.850829
 20
49.057379
 30
0.0
 11
9.360556
 21
45.964551
 31
0.0
  0
LINE
  5
136
100
AcDbEntity
  8
S
 62
7
100
AcDbLine
 10
9.360556
 20
45.964551
 30
0.0
 11
10.994577
 21
42.935607
 31
0.0
  0
LINE
  5
137
100
AcDbEntity
  8
S
 62
7
100
AcDbLine
 10
10.994577
 20
42.935607
 30
0.0
 11
12.750712
 21
39.975784
 31
0.0
  0
LINE
  5
138
100
AcDbEntity
  8
S
 62
7
100
AcDbLine
 10
12.750712
 20
39.975784
 30
0.0
 11
12.919785
 21
39.740479
 31
0.0
  0
LINE
  5
139
100
AcDbEntity
  8
S
 62
7
100
AcDbLine
 10
12.919785
 20
39.740479
 30
0.0
 11
13.117947
 21
39.529377
 31
0.0
  0
LINE
  5
13a
100
AcDbEntity
  8
S
 62
7
100
AcDbLine
 10
13.117947
 20
39.529377
 30
0.0
 11
13.341216
 21
39.344685
 31
0.0
  0
LINE
  5
13b
100
AcDbEntity
  8
S
 62
7
100
AcDbLine
 10
13.341216
 20
39.344685
 30
0.0
 11
13.585611
 21
39.188621
 31
0.0
  0
LINE
  5
13c
100
AcDbEntity
  8
S
 62
7
100
AcDbLine
 10
13.585611
 20
39.188621
 30
0.0
 11
13.847153
 21
39.063394
 31
0.0
  0
LINE
  5
13d
100
AcDbEntity
  8
S
 62
7
100
AcDbLine
 10
13.847153
 20
39.063394
 30
0.0
 11
14.121861
 21
38.971214
 31
0.0
  0
LINE
  5
13e
100
AcDbEntity
  8
S
 62
7
100
AcDbLine
 10
14.121861
 20
38.971214
 30
0.0
 11
14.405752
 21
38.914296
 31
0.0
  0
LINE
  5
13f
100
AcDbEntity
  8
S
 62
7
100
AcDbLine
 10
14.405752
 20
38.914296
 30
0.0
 11
14.694848
 21
38.894851
 31
0.0
  0
LINE
  5
140
100
AcDbEntity
  8
S
 62
7
100
AcDbLine
 10
14.694848
 20
38.894851
 30
0.0
 11
19.422277
 21
38.894851
 31
0.0
  0
LINE
  5
141
100
AcDbEntity
  8
S
 62
7
100
AcDbLine
 10
19.422277
 20
38.894851
 30
0.0
 11
24.149706
 21
38.894851
 31
0.0
  0
LINE
  5
142
100
AcDbEntity
  8
S
 62
7
100
AcDbLine
 10
24.149706
 20
38.894851
 30
0.0
 11
28.877136
 21
38.894851
 31
0.0
  0
LINE
  5
143
100
AcDbEntity
  8
S
 62
7
100
AcDbLine
 10
28.877136
 20
38.894851
 30
0.0
 11
33.604564
 21
38.894851
 31
0.0
  0
LINE
  5
144
100
AcDbEntity
  8
S
 62
7
100
AcDbLine
 10
33.604564
 20
38.894851
 30
0.0
 11
38.331992
 21
38.894851
 31
0.0
  0
LINE
  5
145
100
AcDbEntity
  8
S
 62
7
100
AcDbLine
 10
38.331992
 20
38.894851
 30
0.0
 11
43.059421
 21
38.894851
 31
0.0
  0
LINE
  5
146
100
AcDbEntity
  8
S
 62
7
100
AcDbLine
 10
43.059421
 20
38.894851
 30
0.0
 11
47.786852
 21
38.894851
 31
0.0
  0
LINE
  5
147
100
AcDbEntity
  8
S
 62
7
100
AcDbLine
 10
47.786852
 20
38.894851
 30
0.0
 11
52.514280
 21
38.894851
 31
0.0
  0
LINE
  5
148
100
AcDbEntity
  8
S
 62
7
100
AcDbLine
 10
52.514280
 20
38.894851
 30
0.0
 11
52.738452
 21
38.906252
 31
0.0
  0
LINE
  5
149
100
AcDbEntity
  8
S
 62
7
100
AcDbLine
 10
52.738452
 20
38.906252
 30
0.0
 11
52.960321
 21
38.939972
 31
0.0
  0
LINE
  5
14a
100
AcDbEntity
  8
S
 62
7
100
AcDbLine
 10
52.960321
 20
38.939972
 30
0.0
 11
53.177908
 21
38.995198
 31
0.0
  0
LINE
  5
14b
100
AcDbEntity
  8
S
 62
7
100
AcDbLine
 10
53.177908
 20
38.995198
 30
0.0
 11
53.389245
 21
39.071104
 31
0.0
  0
LINE
  5
14c
100
AcDbEntity
  8
S
 62
7
100
AcDbLine
 10
53.389245
 20
39.071104
 30
0.0
 11
53.592360
 21
39.166873
 31
0.0
  0
LINE
  5
14d
100
AcDbEntity
  8
S
 62
7
100
AcDbLine
 10
53.592360
 20
39.166873
 30
0.0
 11
53.785279
 21
39.281684
 31
0.0
  0
LINE
  5
14e
100
AcDbEntity
  8
S
 62
7
100
AcDbLine
 10
53.785279
 20
39.281684
 30
0.0
 11
53.966031
 21
39.414712
 31
0.0
  0
LINE
  5
14f
100
AcDbEntity
  8
S
 62
7
100
AcDbLine
 10
53.966031
 20
39.414712
 30
0.0
 11
54.132647
 21
39.565140
 31
0.0
  0
LINE
  5
150
100
AcDbEntity
  8
S
 62
7
100
AcDbLine
 10
54.132647
 20
39.565140
 30
0.0
 11
55.421112
 21
40.853744
 31
0.0
  0
LINE
  5
151
100
AcDbEntity
  8
S
 62
7
100
AcDbLine
 10
55.421112
 20
40.853744
 30
0.0
 11
56.709578
 21
42.142348
 31
0.0
  0
LINE
  5
152
100
AcDbEntity
  8
S
 62
7
100
AcDbLine
 10
56.709578
 20
42.142348
 30
0.0
 11
57.998044
 21
43.430949
 31
0.0
  0
LINE
  5
153
100
AcDbEntity
  8
S
 62
7
100
AcDbLine
 10
57.998044
 20
43.430949
 30
0.0
 11
59.286510
 21
44.719553
 31
0.0
  0
LINE
  5
154
100
AcDbEntity
  8
S
 62
7
100
AcDbLine
 10
59.286510
 20
44.719553
 30
0.0
 11
60.574976
 21
46.008157
 31
0.0
  0
LINE
  5
155
100
AcDbEntity
  8
S
 62
7
100
AcDbLine
 10
60.574976
 20
46.008157
 30
0.0
 11
61.863441
 21
47.296759
 31
0.0
  0
LINE
  5
156
100
AcDbEntity
  8
S
 62
7
100
AcDbLine
 10
61.863441
 20
47.296759
 30
0.0
 11
63.151907
 21
48.585363
 31
0.0
  0
LINE
  5
157
100
AcDbEntity
  8
S
 62
7
100
AcDbLine
 10
63.151907
 20
48.585363
 30
0.0
 11
64.440373
 21
49.873967
 31
0.0
  0
LINE
  5
158
100
AcDbEntity
  8
S
 62
7
100
AcDbLine
 10
64.440373
 20
49.873967
 30
0.0
 11
64.743748
 21
49.570524
 31
0.0
  0
LINE
  5
159
100
AcDbEntity
  8
S
 62
7
100
AcDbLine
 10
64.743748
 20
49.570524
 30
0.0
 11
65.047122
 21
49.267079
 31
0.0
  0
LINE
  5
15a
100
AcDbEntity
  8
S
 62
7
100
AcDbLine
 10
65.047122
 20
49.267079
 30
0.0
 11
65.350497
 21
48.963634
 31
0.0
  0
LINE
  5
15b
100
AcDbEntity
  8
S
 62
7
100
AcDbLine
 10
65.350497
 20
48.963634
 30
0.0
 11
65.653872
 21
48.660191
 31
0.0
  0
LINE
  5
15c
100
AcDbEntity
  8
S
 62
7
100
AcDbLine
 10
65.653872
 20
48.660191
 30
0.0
 11
65.957250
 21
48.356749
 31
0.0
  0
LINE
  5
15d
100
AcDbEntity
  8
S
 62
7
100
AcDbLine
 10
65.957250
 20
48.356749
 30
0.0
 11
66.260624
 21
48.053303
 31
0.0
  0
LINE
  5
15e
100
AcDbEntity
  8
S
 62
7
100
AcDbLine
 10
66.260624
 20
48.053303
 30
0.0
 11
66.563999
 21
47.749861
 31
0.0
  0
LINE
  5
15f
100
AcDbEntity
  8
S
 62
7
100
AcDbLine
 10
66.563999
 20
47.749861
 30
0.0
 11
66.867374
 21
47.446415
 31
0.0
  0
LINE
  5
160
100
AcDbEntity
  8
S
 62
7
100
AcDbLine
 10
66.867374
 20
47.446415
 30
0.0
 11
67.160504
 21
47.087457
 31
0.0
  0
LINE
  5
161
100
AcDbEntity
  8
S
 62
7
100
AcDbLine
 10
67.160504
 20
47.087457
 30
0.0
 11
67.369882
 21
46.689501
 31
0.0
  0
LINE
  5
162
100
AcDbEntity
  8
S
 62
7
100
AcDbLine
 10
67.369882
 20
46.689501
 30
0.0
 11
67.495507
 21
46.265550
 31
0.0
  0
LINE
  5
163
100
AcDbEntity
  8
S
 62
7
100
AcDbLine
 10
67.495507
 20
46.265550
 30
0.0
 11
67.537384
 21
45.828599
 31
0.0
  0
LINE
  5
164
100
AcDbEntity
  8
S
 62
7
100
AcDbLine
 10
67.537384
 20
45.828599
 30
0.0
 11
67.495507
 21
45.391646
 31
0.0
  0
LINE
  5
165
100
AcDbEntity
  8
S
 62
7
100
AcDbLine
 10
67.495507
 20
45.391646
 30
0.0
 11
67.369882
 21
44.967694
 31
0.0
  0
LINE
  5
166
100
AcDbEntity
  8
S
 62
7
100
AcDbLine
 10
67.369882
 20
44.967694
 30
0.0
 11
67.160504
 21
44.569738
 31
0.0
  0
LINE
  5
167
100
AcDbEntity
  8
S
 62
7
100
AcDbLine
 10
67.160504
 20
44.569738
 30
0.0
 11
66.867374
 21
44.210780
 31
0.0
  0
LINE
  5
168
100
AcDbEntity
  8
S
 62
7
100
AcDbLine
 10
66.867374
 20
44.210780
 30
0.0
 11
66.574043
 21
43.851748
 31
0.0
  0
LINE
  5
169
100
AcDbEntity
  8
S
 62
7
100
AcDbLine
 10
66.574043
 20
43.851748
 30
0.0
 11
66.364522
 21
43.453665
 31
0.0
  0
LINE
  5
16a
100
AcDbEntity
  8
S
 62
7
100
AcDbLine
 10
66.364522
 20
43.453665
 30
0.0
 11
66.238809
 21
43.029547
 31
0.0
  0
LINE
  5
16b
100
AcDbEntity
  8
S
 62
7
100
AcDbLine
 10
66.238809
 20
43.029547
 30
0.0
 11
66.196901
 21
42.592411
 31
0.0
  0
LINE
  5
16c
100
AcDbEntity
  8
S
 62
7
100
AcDbLine
 10
66.196901
 20
42.592411
 30
0.0
 11
66.238809
 21
42.155274
 31
0.0
  0
LINE
  5
16d
100
AcDbEntity
  8
S
 62
7
100
AcDbLine
 10
66.238809
 20
42.155274
 30
0.0
 11
66.364522
 21
41.731156
 31
0.0
  0
LINE
  5
16e
100
AcDbEntity
  8
S
 62
7
100
AcDbLine
 10
66.364522
 20
41.731156
 30
0.0
 11
66.574043
 21
41.333073
 31
0.0
  0
LINE
  5
16f
100
AcDbEntity
  8
S
 62
7
100
AcDbLine
 10
66.574043
 20
41.333073
 30
0.0
 11
66.867374
 21
40.974044
 31
0.0
  0
LINE
  5
170
100
AcDbEntity
  8
S
 62
7
100
AcDbLine
 10
66.867374
 20
40.974044
 30
0.0
 11
68.889990
 21
38.951289
 31
0.0
  0
LINE
  5
171
100
AcDbEntity
  8
S
 62
7
100
AcDbLine
 10
68.889990
 20
38.951289
 30
0.0
 11
70.912603
 21
36.928538
 31
0.0
  0
LINE
  5
172
100
AcDbEntity
  8
S
 62
7
100
AcDbLine
 10
70.912603
 20
36.928538
 30
0.0
 11
72.935219
 21
34.905783
 31
0.0
  0
LINE
  5
173
100
AcDbEntity
  8
S
 62
7
100
AcDbLine
 10
72.935219
 20
34.905783
 30
0.0
 11
74.957836
 21
32.883029
 31
0.0
  0
LINE
  5
174
100
AcDbEntity
  8
S
 62
7
100
AcDbLine
 10
74.957836
 20
32.883029
 30
0.0
 11
76.980452
 21
30.860278
 31
0.0
  0
LINE
  5
175
100
AcDbEntity
  8
S
 62
7
100
AcDbLine
 10
76.980452
 20
30.860278
 30
0.0
 11
79.003068
 21
28.837523
 31
0.0
  0
LINE
  5
176
100
AcDbEntity
  8
S
 62
7
100
AcDbLine
 10
79.003068
 20
28.837523
 30
0.0
 11
81.025681
 21
26.814772
 31
0.0
  0
LINE
  5
177
100
AcDbEntity
  8
S
 62
7
100
AcDbLine
 10
81.025681
 20
26.814772
 30
0.0
 11
83.048297
 21
24.792017
 31
0.0
  0
LINE
  5
178
100
AcDbEntity
  8
S
 62
7
100
AcDbLine
 10
83.048297
 20
24.792017
 30
0.0
 11
83.407318
 21
24.498670
 31
0.0
  0
LINE
  5
179
100
AcDbEntity
  8
S
 62
7
100
AcDbLine
 10
83.407318
 20
24.498670
 30
0.0
 11
83.805398
 21
24.289137
 31
0.0
  0
LINE
  5
17a
100
AcDbEntity
  8
S
 62
7
100
AcDbLine
 10
83.805398
 20
24.289137
 30
0.0
 11
84.229524
 21
24.163415
 31
0.0
  0
LINE
  5
17b
100
AcDbEntity
  8
S
 62
7
100
AcDbLine
 10
84.229524
 20
24.163415
 30
0.0
 11
84.666669
 21
24.121508
 31
0.0
  0
LINE
  5
17c
100
AcDbEntity
  8
S
 62
7
100
AcDbLine
 10
84.666669
 20
24.121508
 30
0.0
 11
85.103815
 21
24.163415
 31
0.0
  0
LINE
  5
17d
100
AcDbEntity
  8
S
 62
7
100
AcDbLine
 10
85.103815
 20
24.163415
 30
0.0
 11
85.527938
 21
24.289137
 31
0.0
  0
LINE
  5
17e
100
AcDbEntity
  8
S
 62
7
100
AcDbLine
 10
85.527938
 20
24.289137
 30
0.0
 11
85.926018
 21
24.498670
 31
0.0
  0
LINE
  5
17f
100
AcDbEntity
  8
S
 62
7
100
AcDbLine
 10
85.926018
 20
24.498670
 30
0.0
 11
86.285036
 21
24.792017
 31
0.0
  0
LINE
  5
180
100
AcDbEntity
  8
S
 62
7
100
AcDbLine
 10
86.285036
 20
24.792017
 30
0.0
 11
88.509946
 21
27.017066
 31
0.0
  0
LINE
  5
181
100
AcDbEntity
  8
S
 62
7
100
AcDbLine
 10
88.509946
 20
27.017066
 30
0.0
 11
90.734859
 21
29.242117
 31
0.0
  0
LINE
  5
182
100
AcDbEntity
  8
S
 62
7
100
AcDbLine
 10
90.734859
 20
29.242117
 30
0.0
 11
92.959769
 21
31.467165
 31
0.0
  0
LINE
  5
183
100
AcDbEntity
  8
S
 62
7
100
AcDbLine
 10
92.959769
 20
31.467165
 30
0.0
 11
95.184680
 21
33.692217
 31
0.0
  0
LINE
  5
184
100
AcDbEntity
  8
S
 62
7
100
AcDbLine
 10
95.184680
 20
33.692217
 30
0.0
 11
97.409593
 21
35.917265
 31
0.0
  0
LINE
  5
185
100
AcDbEntity
  8
S
 62
7
100
AcDbLine
 10
97.409593
 20
35.917265
 30
0.0
 11
99.634503
 21
38.142314
 31
0.0
  0
LINE
  5
186
100
AcDbEntity
  8
S
 62
7
100
AcDbLine
 10
99.634503
 20
38.142314
 30
0.0
 11
101.859416
 21
40.367365
 31
0.0
  0
LINE
  5
187
100
AcDbEntity
  8
S
 62
7
100
AcDbLine
 10
101.859416
 20
40.367365
 30
0.0
 11
104.084326
 21
42.592413
 31
0.0
  0
LINE
  5
188
100
AcDbEntity
  8
S
 62
7
100
AcDbLine
 10
104.084326
 20
42.592413
 30
0.0
 11
104.377657
 21
42.951442
 31
0.0
  0
LINE
  5
189
100
AcDbEntity
  8
S
 62
7
100
AcDbLine
 10
104.377657
 20
42.951442
 30
0.0
 11
104.587178
 21
43.349525
 31
0.0
  0
LINE
  5
18a
100
AcDbEntity
  8
S
 62
7
100
AcDbLine
 10
104.587178
 20
43.349525
 30
0.0
 11
104.712891
 21
43.773643
 31
0.0
  0
LINE
  5
18b
100
AcDbEntity
  8
S
 62
7
100
AcDbLine
 10
104.712891
 20
43.773643
 30
0.0
 11
104.754796
 21
44.210780
 31
0.0
  0
LINE
  5
18c
100
AcDbEntity
  8
S
 62
7
100
AcDbLine
 10
104.754796
 20
44.210780
 30
0.0
 11
104.712891
 21
44.647917
 31
0.0
  0
LINE
  5
18d
100
AcDbEntity
  8
S
 62
7
100
AcDbLine
 10
104.712891
 20
44.647917
 30
0.0
 11
104.587178
 21
45.072035
 31
0.0
  0
LINE
  5
18e
100
AcDbEntity
  8
S
 62
7
100
AcDbLine
 10
104.587178
 20
45.072035
 30
0.0
 11
104.377657
 21
45.470118
 31
0.0
  0
LINE
  5
18f
100
AcDbEntity
  8
S
 62
7
100
AcDbLine
 10
104.377657
 20
45.470118
 30
0.0
 11
104.084326
 21
45.829149
 31
0.0
  0
LINE
  5
190
100
AcDbEntity
  8
S
 62
7
100
AcDbLine
 10
104.084326
 20
45.829149
 30
0.0
 11
102.061710
 21
47.851904
 31
0.0
  0
LINE
  5
191
100
AcDbEntity
  8
S
 62
7
100
AcDbLine
 10
102.061710
 20
47.851904
 30
0.0
 11
100.039097
 21
49.874655
 31
0.0
  0
LINE
  5
192
100
AcDbEntity
  8
S
 62
7
100
AcDbLine
 10
100.039097
 20
49.874655
 30
0.0
 11
98.016481
 21
51.897410
 31
0.0
  0
LINE
  5
193
100
AcDbEntity
  8
S
 62
7
100
AcDbLine
 10
98.016481
 20
51.897410
 30
0.0
 11
95.993864
 21
53.920161
 31
0.0
  0
LINE
  5
194
100
AcDbEntity
  8
S
 62
7
100
AcDbLine
 10
95.993864
 20
53.920161
 30
0.0
 11
93.971248
 21
55.942916
 31
0.0
  0
LINE
  5
195
100
AcDbEntity
  8
S
 62
7
100
AcDbLine
 10
93.971248
 20
55.942916
 30
0.0
 11
91.948632
 21
57.965670
 31
0.0
  0
LINE
  5
196
100
AcDbEntity
  8
S
 62
7
100
AcDbLine
 10
91.948632
 20
57.965670
 30
0.0
 11
89.926019
 21
59.988422
 31
0.0
  0
LINE
  5
197
100
AcDbEntity
  8
S
 62
7
100
AcDbLine
 10
89.926019
 20
59.988422
 30
0.0
 11
87.903403
 21
62.011176
 31
0.0
  0
LINE
  5
198
100
AcDbEntity
  8
S
 62
7
100
AcDbLine
 10
87.903403
 20
62.011176
 30
0.0
 11
87.544385
 21
62.304524
 31
0.0
  0
LINE
  5
199
100
AcDbEntity
  8
S
 62
7
100
AcDbLine
 10
87.544385
 20
62.304524
 30
0.0
 11
87.146302
 21
62.514057
 31
0.0
  0
LINE
  5
19a
100
AcDbEntity
  8
S
 62
7
100
AcDbLine
 10
87.146302
 20
62.514057
 30
0.0
 11
86.722179
 21
62.639775
 31
0.0
  0
LINE
  5
19b
100
AcDbEntity
  8
S
 62
7
100
AcDbLine
 10
86.722179
 20
62.639775
 30
0.0
 11
86.285033
 21
62.681683
 31
0.0
  0
LINE
  5
19c
100
AcDbEntity
  8
S
 62
7
100
AcDbLine
 10
86.285033
 20
62.681683
 30
0.0
 11
85.847891
 21
62.639775
 31
0.0
  0
LINE
  5
19d
100
AcDbEntity
  8
S
 62
7
100
AcDbLine
 10
85.847891
 20
62.639775
 30
0.0
 11
85.423764
 21
62.514057
 31
0.0
  0
LINE
  5
19e
100
AcDbEntity
  8
S
 62
7
100
AcDbLine
 10
85.423764
 20
62.514057
 30
0.0
 11
85.025684
 21
62.304524
 31
0.0
  0
LINE
  5
19f
100
AcDbEntity
  8
S
 62
7
100
AcDbLine
 10
85.025684
 20
62.304524
 30
0.0
 11
84.666667
 21
62.011176
 31
0.0
  0
LINE
  5
1a0
100
AcDbEntity
  8
S
 62
7
100
AcDbLine
 10
84.666667
 20
62.011176
 30
0.0
 11
84.307649
 21
61.717829
 31
0.0
  0
LINE
  5
1a1
100
AcDbEntity
  8
S
 62
7
100
AcDbLine
 10
84.307649
 20
61.717829
 30
0.0
 11
83.909566
 21
61.508296
 31
0.0
  0
LINE
  5
1a2
100
AcDbEntity
  8
S
 62
7
100
AcDbLine
 10
83.909566
 20
61.508296
 30
0.0
 11
83.485442
 21
61.382574
 31
0.0
  0
LINE
  5
1a3
100
AcDbEntity
  8
S
 62
7
100
AcDbLine
 10
83.485442
 20
61.382574
 30
0.0
 11
83.048300
 21
61.340667
 31
0.0
  0
LINE
  5
1a4
100
AcDbEntity
  8
S
 62
7
100
AcDbLine
 10
83.048300
 20
61.340667
 30
0.0
 11
82.611155
 21
61.382574
 31
0.0
  0
LINE
  5
1a5
100
AcDbEntity
  8
S
 62
7
100
AcDbLine
 10
82.611155
 20
61.382574
 30
0.0
 11
82.187031
 21
61.508296
 31
0.0
  0
LINE
  5
1a6
100
AcDbEntity
  8
S
 62
7
100
AcDbLine
 10
82.187031
 20
61.508296
 30
0.0
 11
81.788948
 21
61.717829
 31
0.0
  0
LINE
  5
1a7
100
AcDbEntity
  8
S
 62
7
100
AcDbLine
 10
81.788948
 20
61.717829
 30
0.0
 11
81.429931
 21
62.011176
 31
0.0
  0
LINE
  5
1a8
100
AcDbEntity
  8
S
 62
7
100
AcDbLine
 10
81.429931
 20
62.011176
 30
0.0
 11
81.328920
 21
62.112325
 31
0.0
  0
LINE
  5
1a9
100
AcDbEntity
  8
S
 62
7
100
AcDbLine
 10
81.328920
 20
62.112325
 30
0.0
 11
81.227910
 21
62.213473
 31
0.0
  0
LINE
  5
1aa
100
AcDbEntity
  8
S
 62
7
100
AcDbLine
 10
81.227910
 20
62.213473
 30
0.0
 11
81.126900
 21
62.314622
 31
0.0
  0
LINE
  5
1ab
100
AcDbEntity
  8
S
 62
7
100
AcDbLine
 10
81.126900
 20
62.314622
 30
0.0
 11
81.025890
 21
62.415767
 31
0.0
  0
LINE
  5
1ac
100
AcDbEntity
  8
S
 62
7
100
AcDbLine
 10
81.025890
 20
62.415767
 30
0.0
 11
80.924880
 21
62.516916
 31
0.0
  0
LINE
  5
1ad
100
AcDbEntity
  8
S
 62
7
100
AcDbLine
 10
80.924880
 20
62.516916
 30
0.0
 11
80.823870
 21
62.618064
 31
0.0
  0
LINE
  5
1ae
100
AcDbEntity
  8
S
 62
7
100
AcDbLine
 10
80.823870
 20
62.618064
 30
0.0
 11
80.722859
 21
62.719212
 31
0.0
  0
LINE
  5
1af
100
AcDbEntity
  8
S
 62
7
100
AcDbLine
 10
80.722859
 20
62.719212
 30
0.0
 11
80.621849
 21
62.820361
 31
0.0
  0
LINE
  5
1b0
100
AcDbEntity
  8
S
 62
7
100
AcDbLine
 10
80.621849
 20
62.820361
 30
0.0
 11
80.328558
 21
63.179336
 31
0.0
  0
LINE
  5
1b1
100
AcDbEntity
  8
S
 62
7
100
AcDbLine
 10
80.328558
 20
63.179336
 30
0.0
 11
80.119079
 21
63.577343
 31
0.0
  0
LINE
  5
1b2
100
AcDbEntity
  8
S
 62
7
100
AcDbLine
 10
80.119079
 20
63.577343
 30
0.0
 11
79.993403
 21
64.001368
 31
0.0
  0
LINE
  5
1b3
100
AcDbEntity
  8
S
 62
7
100
AcDbLine
 10
79.993403
 20
64.001368
 30
0.0
 11
79.951524
 21
64.438406
 31
0.0
  0
LINE
  5
1b4
100
AcDbEntity
  8
S
 62
7
100
AcDbLine
 10
79.951524
 20
64.438406
 30
0.0
 11
79.993436
 21
64.875450
 31
0.0
  0
LINE
  5
1b5
100
AcDbEntity
  8
S
 62
7
100
AcDbLine
 10
79.993436
 20
64.875450
 30
0.0
 11
80.119133
 21
65.299494
 31
0.0
  0
LINE
  5
1b6
100
AcDbEntity
  8
S
 62
7
100
AcDbLine
 10
80.119133
 20
65.299494
 30
0.0
 11
80.328606
 21
65.697526
 31
0.0
  0
LINE
  5
1b7
100
AcDbEntity
  8
S
 62
7
100
AcDbLine
 10
80.328606
 20
65.697526
 30
0.0
 11
80.621849
 21
66.056544
 31
0.0
  0
LINE
  5
1b8
100
AcDbEntity
  8
S
 62
7
100
AcDbLine
 10
80.621849
 20
66.056544
 30
0.0
 11
80.621872
 21
66.056592
 31
0.0
  0
LINE
  5
1b9
100
AcDbEntity
  8
S
 62
7
100
AcDbLine
 10
80.621872
 20
66.056592
 30
0.0
 11
80.621875
 21
66.056657
 31
0.0
  0
LINE
  5
1ba
100
AcDbEntity
  8
S
 62
7
100
AcDbLine
 10
80.621875
 20
66.056657
 30
0.0
 11
80.621866
 21
66.056736
 31
0.0
  0
LINE
  5
1bb
100
AcDbEntity
  8
S
 62
7
100
AcDbLine
 10
80.621866
 20
66.056736
 30
0.0
 11
80.621849
 21
66.056820
 31
0.0
  0
LINE
  5
1bc
100
AcDbEntity
  8
S
 62
7
100
AcDbLine
 10
80.621849
 20
66.056820
 30
0.0
 11
80.621832
 21
66.056905
 31
0.0
  0
LINE
  5
1bd
100
AcDbEntity
  8
S
 62
7
100
AcDbLine
 10
80.621832
 20
66.056905
 30
0.0
 11
80.621821
 21
66.056984
 31
0.0
  0
LINE
  5
1be
100
AcDbEntity
  8
S
 62
7
100
AcDbLine
 10
80.621821
 20
66.056984
 30
0.0
 11
80.621824
 21
66.057049
 31
0.0
  0
LINE
  5
1bf
100
AcDbEntity
  8
S
 62
7
100
AcDbLine
 10
80.621824
 20
66.057049
 30
0.0
 11
80.621849
 21
66.057097
 31
0.0
  0
LINE
  5
1c0
100
AcDbEntity
  8
S
 62
7
100
AcDbLine
 10
80.621849
 20
66.057097
 30
0.0
 11
80.625772
 21
66.061020
 31
0.0
  0
LINE
  5
1c1
100
AcDbEntity
  8
S
 62
7
100
AcDbLine
 10
80.625772
 20
66.061020
 30
0.0
 11
80.629695
 21
66.064943
 31
0.0
  0
LINE
  5
1c2
100
AcDbEntity
  8
S
 62
7
100
AcDbLine
 10
80.629695
 20
66.064943
 30
0.0
 11
80.633618
 21
66.068866
 31
0.0
  0
LINE
  5
1c3
100
AcDbEntity
  8
S
 62
7
100
AcDbLine
 10
80.633618
 20
66.068866
 30
0.0
 11
80.637541
 21
66.072789
 31
0.0
  0
LINE
  5
1c4
100
AcDbEntity
  8
S
 62
7
100
AcDbLine
 10
80.637541
 20
66.072789
 30
0.0
 11
80.641464
 21
66.076711
 31
0.0
  0
LINE
  5
1c5
100
AcDbEntity
  8
S
 62
7
100
AcDbLine
 10
80.641464
 20
66.076711
 30
0.0
 11
80.645387
 21
66.080634
 31
0.0
  0
LINE
  5
1c6
100
AcDbEntity
  8
S
 62
7
100
AcDbLine
 10
80.645387
 20
66.080634
 30
0.0
 11
80.649310
 21
66.084557
 31
0.0
  0
LINE
  5
1c7
100
AcDbEntity
  8
S
 62
7
100
AcDbLine
 10
80.649310
 20
66.084557
 30
0.0
 11
80.653232
 21
66.088480
 31
0.0
  0
LINE
  5
1c8
100
AcDbEntity
  8
S
 62
7
100
AcDbLine
 10
80.653232
 20
66.088480
 30
0.0
 11
80.734812
 21
66.169992
 31
0.0
  0
LINE
  5
1c9
100
AcDbEntity
  8
S
 62
7
100
AcDbLine
 10
80.734812
 20
66.169992
 30
0.0
 11
80.816391
 21
66.251500
 31
0.0
  0
LINE
  5
1ca
100
AcDbEntity
  8
S
 62
7
100
AcDbLine
 10
80.816391
 20
66.251500
 30
0.0
 11
80.897973
 21
66.333012
 31
0.0
  0
LINE
  5
1cb
100
AcDbEntity
  8
S
 62
7
100
AcDbLine
 10
80.897973
 20
66.333012
 30
0.0
 11
80.979552
 21
66.414523
 31
0.0
  0
LINE
  5
1cc
100
AcDbEntity
  8
S
 62
7
100
AcDbLine
 10
80.979552
 20
66.414523
 30
0.0
 11
81.061131
 21
66.496034
 31
0.0
  0
LINE
  5
1cd
100
AcDbEntity
  8
S
 62
7
100
AcDbLine
 10
81.061131
 20
66.496034
 30
0.0
 11
81.142710
 21
66.577546
 31
0.0
  0
LINE
  5
1ce
100
AcDbEntity
  8
S
 62
7
100
AcDbLine
 10
81.142710
 20
66.577546
 30
0.0
 11
81.224292
 21
66.659054
 31
0.0
  0
LINE
  5
1cf
100
AcDbEntity
  8
S
 62
7
100
AcDbLine
 10
81.224292
 20
66.659054
 30
0.0
 11
81.305871
 21
66.740566
 31
0.0
  0
LINE
  5
1d0
100
AcDbEntity
  8
S
 62
7
100
AcDbLine
 10
81.305871
 20
66.740566
 30
0.0
 11
81.534449
 21
66.940712
 31
0.0
  0
LINE
  5
1d1
100
AcDbEntity
  8
S
 62
7
100
AcDbLine
 10
81.534449
 20
66.940712
 30
0.0
 11
81.784088
 21
67.106842
 31
0.0
  0
LINE
  5
1d2
100
AcDbEntity
  8
S
 62
7
100
AcDbLine
 10
81.784088
 20
67.106842
 30
0.0
 11
82.051079
 21
67.237954
 31
0.0
  0
LINE
  5
1d3
100
AcDbEntity
  8
S
 62
7
100
AcDbLine
 10
82.051079
 20
67.237954
 30
0.0
 11
82.331704
 21
67.333046
 31
0.0
  0
LINE
  5
1d4
100
AcDbEntity
  8
S
 62
7
100
AcDbLine
 10
82.331704
 20
67.333046
 30
0.0
 11
82.622249
 21
67.391111
 31
0.0
  0
LINE
  5
1d5
100
AcDbEntity
  8
S
 62
7
100
AcDbLine
 10
82.622249
 20
67.391111
 30
0.0
 11
82.918997
 21
67.411148
 31
0.0
  0
LINE
  5
1d6
100
AcDbEntity
  8
S
 62
7
100
AcDbLine
 10
82.918997
 20
67.411148
 30
0.0
 11
83.218234
 21
67.392155
 31
0.0
  0
LINE
  5
1d7
100
AcDbEntity
  8
S
 62
7
100
AcDbLine
 10
83.218234
 20
67.392155
 30
0.0
 11
83.516244
 21
67.333122
 31
0.0
  0
LINE
  5
1d8
100
AcDbEntity
  8
S
 62
7
100
AcDbLine
 10
83.516244
 20
67.333122
 30
0.0
 11
86.193774
 21
66.615646
 31
0.0
  0
LINE
  5
1d9
100
AcDbEntity
  8
S
 62
7
100
AcDbLine
 10
86.193774
 20
66.615646
 30
0.0
 11
88.871301
 21
65.898172
 31
0.0
  0
LINE
  5
1da
100
AcDbEntity
  8
S
 62
7
100
AcDbLine
 10
88.871301
 20
65.898172
 30
0.0
 11
91.548831
 21
65.180695
 31
0.0
  0
LINE
  5
1db
100
AcDbEntity
  8
S
 62
7
100
AcDbLine
 10
91.548831
 20
65.180695
 30
0.0
 11
94.226357
 21
64.463222
 31
0.0
  0
LINE
  5
1dc
100
AcDbEntity
  8
S
 62
7
100
AcDbLine
 10
94.226357
 20
64.463222
 30
0.0
 11
96.903887
 21
63.745745
 31
0.0
  0
LINE
  5
1dd
100
AcDbEntity
  8
S
 62
7
100
AcDbLine
 10
96.903887
 20
63.745745
 30
0.0
 11
99.581414
 21
63.028268
 31
0.0
  0
LINE
  5
1de
100
AcDbEntity
  8
S
 62
7
100
AcDbLine
 10
99.581414
 20
63.028268
 30
0.0
 11
102.258941
 21
62.310795
 31
0.0
  0
LINE
  5
1df
100
AcDbEntity
  8
S
 62
7
100
AcDbLine
 10
102.258941
 20
62.310795
 30
0.0
 11
104.936471
 21
61.593318
 31
0.0
  0
LINE
  5
1e0
100
AcDbEntity
  8
S
 62
7
100
AcDbLine
 10
104.936471
 20
61.593318
 30
0.0
 11
105.563848
 21
61.513367
 31
0.0
  0
LINE
  5
1e1
100
AcDbEntity
  8
S
 62
7
100
AcDbLine
 10
105.563848
 20
61.513367
 30
0.0
 11
106.155767
 21
61.600091
 31
0.0
  0
LINE
  5
1e2
100
AcDbEntity
  8
S
 62
7
100
AcDbLine
 10
106.155767
 20
61.600091
 30
0.0
 11
106.690363
 21
61.831618
 31
0.0
  0
LINE
  5
1e3
100
AcDbEntity
  8
S
 62
7
100
AcDbLine
 10
106.690363
 20
61.831618
 30
0.0
 11
107.145771
 21
62.186072
 31
0.0
  0
LINE
  5
1e4
100
AcDbEntity
  8
S
 62
7
100
AcDbLine
 10
107.145771
 20
62.186072
 30
0.0
 11
107.500135
 21
62.641582
 31
0.0
  0
LINE
  5
1e5
100
AcDbEntity
  8
S
 62
7
100
AcDbLine
 10
107.500135
 20
62.641582
 30
0.0
 11
107.731585
 21
63.176271
 31
0.0
  0
LINE
  5
1e6
100
AcDbEntity
  8
S
 62
7
100
AcDbLine
 10
107.731585
 20
63.176271
 30
0.0
 11
107.818259
 21
63.768266
 31
0.0
  0
LINE
  5
1e7
100
AcDbEntity
  8
S
 62
7
100
AcDbLine
 10
107.818259
 20
63.768266
 30
0.0
 11
107.738297
 21
64.395697
 31
0.0
  0
LINE
  5
1e8
100
AcDbEntity
  8
S
 62
7
100
AcDbLine
 10
107.738297
 20
64.395697
 30
0.0
 11
107.020891
 21
67.073362
 31
0.0
  0
LINE
  5
1e9
100
AcDbEntity
  8
S
 62
7
100
AcDbLine
 10
107.020891
 20
67.073362
 30
0.0
 11
106.303485
 21
69.751027
 31
0.0
  0
LINE
  5
1ea
100
AcDbEntity
  8
S
 62
7
100
AcDbLine
 10
106.303485
 20
69.751027
 30
0.0
 11
105.586076
 21
72.428695
 31
0.0
  0
LINE
  5
1eb
100
AcDbEntity
  8
S
 62
7
100
AcDbLine
 10
105.586076
 20
72.428695
 30
0.0
 11
104.868670
 21
75.106361
 31
0.0
  0
LINE
  5
1ec
100
AcDbEntity
  8
S
 62
7
100
AcDbLine
 10
104.868670
 20
75.106361
 30
0.0
 11
104.151263
 21
77.784026
 31
0.0
  0
LINE
  5
1ed
100
AcDbEntity
  8
S
 62
7
100
AcDbLine
 10
104.151263
 20
77.784026
 30
0.0
 11
103.433857
 21
80.461694
 31
0.0
  0
LINE
  5
1ee
100
AcDbEntity
  8
S
 62
7
100
AcDbLine
 10
103.433857
 20
80.461694
 30
0.0
 11
102.716449
 21
83.139359
 31
0.0
  0
LINE
  5
1ef
100
AcDbEntity
  8
S
 62
7
100
AcDbLine
 10
102.716449
 20
83.139359
 30
0.0
 11
101.999042
 21
85.817024
 31
0.0
  0
LINE
  5
1f0
100
AcDbEntity
  8
S
 62
7
100
AcDbLine
 10
101.999042
 20
85.817024
 30
0.0
 11
101.940016
 21
86.115071
 31
0.0
  0
LINE
  5
1f1
100
AcDbEntity
  8
S
 62
7
100
AcDbLine
 10
101.940016
 20
86.115071
 30
0.0
 11
101.921022
 21
86.414373
 31
0.0
  0
LINE
  5
1f2
100
AcDbEntity
  8
S
 62
7
100
AcDbLine
 10
101.921022
 20
86.414373
 30
0.0
 11
101.941060
 21
86.711206
 31
0.0
  0
LINE
  5
1f3
100
AcDbEntity
  8
S
 62
7
100
AcDbLine
 10
101.941060
 20
86.711206
 30
0.0
 11
101.999127
 21
87.001844
 31
0.0
  0
LINE
  5
1f4
100
AcDbEntity
  8
S
 62
7
100
AcDbLine
 10
101.999127
 20
87.001844
 30
0.0
 11
102.094219
 21
87.282565
 31
0.0
  0
LINE
  5
1f5
100
AcDbEntity
  8
S
 62
7
100
AcDbLine
 10
102.094219
 20
87.282565
 30
0.0
 11
102.225331
 21
87.549637
 31
0.0
  0
LINE
  5
1f6
100
AcDbEntity
  8
S
 62
7
100
AcDbLine
 10
102.225331
 20
87.549637
 30
0.0
 11
102.391456
 21
87.799342
 31
0.0
  0
LINE
  5
1f7
100
AcDbEntity
  8
S
 62
7
100
AcDbLine
 10
102.391456
 20
87.799342
 30
0.0
 11
102.591593
 21
88.027950
 31
0.0
  0
LINE
  5
1f8
100
AcDbEntity
  8
S
 62
7
100
AcDbLine
 10
102.591593
 20
88.027950
 30
0.0
 11
102.677033
 21
88.113387
 31
0.0
  0
LINE
  5
1f9
100
AcDbEntity
  8
S
 62
7
100
AcDbLine
 10
102.677033
 20
88.113387
 30
0.0
 11
102.762471
 21
88.198827
 31
0.0
  0
LINE
  5
1fa
100
AcDbEntity
  8
S
 62
7
100
AcDbLine
 10
102.762471
 20
88.198827
 30
0.0
 11
102.847908
 21
88.284264
 31
0.0
  0
LINE
  5
1fb
100
AcDbEntity
  8
S
 62
7
100
AcDbLine
 10
102.847908
 20
88.284264
 30
0.0
 11
102.933348
 21
88.369702
 31
0.0
  0
LINE
  5
1fc
100
AcDbEntity
  8
S
 62
7
100
AcDbLine
 10
102.933348
 20
88.369702
 30
0.0
 11
103.018785
 21
88.455142
 31
0.0
  0
LINE
  5
1fd
100
AcDbEntity
  8
S
 62
7
100
AcDbLine
 10
103.018785
 20
88.455142
 30
0.0
 11
103.104225
 21
88.540579
 31
0.0
  0
LINE
  5
1fe
100
AcDbEntity
  8
S
 62
7
100
AcDbLine
 10
103.104225
 20
88.540579
 30
0.0
 11
103.189662
 21
88.626019
 31
0.0
  0
LINE
  5
1ff
100
AcDbEntity
  8
S
 62
7
100
AcDbLine
 10
103.189662
 20
88.626019
 30
0.0
 11
103.275102
 21
88.711456
 31
0.0
  0
LINE
  5
200
100
AcDbEntity
  8
S
 62
7
100
AcDbLine
 10
103.275102
 20
88.711456
 30
0.0
 11
103.634119
 21
89.004806
 31
0.0
  0
LINE
  5
201
100
AcDbEntity
  8
S
 62
7
100
AcDbLine
 10
103.634119
 20
89.004806
 30
0.0
 11
104.032202
 21
89.214345
 31
0.0
  0
LINE
  5
202
100
AcDbEntity
  8
S
 62
7
100
AcDbLine
 10
104.032202
 20
89.214345
 30
0.0
 11
104.456326
 21
89.340066
 31
0.0
  0
LINE
  5
203
100
AcDbEntity
  8
S
 62
7
100
AcDbLine
 10
104.456326
 20
89.340066
 30
0.0
 11
104.893471
 21
89.381973
 31
0.0
  0
LINE
  5
204
100
AcDbEntity
  8
S
 62
7
100
AcDbLine
 10
104.893471
 20
89.381973
 30
0.0
 11
105.330617
 21
89.340066
 31
0.0
  0
LINE
  5
205
100
AcDbEntity
  8
S
 62
7
100
AcDbLine
 10
105.330617
 20
89.340066
 30
0.0
 11
105.754740
 21
89.214345
 31
0.0
  0
LINE
  5
206
100
AcDbEntity
  8
S
 62
7
100
AcDbLine
 10
105.754740
 20
89.214345
 30
0.0
 11
106.152820
 21
89.004806
 31
0.0
  0
LINE
  5
207
100
AcDbEntity
  8
S
 62
7
100
AcDbLine
 10
106.152820
 20
89.004806
 30
0.0
 11
106.511838
 21
88.711456
 31
0.0
  0
LINE
  5
208
100
AcDbEntity
  8
S
 62
7
100
AcDbLine
 10
106.511838
 20
88.711456
 30
0.0
 11
106.612986
 21
88.610446
 31
0.0
  0
LINE
  5
209
100
AcDbEntity
  8
S
 62
7
100
AcDbLine
 10
106.612986
 20
88.610446
 30
0.0
 11
106.714132
 21
88.509435
 31
0.0
  0
LINE
  5
20a
100
AcDbEntity
  8
S
 62
7
100
AcDbLine
 10
106.714132
 20
88.509435
 30
0.0
 11
106.815280
 21
88.408425
 31
0.0
  0
LINE
  5
20b
100
AcDbEntity
  8
S
 62
7
100
AcDbLine
 10
106.815280
 20
88.408425
 30
0.0
 11
106.916429
 21
88.307415
 31
0.0
  0
LINE
  5
20c
100
AcDbEntity
  8
S
 62
7
100
AcDbLine
 10
106.916429
 20
88.307415
 30
0.0
 11
107.017577
 21
88.206405
 31
0.0
  0
LINE
  5
20d
100
AcDbEntity
  8
S
 62
7
100
AcDbLine
 10
107.017577
 20
88.206405
 30
0.0
 11
107.118723
 21
88.105395
 31
0.0
  0
LINE
  5
20e
100
AcDbEntity
  8
S
 62
7
100
AcDbLine
 10
107.118723
 20
88.105395
 30
0.0
 11
107.219871
 21
88.004385
 31
0.0
  0
LINE
  5
20f
100
AcDbEntity
  8
S
 62
7
100
AcDbLine
 10
107.219871
 20
88.004385
 30
0.0
 11
107.321020
 21
87.903375
 31
0.0
  0
LINE
  5
210
100
AcDbEntity
  8
S
 62
7
100
AcDbLine
 10
107.321020
 20
87.903375
 30
0.0
 11
107.614350
 21
87.544343
 31
0.0
  0
LINE
  5
211
100
AcDbEntity
  8
S
 62
7
100
AcDbLine
 10
107.614350
 20
87.544343
 30
0.0
 11
107.823872
 21
87.146260
 31
0.0
  0
LINE
  5
212
100
AcDbEntity
  8
S
 62
7
100
AcDbLine
 10
107.823872
 20
87.146260
 30
0.0
 11
107.949585
 21
86.722142
 31
0.0
  0
LINE
  5
213
100
AcDbEntity
  8
S
 62
7
100
AcDbLine
 10
107.949585
 20
86.722142
 30
0.0
 11
107.991489
 21
86.285005
 31
0.0
  0
LINE
  5
214
100
AcDbEntity
  8
S
 62
7
100
AcDbLine
 10
107.991489
 20
86.285005
 30
0.0
 11
107.949585
 21
85.847868
 31
0.0
  0
LINE
  5
215
100
AcDbEntity
  8
S
 62
7
100
AcDbLine
 10
107.949585
 20
85.847868
 30
0.0
 11
107.823872
 21
85.423750
 31
0.0
  0
LINE
  5
216
100
AcDbEntity
  8
S
 62
7
100
AcDbLine
 10
107.823872
 20
85.423750
 30
0.0
 11
107.614350
 21
85.025667
 31
0.0
  0
LINE
  5
217
100
AcDbEntity
  8
S
 62
7
100
AcDbLine
 10
107.614350
 20
85.025667
 30
0.0
 11
107.321020
 21
84.666638
 31
0.0
  0
LINE
  5
218
100
AcDbEntity
  8
S
 62
7
100
AcDbLine
 10
107.321020
 20
84.666638
 30
0.0
 11
107.027689
 21
84.307584
 31
0.0
  0
LINE
  5
219
100
AcDbEntity
  8
S
 62
7
100
AcDbLine
 10
107.027689
 20
84.307584
 30
0.0
 11
106.818168
 21
83.909439
 31
0.0
  0
LINE
  5
21a
100
AcDbEntity
  8
S
 62
7
100
AcDbLine
 10
106.818168
 20
83.909439
 30
0.0
 11
106.692454
 21
83.485231
 31
0.0
  0
LINE
  5
21b
100
AcDbEntity
  8
S
 62
7
100
AcDbLine
 10
106.692454
 20
83.485231
 30
0.0
 11
106.650547
 21
83.047995
 31
0.0
  0
LINE
  5
21c
100
AcDbEntity
  8
S
 62
7
100
AcDbLine
 10
106.650547
 20
83.047995
 30
0.0
 11
106.692454
 21
82.610757
 31
0.0
  0
LINE
  5
21d
100
AcDbEntity
  8
S
 62
7
100
AcDbLine
 10
106.692454
 20
82.610757
 30
0.0
 11
106.818168
 21
82.186551
 31
0.0
  0
LINE
  5
21e
100
AcDbEntity
  8
S
 62
7
100
AcDbLine
 10
106.818168
 20
82.186551
 30
0.0
 11
107.027689
 21
81.788406
 31
0.0
  0
LINE
  5
21f
100
AcDbEntity
  8
S
 62
7
100
AcDbLine
 10
107.027689
 20
81.788406
 30
0.0
 11
107.321020
 21
81.429352
 31
0.0
  0
LINE
  5
220
100
AcDbEntity
  8
S
 62
7
100
AcDbLine
 10
107.321020
 20
81.429352
 30
0.0
 11
109.343636
 21
79.406668
 31
0.0
  0
LINE
  5
221
100
AcDbEntity
  8
S
 62
7
100
AcDbLine
 10
109.343636
 20
79.406668
 30
0.0
 11
111.366252
 21
77.383981
 31
0.0
  0
LINE
  5
222
100
AcDbEntity
  8
S
 62
7
100
AcDbLine
 10
111.366252
 20
77.383981
 30
0.0
 11
113.388868
 21
75.361298
 31
0.0
  0
LINE
  5
223
100
AcDbEntity
  8
S
 62
7
100
AcDbLine
 10
113.388868
 20
75.361298
 30
0.0
 11
115.411484
 21
73.338614
 31
0.0
  0
LINE
  5
224
100
AcDbEntity
  8
S
 62
7
100
AcDbLine
 10
115.411484
 20
73.338614
 30
0.0
 11
117.434098
 21
71.315930
 31
0.0
  0
LINE
  5
225
100
AcDbEntity
  8
S
 62
7
100
AcDbLine
 10
117.434098
 20
71.315930
 30
0.0
 11
119.456714
 21
69.293243
 31
0.0
  0
LINE
  5
226
100
AcDbEntity
  8
S
 62
7
100
AcDbLine
 10
119.456714
 20
69.293243
 30
0.0
 11
121.479330
 21
67.270559
 31
0.0
  0
LINE
  5
227
100
AcDbEntity
  8
S
 62
7
100
AcDbLine
 10
121.479330
 20
67.270559
 30
0.0
 11
123.501946
 21
65.247876
 31
0.0
  0
LINE
  5
228
100
AcDbEntity
  8
S
 62
7
100
AcDbLine
 10
123.501946
 20
65.247876
 30
0.0
 11
123.860964
 21
64.954528
 31
0.0
  0
LINE
  5
229
100
AcDbEntity
  8
S
 62
7
100
AcDbLine
 10
123.860964
 20
64.954528
 30
0.0
 11
124.259044
 21
64.744995
 31
0.0
  0
LINE
  5
22a
100
AcDbEntity
  8
S
 62
7
100
AcDbLine
 10
124.259044
 20
64.744995
 30
0.0
 11
124.683167
 21
64.619276
 31
0.0
  0
LINE
  5
22b
100
AcDbEntity
  8
S
 62
7
100
AcDbLine
 10
124.683167
 20
64.619276
 30
0.0
 11
125.120313
 21
64.577369
 31
0.0
  0
LINE
  5
22c
100
AcDbEntity
  8
S
 62
7
100
AcDbLine
 10
125.120313
 20
64.577369
 30
0.0
 11
125.557458
 21
64.619276
 31
0.0
  0
LINE
  5
22d
100
AcDbEntity
  8
S
 62
7
100
AcDbLine
 10
125.557458
 20
64.619276
 30
0.0
 11
125.981581
 21
64.744995
 31
0.0
  0
LINE
  5
22e
100
AcDbEntity
  8
S
 62
7
100
AcDbLine
 10
125.981581
 20
64.744995
 30
0.0
 11
126.379664
 21
64.954528
 31
0.0
  0
LINE
  5
22f
100
AcDbEntity
  8
S
 62
7
100
AcDbLine
 10
126.379664
 20
64.954528
 30
0.0
 11
126.738682
 21
65.247876
 31
0.0
  0
LINE
  5
230
100
AcDbEntity
  8
S
 62
7
100
AcDbLine
 10
126.738682
 20
65.247876
 30
0.0
 11
128.963592
 21
67.472924
 31
0.0
  0
LINE
  5
231
100
AcDbEntity
  8
S
 62
7
100
AcDbLine
 10
128.963592
 20
67.472924
 30
0.0
 11
131.188505
 21
69.697973
 31
0.0
  0
LINE
  5
232
100
AcDbEntity
  8
S
 62
7
100
AcDbLine
 10
131.188505
 20
69.697973
 30
0.0
 11
133.413415
 21
71.923024
 31
0.0
  0
LINE
  5
233
100
AcDbEntity
  8
S
 62
7
100
AcDbLine
 10
133.413415
 20
71.923024
 30
0.0
 11
135.638328
 21
74.148072
 31
0.0
  0
LINE
  5
234
100
AcDbEntity
  8
S
 62
7
100
AcDbLine
 10
135.638328
 20
74.148072
 30
0.0
 11
137.863239
 21
76.373121
 31
0.0
  0
LINE
  5
235
100
AcDbEntity
  8
S
 62
7
100
AcDbLine
 10
137.863239
 20
76.373121
 30
0.0
 11
140.088152
 21
78.598172
 31
0.0
  0
LINE
  5
236
100
AcDbEntity
  8
S
 62
7
100
AcDbLine
 10
140.088152
 20
78.598172
 30
0.0
 11
142.313062
 21
80.823221
 31
0.0
  0
LINE
  5
237
100
AcDbEntity
  8
S
 62
7
100
AcDbLine
 10
142.313062
 20
80.823221
 30
0.0
 11
144.537975
 21
83.048269
 31
0.0
  0
LINE
  5
238
100
AcDbEntity
  8
S
 62
7
100
AcDbLine
 10
144.537975
 20
83.048269
 30
0.0
 11
144.831305
 21
83.407301
 31
0.0
  0
LINE
  5
239
100
AcDbEntity
  8
S
 62
7
100
AcDbLine
 10
144.831305
 20
83.407301
 30
0.0
 11
145.040827
 21
83.805384
 31
0.0
  0
LINE
  5
23a
100
AcDbEntity
  8
S
 62
7
100
AcDbLine
 10
145.040827
 20
83.805384
 30
0.0
 11
145.166540
 21
84.229502
 31
0.0
  0
LINE
  5
23b
100
AcDbEntity
  8
S
 62
7
100
AcDbLine
 10
145.166540
 20
84.229502
 30
0.0
 11
145.208444
 21
84.666638
 31
0.0
  0
LINE
  5
23c
100
AcDbEntity
  8
S
 62
7
100
AcDbLine
 10
145.208444
 20
84.666638
 30
0.0
 11
145.166540
 21
85.103772
 31
0.0
  0
LINE
  5
23d
100
AcDbEntity
  8
S
 62
7
100
AcDbLine
 10
145.166540
 20
85.103772
 30
0.0
 11
145.040827
 21
85.527893
 31
0.0
  0
LINE
  5
23e
100
AcDbEntity
  8
S
 62
7
100
AcDbLine
 10
145.040827
 20
85.527893
 30
0.0
 11
144.831305
 21
85.925976
 31
0.0
  0
LINE
  5
23f
100
AcDbEntity
  8
S
 62
7
100
AcDbLine
 10
144.831305
 20
85.925976
 30
0.0
 11
144.537975
 21
86.285008
 31
0.0
  0
LINE
  5
240
100
AcDbEntity
  8
S
 62
7
100
AcDbLine
 10
144.537975
 20
86.285008
 30
0.0
 11
142.515359
 21
88.307762
 31
0.0
  0
LINE
  5
241
100
AcDbEntity
  8
S
 62
7
100
AcDbLine
 10
142.515359
 20
88.307762
 30
0.0
 11
140.492742
 21
90.330514
 31
0.0
  0
LINE
  5
242
100
AcDbEntity
  8
S
 62
7
100
AcDbLine
 10
140.492742
 20
90.330514
 30
0.0
 11
138.470126
 21
92.353268
 31
0.0
  0
LINE
  5
243
100
AcDbEntity
  8
S
 62
7
100
AcDbLine
 10
138.470126
 20
92.353268
 30
0.0
 11
136.447510
 21
94.376023
 31
0.0
  0
LINE
  5
244
100
AcDbEntity
  8
S
 62
7
100
AcDbLine
 10
136.447510
 20
94.376023
 30
0.0
 11
134.424897
 21
96.398774
 31
0.0
  0
LINE
  5
245
100
AcDbEntity
  8
S
 62
7
100
AcDbLine
 10
134.424897
 20
96.398774
 30
0.0
 11
132.402281
 21
98.421529
 31
0.0
  0
LINE
  5
246
100
AcDbEntity
  8
S
 62
7
100
AcDbLine
 10
132.402281
 20
98.421529
 30
0.0
 11
130.379665
 21
100.444280
 31
0.0
  0
LINE
  5
247
100
AcDbEntity
  8
S
 62
7
100
AcDbLine
 10
130.379665
 20
100.444280
 30
0.0
 11
128.357049
 21
102.467035
 31
0.0
  0
LINE
  5
248
100
AcDbEntity
  8
S
 62
7
100
AcDbLine
 10
128.357049
 20
102.467035
 30
0.0
 11
127.998031
 21
102.760385
 31
0.0
  0
LINE
  5
249
100
AcDbEntity
  8
S
 62
7
100
AcDbLine
 10
127.998031
 20
102.760385
 30
0.0
 11
127.599948
 21
102.969921
 31
0.0
  0
LINE
  5
24a
100
AcDbEntity
  8
S
 62
7
100
AcDbLine
 10
127.599948
 20
102.969921
 30
0.0
 11
127.175824
 21
103.095642
 31
0.0
  0
LINE
  5
24b
100
AcDbEntity
  8
S
 62
7
100
AcDbLine
 10
127.175824
 20
103.095642
 30
0.0
 11
126.738679
 21
103.137549
 31
0.0
  0
LINE
  5
24c
100
AcDbEntity
  8
S
 62
7
100
AcDbLine
 10
126.738679
 20
103.137549
 30
0.0
 11
126.301534
 21
103.095642
 31
0.0
  0
LINE
  5
24d
100
AcDbEntity
  8
S
 62
7
100
AcDbLine
 10
126.301534
 20
103.095642
 30
0.0
 11
125.877410
 21
102.969921
 31
0.0
  0
LINE
  5
24e
100
AcDbEntity
  8
S
 62
7
100
AcDbLine
 10
125.877410
 20
102.969921
 30
0.0
 11
125.479330
 21
102.760385
 31
0.0
  0
LINE
  5
24f
100
AcDbEntity
  8
S
 62
7
100
AcDbLine
 10
125.479330
 20
102.760385
 30
0.0
 11
125.120313
 21
102.467035
 31
0.0
  0
LINE
  5
250
100
AcDbEntity
  8
S
 62
7
100
AcDbLine
 10
125.120313
 20
102.467035
 30
0.0
 11
124.761365
 21
102.173890
 31
0.0
  0
LINE
  5
251
100
AcDbEntity
  8
S
 62
7
100
AcDbLine
 10
124.761365
 20
102.173890
 30
0.0
 11
124.363412
 21
101.964501
 31
0.0
  0
LINE
  5
252
100
AcDbEntity
  8
S
 62
7
100
AcDbLine
 10
124.363412
 20
101.964501
 30
0.0
 11
123.939455
 21
101.838870
 31
0.0
  0
LINE
  5
253
100
AcDbEntity
  8
S
 62
7
100
AcDbLine
 10
123.939455
 20
101.838870
 30
0.0
 11
123.502496
 21
101.796991
 31
0.0
  0
LINE
  5
254
100
AcDbEntity
  8
S
 62
7
100
AcDbLine
 10
123.502496
 20
101.796991
 30
0.0
 11
123.065537
 21
101.838870
 31
0.0
  0
LINE
  5
255
100
AcDbEntity
  8
S
 62
7
100
AcDbLine
 10
123.065537
 20
101.838870
 30
0.0
 11
122.641580
 21
101.964501
 31
0.0
  0
LINE
  5
256
100
AcDbEntity
  8
S
 62
7
100
AcDbLine
 10
122.641580
 20
101.964501
 30
0.0
 11
122.243627
 21
102.173890
 31
0.0
  0
LINE
  5
257
100
AcDbEntity
  8
S
 62
7
100
AcDbLine
 10
122.243627
 20
102.173890
 30
0.0
 11
121.884680
 21
102.467035
 31
0.0
  0
LINE
  5
258
100
AcDbEntity
  8
S
 62
7
100
AcDbLine
 10
121.884680
 20
102.467035
 30
0.0
 11
121.581099
 21
102.770615
 31
0.0
  0
LINE
  5
259
100
AcDbEntity
  8
S
 62
7
100
AcDbLine
 10
121.581099
 20
102.770615
 30
0.0
 11
121.277515
 21
103.074199
 31
0.0
  0
LINE
  5
25a
100
AcDbEntity
  8
S
 62
7
100
AcDbLine
 10
121.277515
 20
103.074199
 30
0.0
 11
120.973935
 21
103.377780
 31
0.0
  0
LINE
  5
25b
100
AcDbEntity
  8
S
 62
7
100
AcDbLine
 10
120.973935
 20
103.377780
 30
0.0
 11
120.670354
 21
103.681361
 31
0.0
  0
LINE
  5
25c
100
AcDbEntity
  8
S
 62
7
100
AcDbLine
 10
120.670354
 20
103.681361
 30
0.0
 11
120.366770
 21
103.984941
 31
0.0
  0
LINE
  5
25d
100
AcDbEntity
  8
S
 62
7
100
AcDbLine
 10
120.366770
 20
103.984941
 30
0.0
 11
120.063189
 21
104.288525
 31
0.0
  0
LINE
  5
25e
100
AcDbEntity
  8
S
 62
7
100
AcDbLine
 10
120.063189
 20
104.288525
 30
0.0
 11
119.759606
 21
104.592106
 31
0.0
  0
LINE
  5
25f
100
AcDbEntity
  8
S
 62
7
100
AcDbLine
 10
119.759606
 20
104.592106
 30
0.0
 11
119.456025
 21
104.895687
 31
0.0
  0
LINE
  5
260
100
AcDbEntity
  8
S
 62
7
100
AcDbLine
 10
119.456025
 20
104.895687
 30
0.0
 11
119.990291
 21
105.429953
 31
0.0
  0
LINE
  5
261
100
AcDbEntity
  8
S
 62
7
100
AcDbLine
 10
119.990291
 20
105.429953
 30
0.0
 11
120.524555
 21
105.964220
 31
0.0
  0
LINE
  5
262
100
AcDbEntity
  8
S
 62
7
100
AcDbLine
 10
120.524555
 20
105.964220
 30
0.0
 11
121.058821
 21
106.498483
 31
0.0
  0
LINE
  5
263
100
AcDbEntity
  8
S
 62
7
100
AcDbLine
 10
121.058821
 20
106.498483
 30
0.0
 11
121.593085
 21
107.032750
 31
0.0
  0
LINE
  5
264
100
AcDbEntity
  8
S
 62
7
100
AcDbLine
 10
121.593085
 20
107.032750
 30
0.0
 11
122.127351
 21
107.567016
 31
0.0
  0
LINE
  5
265
100
AcDbEntity
  8
S
 62
7
100
AcDbLine
 10
122.127351
 20
107.567016
 30
0.0
 11
122.661618
 21
108.101282
 31
0.0
  0
LINE
  5
266
100
AcDbEntity
  8
S
 62
7
100
AcDbLine
 10
122.661618
 20
108.101282
 30
0.0
 11
123.195882
 21
108.635546
 31
0.0
  0
LINE
  5
267
100
AcDbEntity
  8
S
 62
7
100
AcDbLine
 10
123.195882
 20
108.635546
 30
0.0
 11
123.730148
 21
109.169812
 31
0.0
  0
LINE
  5
268
100
AcDbEntity
  8
S
 62
7
100
AcDbLine
 10
123.730148
 20
109.169812
 30
0.0
 11
123.896665
 21
109.320144
 31
0.0
  0
LINE
  5
269
100
AcDbEntity
  8
S
 62
7
100
AcDbLine
 10
123.896665
 20
109.320144
 30
0.0
 11
124.077295
 21
109.453056
 31
0.0
  0
LINE
  5
26a
100
AcDbEntity
  8
S
 62
7
100
AcDbLine
 10
124.077295
 20
109.453056
 30
0.0
 11
124.270073
 21
109.567743
 31
0.0
  0
LINE
  5
26b
100
AcDbEntity
  8
S
 62
7
100
AcDbLine
 10
124.270073
 20
109.567743
 30
0.0
 11
124.473033
 21
109.663397
 31
0.0
  0
LINE
  5
26c
100
AcDbEntity
  8
S
 62
7
100
AcDbLine
 10
124.473033
 20
109.663397
 30
0.0
 11
124.684211
 21
109.739213
 31
0.0
  0
LINE
  5
26d
100
AcDbEntity
  8
S
 62
7
100
AcDbLine
 10
124.684211
 20
109.739213
 30
0.0
 11
124.901644
 21
109.794379
 31
0.0
  0
LINE
  5
26e
100
AcDbEntity
  8
S
 62
7
100
AcDbLine
 10
124.901644
 20
109.794379
 30
0.0
 11
125.123366
 21
109.828090
 31
0.0
  0
LINE
  5
26f
100
AcDbEntity
  8
S
 62
7
100
AcDbLine
 10
125.123366
 20
109.828090
 30
0.0
 11
125.347414
 21
109.839548
 31
0.0
  0
LINE
  5
270
100
AcDbEntity
  8
S
 62
7
100
AcDbLine
 10
125.347414
 20
109.839548
 30
0.0
 11
126.816197
 21
109.839548
 31
0.0
  0
LINE
  5
271
100
AcDbEntity
  8
S
 62
7
100
AcDbLine
 10
126.816197
 20
109.839548
 30
0.0
 11
128.284978
 21
109.839548
 31
0.0
  0
LINE
  5
272
100
AcDbEntity
  8
S
 62
7
100
AcDbLine
 10
128.284978
 20
109.839548
 30
0.0
 11
129.753761
 21
109.839548
 31
0.0
  0
LINE
  5
273
100
AcDbEntity
  8
S
 62
7
100
AcDbLine
 10
129.753761
 20
109.839548
 30
0.0
 11
131.222541
 21
109.839548
 31
0.0
  0
LINE
  5
274
100
AcDbEntity
  8
S
 62
7
100
AcDbLine
 10
131.222541
 20
109.839548
 30
0.0
 11
132.691324
 21
109.839548
 31
0.0
  0
LINE
  5
275
100
AcDbEntity
  8
S
 62
7
100
AcDbLine
 10
132.691324
 20
109.839548
 30
0.0
 11
134.160108
 21
109.839548
 31
0.0
  0
LINE
  5
276
100
AcDbEntity
  8
S
 62
7
100
AcDbLine
 10
134.160108
 20
109.839548
 30
0.0
 11
135.628888
 21
109.839548
 31
0.0
  0
LINE
  5
277
100
AcDbEntity
  8
S
 62
7
100
AcDbLine
 10
135.628888
 20
109.839548
 30
0.0
 11
137.097671
 21
109.839548
 31
0.0
  0
LINE
  5
278
100
AcDbEntity
  8
S
 62
7
100
AcDbLine
 10
137.097671
 20
109.839548
 30
0.0
 11
137.427112
 21
109.813753
 31
0.0
  0
LINE
  5
279
100
AcDbEntity
  8
S
 62
7
100
AcDbLine
 10
137.427112
 20
109.813753
 30
0.0
 11
137.748566
 21
109.738922
 31
0.0
  0
LINE
  5
27a
100
AcDbEntity
  8
S
 62
7
100
AcDbLine
 10
137.748566
 20
109.738922
 30
0.0
 11
138.056408
 21
109.618732
 31
0.0
  0
LINE
  5
27b
100
AcDbEntity
  8
S
 62
7
100
AcDbLine
 10
138.056408
 20
109.618732
 30
0.0
 11
138.345012
 21
109.456872
 31
0.0
  0
LINE
  5
27c
100
AcDbEntity
  8
S
 62
7
100
AcDbLine
 10
138.345012
 20
109.456872
 30
0.0
 11
138.608748
 21
109.257028
 31
0.0
  0
LINE
  5
27d
100
AcDbEntity
  8
S
 62
7
100
AcDbLine
 10
138.608748
 20
109.257028
 30
0.0
 11
138.841994
 21
109.022888
 31
0.0
  0
LINE
  5
27e
100
AcDbEntity
  8
S
 62
7
100
AcDbLine
 10
138.841994
 20
109.022888
 30
0.0
 11
139.039115
 21
108.758138
 31
0.0
  0
LINE
  5
27f
100
AcDbEntity
  8
S
 62
7
100
AcDbLine
 10
139.039115
 20
108.758138
 30
0.0
 11
139.194492
 21
108.466464
 31
0.0
  0
LINE
  5
280
100
AcDbEntity
  8
S
 62
7
100
AcDbLine
 10
139.194492
 20
108.466464
 30
0.0
 11
139.834022
 21
106.943841
 31
0.0
  0
LINE
  5
281
100
AcDbEntity
  8
S
 62
7
100
AcDbLine
 10
139.834022
 20
106.943841
 30
0.0
 11
140.430981
 21
105.404042
 31
0.0
  0
LINE
  5
282
100
AcDbEntity
  8
S
 62
7
100
AcDbLine
 10
140.430981
 20
105.404042
 30
0.0
 11
140.984994
 21
103.848275
 31
0.0
  0
LINE
  5
283
100
AcDbEntity
  8
S
 62
7
100
AcDbLine
 10
140.984994
 20
103.848275
 30
0.0
 11
141.495684
 21
102.277754
 31
0.0
  0
LINE
  5
284
100
AcDbEntity
  8
S
 62
7
100
AcDbLine
 10
141.495684
 20
102.277754
 30
0.0
 11
141.962672
 21
100.693686
 31
0.0
  0
LINE
  5
285
100
AcDbEntity
  8
S
 62
7
100
AcDbLine
 10
141.962672
 20
100.693686
 30
0.0
 11
142.385582
 21
99.097279
 31
0.0
  0
LINE
  5
286
100
AcDbEntity
  8
S
 62
7
100
AcDbLine
 10
142.385582
 20
99.097279
 30
0.0
 11
142.764033
 21
97.489747
 31
0.0
  0
LINE
  5
287
100
AcDbEntity
  8
S
 62
7
100
AcDbLine
 10
142.764033
 20
97.489747
 30
0.0
 11
143.097648
 21
95.872297
 31
0.0
  0
LINE
  5
288
100
AcDbEntity
  8
S
 62
7
100
AcDbLine
 10
143.097648
 20
95.872297
 30
0.0
 11
143.181084
 21
95.564088
 31
0.0
  0
LINE
  5
289
100
AcDbEntity
  8
S
 62
7
100
AcDbLine
 10
143.181084
 20
95.564088
 30
0.0
 11
143.308050
 21
95.271457
 31
0.0
  0
LINE
  5
28a
100
AcDbEntity
  8
S
 62
7
100
AcDbLine
 10
143.308050
 20
95.271457
 30
0.0
 11
143.474406
 21
94.998862
 31
0.0
  0
LINE
  5
28b
100
AcDbEntity
  8
S
 62
7
100
AcDbLine
 10
143.474406
 20
94.998862
 30
0.0
 11
143.676023
 21
94.750760
 31
0.0
  0
LINE
  5
28c
100
AcDbEntity
  8
S
 62
7
100
AcDbLine
 10
143.676023
 20
94.750760
 30
0.0
 11
143.908766
 21
94.531606
 31
0.0
  0
LINE
  5
28d
100
AcDbEntity
  8
S
 62
7
100
AcDbLine
 10
143.908766
 20
94.531606
 30
0.0
 11
144.168498
 21
94.345862
 31
0.0
  0
LINE
  5
28e
100
AcDbEntity
  8
S
 62
7
100
AcDbLine
 10
144.168498
 20
94.345862
 30
0.0
 11
144.451084
 21
94.197980
 31
0.0
  0
LINE
  5
28f
100
AcDbEntity
  8
S
 62
7
100
AcDbLine
 10
144.451084
 20
94.197980
 30
0.0
 11
144.752396
 21
94.092423
 31
0.0
  0
LINE
  5
290
100
AcDbEntity
  8
S
 62
7
100
AcDbLine
 10
144.752396
 20
94.092423
 30
0.0
 11
145.288799
 21
93.948693
 31
0.0
  0
LINE
  5
291
100
AcDbEntity
  8
S
 62
7
100
AcDbLine
 10
145.288799
 20
93.948693
 30
0.0
 11
145.825199
 21
93.804966
 31
0.0
  0
LINE
  5
292
100
AcDbEntity
  8
S
 62
7
100
AcDbLine
 10
145.825199
 20
93.804966
 30
0.0
 11
146.361599
 21
93.661236
 31
0.0
  0
LINE
  5
293
100
AcDbEntity
  8
S
 62
7
100
AcDbLine
 10
146.361599
 20
93.661236
 30
0.0
 11
146.898002
 21
93.517506
 31
0.0
  0
LINE
  5
294
100
AcDbEntity
  8
S
 62
7
100
AcDbLine
 10
146.898002
 20
93.517506
 30
0.0
 11
147.434402
 21
93.373775
 31
0.0
  0
LINE
  5
295
100
AcDbEntity
  8
S
 62
7
100
AcDbLine
 10
147.434402
 20
93.373775
 30
0.0
 11
147.970804
 21
93.230048
 31
0.0
  0
LINE
  5
296
100
AcDbEntity
  8
S
 62
7
100
AcDbLine
 10
147.970804
 20
93.230048
 30
0.0
 11
148.507207
 21
93.086318
 31
0.0
  0
LINE
  5
297
100
AcDbEntity
  8
S
 62
7
100
AcDbLine
 10
148.507207
 20
93.086318
 30
0.0
 11
149.043607
 21
92.942588
 31
0.0
  0
LINE
  5
298
100
AcDbEntity
  8
S
 62
7
100
AcDbLine
 10
149.043607
 20
92.942588
 30
0.0
 11
149.369185
 21
92.825861
 31
0.0
  0
LINE
  5
299
100
AcDbEntity
  8
S
 62
7
100
AcDbLine
 10
149.369185
 20
92.825861
 30
0.0
 11
149.671865
 21
92.659556
 31
0.0
  0
LINE
  5
29a
100
AcDbEntity
  8
S
 62
7
100
AcDbLine
 10
149.671865
 20
92.659556
 30
0.0
 11
149.946676
 21
92.449543
 31
0.0
  0
LINE
  5
29b
100
AcDbEntity
  8
S
 62
7
100
AcDbLine
 10
149.946676
 20
92.449543
 30
0.0
 11
150.188645
 21
92.201692
 31
0.0
  0
LINE
  5
29c
100
AcDbEntity
  8
S
 62
7
100
AcDbLine
 10
150.188645
 20
92.201692
 30
0.0
 11
150.392802
 21
91.921883
 31
0.0
  0
LINE
  5
29d
100
AcDbEntity
  8
S
 62
7
100
AcDbLine
 10
150.392802
 20
91.921883
 30
0.0
 11
150.554174
 21
91.615980
 31
0.0
  0
LINE
  5
29e
100
AcDbEntity
  8
S
 62
7
100
AcDbLine
 10
150.554174
 20
91.615980
 30
0.0
 11
150.667788
 21
91.289861
 31
0.0
  0
LINE
  5
29f
100
AcDbEntity
  8
S
 62
7
100
AcDbLine
 10
150.667788
 20
91.289861
 30
0.0
 11
150.728672
 21
90.949393
 31
0.0
  0
LINE
  5
2a0
100
AcDbEntity
  8
S
 62
7
100
AcDbLine
 10
150.728672
 20
90.949393
 30
0.0
 11
150.858942
 21
89.381925
 31
0.0
  0
LINE
  5
2a1
100
AcDbEntity
  8
S
 62
7
100
AcDbLine
 10
150.858942
 20
89.381925
 30
0.0
 11
150.951994
 21
87.811813
 31
0.0
  0
LINE
  5
2a2
100
AcDbEntity
  8
S
 62
7
100
AcDbLine
 10
150.951994
 20
87.811813
 30
0.0
 11
151.007826
 21
86.239943
 31
0.0
  0
LINE
  5
2a3
100
AcDbEntity
  8
S
 62
7
100
AcDbLine
 10
151.007826
 20
86.239943
 30
0.0
 11
151.026424
 21
84.667194
 31
0.0
  0
LINE
  5
2a4
100
AcDbEntity
  8
S
 62
7
100
AcDbLine
 10
151.026424
 20
84.667194
 30
0.0
 11
151.007826
 21
83.094443
 31
0.0
  0
LINE
  5
2a5
100
AcDbEntity
  8
S
 62
7
100
AcDbLine
 10
151.007826
 20
83.094443
 30
0.0
 11
150.951994
 21
81.522573
 31
0.0
  0
LINE
  5
2a6
100
AcDbEntity
  8
S
 62
7
100
AcDbLine
 10
150.951994
 20
81.522573
 30
0.0
 11
150.858942
 21
79.952461
 31
0.0
  0
LINE
  5
2a7
100
AcDbEntity
  8
S
 62
7
100
AcDbLine
 10
150.858942
 20
79.952461
 30
0.0
 11
150.728672
 21
78.384993
 31
0.0
  0
LINE
  5
2a8
100
AcDbEntity
  8
S
 62
7
100
AcDbLine
 10
150.728672
 20
78.384993
 30
0.0
 11
150.667782
 21
78.044503
 31
0.0
  0
LINE
  5
2a9
100
AcDbEntity
  8
S
 62
7
100
AcDbLine
 10
150.667782
 20
78.044503
 30
0.0
 11
150.554168
 21
77.718319
 31
0.0
  0
LINE
  5
2aa
100
AcDbEntity
  8
S
 62
7
100
AcDbLine
 10
150.554168
 20
77.718319
 30
0.0
 11
150.392796
 21
77.412325
 31
0.0
  0
LINE
  5
2ab
100
AcDbEntity
  8
S
 62
7
100
AcDbLine
 10
150.392796
 20
77.412325
 30
0.0
 11
150.188639
 21
77.132411
 31
0.0
  0
LINE
  5
2ac
100
AcDbEntity
  8
S
 62
7
100
AcDbLine
 10
150.188639
 20
77.132411
 30
0.0
 11
149.946673
 21
76.884462
 31
0.0
  0
LINE
  5
2ad
100
AcDbEntity
  8
S
 62
7
100
AcDbLine
 10
149.946673
 20
76.884462
 30
0.0
 11
149.671862
 21
76.674359
 31
0.0
  0
LINE
  5
2ae
100
AcDbEntity
  8
S
 62
7
100
AcDbLine
 10
149.671862
 20
76.674359
 30
0.0
 11
149.369185
 21
76.507992
 31
0.0
  0
LINE
  5
2af
100
AcDbEntity
  8
S
 62
7
100
AcDbLine
 10
149.369185
 20
76.507992
 30
0.0
 11
149.043607
 21
76.391245
 31
0.0
  0
LINE
  5
2b0
100
AcDbEntity
  8
S
 62
7
100
AcDbLine
 10
149.043607
 20
76.391245
 30
0.0
 11
148.507207
 21
76.247515
 31
0.0
  0
LINE
  5
2b1
100
AcDbEntity
  8
S
 62
7
100
AcDbLine
 10
148.507207
 20
76.247515
 30
0.0
 11
147.970804
 21
76.103788
 31
0.0
  0
LINE
  5
2b2
100
AcDbEntity
  8
S
 62
7
100
AcDbLine
 10
147.970804
 20
76.103788
 30
0.0
 11
147.434402
 21
75.960057
 31
0.0
  0
LINE
  5
2b3
100
AcDbEntity
  8
S
 62
7
100
AcDbLine
 10
147.434402
 20
75.960057
 30
0.0
 11
146.898002
 21
75.816330
 31
0.0
  0
LINE
  5
2b4
100
AcDbEntity
  8
S
 62
7
100
AcDbLine
 10
146.898002
 20
75.816330
 30
0.0
 11
146.361599
 21
75.672600
 31
0.0
  0
LINE
  5
2b5
100
AcDbEntity
  8
S
 62
7
100
AcDbLine
 10
146.361599
 20
75.672600
 30
0.0
 11
145.825199
 21
75.528870
 31
0.0
  0
LINE
  5
2b6
100
AcDbEntity
  8
S
 62
7
100
AcDbLine
 10
145.825199
 20
75.528870
 30
0.0
 11
145.288799
 21
75.385143
 31
0.0
  0
LINE
  5
2b7
100
AcDbEntity
  8
S
 62
7
100
AcDbLine
 10
145.288799
 20
75.385143
 30
0.0
 11
144.752396
 21
75.241412
 31
0.0
  0
LINE
  5
2b8
100
AcDbEntity
  8
S
 62
7
100
AcDbLine
 10
144.752396
 20
75.241412
 30
0.0
 11
144.451084
 21
75.135870
 31
0.0
  0
LINE
  5
2b9
100
AcDbEntity
  8
S
 62
7
100
AcDbLine
 10
144.451084
 20
75.135870
 30
0.0
 11
144.168498
 21
74.988045
 31
0.0
  0
LINE
  5
2ba
100
AcDbEntity
  8
S
 62
7
100
AcDbLine
 10
144.168498
 20
74.988045
 30
0.0
 11
143.908766
 21
74.802385
 31
0.0
  0
LINE
  5
2bb
100
AcDbEntity
  8
S
 62
7
100
AcDbLine
 10
143.908766
 20
74.802385
 30
0.0
 11
143.676026
 21
74.583330
 31
0.0
  0
LINE
  5
2bc
100
AcDbEntity
  8
S
 62
7
100
AcDbLine
 10
143.676026
 20
74.583330
 30
0.0
 11
143.474409
 21
74.335330
 31
0.0
  0
LINE
  5
2bd
100
AcDbEntity
  8
S
 62
7
100
AcDbLine
 10
143.474409
 20
74.335330
 30
0.0
 11
143.308050
 21
74.062824
 31
0.0
  0
LINE
  5
2be
100
AcDbEntity
  8
S
 62
7
100
AcDbLine
 10
143.308050
 20
74.062824
 30
0.0
 11
143.181087
 21
73.770264
 31
0.0
  0
LINE
  5
2bf
100
AcDbEntity
  8
S
 62
7
100
AcDbLine
 10
143.181087
 20
73.770264
 30
0.0
 11
143.097648
 21
73.462089
 31
0.0
  0
LINE
  5
2c0
100
AcDbEntity
  8
S
 62
7
100
AcDbLine
 10
143.097648
 20
73.462089
 30
0.0
 11
142.885451
 21
72.407176
 31
0.0
  0
LINE
  5
2c1
100
AcDbEntity
  8
S
 62
7
100
AcDbLine
 10
142.885451
 20
72.407176
 30
0.0
 11
142.654220
 21
71.356279
 31
0.0
  0
LINE
  5
2c2
100
AcDbEntity
  8
S
 62
7
100
AcDbLine
 10
142.654220
 20
71.356279
 30
0.0
 11
142.404039
 21
70.309732
 31
0.0
  0
LINE
  5
2c3
100
AcDbEntity
  8
S
 62
7
100
AcDbLine
 10
142.404039
 20
70.309732
 30
0.0
 11
142.134988
 21
69.267877
 31
0.0
  0
LINE
  5
2c4
100
AcDbEntity
  8
S
 62
7
100
AcDbLine
 10
142.134988
 20
69.267877
 30
0.0
 11
141.847161
 21
68.231055
 31
0.0
  0
LINE
  5
2c5
100
AcDbEntity
  8
S
 62
7
100
AcDbLine
 10
141.847161
 20
68.231055
 30
0.0
 11
141.540636
 21
67.199603
 31
0.0
  0
LINE
  5
2c6
100
AcDbEntity
  8
S
 62
7
100
AcDbLine
 10
141.540636
 20
67.199603
 30
0.0
 11
141.215499
 21
66.173864
 31
0.0
  0
LINE
  5
2c7
100
AcDbEntity
  8
S
 62
7
100
AcDbLine
 10
141.215499
 20
66.173864
 30
0.0
 11
140.871840
 21
65.154172
 31
0.0
  0
LINE
  5
2c8
100
AcDbEntity
  8
S
 62
7
100
AcDbLine
 10
140.871840
 20
65.154172
 30
0.0
 11
140.789985
 21
64.845494
 31
0.0
  0
LINE
  5
2c9
100
AcDbEntity
  8
S
 62
7
100
AcDbLine
 10
140.789985
 20
64.845494
 30
0.0
 11
140.753637
 21
64.528539
 31
0.0
  0
LINE
  5
2ca
100
AcDbEntity
  8
S
 62
7
100
AcDbLine
 10
140.753637
 20
64.528539
 30
0.0
 11
140.761426
 21
64.209239
 31
0.0
  0
LINE
  5
2cb
100
AcDbEntity
  8
S
 62
7
100
AcDbLine
 10
140.761426
 20
64.209239
 30
0.0
 11
140.812032
 21
63.893519
 31
0.0
  0
LINE
  5
2cc
100
AcDbEntity
  8
S
 62
7
100
AcDbLine
 10
140.812032
 20
63.893519
 30
0.0
 11
140.904079
 21
63.587311
 31
0.0
  0
LINE
  5
2cd
100
AcDbEntity
  8
S
 62
7
100
AcDbLine
 10
140.904079
 20
63.587311
 30
0.0
 11
141.036212
 21
63.296546
 31
0.0
  0
LINE
  5
2ce
100
AcDbEntity
  8
S
 62
7
100
AcDbLine
 10
141.036212
 20
63.296546
 30
0.0
 11
141.207078
 21
63.027148
 31
0.0
  0
LINE
  5
2cf
100
AcDbEntity
  8
S
 62
7
100
AcDbLine
 10
141.207078
 20
63.027148
 30
0.0
 11
141.415324
 21
62.785049
 31
0.0
  0
LINE
  5
2d0
100
AcDbEntity
  8
S
 62
7
100
AcDbLine
 10
141.415324
 20
62.785049
 30
0.0
 11
141.808135
 21
62.392791
 31
0.0
  0
LINE
  5
2d1
100
AcDbEntity
  8
S
 62
7
100
AcDbLine
 10
141.808135
 20
62.392791
 30
0.0
 11
142.200943
 21
62.000531
 31
0.0
  0
LINE
  5
2d2
100
AcDbEntity
  8
S
 62
7
100
AcDbLine
 10
142.200943
 20
62.000531
 30
0.0
 11
142.593754
 21
61.608273
 31
0.0
  0
LINE
  5
2d3
100
AcDbEntity
  8
S
 62
7
100
AcDbLine
 10
142.593754
 20
61.608273
 30
0.0
 11
142.986565
 21
61.216015
 31
0.0
  0
LINE
  5
2d4
100
AcDbEntity
  8
S
 62
7
100
AcDbLine
 10
142.986565
 20
61.216015
 30
0.0
 11
143.379373
 21
60.823757
 31
0.0
  0
LINE
  5
2d5
100
AcDbEntity
  8
S
 62
7
100
AcDbLine
 10
143.379373
 20
60.823757
 30
0.0
 11
143.772184
 21
60.431499
 31
0.0
  0
LINE
  5
2d6
100
AcDbEntity
  8
S
 62
7
100
AcDbLine
 10
143.772184
 20
60.431499
 30
0.0
 11
144.164993
 21
60.039239
 31
0.0
  0
LINE
  5
2d7
100
AcDbEntity
  8
S
 62
7
100
AcDbLine
 10
144.164993
 20
60.039239
 30
0.0
 11
144.557804
 21
59.646981
 31
0.0
  0
LINE
  5
2d8
100
AcDbEntity
  8
S
 62
7
100
AcDbLine
 10
144.557804
 20
59.646981
 30
0.0
 11
144.781397
 21
59.383049
 31
0.0
  0
LINE
  5
2d9
100
AcDbEntity
  8
S
 62
7
100
AcDbLine
 10
144.781397
 20
59.383049
 30
0.0
 11
144.960365
 21
59.087611
 31
0.0
  0
LINE
  5
2da
100
AcDbEntity
  8
S
 62
7
100
AcDbLine
 10
144.960365
 20
59.087611
 30
0.0
 11
145.093334
 21
58.768242
 31
0.0
  0
LINE
  5
2db
100
AcDbEntity
  8
S
 62
7
100
AcDbLine
 10
145.093334
 20
58.768242
 30
0.0
 11
145.178935
 21
58.432528
 31
0.0
  0
LINE
  5
2dc
100
AcDbEntity
  8
S
 62
7
100
AcDbLine
 10
145.178935
 20
58.432528
 30
0.0
 11
145.215799
 21
58.088042
 31
0.0
  0
LINE
  5
2dd
100
AcDbEntity
  8
S
 62
7
100
AcDbLine
 10
145.215799
 20
58.088042
 30
0.0
 11
145.202563
 21
57.742368
 31
0.0
  0
LINE
  5
2de
100
AcDbEntity
  8
S
 62
7
100
AcDbLine
 10
145.202563
 20
57.742368
 30
0.0
 11
145.137844
 21
57.403083
 31
0.0
  0
LINE
  5
2df
100
AcDbEntity
  8
S
 62
7
100
AcDbLine
 10
145.137844
 20
57.403083
 30
0.0
 11
145.020278
 21
57.077765
 31
0.0
  0
LINE
  5
2e0
100
AcDbEntity
  8
S
 62
7
100
AcDbLine
 10
145.020278
 20
57.077765
 30
0.0
 11
144.349433
 21
55.655091
 31
0.0
  0
LINE
  5
2e1
100
AcDbEntity
  8
S
 62
7
100
AcDbLine
 10
144.349433
 20
55.655091
 30
0.0
 11
143.644990
 21
54.248713
 31
0.0
  0
LINE
  5
2e2
100
AcDbEntity
  8
S
 62
7
100
AcDbLine
 10
143.644990
 20
54.248713
 30
0.0
 11
142.907402
 21
52.859395
 31
0.0
  0
LINE
  5
2e3
100
AcDbEntity
  8
S
 62
7
100
AcDbLine
 10
142.907402
 20
52.859395
 30
0.0
 11
142.137119
 21
51.487911
 31
0.0
  0
LINE
  5
2e4
100
AcDbEntity
  8
S
 62
7
100
AcDbLine
 10
142.137119
 20
51.487911
 30
0.0
 11
141.334594
 21
50.135025
 31
0.0
  0
LINE
  5
2e5
100
AcDbEntity
  8
S
 62
7
100
AcDbLine
 10
141.334594
 20
50.135025
 30
0.0
 11
140.500278
 21
48.801511
 31
0.0
  0
LINE
  5
2e6
100
AcDbEntity
  8
S
 62
7
100
AcDbLine
 10
140.500278
 20
48.801511
 30
0.0
 11
139.634623
 21
47.488139
 31
0.0
  0
LINE
  5
2e7
100
AcDbEntity
  8
S
 62
7
100
AcDbLine
 10
139.634623
 20
47.488139
 30
0.0
 11
138.738079
 21
46.195674
 31
0.0
  0
LINE
  5
2e8
100
AcDbEntity
  8
S
 62
7
100
AcDbLine
 10
138.738079
 20
46.195674
 30
0.0
 11
138.515036
 21
45.931272
 31
0.0
  0
LINE
  5
2e9
100
AcDbEntity
  8
S
 62
7
100
AcDbLine
 10
138.515036
 20
45.931272
 30
0.0
 11
138.253518
 21
45.705674
 31
0.0
  0
LINE
  5
2ea
100
AcDbEntity
  8
S
 62
7
100
AcDbLine
 10
138.253518
 20
45.705674
 30
0.0
 11
137.960760
 21
45.521482
 31
0.0
  0
LINE
  5
2eb
100
AcDbEntity
  8
S
 62
7
100
AcDbLine
 10
137.960760
 20
45.521482
 30
0.0
 11
137.644008
 21
45.381294
 31
0.0
  0
LINE
  5
2ec
100
AcDbEntity
  8
S
 62
7
100
AcDbLine
 10
137.644008
 20
45.381294
 30
0.0
 11
137.310501
 21
45.287715
 31
0.0
  0
LINE
  5
2ed
100
AcDbEntity
  8
S
 62
7
100
AcDbLine
 10
137.310501
 20
45.287715
 30
0.0
 11
136.967482
 21
45.243341
 31
0.0
  0
LINE
  5
2ee
100
AcDbEntity
  8
S
 62
7
100
AcDbLine
 10
136.967482
 20
45.243341
 30
0.0
 11
136.622189
 21
45.250791
 31
0.0
  0
LINE
  5
2ef
100
AcDbEntity
  8
S
 62
7
100
AcDbLine
 10
136.622189
 20
45.250791
 30
0.0
 11
136.281863
 21
45.312638
 31
0.0
  0
LINE
  5
2f0
100
AcDbEntity
  8
S
 62
7
100
AcDbLine
 10
136.281863
 20
45.312638
 30
0.0
 11
135.745598
 21
45.456297
 31
0.0
  0
LINE
  5
2f1
100
AcDbEntity
  8
S
 62
7
100
AcDbLine
 10
135.745598
 20
45.456297
 30
0.0
 11
135.209336
 21
45.599960
 31
0.0
  0
LINE
  5
2f2
100
AcDbEntity
  8
S
 62
7
100
AcDbLine
 10
135.209336
 20
45.599960
 30
0.0
 11
134.673072
 21
45.743619
 31
0.0
  0
LINE
  5
2f3
100
AcDbEntity
  8
S
 62
7
100
AcDbLine
 10
134.673072
 20
45.743619
 30
0.0
 11
134.136810
 21
45.887282
 31
0.0
  0
LINE
  5
2f4
100
AcDbEntity
  8
S
 62
7
100
AcDbLine
 10
134.136810
 20
45.887282
 30
0.0
 11
133.600546
 21
46.030941
 31
0.0
  0
LINE
  5
2f5
100
AcDbEntity
  8
S
 62
7
100
AcDbLine
 10
133.600546
 20
46.030941
 30
0.0
 11
133.064281
 21
46.174601
 31
0.0
  0
LINE
  5
2f6
100
AcDbEntity
  8
S
 62
7
100
AcDbLine
 10
133.064281
 20
46.174601
 30
0.0
 11
132.528019
 21
46.318263
 31
0.0
  0
LINE
  5
2f7
100
AcDbEntity
  8
S
 62
7
100
AcDbLine
 10
132.528019
 20
46.318263
 30
0.0
 11
131.991755
 21
46.461923
 31
0.0
  0
LINE
  5
2f8
100
AcDbEntity
  8
S
 62
7
100
AcDbLine
 10
131.991755
 20
46.461923
 30
0.0
 11
131.677972
 21
46.521184
 31
0.0
  0
LINE
  5
2f9
100
AcDbEntity
  8
S
 62
7
100
AcDbLine
 10
131.677972
 20
46.521184
 30
0.0
 11
131.359230
 21
46.534448
 31
0.0
  0
LINE
  5
2fa
100
AcDbEntity
  8
S
 62
7
100
AcDbLine
 10
131.359230
 20
46.534448
 30
0.0
 11
131.041346
 21
46.503514
 31
0.0
  0
LINE
  5
2fb
100
AcDbEntity
  8
S
 62
7
100
AcDbLine
 10
131.041346
 20
46.503514
 30
0.0
 11
130.730137
 21
46.430153
 31
0.0
  0
LINE
  5
2fc
100
AcDbEntity
  8
S
 62
7
100
AcDbLine
 10
130.730137
 20
46.430153
 30
0.0
 11
130.431419
 21
46.316149
 31
0.0
  0
LINE
  5
2fd
100
AcDbEntity
  8
S
 62
7
100
AcDbLine
 10
130.431419
 20
46.316149
 30
0.0
 11
130.151008
 21
46.163284
 31
0.0
  0
LINE
  5
2fe
100
AcDbEntity
  8
S
 62
7
100
AcDbLine
 10
130.151008
 20
46.163284
 30
0.0
 11
129.894725
 21
45.973334
 31
0.0
  0
LINE
  5
2ff
100
AcDbEntity
  8
S
 62
7
100
AcDbLine
 10
129.894725
 20
45.973334
 30
0.0
 11
129.668383
 21
45.748090
 31
0.0
  0
LINE
  5
300
100
AcDbEntity
  8
S
 62
7
100
AcDbLine
 10
129.668383
 20
45.748090
 30
0.0
 11
128.957141
 21
44.940581
 31
0.0
  0
LINE
  5
301
100
AcDbEntity
  8
S
 62
7
100
AcDbLine
 10
128.957141
 20
44.940581
 30
0.0
 11
128.231417
 21
44.146114
 31
0.0
  0
LINE
  5
302
100
AcDbEntity
  8
S
 62
7
100
AcDbLine
 10
128.231417
 20
44.146114
 30
0.0
 11
127.491462
 21
43.364929
 31
0.0
  0
LINE
  5
303
100
AcDbEntity
  8
S
 62
7
100
AcDbLine
 10
127.491462
 20
43.364929
 30
0.0
 11
126.737516
 21
42.597262
 31
0.0
  0
LINE
  5
304
100
AcDbEntity
  8
S
 62
7
100
AcDbLine
 10
126.737516
 20
42.597262
 30
0.0
 11
125.969835
 21
41.843350
 31
0.0
  0
LINE
  5
305
100
AcDbEntity
  8
S
 62
7
100
AcDbLine
 10
125.969835
 20
41.843350
 30
0.0
 11
125.188661
 21
41.103431
 31
0.0
  0
LINE
  5
306
100
AcDbEntity
  8
S
 62
7
100
AcDbLine
 10
125.188661
 20
41.103431
 30
0.0
 11
124.394242
 21
40.377745
 31
0.0
  0
LINE
  5
307
100
AcDbEntity
  8
S
 62
7
100
AcDbLine
 10
124.394242
 20
40.377745
 30
0.0
 11
123.586824
 21
39.666531
 31
0.0
  0
LINE
  5
308
100
AcDbEntity
  8
S
 62
7
100
AcDbLine
 10
123.586824
 20
39.666531
 30
0.0
 11
123.361597
 21
39.440172
 31
0.0
  0
LINE
  5
309
100
AcDbEntity
  8
S
 62
7
100
AcDbLine
 10
123.361597
 20
39.440172
 30
0.0
 11
123.171658
 21
39.183880
 31
0.0
  0
LINE
  5
30a
100
AcDbEntity
  8
S
 62
7
100
AcDbLine
 10
123.171658
 20
39.183880
 30
0.0
 11
123.018796
 21
38.903473
 31
0.0
  0
LINE
  5
30b
100
AcDbEntity
  8
S
 62
7
100
AcDbLine
 10
123.018796
 20
38.903473
 30
0.0
 11
122.904792
 21
38.604760
 31
0.0
  0
LINE
  5
30c
100
AcDbEntity
  8
S
 62
7
100
AcDbLine
 10
122.904792
 20
38.604760
 30
0.0
 11
122.831425
 21
38.293559
 31
0.0
  0
LINE
  5
30d
100
AcDbEntity
  8
S
 62
7
100
AcDbLine
 10
122.831425
 20
38.293559
 30
0.0
 11
122.800483
 21
37.975681
 31
0.0
  0
LINE
  5
30e
100
AcDbEntity
  8
S
 62
7
100
AcDbLine
 10
122.800483
 20
37.975681
 30
0.0
 11
122.813747
 21
37.656945
 31
0.0
  0
LINE
  5
30f
100
AcDbEntity
  8
S
 62
7
100
AcDbLine
 10
122.813747
 20
37.656945
 30
0.0
 11
122.873000
 21
37.343159
 31
0.0
  0
LINE
  5
310
100
AcDbEntity
  8
S
 62
7
100
AcDbLine
 10
122.873000
 20
37.343159
 30
0.0
 11
123.016730
 21
36.806894
 31
0.0
  0
LINE
  5
311
100
AcDbEntity
  8
S
 62
7
100
AcDbLine
 10
123.016730
 20
36.806894
 30
0.0
 11
123.160460
 21
36.270633
 31
0.0
  0
LINE
  5
312
100
AcDbEntity
  8
S
 62
7
100
AcDbLine
 10
123.160460
 20
36.270633
 30
0.0
 11
123.304187
 21
35.734368
 31
0.0
  0
LINE
  5
313
100
AcDbEntity
  8
S
 62
7
100
AcDbLine
 10
123.304187
 20
35.734368
 30
0.0
 11
123.447917
 21
35.198104
 31
0.0
  0
LINE
  5
314
100
AcDbEntity
  8
S
 62
7
100
AcDbLine
 10
123.447917
 20
35.198104
 30
0.0
 11
123.591647
 21
34.661842
 31
0.0
  0
LINE
  5
315
100
AcDbEntity
  8
S
 62
7
100
AcDbLine
 10
123.591647
 20
34.661842
 30
0.0
 11
123.735375
 21
34.125577
 31
0.0
  0
LINE
  5
316
100
AcDbEntity
  8
S
 62
7
100
AcDbLine
 10
123.735375
 20
34.125577
 30
0.0
 11
123.879105
 21
33.589316
 31
0.0
  0
LINE
  5
317
100
AcDbEntity
  8
S
 62
7
100
AcDbLine
 10
123.879105
 20
33.589316
 30
0.0
 11
124.022835
 21
33.053051
 31
0.0
  0
LINE
  5
318
100
AcDbEntity
  8
S
 62
7
100
AcDbLine
 10
124.022835
 20
33.053051
 30
0.0
 11
124.084656
 21
32.712688
 31
0.0
  0
LINE
  5
319
100
AcDbEntity
  8
S
 62
7
100
AcDbLine
 10
124.084656
 20
32.712688
 30
0.0
 11
124.092022
 21
32.367324
 31
0.0
  0
LINE
  5
31a
100
AcDbEntity
  8
S
 62
7
100
AcDbLine
 10
124.092022
 20
32.367324
 30
0.0
 11
124.047555
 21
32.024216
 31
0.0
  0
LINE
  5
31b
100
AcDbEntity
  8
S
 62
7
100
AcDbLine
 10
124.047555
 20
32.024216
 30
0.0
 11
123.953868
 21
31.690612
 31
0.0
  0
LINE
  5
31c
100
AcDbEntity
  8
S
 62
7
100
AcDbLine
 10
123.953868
 20
31.690612
 30
0.0
 11
123.813578
 21
31.373764
 31
0.0
  0
LINE
  5
31d
100
AcDbEntity
  8
S
 62
7
100
AcDbLine
 10
123.813578
 20
31.373764
 30
0.0
 11
123.629299
 21
31.080924
 31
0.0
  0
LINE
  5
31e
100
AcDbEntity
  8
S
 62
7
100
AcDbLine
 10
123.629299
 20
31.080924
 30
0.0
 11
123.403645
 21
30.819347
 31
0.0
  0
LINE
  5
31f
100
AcDbEntity
  8
S
 62
7
100
AcDbLine
 10
123.403645
 20
30.819347
 30
0.0
 11
123.139234
 21
30.596284
 31
0.0
  0
LINE
  5
320
100
AcDbEntity
  8
S
 62
7
100
AcDbLine
 10
123.139234
 20
30.596284
 30
0.0
 11
121.846865
 21
29.699768
 31
0.0
  0
LINE
  5
321
100
AcDbEntity
  8
S
 62
7
100
AcDbLine
 10
121.846865
 20
29.699768
 30
0.0
 11
120.533620
 21
28.834139
 31
0.0
  0
LINE
  5
322
100
AcDbEntity
  8
S
 62
7
100
AcDbLine
 10
120.533620
 20
28.834139
 30
0.0
 11
119.200258
 21
27.999845
 31
0.0
  0
LINE
  5
323
100
AcDbEntity
  8
S
 62
7
100
AcDbLine
 10
119.200258
 20
27.999845
 30
0.0
 11
117.847539
 21
27.197329
 31
0.0
  0
LINE
  5
324
100
AcDbEntity
  8
S
 62
7
100
AcDbLine
 10
117.847539
 20
27.197329
 30
0.0
 11
116.476221
 21
26.427049
 31
0.0
  0
LINE
  5
325
100
AcDbEntity
  8
S
 62
7
100
AcDbLine
 10
116.476221
 20
26.427049
 30
0.0
 11
115.087061
 21
25.689447
 31
0.0
  0
LINE
  5
326
100
AcDbEntity
  8
S
 62
7
100
AcDbLine
 10
115.087061
 20
25.689447
 30
0.0
 11
113.680816
 21
24.984975
 31
0.0
  0
LINE
  5
327
100
AcDbEntity
  8
S
 62
7
100
AcDbLine
 10
113.680816
 20
24.984975
 30
0.0
 11
112.258244
 21
24.314082
 31
0.0
  0
LINE
  5
328
100
AcDbEntity
  8
S
 62
7
100
AcDbLine
 10
112.258244
 20
24.314082
 30
0.0
 11
111.932940
 21
24.196508
 31
0.0
  0
LINE
  5
329
100
AcDbEntity
  8
S
 62
7
100
AcDbLine
 10
111.932940
 20
24.196508
 30
0.0
 11
111.593658
 21
24.131784
 31
0.0
  0
LINE
  5
32a
100
AcDbEntity
  8
S
 62
7
100
AcDbLine
 10
111.593658
 20
24.131784
 30
0.0
 11
111.247978
 21
24.118519
 31
0.0
  0
LINE
  5
32b
100
AcDbEntity
  8
S
 62
7
100
AcDbLine
 10
111.247978
 20
24.118519
 30
0.0
 11
110.903487
 21
24.155383
 31
0.0
  0
LINE
  5
32c
100
AcDbEntity
  8
S
 62
7
100
AcDbLine
 10
110.903487
 20
24.155383
 30
0.0
 11
110.567764
 21
24.240984
 31
0.0
  0
LINE
  5
32d
100
AcDbEntity
  8
S
 62
7
100
AcDbLine
 10
110.567764
 20
24.240984
 30
0.0
 11
110.248392
 21
24.373959
 31
0.0
  0
LINE
  5
32e
100
AcDbEntity
  8
S
 62
7
100
AcDbLine
 10
110.248392
 20
24.373959
 30
0.0
 11
109.952954
 21
24.552933
 31
0.0
  0
LINE
  5
32f
100
AcDbEntity
  8
S
 62
7
100
AcDbLine
 10
109.952954
 20
24.552933
 30
0.0
 11
109.689031
 21
24.776540
 31
0.0
  0
LINE
  5
330
100
AcDbEntity
  8
S
 62
7
100
AcDbLine
 10
109.689031
 20
24.776540
 30
0.0
 11
109.296429
 21
25.169213
 31
0.0
  0
LINE
  5
331
100
AcDbEntity
  8
S
 62
7
100
AcDbLine
 10
109.296429
 20
25.169213
 30
0.0
 11
108.903824
 21
25.561885
 31
0.0
  0
LINE
  5
332
100
AcDbEntity
  8
S
 62
7
100
AcDbLine
 10
108.903824
 20
25.561885
 30
0.0
 11
108.511221
 21
25.954555
 31
0.0
  0
LINE
  5
333
100
AcDbEntity
  8
S
 62
7
100
AcDbLine
 10
108.511221
 20
25.954555
 30
0.0
 11
108.118619
 21
26.347228
 31
0.0
  0
LINE
  5
334
100
AcDbEntity
  8
S
 62
7
100
AcDbLine
 10
108.118619
 20
26.347228
 30
0.0
 11
107.726014
 21
26.739901
 31
0.0
  0
LINE
  5
335
100
AcDbEntity
  8
S
 62
7
100
AcDbLine
 10
107.726014
 20
26.739901
 30
0.0
 11
107.333412
 21
27.132574
 31
0.0
  0
LINE
  5
336
100
AcDbEntity
  8
S
 62
7
100
AcDbLine
 10
107.333412
 20
27.132574
 30
0.0
 11
106.940807
 21
27.525243
 31
0.0
  0
LINE
  5
337
100
AcDbEntity
  8
S
 62
7
100
AcDbLine
 10
106.940807
 20
27.525243
 30
0.0
 11
106.548205
 21
27.917916
 31
0.0
  0
LINE
  5
338
100
AcDbEntity
  8
S
 62
7
100
AcDbLine
 10
106.548205
 20
27.917916
 30
0.0
 11
106.306146
 21
28.126171
 31
0.0
  0
LINE
  5
339
100
AcDbEntity
  8
S
 62
7
100
AcDbLine
 10
106.306146
 20
28.126171
 30
0.0
 11
106.036813
 21
28.297045
 31
0.0
  0
LINE
  5
33a
100
AcDbEntity
  8
S
 62
7
100
AcDbLine
 10
106.036813
 20
28.297045
 30
0.0
 11
105.746132
 21
28.429184
 31
0.0
  0
LINE
  5
33b
100
AcDbEntity
  8
S
 62
7
100
AcDbLine
 10
105.746132
 20
28.429184
 30
0.0
 11
105.440017
 21
28.521231
 31
0.0
  0
LINE
  5
33c
100
AcDbEntity
  8
S
 62
7
100
AcDbLine
 10
105.440017
 20
28.521231
 30
0.0
 11
105.124388
 21
28.571833
 31
0.0
  0
LINE
  5
33d
100
AcDbEntity
  8
S
 62
7
100
AcDbLine
 10
105.124388
 20
28.571833
 30
0.0
 11
104.805170
 21
28.579623
 31
0.0
  0
LINE
  5
33e
100
AcDbEntity
  8
S
 62
7
100
AcDbLine
 10
104.805170
 20
28.579623
 30
0.0
 11
104.488276
 21
28.543267
 31
0.0
  0
LINE
  5
33f
100
AcDbEntity
  8
S
 62
7
100
AcDbLine
 10
104.488276
 20
28.543267
 30
0.0
 11
104.179632
 21
28.461403
 31
0.0
  0
LINE
  5
340
100
AcDbEntity
  8
S
 62
7
100
AcDbLine
 10
104.179632
 20
28.461403
 30
0.0
 11
103.160057
 21
28.117738
 31
0.0
  0
LINE
  5
341
100
AcDbEntity
  8
S
 62
7
100
AcDbLine
 10
103.160057
 20
28.117738
 30
0.0
 11
102.134408
 21
27.792601
 31
0.0
  0
LINE
  5
342
100
AcDbEntity
  8
S
 62
7
100
AcDbLine
 10
102.134408
 20
27.792601
 30
0.0
 11
101.103032
 21
27.486082
 31
0.0
  0
LINE
  5
343
100
AcDbEntity
  8
S
 62
7
100
AcDbLine
 10
101.103032
 20
27.486082
 30
0.0
 11
100.066272
 21
27.198258
 31
0.0
  0
LINE
  5
344
100
AcDbEntity
  8
S
 62
7
100
AcDbLine
 10
100.066272
 20
27.198258
 30
0.0
 11
99.024471
 21
26.929213
 31
0.0
  0
LINE
  5
345
100
AcDbEntity
  8
S
 62
7
100
AcDbLine
 10
99.024471
 20
26.929213
 30
0.0
 11
97.977974
 21
26.679034
 31
0.0
  0
LINE
  5
346
100
AcDbEntity
  8
S
 62
7
100
AcDbLine
 10
97.977974
 20
26.679034
 30
0.0
 11
96.927125
 21
26.447798
 31
0.0
  0
LINE
  5
347
100
AcDbEntity
  8
S
 62
7
100
AcDbLine
 10
96.927125
 20
26.447798
 30
0.0
 11
95.872269
 21
26.235595
 31
0.0
  0
LINE
  5
348
100
AcDbEntity
  8
S
 62
7
100
AcDbLine
 10
95.872269
 20
26.235595
 30
0.0
 11
95.564108
 21
26.152134
 31
0.0
  0
LINE
  5
349
100
AcDbEntity
  8
S
 62
7
100
AcDbLine
 10
95.564108
 20
26.152134
 30
0.0
 11
95.271548
 21
26.025111
 31
0.0
  0
LINE
  5
34a
100
AcDbEntity
  8
S
 62
7
100
AcDbLine
 10
95.271548
 20
26.025111
 30
0.0
 11
94.999040
 21
25.858670
 31
0.0
  0
LINE
  5
34b
100
AcDbEntity
  8
S
 62
7
100
AcDbLine
 10
94.999040
 20
25.858670
 30
0.0
 11
94.751031
 21
25.656958
 31
0.0
  0
LINE
  5
34c
100
AcDbEntity
  8
S
 62
7
100
AcDbLine
 10
94.751031
 20
25.656958
 30
0.0
 11
94.531970
 21
25.424119
 31
0.0
  0
LINE
  5
34d
100
AcDbEntity
  8
S
 62
7
100
AcDbLine
 10
94.531970
 20
25.424119
 30
0.0
 11
94.346302
 21
25.164299
 31
0.0
  0
LINE
  5
34e
100
AcDbEntity
  8
S
 62
7
100
AcDbLine
 10
94.346302
 20
25.164299
 30
0.0
 11
94.198480
 21
24.881642
 31
0.0
  0
LINE
  5
34f
100
AcDbEntity
  8
S
 62
7
100
AcDbLine
 10
94.198480
 20
24.881642
 30
0.0
 11
94.092945
 21
24.580294
 31
0.0
  0
LINE
  5
350
100
AcDbEntity
  8
S
 62
7
100
AcDbLine
 10
94.092945
 20
24.580294
 30
0.0
 11
93.949215
 21
24.043894
 31
0.0
  0
LINE
  5
351
100
AcDbEntity
  8
S
 62
7
100
AcDbLine
 10
93.949215
 20
24.043894
 30
0.0
 11
93.805488
 21
23.507491
 31
0.0
  0
LINE
  5
352
100
AcDbEntity
  8
S
 62
7
100
AcDbLine
 10
93.805488
 20
23.507491
 30
0.0
 11
93.661758
 21
22.971088
 31
0.0
  0
LINE
  5
353
100
AcDbEntity
  8
S
 62
7
100
AcDbLine
 10
93.661758
 20
22.971088
 30
0.0
 11
93.518028
 21
22.434688
 31
0.0
  0
LINE
  5
354
100
AcDbEntity
  8
S
 62
7
100
AcDbLine
 10
93.518028
 20
22.434688
 30
0.0
 11
93.374297
 21
21.898288
 31
0.0
  0
LINE
  5
355
100
AcDbEntity
  8
S
 62
7
100
AcDbLine
 10
93.374297
 20
21.898288
 30
0.0
 11
93.230570
 21
21.361885
 31
0.0
  0
LINE
  5
356
100
AcDbEntity
  8
S
 62
7
100
AcDbLine
 10
93.230570
 20
21.361885
 30
0.0
 11
93.086840
 21
20.825483
 31
0.0
  0
LINE
  5
357
100
AcDbEntity
  8
S
 62
7
100
AcDbLine
 10
93.086840
 20
20.825483
 30
0.0
 11
92.943110
 21
20.289083
 31
0.0
  0
LINE
  5
358
100
AcDbEntity
  8
S
 62
7
100
AcDbLine
 10
92.943110
 20
20.289083
 30
0.0
 11
92.826360
 21
19.963500
 31
0.0
  0
LINE
  5
359
100
AcDbEntity
  8
S
 62
7
100
AcDbLine
 10
92.826360
 20
19.963500
 30
0.0
 11
92.659990
 21
19.660819
 31
0.0
  0
LINE
  5
35a
100
AcDbEntity
  8
S
 62
7
100
AcDbLine
 10
92.659990
 20
19.660819
 30
0.0
 11
92.449881
 21
19.386008
 31
0.0
  0
LINE
  5
35b
100
AcDbEntity
  8
S
 62
7
100
AcDbLine
 10
92.449881
 20
19.386008
 30
0.0
 11
92.201927
 21
19.144039
 31
0.0
  0
LINE
  5
35c
100
AcDbEntity
  8
S
 62
7
100
AcDbLine
 10
92.201927
 20
19.144039
 30
0.0
 11
91.922010
 21
18.939885
 31
0.0
  0
LINE
  5
35d
100
AcDbEntity
  8
S
 62
7
100
AcDbLine
 10
91.922010
 20
18.939885
 30
0.0
 11
91.616019
 21
18.778516
 31
0.0
  0
LINE
  5
35e
100
AcDbEntity
  8
S
 62
7
100
AcDbLine
 10
91.616019
 20
18.778516
 30
0.0
 11
91.289841
 21
18.664905
 31
0.0
  0
LINE
  5
35f
100
AcDbEntity
  8
S
 62
7
100
AcDbLine
 10
91.289841
 20
18.664905
 30
0.0
 11
90.949365
 21
18.604018
 31
0.0
  0
LINE
  5
360
100
AcDbEntity
  8
S
 62
7
100
AcDbLine
 10
90.949365
 20
18.604018
 30
0.0
 11
89.382002
 21
18.473739
 31
0.0
  0
LINE
  5
361
100
AcDbEntity
  8
S
 62
7
100
AcDbLine
 10
89.382002
 20
18.473739
 30
0.0
 11
87.812025
 21
18.380682
 31
0.0
  0
LINE
  5
362
100
AcDbEntity
  8
S
 62
7
100
AcDbLine
 10
87.812025
 20
18.380682
 30
0.0
 11
86.240307
 21
18.324847
 31
0.0
  0
LINE
  5
363
100
AcDbEntity
  8
S
 62
7
100
AcDbLine
 10
86.240307
 20
18.324847
 30
0.0
 11
84.667717
 21
18.306220
 31
0.0
  0
LINE
  5
364
100
AcDbEntity
  8
S
 62
7
100
AcDbLine
 10
84.667717
 20
18.306220
 30
0.0
 11
83.095124
 21
18.324847
 31
0.0
  0
LINE
  5
365
100
AcDbEntity
  8
S
 62
7
100
AcDbLine
 10
83.095124
 20
18.324847
 30
0.0
 11
81.523405
 21
18.380682
 31
0.0
  0
LINE
  5
366
100
AcDbEntity
  8
S
 62
7
100
AcDbLine
 10
81.523405
 20
18.380682
 30
0.0
 11
79.953429
 21
18.473739
 31
0.0
  0
LINE
  5
367
100
AcDbEntity
  8
S
 62
7
100
AcDbLine
 10
79.953429
 20
18.473739
 30
0.0
 11
78.386065
 21
18.604018
 31
0.0
  0
LINE
  5
368
100
AcDbEntity
  8
S
 62
7
100
AcDbLine
 10
78.386065
 20
18.604018
 30
0.0
 11
78.045589
 21
18.664899
 31
0.0
  0
LINE
  5
369
100
AcDbEntity
  8
S
 62
7
100
AcDbLine
 10
78.045589
 20
18.664899
 30
0.0
 11
77.719411
 21
18.778508
 31
0.0
  0
LINE
  5
36a
100
AcDbEntity
  8
S
 62
7
100
AcDbLine
 10
77.719411
 20
18.778508
 30
0.0
 11
77.413420
 21
18.939877
 31
0.0
  0
LINE
  5
36b
100
AcDbEntity
  8
S
 62
7
100
AcDbLine
 10
77.413420
 20
18.939877
 30
0.0
 11
77.133501
 21
19.144034
 31
0.0
  0
LINE
  5
36c
100
AcDbEntity
  8
S
 62
7
100
AcDbLine
 10
77.133501
 20
19.144034
 30
0.0
 11
76.885543
 21
19.386002
 31
0.0
  0
LINE
  5
36d
100
AcDbEntity
  8
S
 62
7
100
AcDbLine
 10
76.885543
 20
19.386002
 30
0.0
 11
76.675437
 21
19.660816
 31
0.0
  0
LINE
  5
36e
100
AcDbEntity
  8
S
 62
7
100
AcDbLine
 10
76.675437
 20
19.660816
 30
0.0
 11
76.509064
 21
19.963500
 31
0.0
  0
LINE
  5
36f
100
AcDbEntity
  8
S
 62
7
100
AcDbLine
 10
76.509064
 20
19.963500
 30
0.0
 11
76.392320
 21
20.289083
 31
0.0
  0
LINE
  5
370
100
AcDbEntity
  8
S
 62
7
100
AcDbLine
 10
76.392320
 20
20.289083
 30
0.0
 11
76.248590
 21
20.825483
 31
0.0
  0
LINE
  5
371
100
AcDbEntity
  8
S
 62
7
100
AcDbLine
 10
76.248590
 20
20.825483
 30
0.0
 11
76.104863
 21
21.361885
 31
0.0
  0
LINE
  5
372
100
AcDbEntity
  8
S
 62
7
100
AcDbLine
 10
76.104863
 20
21.361885
 30
0.0
 11
75.961133
 21
21.898288
 31
0.0
  0
LINE
  5
373
100
AcDbEntity
  8
S
 62
7
100
AcDbLine
 10
75.961133
 20
21.898288
 30
0.0
 11
75.817403
 21
22.434688
 31
0.0
  0
LINE
  5
374
100
AcDbEntity
  8
S
 62
7
100
AcDbLine
 10
75.817403
 20
22.434688
 30
0.0
 11
75.673672
 21
22.971088
 31
0.0
  0
LINE
  5
375
100
AcDbEntity
  8
S
 62
7
100
AcDbLine
 10
75.673672
 20
22.971088
 30
0.0
 11
75.529945
 21
23.507491
 31
0.0
  0
LINE
  5
376
100
AcDbEntity
  8
S
 62
7
100
AcDbLine
 10
75.529945
 20
23.507491
 30
0.0
 11
75.386215
 21
24.043894
 31
0.0
  0
LINE
  5
377
100
AcDbEntity
  8
S
 62
7
100
AcDbLine
 10
75.386215
 20
24.043894
 30
0.0
 11
75.242485
 21
24.580294
 31
0.0
  0
LINE
  5
378
100
AcDbEntity
  8
S
 62
7
100
AcDbLine
 10
75.242485
 20
24.580294
 30
0.0
 11
75.136954
 21
24.881642
 31
0.0
  0
LINE
  5
379
100
AcDbEntity
  8
S
 62
7
100
AcDbLine
 10
75.136954
 20
24.881642
 30
0.0
 11
74.989128
 21
25.164299
 31
0.0
  0
LINE
  5
37a
100
AcDbEntity
  8
S
 62
7
100
AcDbLine
 10
74.989128
 20
25.164299
 30
0.0
 11
74.803463
 21
25.424119
 31
0.0
  0
LINE
  5
37b
100
AcDbEntity
  8
S
 62
7
100
AcDbLine
 10
74.803463
 20
25.424119
 30
0.0
 11
74.584402
 21
25.656958
 31
0.0
  0
LINE
  5
37c
100
AcDbEntity
  8
S
 62
7
100
AcDbLine
 10
74.584402
 20
25.656958
 30
0.0
 11
74.336391
 21
25.858668
 31
0.0
  0
LINE
  5
37d
100
AcDbEntity
  8
S
 62
7
100
AcDbLine
 10
74.336391
 20
25.858668
 30
0.0
 11
74.063883
 21
26.025108
 31
0.0
  0
LINE
  5
37e
100
AcDbEntity
  8
S
 62
7
100
AcDbLine
 10
74.063883
 20
26.025108
 30
0.0
 11
73.771325
 21
26.152134
 31
0.0
  0
LINE
  5
37f
100
AcDbEntity
  8
S
 62
7
100
AcDbLine
 10
73.771325
 20
26.152134
 30
0.0
 11
73.463161
 21
26.235595
 31
0.0
  0
LINE
  5
380
100
AcDbEntity
  8
S
 62
7
100
AcDbLine
 10
73.463161
 20
26.235595
 30
0.0
 11
72.178099
 21
26.496738
 31
0.0
  0
LINE
  5
381
100
AcDbEntity
  8
S
 62
7
100
AcDbLine
 10
72.178099
 20
26.496738
 30
0.0
 11
70.899155
 21
26.786157
 31
0.0
  0
LINE
  5
382
100
AcDbEntity
  8
S
 62
7
100
AcDbLine
 10
70.899155
 20
26.786157
 30
0.0
 11
69.626929
 21
27.103680
 31
0.0
  0
LINE
  5
383
100
AcDbEntity
  8
S
 62
7
100
AcDbLine
 10
69.626929
 20
27.103680
 30
0.0
 11
68.362017
 21
27.449134
 31
0.0
  0
LINE
  5
384
100
AcDbEntity
  8
S
 62
7
100
AcDbLine
 10
68.362017
 20
27.449134
 30
0.0
 11
67.105019
 21
27.822353
 31
0.0
  0
LINE
  5
385
100
AcDbEntity
  8
S
 62
7
100
AcDbLine
 10
67.105019
 20
27.822353
 30
0.0
 11
65.856533
 21
28.223162
 31
0.0
  0
LINE
  5
386
100
AcDbEntity
  8
S
 62
7
100
AcDbLine
 10
65.856533
 20
28.223162
 30
0.0
 11
64.617160
 21
28.651395
 31
0.0
  0
LINE
  5
387
100
AcDbEntity
  8
S
 62
7
100
AcDbLine
 10
64.617160
 20
28.651395
 30
0.0
 11
63.387498
 21
29.106876
 31
0.0
  0
LINE
  5
388
100
AcDbEntity
  8
S
 62
7
100
AcDbLine
 10
63.387498
 20
29.106876
 30
0.0
 11
63.072809
 21
29.200232
 31
0.0
  0
LINE
  5
389
100
AcDbEntity
  8
S
 62
7
100
AcDbLine
 10
63.072809
 20
29.200232
 30
0.0
 11
62.748084
 21
29.245656
 31
0.0
  0
LINE
  5
38a
100
AcDbEntity
  8
S
 62
7
100
AcDbLine
 10
62.748084
 20
29.245656
 30
0.0
 11
62.419778
 21
29.244527
 31
0.0
  0
LINE
  5
38b
100
AcDbEntity
  8
S
 62
7
100
AcDbLine
 10
62.419778
 20
29.244527
 30
0.0
 11
62.094347
 21
29.198189
 31
0.0
  0
LINE
  5
38c
100
AcDbEntity
  8
S
 62
7
100
AcDbLine
 10
62.094347
 20
29.198189
 30
0.0
 11
61.778255
 21
29.108019
 31
0.0
  0
LINE
  5
38d
100
AcDbEntity
  8
S
 62
7
100
AcDbLine
 10
61.778255
 20
29.108019
 30
0.0
 11
61.477957
 21
28.975386
 31
0.0
  0
LINE
  5
38e
100
AcDbEntity
  8
S
 62
7
100
AcDbLine
 10
61.477957
 20
28.975386
 30
0.0
 11
61.199911
 21
28.801653
 31
0.0
  0
LINE
  5
38f
100
AcDbEntity
  8
S
 62
7
100
AcDbLine
 10
61.199911
 20
28.801653
 30
0.0
 11
60.950577
 21
28.588191
 31
0.0
  0
LINE
  5
390
100
AcDbEntity
  8
S
 62
7
100
AcDbLine
 10
60.950577
 20
28.588191
 30
0.0
 11
59.004716
 21
26.642195
 31
0.0
  0
LINE
  5
391
100
AcDbEntity
  8
S
 62
7
100
AcDbLine
 10
59.004716
 20
26.642195
 30
0.0
 11
57.058859
 21
24.696197
 31
0.0
  0
LINE
  5
392
100
AcDbEntity
  8
S
 62
7
100
AcDbLine
 10
57.058859
 20
24.696197
 30
0.0
 11
55.112999
 21
22.750201
 31
0.0
  0
LINE
  5
393
100
AcDbEntity
  8
S
 62
7
100
AcDbLine
 10
55.112999
 20
22.750201
 30
0.0
 11
53.167139
 21
20.804206
 31
0.0
  0
LINE
  5
394
100
AcDbEntity
  8
S
 62
7
100
AcDbLine
 10
53.167139
 20
20.804206
 30
0.0
 11
51.221282
 21
18.858207
 31
0.0
  0
LINE
  5
395
100
AcDbEntity
  8
S
 62
7
100
AcDbLine
 10
51.221282
 20
18.858207
 30
0.0
 11
49.275421
 21
16.912212
 31
0.0
  0
LINE
  5
396
100
AcDbEntity
  8
S
 62
7
100
AcDbLine
 10
49.275421
 20
16.912212
 30
0.0
 11
47.329564
 21
14.966213
 31
0.0
  0
LINE
  5
397
100
AcDbEntity
  8
S
 62
7
100
AcDbLine
 10
47.329564
 20
14.966213
 30
0.0
 11
45.383704
 21
13.020218
 31
0.0
  0
LINE
  5
398
100
AcDbEntity
  8
S
 62
7
100
AcDbLine
 10
45.383704
 20
13.020218
 30
0.0
 11
45.205876
 21
12.818917
 31
0.0
  0
LINE
  5
399
100
AcDbEntity
  8
S
 62
7
100
AcDbLine
 10
45.205876
 20
12.818917
 30
0.0
 11
45.053656
 21
12.597805
 31
0.0
  0
LINE
  5
39a
100
AcDbEntity
  8
S
 62
7
100
AcDbLine
 10
45.053656
 20
12.597805
 30
0.0
 11
44.928166
 21
12.360329
 31
0.0
  0
LINE
  5
39b
100
AcDbEntity
  8
S
 62
7
100
AcDbLine
 10
44.928166
 20
12.360329
 30
0.0
 11
44.830529
 21
12.109952
 31
0.0
  0
LINE
  5
39c
100
AcDbEntity
  8
S
 62
7
100
AcDbLine
 10
44.830529
 20
12.109952
 30
0.0
 11
44.761870
 21
11.850127
 31
0.0
  0
LINE
  5
39d
100
AcDbEntity
  8
S
 62
7
100
AcDbLine
 10
44.761870
 20
11.850127
 30
0.0
 11
44.723312
 21
11.584311
 31
0.0
  0
LINE
  5
39e
100
AcDbEntity
  8
S
 62
7
100
AcDbLine
 10
44.723312
 20
11.584311
 30
0.0
 11
44.715975
 21
11.315954
 31
0.0
  0
LINE
  5
39f
100
AcDbEntity
  8
S
 62
7
100
AcDbLine
 10
44.715975
 20
11.315954
 30
0.0
 11
44.740980
 21
11.048520
 31
0.0
  0
LINE
  5
3a0
100
AcDbEntity
  8
S
 62
7
100
AcDbLine
 10
44.740980
 20
11.048520
 30
0.0
 11
44.798784
 21
10.786197
 31
0.0
  0
LINE
  5
3a1
100
AcDbEntity
  8
S
 62
7
100
AcDbLine
 10
44.798784
 20
10.786197
 30
0.0
 11
44.887670
 21
10.532847
 31
0.0
  0
LINE
  5
3a2
100
AcDbEntity
  8
S
 62
7
100
AcDbLine
 10
44.887670
 20
10.532847
 30
0.0
 11
45.005512
 21
10.291428
 31
0.0
  0
LINE
  5
3a3
100
AcDbEntity
  8
S
 62
7
100
AcDbLine
 10
45.005512
 20
10.291428
 30
0.0
 11
45.150188
 21
10.064897
 31
0.0
  0
LINE
  5
3a4
100
AcDbEntity
  8
S
 62
7
100
AcDbLine
 10
45.150188
 20
10.064897
 30
0.0
 11
45.319572
 21
9.856208
 31
0.0
  0
LINE
  5
3a5
100
AcDbEntity
  8
S
 62
7
100
AcDbLine
 10
45.319572
 20
9.856208
 30
0.0
 11
45.511545
 21
9.668315
 31
0.0
  0
LINE
  5
3a6
100
AcDbEntity
  8
S
 62
7
100
AcDbLine
 10
45.511545
 20
9.668315
 30
0.0
 11
45.723979
 21
9.504183
 31
0.0
  0
LINE
  5
3a7
100
AcDbEntity
  8
S
 62
7
100
AcDbLine
 10
45.723979
 20
9.504183
 30
0.0
 11
45.954755
 21
9.366761
 31
0.0
  0
LINE
  5
3a8
100
AcDbEntity
  8
S
 62
7
100
AcDbLine
 10
45.954755
 20
9.366761
 30
0.0
 11
49.046988
 21
7.856031
 31
0.0
  0
LINE
  5
3a9
100
AcDbEntity
  8
S
 62
7
100
AcDbLine
 10
49.046988
 20
7.856031
 30
0.0
 11
52.198205
 21
6.472654
 31
0.0
  0
LINE
  5
3aa
100
AcDbEntity
  8
S
 62
7
100
AcDbLine
 10
52.198205
 20
6.472654
 30
0.0
 11
55.403011
 21
5.218371
 31
0.0
  0
LINE
  5
3ab
100
AcDbEntity
  8
S
 62
7
100
AcDbLine
 10
55.403011
 20
5.218371
 30
0.0
 11
58.656011
 21
4.094917
 31
0.0
  0
LINE
  5
3ac
100
AcDbEntity
  8
S
 62
7
100
AcDbLine
 10
58.656011
 20
4.094917
 30
0.0
 11
61.951816
 21
3.104032
 31
0.0
  0
LINE
  5
3ad
100
AcDbEntity
  8
S
 62
7
100
AcDbLine
 10
61.951816
 20
3.104032
 30
0.0
 11
65.285033
 21
2.247460
 31
0.0
  0
LINE
  5
3ae
100
AcDbEntity
  8
S
 62
7
100
AcDbLine
 10
65.285033
 20
2.247460
 30
0.0
 11
68.650265
 21
1.526932
 31
0.0
  0
LINE
  5
3af
100
AcDbEntity
  8
S
 62
7
100
AcDbLine
 10
68.650265
 20
1.526932
 30
0.0
 11
72.042122
 21
0.944191
 31
0.0
  0
LINE
  5
3b0
100
AcDbEntity
  8
S
 62
7
100
AcDbLine
 10
72.042122
 20
0.944191
 30
0.0
 11
75.454998
 21
0.500707
 31
0.0
  0
LINE
  5
3b1
100
AcDbEntity
  8
S
 62
7
100
AcDbLine
 10
75.454998
 20
0.500707
 30
0.0
 11
78.883098
 21
0.196737
 31
0.0
  0
LINE
  5
3b2
100
AcDbEntity
  8
S
 62
7
100
AcDbLine
 10
78.883098
 20
0.196737
 30
0.0
 11
82.320742
 21
0.032213
 31
0.0
  0
LINE
  5
3b3
100
AcDbEntity
  8
S
 62
7
100
AcDbLine
 10
82.320742
 20
0.032213
 30
0.0
 11
85.762256
 21
0.007039
 31
0.0
  0
LINE
  5
3b4
100
AcDbEntity
  8
S
 62
7
100
AcDbLine
 10
85.762256
 20
0.007039
 30
0.0
 11
89.201966
 21
0.121175
 31
0.0
  0
LINE
  5
3b5
100
AcDbEntity
  8
S
 62
7
100
AcDbLine
 10
89.201966
 20
0.121175
 30
0.0
 11
92.634195
 21
0.374531
 31
0.0
  0
LINE
  5
3b6
100
AcDbEntity
  8
S
 62
7
100
AcDbLine
 10
92.634195
 20
0.374531
 30
0.0
 11
96.053267
 21
0.767035
 31
0.0
  0
LINE
  5
3b7
100
AcDbEntity
  8
S
 62
7
100
AcDbLine
 10
96.053267
 20
0.767035
 30
0.0
 11
99.453505
 21
1.298609
 31
0.0
  0
LINE
  5
3b8
100
AcDbEntity
  8
S
 62
7
100
AcDbLine
 10
99.453505
 20
1.298609
 30
0.0
 11
102.829134
 21
1.968901
 31
0.0
  0
LINE
  5
3b9
100
AcDbEntity
  8
S
 62
7
100
AcDbLine
 10
102.829134
 20
1.968901
 30
0.0
 11
106.174591
 21
2.776251
 31
0.0
  0
LINE
  5
3ba
100
AcDbEntity
  8
S
 62
7
100
AcDbLine
 10
106.174591
 20
2.776251
 30
0.0
 11
109.484530
 21
3.718780
 31
0.0
  0
LINE
  5
3bb
100
AcDbEntity
  8
S
 62
7
100
AcDbLine
 10
109.484530
 20
3.718780
 30
0.0
 11
112.753606
 21
4.794600
 31
0.0
  0
LINE
  5
3bc
100
AcDbEntity
  8
S
 62
7
100
AcDbLine
 10
112.753606
 20
4.794600
 30
0.0
 11
115.976471
 21
6.001828
 31
0.0
  0
LINE
  5
3bd
100
AcDbEntity
  8
S
 62
7
100
AcDbLine
 10
115.976471
 20
6.001828
 30
0.0
 11
119.147773
 21
7.338579
 31
0.0
  0
LINE
  5
3be
100
AcDbEntity
  8
S
 62
7
100
AcDbLine
 10
119.147773
 20
7.338579
 30
0.0
 11
122.262175
 21
8.802968
 31
0.0
  0
LINE
  5
3bf
100
AcDbEntity
  8
S
 62
7
100
AcDbLine
 10
122.262175
 20
8.802968
 30
0.0
 11
125.314321
 21
10.393110
 31
0.0
  0
LINE
  5
3c0
100
AcDbEntity
  8
S
 62
7
100
AcDbLine
 10
125.314321
 20
10.393110
 30
0.0
 11
128.298863
 21
12.106769
 31
0.0
  0
LINE
  5
3c1
100
AcDbEntity
  8
S
 62
7
100
AcDbLine
 10
128.298863
 20
12.106769
 30
0.0
 11
131.211035
 21
13.940649
 31
0.0
  0
LINE
  5
3c2
100
AcDbEntity
  8
S
 62
7
100
AcDbLine
 10
131.211035
 20
13.940649
 30
0.0
 11
134.046372
 21
15.891262
 31
0.0
  0
LINE
  5
3c3
100
AcDbEntity
  8
S
 62
7
100
AcDbLine
 10
134.046372
 20
15.891262
 30
0.0
 11
136.800409
 21
17.955130
 31
0.0
  0
LINE
  5
3c4
100
AcDbEntity
  8
S
 62
7
100
AcDbLine
 10
136.800409
 20
17.955130
 30
0.0
 11
139.468679
 21
20.128775
 31
0.0
  0
LINE
  5
3c5
100
AcDbEntity
  8
S
 62
7
100
AcDbLine
 10
139.468679
 20
20.128775
 30
0.0
 11
142.046720
 21
22.408707
 31
0.0
  0
LINE
  5
3c6
100
AcDbEntity
  8
S
 62
7
100
AcDbLine
 10
142.046720
 20
22.408707
 30
0.0
 11
144.530064
 21
24.791453
 31
0.0
  0
LINE
  5
3c7
100
AcDbEntity
  8
S
 62
7
100
AcDbLine
 10
144.530064
 20
24.791453
 30
0.0
 11
146.914243
 21
27.273527
 31
0.0
  0
LINE
  5
3c8
100
AcDbEntity
  8
S
 62
7
100
AcDbLine
 10
146.914243
 20
27.273527
 30
0.0
 11
149.194893
 21
29.851003
 31
0.0
  0
LINE
  5
3c9
100
AcDbEntity
  8
S
 62
7
100
AcDbLine
 10
149.194893
 20
29.851003
 30
0.0
 11
151.368543
 21
32.519346
 31
0.0
  0
LINE
  5
3ca
100
AcDbEntity
  8
S
 62
7
100
AcDbLine
 10
151.368543
 20
32.519346
 30
0.0
 11
153.432078
 21
35.273804
 31
0.0
  0
LINE
  5
3cb
100
AcDbEntity
  8
S
 62
7
100
AcDbLine
 10
153.432078
 20
35.273804
 30
0.0
 11
155.382378
 21
38.109627
 31
0.0
  0
LINE
  5
3cc
100
AcDbEntity
  8
S
 62
7
100
AcDbLine
 10
155.382378
 20
38.109627
 30
0.0
 11
157.216325
 21
41.022064
 31
0.0
  0
LINE
  5
3cd
100
AcDbEntity
  8
S
 62
7
100
AcDbLine
 10
157.216325
 20
41.022064
 30
0.0
 11
158.930806
 21
44.006366
 31
0.0
  0
LINE
  5
3ce
100
AcDbEntity
  8
S
 62
7
100
AcDbLine
 10
158.930806
 20
44.006366
 30
0.0
 11
160.522694
 21
47.057781
 31
0.0
  0
LINE
  5
3cf
100
AcDbEntity
  8
S
 62
7
100
AcDbLine
 10
160.522694
 20
47.057781
 30
0.0
 11
161.988878
 21
50.171562
 31
0.0
  0
LINE
  5
3d0
100
AcDbEntity
  8
S
 62
7
100
AcDbLine
 10
161.988878
 20
50.171562
 30
0.0
 11
163.326465
 21
53.342692
 31
0.0
  0
LINE
  5
3d1
100
AcDbEntity
  8
S
 62
7
100
AcDbLine
 10
163.326465
 20
53.342692
 30
0.0
 11
164.533670
 21
56.565676
 31
0.0
  0
LINE
  5
3d2
100
AcDbEntity
  8
S
 62
7
100
AcDbLine
 10
164.533670
 20
56.565676
 30
0.0
 11
165.609050
 21
59.835028
 31
0.0
  0
LINE
  5
3d3
100
AcDbEntity
  8
S
 62
7
100
AcDbLine
 10
165.609050
 20
59.835028
 30
0.0
 11
166.551156
 21
63.145272
 31
0.0
  0
LINE
  5
3d4
100
AcDbEntity
  8
S
 62
7
100
AcDbLine
 10
166.551156
 20
63.145272
 30
0.0
 11
167.358543
 21
66.490926
 31
0.0
  0
LINE
  5
3d5
100
AcDbEntity
  8
S
 62
7
100
AcDbLine
 10
167.358543
 20
66.490926
 30
0.0
 11
168.029757
 21
69.866516
 31
0.0
  0
LINE
  5
3d6
100
AcDbEntity
  8
S
 62
7
100
AcDbLine
 10
168.029757
 20
69.866516
 30
0.0
 11
168.563358
 21
73.266554
 31
0.0
  0
LINE
  5
3d7
100
AcDbEntity
  8
S
 62
7
100
AcDbLine
 10
168.563358
 20
73.266554
 30
0.0
 11
168.957893
 21
76.685566
 31
0.0
  0
LINE
  5
3d8
100
AcDbEntity
  8
S
 62
7
100
AcDbLine
 10
168.957893
 20
76.685566
 30
0.0
 11
169.212218
 21
80.117874
 31
0.0
  0
LINE
  5
3d9
100
AcDbEntity
  8
S
 62
7
100
AcDbLine
 10
169.212218
 20
80.117874
 30
0.0
 11
169.326408
 21
83.557677
 31
0.0
  0
LINE
  5
3da
100
AcDbEntity
  8
S
 62
7
100
AcDbLine
 10
169.326408
 20
83.557677
 30
0.0
 11
169.300838
 21
86.999315
 31
0.0
  0
LINE
  5
3db
100
AcDbEntity
  8
S
 62
7
100
AcDbLine
 10
169.300838
 20
86.999315
 30
0.0
 11
169.135916
 21
90.437126
 31
0.0
  0
LINE
  5
3dc
100
AcDbEntity
  8
S
 62
7
100
AcDbLine
 10
169.135916
 20
90.437126
 30
0.0
 11
168.832022
 21
93.865449
 31
0.0
  0
LINE
  5
3dd
100
AcDbEntity
  8
S
 62
7
100
AcDbLine
 10
168.832022
 20
93.865449
 30
0.0
 11
168.389540
 21
97.278622
 31
0.0
  0
LINE
  5
3de
100
AcDbEntity
  8
S
 62
7
100
AcDbLine
 10
168.389540
 20
97.278622
 30
0.0
 11
167.808859
 21
100.670981
 31
0.0
  0
LINE
  5
3df
100
AcDbEntity
  8
S
 62
7
100
AcDbLine
 10
167.808859
 20
100.670981
 30
0.0
 11
167.090364
 21
104.036870
 31
0.0
  0
LINE
  5
3e0
100
AcDbEntity
  8
S
 62
7
100
AcDbLine
 10
167.090364
 20
104.036870
 30
0.0
 11
166.234832
 21
107.370536
 31
0.0
  0
LINE
  5
3e1
100
AcDbEntity
  8
S
 62
7
100
AcDbLine
 10
166.234832
 20
107.370536
 30
0.0
 11
165.244117
 21
110.666510
 31
0.0
  0
LINE
  5
3e2
100
AcDbEntity
  8
S
 62
7
100
AcDbLine
 10
165.244117
 20
110.666510
 30
0.0
 11
164.120390
 21
113.919556
 31
0.0
  0
LINE
  5
3e3
100
AcDbEntity
  8
S
 62
7
100
AcDbLine
 10
164.120390
 20
113.919556
 30
0.0
 11
162.865819
 21
117.124432
 31
0.0
  0
LINE
  5
3e4
100
AcDbEntity
  8
S
 62
7
100
AcDbLine
 10
162.865819
 20
117.124432
 30
0.0
 11
161.482580
 21
120.275903
 31
0.0
  0
LINE
  5
3e5
100
AcDbEntity
  8
S
 62
7
100
AcDbLine
 10
161.482580
 20
120.275903
 30
0.0
 11
159.972841
 21
123.368731
 31
0.0
  0
LINE
  5
3e6
100
AcDbEntity
  8
S
 62
7
100
AcDbLine
 10
159.972841
 20
123.368731
 30
0.0
 11
158.338771
 21
126.397673
 31
0.0
  0
LINE
  5
3e7
100
AcDbEntity
  8
S
 62
7
100
AcDbLine
 10
158.338771
 20
126.397673
 30
0.0
 11
156.582547
 21
129.357495
 31
0.0
  0
LINE
  5
3e8
100
AcDbEntity
  8
S
 62
7
100
AcDbLine
 10
156.582547
 20
129.357495
 30
0.0
 11
156.413443
 21
129.592767
 31
0.0
  0
LINE
  5
3e9
100
AcDbEntity
  8
S
 62
7
100
AcDbLine
 10
156.413443
 20
129.592767
 30
0.0
 11
156.215261
 21
129.803864
 31
0.0
  0
LINE
  5
3ea
100
AcDbEntity
  8
S
 62
7
100
AcDbLine
 10
156.215261
 20
129.803864
 30
0.0
 11
155.991978
 21
129.988561
 31
0.0
  0
LINE
  5
3eb
100
AcDbEntity
  8
S
 62
7
100
AcDbLine
 10
155.991978
 20
129.988561
 30
0.0
 11
155.747579
 21
130.144644
 31
0.0
  0
LINE
  5
3ec
100
AcDbEntity
  8
S
 62
7
100
AcDbLine
 10
155.747579
 20
130.144644
 30
0.0
 11
155.486041
 21
130.269889
 31
0.0
  0
LINE
  5
3ed
100
AcDbEntity
  8
S
 62
7
100
AcDbLine
 10
155.486041
 20
130.269889
 30
0.0
 11
155.211345
 21
130.362082
 31
0.0
  0
LINE
  5
3ee
100
AcDbEntity
  8
S
 62
7
100
AcDbLine
 10
155.211345
 20
130.362082
 30
0.0
 11
154.927478
 21
130.419001
 31
0.0
  0
LINE
  5
3ef
100
AcDbEntity
  8
S
 62
7
100
AcDbLine
 10
154.927478
 20
130.419001
 30
0.0
 11
154.638412
 21
130.438418
 31
0.0
  0
LINE
  5
3f0
100
AcDbEntity
  8
S
 62
7
100
AcDbLine
 10
154.638412
 20
130.438418
 30
0.0
 11
149.910913
 21
130.438418
 31
0.0
  0
LINE
  5
3f1
100
AcDbEntity
  8
S
 62
7
100
AcDbLine
 10
149.910913
 20
130.438418
 30
0.0
 11
145.183417
 21
130.438418
 31
0.0
  0
LINE
  5
3f2
100
AcDbEntity
  8
S
 62
7
100
AcDbLine
 10
145.183417
 20
130.438418
 30
0.0
 11
140.455918
 21
130.438418
 31
0.0
  0
LINE
  5
3f3
100
AcDbEntity
  8
S
 62
7
100
AcDbLine
 10
140.455918
 20
130.438418
 30
0.0
 11
135.728419
 21
130.438418
 31
0.0
  0
LINE
  5
3f4
100
AcDbEntity
  8
S
 62
7
100
AcDbLine
 10
135.728419
 20
130.438418
 30
0.0
 11
131.000923
 21
130.438418
 31
0.0
  0
LINE
  5
3f5
100
AcDbEntity
  8
S
 62
7
100
AcDbLine
 10
131.000923
 20
130.438418
 30
0.0
 11
126.273425
 21
130.438418
 31
0.0
  0
LINE
  5
3f6
100
AcDbEntity
  8
S
 62
7
100
AcDbLine
 10
126.273425
 20
130.438418
 30
0.0
 11
121.545929
 21
130.438418
 31
0.0
  0
LINE
  5
3f7
100
AcDbEntity
  8
S
 62
7
100
AcDbLine
 10
121.545929
 20
130.438418
 30
0.0
 11
116.818430
 21
130.438418
 31
0.0
  0
LINE
  5
3f8
100
AcDbEntity
  8
S
 62
7
100
AcDbLine
 10
116.818430
 20
130.438418
 30
0.0
 11
116.594247
 21
130.427016
 31
0.0
  0
LINE
  5
3f9
100
AcDbEntity
  8
S
 62
7
100
AcDbLine
 10
116.594247
 20
130.427016
 30
0.0
 11
116.372372
 21
130.393296
 31
0.0
  0
LINE
  5
3fa
100
AcDbEntity
  8
S
 62
7
100
AcDbLine
 10
116.372372
 20
130.393296
 30
0.0
 11
116.154779
 21
130.338079
 31
0.0
  0
LINE
  5
3fb
100
AcDbEntity
  8
S
 62
7
100
AcDbLine
 10
116.154779
 20
130.338079
 30
0.0
 11
115.943439
 21
130.262181
 31
0.0
  0
LINE
  5
3fc
100
AcDbEntity
  8
S
 62
7
100
AcDbLine
 10
115.943439
 20
130.262181
 30
0.0
 11
115.740324
 21
130.166420
 31
0.0
  0
LINE
  5
3fd
100
AcDbEntity
  8
S
 62
7
100
AcDbLine
 10
115.740324
 20
130.166420
 30
0.0
 11
115.547408
 21
130.051618
 31
0.0
  0
LINE
  5
3fe
100
AcDbEntity
  8
S
 62
7
100
AcDbLine
 10
115.547408
 20
130.051618
 30
0.0
 11
115.366665
 21
129.918587
 31
0.0
  0
LINE
  5
3ff
100
AcDbEntity
  8
S
 62
7
100
AcDbLine
 10
115.366665
 20
129.918587
 30
0.0
 11
115.200060
 21
129.768146
 31
0.0
  0
LINE
  5
400
100
AcDbEntity
  8
S
 62
7
100
AcDbLine
 10
115.200060
 20
129.768146
 30
0.0
 11
113.911594
 21
128.479542
 31
0.0
  0
LINE
  5
401
100
AcDbEntity
  8
S
 62
7
100
AcDbLine
 10
113.911594
 20
128.479542
 30
0.0
 11
112.623129
 21
127.190937
 31
0.0
  0
LINE
  5
402
100
AcDbEntity
  8
S
 62
7
100
AcDbLine
 10
112.623129
 20
127.190937
 30
0.0
 11
111.334663
 21
125.902336
 31
0.0
  0
LINE
  5
403
100
AcDbEntity
  8
S
 62
7
100
AcDbLine
 10
111.334663
 20
125.902336
 30
0.0
 11
110.046197
 21
124.613732
 31
0.0
  0
LINE
  5
404
100
AcDbEntity
  8
S
 62
7
100
AcDbLine
 10
110.046197
 20
124.613732
 30
0.0
 11
108.757734
 21
123.325128
 31
0.0
  0
LINE
  5
405
100
AcDbEntity
  8
S
 62
7
100
AcDbLine
 10
108.757734
 20
123.325128
 30
0.0
 11
107.469268
 21
122.036527
 31
0.0
  0
LINE
  5
406
100
AcDbEntity
  8
S
 62
7
100
AcDbLine
 10
107.469268
 20
122.036527
 30
0.0
 11
106.180803
 21
120.747923
 31
0.0
  0
LINE
  5
407
100
AcDbEntity
  8
S
 62
7
100
AcDbLine
 10
106.180803
 20
120.747923
 30
0.0
 11
104.892337
 21
119.459319
 31
0.0
  0
LINE
  5
408
100
AcDbEntity
  8
S
 62
7
100
AcDbLine
 10
104.892337
 20
119.459319
 30
0.0
 11
104.589030
 21
119.762626
 31
0.0
  0
LINE
  5
409
100
AcDbEntity
  8
S
 62
7
100
AcDbLine
 10
104.589030
 20
119.762626
 30
0.0
 11
104.285725
 21
120.065930
 31
0.0
  0
LINE
  5
40a
100
AcDbEntity
  8
S
 62
7
100
AcDbLine
 10
104.285725
 20
120.065930
 30
0.0
 11
103.982418
 21
120.369237
 31
0.0
  0
LINE
  5
40b
100
AcDbEntity
  8
S
 62
7
100
AcDbLine
 10
103.982418
 20
120.369237
 30
0.0
 11
103.679111
 21
120.672544
 31
0.0
  0
LINE
  5
40c
100
AcDbEntity
  8
S
 62
7
100
AcDbLine
 10
103.679111
 20
120.672544
 30
0.0
 11
103.375804
 21
120.975851
 31
0.0
  0
LINE
  5
40d
100
AcDbEntity
  8
S
 62
7
100
AcDbLine
 10
103.375804
 20
120.975851
 30
0.0
 11
103.072497
 21
121.279158
 31
0.0
  0
LINE
  5
40e
100
AcDbEntity
  8
S
 62
7
100
AcDbLine
 10
103.072497
 20
121.279158
 30
0.0
 11
102.769193
 21
121.582462
 31
0.0
  0
LINE
  5
40f
100
AcDbEntity
  8
S
 62
7
100
AcDbLine
 10
102.769193
 20
121.582462
 30
0.0
 11
102.465886
 21
121.885769
 31
0.0
  0
LINE
  5
410
100
AcDbEntity
  8
S
 62
7
100
AcDbLine
 10
102.465886
 20
121.885769
 30
0.0
 11
102.172635
 21
122.244790
 31
0.0
  0
LINE
  5
411
100
AcDbEntity
  8
S
 62
7
100
AcDbLine
 10
102.172635
 20
122.244790
 30
0.0
 11
101.963169
 21
122.642873
 31
0.0
  0
LINE
  5
412
100
AcDbEntity
  8
S
 62
7
100
AcDbLine
 10
101.963169
 20
122.642873
 30
0.0
 11
101.837493
 21
123.066996
 31
0.0
  0
LINE
  5
413
100
AcDbEntity
  8
S
 62
7
100
AcDbLine
 10
101.837493
 20
123.066996
 30
0.0
 11
101.795600
 21
123.504142
 31
0.0
  0
LINE
  5
414
100
AcDbEntity
  8
S
 62
7
100
AcDbLine
 10
101.795600
 20
123.504142
 30
0.0
 11
101.837493
 21
123.941284
 31
0.0
  0
LINE
  5
415
100
AcDbEntity
  8
S
 62
7
100
AcDbLine
 10
101.837493
 20
123.941284
 30
0.0
 11
101.963172
 21
124.365405
 31
0.0
  0
LINE
  5
416
100
AcDbEntity
  8
S
 62
7
100
AcDbLine
 10
101.963172
 20
124.365405
 30
0.0
 11
102.172637
 21
124.763488
 31
0.0
  0
LINE
  5
417
100
AcDbEntity
  8
S
 62
7
100
AcDbLine
 10
102.172637
 20
124.763488
 30
0.0
 11
102.465886
 21
125.122505
 31
0.0
  0
LINE
  5
418
100
AcDbEntity
  8
S
 62
7
100
AcDbLine
 10
102.465886
 20
125.122505
 30
0.0
 11
102.759118
 21
125.481501
 31
0.0
  0
LINE
  5
419
100
AcDbEntity
  8
S
 62
7
100
AcDbLine
 10
102.759118
 20
125.481501
 30
0.0
 11
102.968569
 21
125.879521
 31
0.0
  0
LINE
  5
41a
100
AcDbEntity
  8
S
 62
7
100
AcDbLine
 10
102.968569
 20
125.879521
 30
0.0
 11
103.094240
 21
126.303557
 31
0.0
  0
LINE
  5
41b
100
AcDbEntity
  8
S
 62
7
100
AcDbLine
 10
103.094240
 20
126.303557
 30
0.0
 11
103.136130
 21
126.740601
 31
0.0
  0
LINE
  5
41c
100
AcDbEntity
  8
S
 62
7
100
AcDbLine
 10
103.136130
 20
126.740601
 30
0.0
 11
103.094240
 21
127.177645
 31
0.0
  0
LINE
  5
41d
100
AcDbEntity
  8
S
 62
7
100
AcDbLine
 10
103.094240
 20
127.177645
 30
0.0
 11
102.968569
 21
127.601678
 31
0.0
  0
LINE
  5
41e
100
AcDbEntity
  8
S
 62
7
100
AcDbLine
 10
102.968569
 20
127.601678
 30
0.0
 11
102.759118
 21
127.999696
 31
0.0
  0
LINE
  5
41f
100
AcDbEntity
  8
S
 62
7
100
AcDbLine
 10
102.759118
 20
127.999696
 30
0.0
 11
102.465886
 21
128.358688
 31
0.0
  0
LINE
  5
420
100
AcDbEntity
  8
S
 62
7
100
AcDbLine
 10
102.465886
 20
128.358688
 30
0.0
 11
100.443270
 21
130.381510
 31
0.0
  0
LINE
  5
421
100
AcDbEntity
  8
S
 62
7
100
AcDbLine
 10
100.443270
 20
130.381510
 30
0.0
 11
98.420657
 21
132.404333
 31
0.0
  0
LINE
  5
422
100
AcDbEntity
  8
S
 62
7
100
AcDbLine
 10
98.420657
 20
132.404333
 30
0.0
 11
96.398040
 21
134.427155
 31
0.0
  0
LINE
  5
423
100
AcDbEntity
  8
S
 62
7
100
AcDbLine
 10
96.398040
 20
134.427155
 30
0.0
 11
94.375424
 21
136.449977
 31
0.0
  0
LINE
  5
424
100
AcDbEntity
  8
S
 62
7
100
AcDbLine
 10
94.375424
 20
136.449977
 30
0.0
 11
92.352808
 21
138.472799
 31
0.0
  0
LINE
  5
425
100
AcDbEntity
  8
S
 62
7
100
AcDbLine
 10
92.352808
 20
138.472799
 30
0.0
 11
90.330192
 21
140.495624
 31
0.0
  0
LINE
  5
426
100
AcDbEntity
  8
S
 62
7
100
AcDbLine
 10
90.330192
 20
140.495624
 30
0.0
 11
88.307579
 21
142.518445
 31
0.0
  0
LINE
  5
427
100
AcDbEntity
  8
S
 62
7
100
AcDbLine
 10
88.307579
 20
142.518445
 30
0.0
 11
86.284963
 21
144.541267
 31
0.0
  0
LINE
  5
428
100
AcDbEntity
  8
S
 62
7
100
AcDbLine
 10
86.284963
 20
144.541267
 30
0.0
 11
85.925945
 21
144.834618
 31
0.0
  0
LINE
  5
429
100
AcDbEntity
  8
S
 62
7
100
AcDbLine
 10
85.925945
 20
144.834618
 30
0.0
 11
85.527865
 21
145.044154
 31
0.0
  0
LINE
  5
42a
100
AcDbEntity
  8
S
 62
7
100
AcDbLine
 10
85.527865
 20
145.044154
 30
0.0
 11
85.103741
 21
145.169876
 31
0.0
  0
LINE
  5
42b
100
AcDbEntity
  8
S
 62
7
100
AcDbLine
 10
85.103741
 20
145.169876
 30
0.0
 11
84.666596
 21
145.211783
 31
0.0
  0
LINE
  5
42c
100
AcDbEntity
  8
S
 62
7
100
AcDbLine
 10
84.666596
 20
145.211783
 30
0.0
 11
84.229451
 21
145.169876
 31
0.0
  0
LINE
  5
42d
100
AcDbEntity
  8
S
 62
7
100
AcDbLine
 10
84.229451
 20
145.169876
 30
0.0
 11
83.805324
 21
145.044154
 31
0.0
  0
LINE
  5
42e
100
AcDbEntity
  8
S
 62
7
100
AcDbLine
 10
83.805324
 20
145.044154
 30
0.0
 11
83.407244
 21
144.834618
 31
0.0
  0
LINE
  5
42f
100
AcDbEntity
  8
S
 62
7
100
AcDbLine
 10
83.407244
 20
144.834618
 30
0.0
 11
83.048224
 21
144.541267
 31
0.0
  0
LINE
  5
430
100
AcDbEntity
  8
S
 62
7
100
AcDbLine
 10
83.048224
 20
144.541267
 30
0.0
 11
81.142329
 21
142.635234
 31
0.0
  0
LINE
  5
431
100
AcDbEntity
  8
S
 62
7
100
AcDbLine
 10
81.142329
 20
142.635234
 30
0.0
 11
79.236432
 21
140.729200
 31
0.0
  0
LINE
  5
432
100
AcDbEntity
  8
S
 62
7
100
AcDbLine
 10
79.236432
 20
140.729200
 30
0.0
 11
77.330537
 21
138.823167
 31
0.0
  0
LINE
  5
433
100
AcDbEntity
  8
S
 62
7
100
AcDbLine
 10
77.330537
 20
138.823167
 30
0.0
 11
75.424640
 21
136.917134
 31
0.0
  0
LINE
  5
434
100
AcDbEntity
  8
S
 62
7
100
AcDbLine
 10
75.424640
 20
136.917134
 30
0.0
 11
73.518745
 21
135.011101
 31
0.0
  0
LINE
  5
435
100
AcDbEntity
  8
S
 62
7
100
AcDbLine
 10
73.518745
 20
135.011101
 30
0.0
 11
71.612850
 21
133.105065
 31
0.0
  0
LINE
  5
436
100
AcDbEntity
  8
S
 62
7
100
AcDbLine
 10
71.612850
 20
133.105065
 30
0.0
 11
69.706953
 21
131.199032
 31
0.0
  0
LINE
  5
437
100
AcDbEntity
  8
S
 62
7
100
AcDbLine
 10
69.706953
 20
131.199032
 30
0.0
 11
67.801058
 21
129.292999
 31
0.0
  0
LINE
  5
438
100
AcDbEntity
  8
S
 62
7
100
AcDbLine
 10
67.801058
 20
129.292999
 30
0.0
 11
67.600965
 21
129.064425
 31
0.0
  0
LINE
  5
439
100
AcDbEntity
  8
S
 62
7
100
AcDbLine
 10
67.600965
 20
129.064425
 30
0.0
 11
67.434920
 21
128.814785
 31
0.0
  0
LINE
  5
43a
100
AcDbEntity
  8
S
 62
7
100
AcDbLine
 10
67.434920
 20
128.814785
 30
0.0
 11
67.303907
 21
128.547791
 31
0.0
  0
LINE
  5
43b
100
AcDbEntity
  8
S
 62
7
100
AcDbLine
 10
67.303907
 20
128.547791
 30
0.0
 11
67.208922
 21
128.267164
 31
0.0
  0
LINE
  5
43c
100
AcDbEntity
  8
S
 62
7
100
AcDbLine
 10
67.208922
 20
128.267164
 30
0.0
 11
67.150954
 21
127.976619
 31
0.0
  0
LINE
  5
43d
100
AcDbEntity
  8
S
 62
7
100
AcDbLine
 10
67.150954
 20
127.976619
 30
0.0
 11
67.131001
 21
127.679871
 31
0.0
  0
LINE
  5
43e
100
AcDbEntity
  8
S
 62
7
100
AcDbLine
 10
67.131001
 20
127.679871
 30
0.0
 11
67.150022
 21
127.380633
 31
0.0
  0
LINE
  5
43f
100
AcDbEntity
  8
S
 62
7
100
AcDbLine
 10
67.150022
 20
127.380633
 30
0.0
 11
67.209049
 21
127.082626
 31
0.0
  0
LINE
  5
440
100
AcDbEntity
  8
S
 62
7
100
AcDbLine
 10
67.209049
 20
127.082626
 30
0.0
 11
68.222664
 21
123.299635
 31
0.0
  0
LINE
  5
441
100
AcDbEntity
  8
S
 62
7
100
AcDbLine
 10
68.222664
 20
123.299635
 30
0.0
 11
69.236282
 21
119.516646
 31
0.0
  0
LINE
  5
442
100
AcDbEntity
  8
S
 62
7
100
AcDbLine
 10
69.236282
 20
119.516646
 30
0.0
 11
70.249898
 21
115.733655
 31
0.0
  0
LINE
  5
443
100
AcDbEntity
  8
S
 62
7
100
AcDbLine
 10
70.249898
 20
115.733655
 30
0.0
 11
71.263513
 21
111.950664
 31
0.0
  0
LINE
  5
444
100
AcDbEntity
  8
S
 62
7
100
AcDbLine
 10
71.263513
 20
111.950664
 30
0.0
 11
72.277128
 21
108.167672
 31
0.0
  0
LINE
  5
445
100
AcDbEntity
  8
S
 62
7
100
AcDbLine
 10
72.277128
 20
108.167672
 30
0.0
 11
73.290743
 21
104.384681
 31
0.0
  0
LINE
  5
446
100
AcDbEntity
  8
S
 62
7
100
AcDbLine
 10
73.290743
 20
104.384681
 30
0.0
 11
74.304361
 21
100.601693
 31
0.0
  0
LINE
  5
447
100
AcDbEntity
  8
S
 62
7
100
AcDbLine
 10
74.304361
 20
100.601693
 30
0.0
 11
75.317977
 21
96.818701
 31
0.0
  0
LINE
  5
448
100
AcDbEntity
  8
S
 62
7
100
AcDbLine
 10
75.317977
 20
96.818701
 30
0.0
 11
75.398286
 21
96.190963
 31
0.0
  0
LINE
  5
449
100
AcDbEntity
  8
S
 62
7
100
AcDbLine
 10
75.398286
 20
96.190963
 30
0.0
 11
75.311785
 21
95.598674
 31
0.0
  0
LINE
  5
44a
100
AcDbEntity
  8
S
 62
7
100
AcDbLine
 10
75.311785
 20
95.598674
 30
0.0
 11
75.080368
 21
95.063733
 31
0.0
  0
LINE
  5
44b
100
AcDbEntity
  8
S
 62
7
100
AcDbLine
 10
75.080368
 20
95.063733
 30
0.0
 11
74.725917
 21
94.608040
 31
0.0
  0
LINE
  5
44c
100
AcDbEntity
  8
S
 62
7
100
AcDbLine
 10
74.725917
 20
94.608040
 30
0.0
 11
74.270328
 21
94.253496
 31
0.0
  0
LINE
  5
44d
100
AcDbEntity
  8
S
 62
7
100
AcDbLine
 10
74.270328
 20
94.253496
 30
0.0
 11
73.735486
 21
94.022003
 31
0.0
  0
LINE
  5
44e
100
AcDbEntity
  8
S
 62
7
100
AcDbLine
 10
73.735486
 20
94.022003
 30
0.0
 11
73.143279
 21
93.935463
 31
0.0
  0
LINE
  5
44f
100
AcDbEntity
  8
S
 62
7
100
AcDbLine
 10
73.143279
 20
93.935463
 30
0.0
 11
72.515597
 21
94.015772
 31
0.0
  0
LINE
  5
450
100
AcDbEntity
  8
S
 62
7
100
AcDbLine
 10
72.515597
 20
94.015772
 30
0.0
 11
68.732744
 21
95.029457
 31
0.0
  0
LINE
  5
451
100
AcDbEntity
  8
S
 62
7
100
AcDbLine
 10
68.732744
 20
95.029457
 30
0.0
 11
64.949891
 21
96.043143
 31
0.0
  0
LINE
  5
452
100
AcDbEntity
  8
S
 62
7
100
AcDbLine
 10
64.949891
 20
96.043143
 30
0.0
 11
61.167038
 21
97.056826
 31
0.0
  0
LINE
  5
453
100
AcDbEntity
  8
S
 62
7
100
AcDbLine
 10
61.167038
 20
97.056826
 30
0.0
 11
57.384188
 21
98.070512
 31
0.0
  0
LINE
  5
454
100
AcDbEntity
  8
S
 62
7
100
AcDbLine
 10
57.384188
 20
98.070512
 30
0.0
 11
53.601335
 21
99.084198
 31
0.0
  0
LINE
  5
455
100
AcDbEntity
  8
S
 62
7
100
AcDbLine
 10
53.601335
 20
99.084198
 30
0.0
 11
49.818482
 21
100.097881
 31
0.0
  0
LINE
  5
456
100
AcDbEntity
  8
S
 62
7
100
AcDbLine
 10
49.818482
 20
100.097881
 30
0.0
 11
46.035629
 21
101.111566
 31
0.0
  0
LINE
  5
457
100
AcDbEntity
  8
S
 62
7
100
AcDbLine
 10
46.035629
 20
101.111566
 30
0.0
 11
42.252776
 21
102.125252
 31
0.0
  0
LINE
  5
458
100
AcDbEntity
  8
S
 62
7
100
AcDbLine
 10
42.252776
 20
102.125252
 30
0.0
 11
41.954814
 21
102.184200
 31
0.0
  0
LINE
  5
459
100
AcDbEntity
  8
S
 62
7
100
AcDbLine
 10
41.954814
 20
102.184200
 30
0.0
 11
41.655588
 21
102.203137
 31
0.0
  0
LINE
  5
45a
100
AcDbEntity
  8
S
 62
7
100
AcDbLine
 10
41.655588
 20
102.203137
 30
0.0
 11
41.358826
 21
102.183071
 31
0.0
  0
LINE
  5
45b
100
AcDbEntity
  8
S
 62
7
100
AcDbLine
 10
41.358826
 20
102.183071
 30
0.0
 11
41.068252
 21
102.125001
 31
0.0
  0
LINE
  5
45c
100
AcDbEntity
  8
S
 62
7
100
AcDbLine
 10
41.068252
 20
102.125001
 30
0.0
 11
40.787599
 21
102.029929
 31
0.0
  0
LINE
  5
45d
100
AcDbEntity
  8
S
 62
7
100
AcDbLine
 10
40.787599
 20
102.029929
 30
0.0
 11
40.520586
 21
101.898854
 31
0.0
  0
LINE
  5
45e
100
AcDbEntity
  8
S
 62
7
100
AcDbLine
 10
40.520586
 20
101.898854
 30
0.0
 11
40.270946
 21
101.732774
 31
0.0
  0
LINE
  5
45f
100
AcDbEntity
  8
S
 62
7
100
AcDbLine
 10
40.270946
 20
101.732774
 30
0.0
 11
40.042403
 21
101.532690
 31
0.0
  0
LINE
  5
460
100
AcDbEntity
  8
S
 62
7
100
AcDbLine
 10
40.042403
 20
101.532690
 30
0.0
 11
38.136508
 21
99.626725
 31
0.0
  0
LINE
  5
461
100
AcDbEntity
  8
S
 62
7
100
AcDbLine
 10
38.136508
 20
99.626725
 30
0.0
 11
36.230611
 21
97.720760
 31
0.0
  0
LINE
  5
462
100
AcDbEntity
  8
S
 62
7
100
AcDbLine
 10
36.230611
 20
97.720760
 30
0.0
 11
34.324716
 21
95.814797
 31
0.0
  0
LINE
  5
463
100
AcDbEntity
  8
S
 62
7
100
AcDbLine
 10
34.324716
 20
95.814797
 30
0.0
 11
32.418822
 21
93.908832
 31
0.0
  0
LINE
  5
464
100
AcDbEntity
  8
S
 62
7
100
AcDbLine
 10
32.418822
 20
93.908832
 30
0.0
 11
30.512924
 21
92.002867
 31
0.0
  0
LINE
  5
465
100
AcDbEntity
  8
S
 62
7
100
AcDbLine
 10
30.512924
 20
92.002867
 30
0.0
 11
28.607029
 21
90.096904
 31
0.0
  0
LINE
  5
466
100
AcDbEntity
  8
S
 62
7
100
AcDbLine
 10
28.607029
 20
90.096904
 30
0.0
 11
26.701133
 21
88.190939
 31
0.0
  0
LINE
  5
467
100
AcDbEntity
  8
S
 62
7
100
AcDbLine
 10
26.701133
 20
88.190939
 30
0.0
 11
24.795238
 21
86.284974
 31
0.0
  0
LINE
  5
468
100
AcDbEntity
  8
S
 62
7
100
AcDbLine
 10
24.795238
 20
86.284974
 30
0.0
 11
24.501905
 21
85.925942
 31
0.0
  0
LINE
  5
469
100
AcDbEntity
  8
S
 62
7
100
AcDbLine
 10
24.501905
 20
85.925942
 30
0.0
 11
24.292381
 21
85.527856
 31
0.0
  0
LINE
  5
46a
100
AcDbEntity
  8
S
 62
7
100
AcDbLine
 10
24.292381
 20
85.527856
 30
0.0
 11
24.166667
 21
85.103739
 31
0.0
  0
LINE
  5
46b
100
AcDbEntity
  8
S
 62
7
100
AcDbLine
 10
24.166667
 20
85.103739
 30
0.0
 11
24.124763
 21
84.666602
 31
0.0
  0
LINE
  5
46c
100
AcDbEntity
  8
S
 62
7
100
AcDbLine
 10
24.124763
 20
84.666602
 30
0.0
 11
24.166667
 21
84.229468
 31
0.0
  0
LINE
  5
46d
100
AcDbEntity
  8
S
 62
7
100
AcDbLine
 10
24.166667
 20
84.229468
 30
0.0
 11
24.292381
 21
83.805347
 31
0.0
  0
LINE
  5
46e
100
AcDbEntity
  8
S
 62
7
100
AcDbLine
 10
24.292381
 20
83.805347
 30
0.0
 11
24.501905
 21
83.407264
 31
0.0
  0
LINE
  5
46f
100
AcDbEntity
  8
S
 62
7
100
AcDbLine
 10
24.501905
 20
83.407264
 30
0.0
 11
24.795238
 21
83.048235
 31
0.0
  0
LINE
  5
470
100
AcDbEntity
  8
S
 62
7
100
AcDbLine
 10
24.795238
 20
83.048235
 30
0.0
 11
26.817922
 21
81.025481
 31
0.0
  0
LINE
  5
471
100
AcDbEntity
  8
S
 62
7
100
AcDbLine
 10
26.817922
 20
81.025481
 30
0.0
 11
28.840608
 21
79.002729
 31
0.0
  0
LINE
  5
472
100
AcDbEntity
  8
S
 62
7
100
AcDbLine
 10
28.840608
 20
79.002729
 30
0.0
 11
30.863292
 21
76.979975
 31
0.0
  0
LINE
  5
473
100
AcDbEntity
  8
S
 62
7
100
AcDbLine
 10
30.863292
 20
76.979975
 30
0.0
 11
32.885975
 21
74.957223
 31
0.0
  0
LINE
  5
474
100
AcDbEntity
  8
S
 62
7
100
AcDbLine
 10
32.885975
 20
74.957223
 30
0.0
 11
34.908659
 21
72.934469
 31
0.0
  0
LINE
  5
475
100
AcDbEntity
  8
S
 62
7
100
AcDbLine
 10
34.908659
 20
72.934469
 30
0.0
 11
36.931346
 21
70.911714
 31
0.0
  0
LINE
  5
476
100
AcDbEntity
  8
S
 62
7
100
AcDbLine
 10
36.931346
 20
70.911714
 30
0.0
 11
38.954030
 21
68.888963
 31
0.0
  0
LINE
  5
477
100
AcDbEntity
  8
S
 62
7
100
AcDbLine
 10
38.954030
 20
68.888963
 30
0.0
 11
40.976714
 21
66.866208
 31
0.0
  0
LINE
  5
478
100
AcDbEntity
  8
S
 62
7
100
AcDbLine
 10
40.976714
 20
66.866208
 30
0.0
 11
41.335731
 21
66.572861
 31
0.0
  0
LINE
  5
479
100
AcDbEntity
  8
S
 62
7
100
AcDbLine
 10
41.335731
 20
66.572861
 30
0.0
 11
41.733811
 21
66.363328
 31
0.0
  0
LINE
  5
47a
100
AcDbEntity
  8
S
 62
7
100
AcDbLine
 10
41.733811
 20
66.363328
 30
0.0
 11
42.157935
 21
66.237609
 31
0.0
  0
LINE
  5
47b
100
AcDbEntity
  8
S
 62
7
100
AcDbLine
 10
42.157935
 20
66.237609
 30
0.0
 11
42.595080
 21
66.195702
 31
0.0
  0
LINE
  5
47c
100
AcDbEntity
  8
S
 62
7
100
AcDbLine
 10
42.595080
 20
66.195702
 30
0.0
 11
43.032226
 21
66.237609
 31
0.0
  0
LINE
  5
47d
100
AcDbEntity
  8
S
 62
7
100
AcDbLine
 10
43.032226
 20
66.237609
 30
0.0
 11
43.456349
 21
66.363328
 31
0.0
  0
LINE
  5
47e
100
AcDbEntity
  8
S
 62
7
100
AcDbLine
 10
43.456349
 20
66.363328
 30
0.0
 11
43.854432
 21
66.572861
 31
0.0
  0
LINE
  5
47f
100
AcDbEntity
  8
S
 62
7
100
AcDbLine
 10
43.854432
 20
66.572861
 30
0.0
 11
44.213450
 21
66.866208
 31
0.0
  0
LINE
  5
480
100
AcDbEntity
  8
S
 62
7
100
AcDbLine
 10
44.213450
 20
66.866208
 30
0.0
 11
44.572397
 21
67.159355
 31
0.0
  0
LINE
  5
481
100
AcDbEntity
  8
S
 62
7
100
AcDbLine
 10
44.572397
 20
67.159355
 30
0.0
 11
44.970350
 21
67.368745
 31
0.0
  0
LINE
  5
482
100
AcDbEntity
  8
S
 62
7
100
AcDbLine
 10
44.970350
 20
67.368745
 30
0.0
 11
45.394307
 21
67.494381
 31
0.0
  0
LINE
  5
483
100
AcDbEntity
  8
S
 62
7
100
AcDbLine
 10
45.394307
 20
67.494381
 30
0.0
 11
45.831266
 21
67.536258
 31
0.0
  0
LINE
  5
484
100
AcDbEntity
  8
S
 62
7
100
AcDbLine
 10
45.831266
 20
67.536258
 30
0.0
 11
46.268225
 21
67.494381
 31
0.0
  0
LINE
  5
485
100
AcDbEntity
  8
S
 62
7
100
AcDbLine
 10
46.268225
 20
67.494381
 30
0.0
 11
46.692182
 21
67.368745
 31
0.0
  0
LINE
  5
486
100
AcDbEntity
  8
S
 62
7
100
AcDbLine
 10
46.692182
 20
67.368745
 30
0.0
 11
47.090135
 21
67.159355
 31
0.0
  0
LINE
  5
487
100
AcDbEntity
  8
S
 62
7
100
AcDbLine
 10
47.090135
 20
67.159355
 30
0.0
 11
47.449082
 21
66.866208
 31
0.0
  0
LINE
  5
488
100
AcDbEntity
  8
S
 62
7
100
AcDbLine
 10
47.449082
 20
66.866208
 30
0.0
 11
47.752528
 21
66.562695
 31
0.0
  0
LINE
  5
489
100
AcDbEntity
  8
S
 62
7
100
AcDbLine
 10
47.752528
 20
66.562695
 30
0.0
 11
48.055970
 21
66.259182
 31
0.0
  0
LINE
  5
48a
100
AcDbEntity
  8
S
 62
7
100
AcDbLine
 10
48.055970
 20
66.259182
 30
0.0
 11
48.359416
 21
65.955669
 31
0.0
  0
LINE
  5
48b
100
AcDbEntity
  8
S
 62
7
100
AcDbLine
 10
48.359416
 20
65.955669
 30
0.0
 11
48.662858
 21
65.652159
 31
0.0
  0
LINE
  5
48c
100
AcDbEntity
  8
S
 62
7
100
AcDbLine
 10
48.662858
 20
65.652159
 30
0.0
 11
48.966303
 21
65.348646
 31
0.0
  0
LINE
  5
48d
100
AcDbEntity
  8
S
 62
7
100
AcDbLine
 10
48.966303
 20
65.348646
 30
0.0
 11
49.269749
 21
65.045133
 31
0.0
  0
LINE
  5
48e
100
AcDbEntity
  8
S
 62
7
100
AcDbLine
 10
49.269749
 20
65.045133
 30
0.0
 11
49.573191
 21
64.741620
 31
0.0
  0
LINE
  5
48f
100
AcDbEntity
  8
S
 62
7
100
AcDbLine
 10
49.573191
 20
64.741620
 30
0.0
 11
49.876637
 21
64.438107
 31
0.0
  0
LINE
  5
490
100
AcDbEntity
  8
S
 62
7
100
AcDbLine
 10
49.876637
 20
64.438107
 30
0.0
 11
49.342370
 21
63.903773
 31
0.0
  0
LINE
  5
491
100
AcDbEntity
  8
S
 62
7
100
AcDbLine
 10
49.342370
 20
63.903773
 30
0.0
 11
48.808104
 21
63.369438
 31
0.0
  0
LINE
  5
492
100
AcDbEntity
  8
S
 62
7
100
AcDbLine
 10
48.808104
 20
63.369438
 30
0.0
 11
48.273840
 21
62.835104
 31
0.0
  0
LINE
  5
493
100
AcDbEntity
  8
S
 62
7
100
AcDbLine
 10
48.273840
 20
62.835104
 30
0.0
 11
47.739574
 21
62.300770
 31
0.0
  0
LINE
  5
494
100
AcDbEntity
  8
S
 62
7
100
AcDbLine
 10
47.739574
 20
62.300770
 30
0.0
 11
47.205307
 21
61.766433
 31
0.0
  0
LINE
  5
495
100
AcDbEntity
  8
S
 62
7
100
AcDbLine
 10
47.205307
 20
61.766433
 30
0.0
 11
46.671041
 21
61.232099
 31
0.0
  0
LINE
  5
496
100
AcDbEntity
  8
S
 62
7
100
AcDbLine
 10
46.671041
 20
61.232099
 30
0.0
 11
46.136777
 21
60.697765
 31
0.0
  0
LINE
  5
497
100
AcDbEntity
  8
S
 62
7
100
AcDbLine
 10
46.136777
 20
60.697765
 30
0.0
 11
45.602511
 21
60.163431
 31
0.0
  0
LINE
  5
498
100
AcDbEntity
  8
S
 62
7
100
AcDbLine
 10
45.602511
 20
60.163431
 30
0.0
 11
45.435994
 21
60.013077
 31
0.0
  0
LINE
  5
499
100
AcDbEntity
  8
S
 62
7
100
AcDbLine
 10
45.435994
 20
60.013077
 30
0.0
 11
45.255363
 21
59.880102
 31
0.0
  0
LINE
  5
49a
100
AcDbEntity
  8
S
 62
7
100
AcDbLine
 10
45.255363
 20
59.880102
 30
0.0
 11
45.062589
 21
59.765328
 31
0.0
  0
LINE
  5
49b
100
AcDbEntity
  8
S
 62
7
100
AcDbLine
 10
45.062589
 20
59.765328
 30
0.0
 11
44.859626
 21
59.669570
 31
0.0
  0
LINE
  5
49c
100
AcDbEntity
  8
S
 62
7
100
AcDbLine
 10
44.859626
 20
59.669570
 30
0.0
 11
44.648447
 21
59.593655
 31
0.0
  0
LINE
  5
49d
100
AcDbEntity
  8
S
 62
7
100
AcDbLine
 10
44.648447
 20
59.593655
 30
0.0
 11
44.431015
 21
59.538402
 31
0.0
  0
LINE
  5
49e
100
AcDbEntity
  8
S
 62
7
100
AcDbLine
 10
44.431015
 20
59.538402
 30
0.0
 11
44.209295
 21
59.504625
 31
0.0
  0
LINE
  5
49f
100
AcDbEntity
  8
S
 62
7
100
AcDbLine
 10
44.209295
 20
59.504625
 30
0.0
 11
43.985248
 21
59.493139
 31
0.0
  0
LINE
  5
4a0
100
AcDbEntity
  8
S
 62
7
100
AcDbLine
 10
43.985248
 20
59.493139
 30
0.0
 11
42.516465
 21
59.493139
 31
0.0
  0
LINE
  5
4a1
100
AcDbEntity
  8
S
 62
7
100
AcDbLine
 10
42.516465
 20
59.493139
 30
0.0
 11
41.047684
 21
59.493139
 31
0.0
  0
LINE
  5
4a2
100
AcDbEntity
  8
S
 62
7
100
AcDbLine
 10
41.047684
 20
59.493139
 30
0.0
 11
39.578901
 21
59.493139
 31
0.0
  0
LINE
  5
4a3
100
AcDbEntity
  8
S
 62
7
100
AcDbLine
 10
39.578901
 20
59.493139
 30
0.0
 11
38.110118
 21
59.493139
 31
0.0
  0
LINE
  5
4a4
100
AcDbEntity
  8
S
 62
7
100
AcDbLine
 10
38.110118
 20
59.493139
 30
0.0
 11
36.641337
 21
59.493139
 31
0.0
  0
LINE
  5
4a5
100
AcDbEntity
  8
S
 62
7
100
AcDbLine
 10
36.641337
 20
59.493139
 30
0.0
 11
35.172554
 21
59.493139
 31
0.0
  0
LINE
  5
4a6
100
AcDbEntity
  8
S
 62
7
100
AcDbLine
 10
35.172554
 20
59.493139
 30
0.0
 11
33.703774
 21
59.493139
 31
0.0
  0
LINE
  5
4a7
100
AcDbEntity
  8
S
 62
7
100
AcDbLine
 10
33.703774
 20
59.493139
 30
0.0
 11
32.234990
 21
59.493139
 31
0.0
  0
LINE
  5
4a8
100
AcDbEntity
  8
S
 62
7
100
AcDbLine
 10
32.234990
 20
59.493139
 30
0.0
 11
31.905550
 21
59.518934
 31
0.0
  0
LINE
  5
4a9
100
AcDbEntity
  8
S
 62
7
100
AcDbLine
 10
31.905550
 20
59.518934
 30
0.0
 11
31.584096
 21
59.593765
 31
0.0
  0
LINE
  5
4aa
100
AcDbEntity
  8
S
 62
7
100
AcDbLine
 10
31.584096
 20
59.593765
 30
0.0
 11
31.276253
 21
59.713955
 31
0.0
  0
LINE
  5
4ab
100
AcDbEntity
  8
S
 62
7
100
AcDbLine
 10
31.276253
 20
59.713955
 30
0.0
 11
30.987650
 21
59.875818
 31
0.0
  0
LINE
  5
4ac
100
AcDbEntity
  8
S
 62
7
100
AcDbLine
 10
30.987650
 20
59.875818
 30
0.0
 11
30.723911
 21
60.075662
 31
0.0
  0
LINE
  5
4ad
100
AcDbEntity
  8
S
 62
7
100
AcDbLine
 10
30.723911
 20
60.075662
 30
0.0
 11
30.490668
 21
60.309802
 31
0.0
  0
LINE
  5
4ae
100
AcDbEntity
  8
S
 62
7
100
AcDbLine
 10
30.490668
 20
60.309802
 30
0.0
 11
30.293544
 21
60.574552
 31
0.0
  0
LINE
  5
4af
100
AcDbEntity
  8
S
 62
7
100
AcDbLine
 10
30.293544
 20
60.574552
 30
0.0
 11
30.138167
 21
60.866226
 31
0.0
  0
LINE
  5
4b0
100
AcDbEntity
  8
S
 62
7
100
AcDbLine
 10
30.138167
 20
60.866226
 30
0.0
 11
29.498637
 21
62.388874
 31
0.0
  0
LINE
  5
4b1
100
AcDbEntity
  8
S
 62
7
100
AcDbLine
 10
29.498637
 20
62.388874
 30
0.0
 11
28.901678
 21
63.928735
 31
0.0
  0
LINE
  5
4b2
100
AcDbEntity
  8
S
 62
7
100
AcDbLine
 10
28.901678
 20
63.928735
 30
0.0
 11
28.347664
 21
65.484589
 31
0.0
  0
LINE
  5
4b3
100
AcDbEntity
  8
S
 62
7
100
AcDbLine
 10
28.347664
 20
65.484589
 30
0.0
 11
27.836975
 21
67.055213
 31
0.0
  0
LINE
  5
4b4
100
AcDbEntity
  8
S
 62
7
100
AcDbLine
 10
27.836975
 20
67.055213
 30
0.0
 11
27.369988
 21
68.639382
 31
0.0
  0
LINE
  5
4b5
100
AcDbEntity
  8
S
 62
7
100
AcDbLine
 10
27.369988
 20
68.639382
 30
0.0
 11
26.947080
 21
70.235874
 31
0.0
  0
LINE
  5
4b6
100
AcDbEntity
  8
S
 62
7
100
AcDbLine
 10
26.947080
 20
70.235874
 30
0.0
 11
26.568629
 21
71.843471
 31
0.0
  0
LINE
  5
4b7
100
AcDbEntity
  8
S
 62
7
100
AcDbLine
 10
26.568629
 20
71.843471
 30
0.0
 11
26.235012
 21
73.460943
 31
0.0
  0
LINE
  5
4b8
100
AcDbEntity
  8
S
 62
7
100
AcDbLine
 10
26.235012
 20
73.460943
 30
0.0
 11
26.151576
 21
73.769118
 31
0.0
  0
LINE
  5
4b9
100
AcDbEntity
  8
S
 62
7
100
AcDbLine
 10
26.151576
 20
73.769118
 30
0.0
 11
26.024612
 21
74.061684
 31
0.0
  0
LINE
  5
4ba
100
AcDbEntity
  8
S
 62
7
100
AcDbLine
 10
26.024612
 20
74.061684
 30
0.0
 11
25.858255
 21
74.334189
 31
0.0
  0
LINE
  5
4bb
100
AcDbEntity
  8
S
 62
7
100
AcDbLine
 10
25.858255
 20
74.334189
 30
0.0
 11
25.656638
 21
74.582195
 31
0.0
  0
LINE
  5
4bc
100
AcDbEntity
  8
S
 62
7
100
AcDbLine
 10
25.656638
 20
74.582195
 30
0.0
 11
25.423897
 21
74.801250
 31
0.0
  0
LINE
  5
4bd
100
AcDbEntity
  8
S
 62
7
100
AcDbLine
 10
25.423897
 20
74.801250
 30
0.0
 11
25.164164
 21
74.986910
 31
0.0
  0
LINE
  5
4be
100
AcDbEntity
  8
S
 62
7
100
AcDbLine
 10
25.164164
 20
74.986910
 30
0.0
 11
24.881575
 21
75.134732
 31
0.0
  0
LINE
  5
4bf
100
AcDbEntity
  8
S
 62
7
100
AcDbLine
 10
24.881575
 20
75.134732
 30
0.0
 11
24.580264
 21
75.240267
 31
0.0
  0
LINE
  5
4c0
100
AcDbEntity
  8
S
 62
7
100
AcDbLine
 10
24.580264
 20
75.240267
 30
0.0
 11
24.043862
 21
75.383997
 31
0.0
  0
LINE
  5
4c1
100
AcDbEntity
  8
S
 62
7
100
AcDbLine
 10
24.043862
 20
75.383997
 30
0.0
 11
23.507461
 21
75.527724
 31
0.0
  0
LINE
  5
4c2
100
AcDbEntity
  8
S
 62
7
100
AcDbLine
 10
23.507461
 20
75.527724
 30
0.0
 11
22.971060
 21
75.671454
 31
0.0
  0
LINE
  5
4c3
100
AcDbEntity
  8
S
 62
7
100
AcDbLine
 10
22.971060
 20
75.671454
 30
0.0
 11
22.434658
 21
75.815184
 31
0.0
  0
LINE
  5
4c4
100
AcDbEntity
  8
S
 62
7
100
AcDbLine
 10
22.434658
 20
75.815184
 30
0.0
 11
21.898257
 21
75.958914
 31
0.0
  0
LINE
  5
4c5
100
AcDbEntity
  8
S
 62
7
100
AcDbLine
 10
21.898257
 20
75.958914
 30
0.0
 11
21.361856
 21
76.102642
 31
0.0
  0
LINE
  5
4c6
100
AcDbEntity
  8
S
 62
7
100
AcDbLine
 10
21.361856
 20
76.102642
 30
0.0
 11
20.825454
 21
76.246372
 31
0.0
  0
LINE
  5
4c7
100
AcDbEntity
  8
S
 62
7
100
AcDbLine
 10
20.825454
 20
76.246372
 30
0.0
 11
20.289053
 21
76.390102
 31
0.0
  0
LINE
  5
4c8
100
AcDbEntity
  8
S
 62
7
100
AcDbLine
 10
20.289053
 20
76.390102
 30
0.0
 11
19.963475
 21
76.506852
 31
0.0
  0
LINE
  5
4c9
100
AcDbEntity
  8
S
 62
7
100
AcDbLine
 10
19.963475
 20
76.506852
 30
0.0
 11
19.660794
 21
76.673219
 31
0.0
  0
LINE
  5
4ca
100
AcDbEntity
  8
S
 62
7
100
AcDbLine
 10
19.660794
 20
76.673219
 30
0.0
 11
19.385983
 21
76.883319
 31
0.0
  0
LINE
  5
4cb
100
AcDbEntity
  8
S
 62
7
100
AcDbLine
 10
19.385983
 20
76.883319
 30
0.0
 11
19.144014
 21
77.131268
 31
0.0
  0
LINE
  5
4cc
100
AcDbEntity
  8
S
 62
7
100
AcDbLine
 10
19.144014
 20
77.131268
 30
0.0
 11
18.939858
 21
77.411182
 31
0.0
  0
LINE
  5
4cd
100
AcDbEntity
  8
S
 62
7
100
AcDbLine
 10
18.939858
 20
77.411182
 30
0.0
 11
18.778487
 21
77.717173
 31
0.0
  0
LINE
  5
4ce
100
AcDbEntity
  8
S
 62
7
100
AcDbLine
 10
18.778487
 20
77.717173
 30
0.0
 11
18.664873
 21
78.043357
 31
0.0
  0
LINE
  5
4cf
100
AcDbEntity
  8
S
 62
7
100
AcDbLine
 10
18.664873
 20
78.043357
 30
0.0
 11
18.603988
 21
78.383847
 31
0.0
  0
LINE
  5
4d0
100
AcDbEntity
  8
S
 62
7
100
AcDbLine
 10
18.603988
 20
78.383847
 30
0.0
 11
18.473716
 21
79.951315
 31
0.0
  0
LINE
  5
4d1
100
AcDbEntity
  8
S
 62
7
100
AcDbLine
 10
18.473716
 20
79.951315
 30
0.0
 11
18.380665
 21
81.521424
 31
0.0
  0
LINE
  5
4d2
100
AcDbEntity
  8
S
 62
7
100
AcDbLine
 10
18.380665
 20
81.521424
 30
0.0
 11
18.324834
 21
83.093295
 31
0.0
  0
LINE
  5
4d3
100
AcDbEntity
  8
S
 62
7
100
AcDbLine
 10
18.324834
 20
83.093295
 30
0.0
 11
18.306224
 21
84.666049
 31
0.0
  0
LINE
  5
4d4
100
AcDbEntity
  8
S
 62
7
100
AcDbLine
 10
18.306224
 20
84.666049
 30
0.0
 11
18.324834
 21
86.238800
 31
0.0
  0
LINE
  5
4d5
100
AcDbEntity
  8
S
 62
7
100
AcDbLine
 10
18.324834
 20
86.238800
 30
0.0
 11
18.380665
 21
87.810670
 31
0.0
  0
LINE
  5
4d6
100
AcDbEntity
  8
S
 62
7
100
AcDbLine
 10
18.380665
 20
87.810670
 30
0.0
 11
18.473716
 21
89.380780
 31
0.0
  0
LINE
  5
4d7
100
AcDbEntity
  8
S
 62
7
100
AcDbLine
 10
18.473716
 20
89.380780
 30
0.0
 11
18.603988
 21
90.948248
 31
0.0
  0
LINE
  5
4d8
100
AcDbEntity
  8
S
 62
7
100
AcDbLine
 10
18.603988
 20
90.948248
 30
0.0
 11
18.664876
 21
91.288740
 31
0.0
  0
LINE
  5
4d9
100
AcDbEntity
  8
S
 62
7
100
AcDbLine
 10
18.664876
 20
91.288740
 30
0.0
 11
18.778492
 21
91.614924
 31
0.0
  0
LINE
  5
4da
100
AcDbEntity
  8
S
 62
7
100
AcDbLine
 10
18.778492
 20
91.614924
 30
0.0
 11
18.939863
 21
91.920915
 31
0.0
  0
LINE
  5
4db
100
AcDbEntity
  8
S
 62
7
100
AcDbLine
 10
18.939863
 20
91.920915
 30
0.0
 11
19.144018
 21
92.200832
 31
0.0
  0
LINE
  5
4dc
100
AcDbEntity
  8
S
 62
7
100
AcDbLine
 10
19.144018
 20
92.200832
 30
0.0
 11
19.385986
 21
92.448781
 31
0.0
  0
LINE
  5
4dd
100
AcDbEntity
  8
S
 62
7
100
AcDbLine
 10
19.385986
 20
92.448781
 30
0.0
 11
19.660796
 21
92.658881
 31
0.0
  0
LINE
  5
4de
100
AcDbEntity
  8
S
 62
7
100
AcDbLine
 10
19.660796
 20
92.658881
 30
0.0
 11
19.963475
 21
92.825248
 31
0.0
  0
LINE
  5
4df
100
AcDbEntity
  8
S
 62
7
100
AcDbLine
 10
19.963475
 20
92.825248
 30
0.0
 11
20.289053
 21
92.941995
 31
0.0
  0
LINE
  5
4e0
100
AcDbEntity
  8
S
 62
7
100
AcDbLine
 10
20.289053
 20
92.941995
 30
0.0
 11
20.825454
 21
93.085725
 31
0.0
  0
LINE
  5
4e1
100
AcDbEntity
  8
S
 62
7
100
AcDbLine
 10
20.825454
 20
93.085725
 30
0.0
 11
21.361856
 21
93.229453
 31
0.0
  0
LINE
  5
4e2
100
AcDbEntity
  8
S
 62
7
100
AcDbLine
 10
21.361856
 20
93.229453
 30
0.0
 11
21.898257
 21
93.373183
 31
0.0
  0
LINE
  5
4e3
100
AcDbEntity
  8
S
 62
7
100
AcDbLine
 10
21.898257
 20
93.373183
 30
0.0
 11
22.434658
 21
93.516913
 31
0.0
  0
LINE
  5
4e4
100
AcDbEntity
  8
S
 62
7
100
AcDbLine
 10
22.434658
 20
93.516913
 30
0.0
 11
22.971060
 21
93.660640
 31
0.0
  0
LINE
  5
4e5
100
AcDbEntity
  8
S
 62
7
100
AcDbLine
 10
22.971060
 20
93.660640
 30
0.0
 11
23.507461
 21
93.804370
 31
0.0
  0
LINE
  5
4e6
100
AcDbEntity
  8
S
 62
7
100
AcDbLine
 10
23.507461
 20
93.804370
 30
0.0
 11
24.043862
 21
93.948098
 31
0.0
  0
LINE
  5
4e7
100
AcDbEntity
  8
S
 62
7
100
AcDbLine
 10
24.043862
 20
93.948098
 30
0.0
 11
24.580264
 21
94.091828
 31
0.0
  0
LINE
  5
4e8
100
AcDbEntity
  8
S
 62
7
100
AcDbLine
 10
24.580264
 20
94.091828
 30
0.0
 11
24.881575
 21
94.197370
 31
0.0
  0
LINE
  5
4e9
100
AcDbEntity
  8
S
 62
7
100
AcDbLine
 10
24.881575
 20
94.197370
 30
0.0
 11
25.164164
 21
94.345193
 31
0.0
  0
LINE
  5
4ea
100
AcDbEntity
  8
S
 62
7
100
AcDbLine
 10
25.164164
 20
94.345193
 30
0.0
 11
25.423896
 21
94.530855
 31
0.0
  0
LINE
  5
4eb
100
AcDbEntity
  8
S
 62
7
100
AcDbLine
 10
25.423896
 20
94.530855
 30
0.0
 11
25.656637
 21
94.749908
 31
0.0
  0
LINE
  5
4ec
100
AcDbEntity
  8
S
 62
7
100
AcDbLine
 10
25.656637
 20
94.749908
 30
0.0
 11
25.858254
 21
94.997911
 31
0.0
  0
LINE
  5
4ed
100
AcDbEntity
  8
S
 62
7
100
AcDbLine
 10
25.858254
 20
94.997911
 30
0.0
 11
26.024611
 21
95.270416
 31
0.0
  0
LINE
  5
4ee
100
AcDbEntity
  8
S
 62
7
100
AcDbLine
 10
26.024611
 20
95.270416
 30
0.0
 11
26.151575
 21
95.562976
 31
0.0
  0
LINE
  5
4ef
100
AcDbEntity
  8
S
 62
7
100
AcDbLine
 10
26.151575
 20
95.562976
 30
0.0
 11
26.235012
 21
95.871151
 31
0.0
  0
LINE
  5
4f0
100
AcDbEntity
  8
S
 62
7
100
AcDbLine
 10
26.235012
 20
95.871151
 30
0.0
 11
26.447208
 21
96.926061
 31
0.0
  0
LINE
  5
4f1
100
AcDbEntity
  8
S
 62
7
100
AcDbLine
 10
26.447208
 20
96.926061
 30
0.0
 11
26.678439
 21
97.976961
 31
0.0
  0
LINE
  5
4f2
100
AcDbEntity
  8
S
 62
7
100
AcDbLine
 10
26.678439
 20
97.976961
 30
0.0
 11
26.928621
 21
99.023506
 31
0.0
  0
LINE
  5
4f3
100
AcDbEntity
  8
S
 62
7
100
AcDbLine
 10
26.928621
 20
99.023506
 30
0.0
 11
27.197669
 21
100.065360
 31
0.0
  0
LINE
  5
4f4
100
AcDbEntity
  8
S
 62
7
100
AcDbLine
 10
27.197669
 20
100.065360
 30
0.0
 11
27.485498
 21
101.102185
 31
0.0
  0
LINE
  5
4f5
100
AcDbEntity
  8
S
 62
7
100
AcDbLine
 10
27.485498
 20
101.102185
 30
0.0
 11
27.792022
 21
102.133637
 31
0.0
  0
LINE
  5
4f6
100
AcDbEntity
  8
S
 62
7
100
AcDbLine
 10
27.792022
 20
102.133637
 30
0.0
 11
28.117157
 21
103.159377
 31
0.0
  0
LINE
  5
4f7
100
AcDbEntity
  8
S
 62
7
100
AcDbLine
 10
28.117157
 20
103.159377
 30
0.0
 11
28.460819
 21
104.179068
 31
0.0
  0
LINE
  5
4f8
100
AcDbEntity
  8
S
 62
7
100
AcDbLine
 10
28.460819
 20
104.179068
 30
0.0
 11
28.542674
 21
104.487723
 31
0.0
  0
LINE
  5
4f9
100
AcDbEntity
  8
S
 62
7
100
AcDbLine
 10
28.542674
 20
104.487723
 30
0.0
 11
28.579022
 21
104.804616
 31
0.0
  0
LINE
  5
4fa
100
AcDbEntity
  8
S
 62
7
100
AcDbLine
 10
28.579022
 20
104.804616
 30
0.0
 11
28.571232
 21
105.123829
 31
0.0
  0
LINE
  5
4fb
100
AcDbEntity
  8
S
 62
7
100
AcDbLine
 10
28.571232
 20
105.123829
 30
0.0
 11
28.520630
 21
105.439447
 31
0.0
  0
LINE
  5
4fc
100
AcDbEntity
  8
S
 62
7
100
AcDbLine
 10
28.520630
 20
105.439447
 30
0.0
 11
28.428583
 21
105.745554
 31
0.0
  0
LINE
  5
4fd
100
AcDbEntity
  8
S
 62
7
100
AcDbLine
 10
28.428583
 20
105.745554
 30
0.0
 11
28.296449
 21
106.036231
 31
0.0
  0
LINE
  5
4fe
100
AcDbEntity
  8
S
 62
7
100
AcDbLine
 10
28.296449
 20
106.036231
 30
0.0
 11
28.125581
 21
106.305564
 31
0.0
  0
LINE
  5
4ff
100
AcDbEntity
  8
S
 62
7
100
AcDbLine
 10
28.125581
 20
106.305564
 30
0.0
 11
27.917335
 21
106.547641
 31
0.0
  0
LINE
  5
500
100
AcDbEntity
  8
S
 62
7
100
AcDbLine
 10
27.917335
 20
106.547641
 30
0.0
 11
27.524663
 21
106.940243
 31
0.0
  0
LINE
  5
501
100
AcDbEntity
  8
S
 62
7
100
AcDbLine
 10
27.524663
 20
106.940243
 30
0.0
 11
27.131991
 21
107.332848
 31
0.0
  0
LINE
  5
502
100
AcDbEntity
  8
S
 62
7
100
AcDbLine
 10
27.131991
 20
107.332848
 30
0.0
 11
26.739319
 21
107.725450
 31
0.0
  0
LINE
  5
503
100
AcDbEntity
  8
S
 62
7
100
AcDbLine
 10
26.739319
 20
107.725450
 30
0.0
 11
26.346647
 21
108.118055
 31
0.0
  0
LINE
  5
504
100
AcDbEntity
  8
S
 62
7
100
AcDbLine
 10
26.346647
 20
108.118055
 30
0.0
 11
25.953975
 21
108.510657
 31
0.0
  0
LINE
  5
505
100
AcDbEntity
  8
S
 62
7
100
AcDbLine
 10
25.953975
 20
108.510657
 30
0.0
 11
25.561303
 21
108.903259
 31
0.0
  0
LINE
  5
506
100
AcDbEntity
  8
S
 62
7
100
AcDbLine
 10
25.561303
 20
108.903259
 30
0.0
 11
25.168631
 21
109.295864
 31
0.0
  0
LINE
  5
507
100
AcDbEntity
  8
S
 62
7
100
AcDbLine
 10
25.168631
 20
109.295864
 30
0.0
 11
24.775959
 21
109.688466
 31
0.0
  0
LINE
  5
508
100
AcDbEntity
  8
S
 62
7
100
AcDbLine
 10
24.775959
 20
109.688466
 30
0.0
 11
24.552365
 21
109.952423
 31
0.0
  0
LINE
  5
509
100
AcDbEntity
  8
S
 62
7
100
AcDbLine
 10
24.552365
 20
109.952423
 30
0.0
 11
24.373397
 21
110.247924
 31
0.0
  0
LINE
  5
50a
100
AcDbEntity
  8
S
 62
7
100
AcDbLine
 10
24.373397
 20
110.247924
 30
0.0
 11
24.240428
 21
110.567380
 31
0.0
  0
LINE
  5
50b
100
AcDbEntity
  8
S
 62
7
100
AcDbLine
 10
24.240428
 20
110.567380
 30
0.0
 11
24.154826
 21
110.903196
 31
0.0
  0
LINE
  5
50c
100
AcDbEntity
  8
S
 62
7
100
AcDbLine
 10
24.154826
 20
110.903196
 30
0.0
 11
24.117961
 21
111.247781
 31
0.0
  0
LINE
  5
50d
100
AcDbEntity
  8
S
 62
7
100
AcDbLine
 10
24.117961
 20
111.247781
 30
0.0
 11
24.131203
 21
111.593545
 31
0.0
  0
LINE
  5
50e
100
AcDbEntity
  8
S
 62
7
100
AcDbLine
 10
24.131203
 20
111.593545
 30
0.0
 11
24.195923
 21
111.932892
 31
0.0
  0
LINE
  5
50f
100
AcDbEntity
  8
S
 62
7
100
AcDbLine
 10
24.195923
 20
111.932892
 30
0.0
 11
24.313489
 21
112.258229
 31
0.0
  0
LINE
  5
510
100
AcDbEntity
  8
S
 62
7
100
AcDbLine
 10
24.313489
 20
112.258229
 30
0.0
 11
24.984310
 21
113.680881
 31
0.0
  0
LINE
  5
511
100
AcDbEntity
  8
S
 62
7
100
AcDbLine
 10
24.984310
 20
113.680881
 30
0.0
 11
25.688689
 21
115.087197
 31
0.0
  0
LINE
  5
512
100
AcDbEntity
  8
S
 62
7
100
AcDbLine
 10
25.688689
 20
115.087197
 30
0.0
 11
26.426189
 21
116.476427
 31
0.0
  0
LINE
  5
513
100
AcDbEntity
  8
S
 62
7
100
AcDbLine
 10
26.426189
 20
116.476427
 30
0.0
 11
27.196371
 21
117.847813
 31
0.0
  0
LINE
  5
514
100
AcDbEntity
  8
S
 62
7
100
AcDbLine
 10
27.196371
 20
117.847813
 30
0.0
 11
27.998796
 21
119.200597
 31
0.0
  0
LINE
  5
515
100
AcDbEntity
  8
S
 62
7
100
AcDbLine
 10
27.998796
 20
119.200597
 30
0.0
 11
28.833024
 21
120.534021
 31
0.0
  0
LINE
  5
516
100
AcDbEntity
  8
S
 62
7
100
AcDbLine
 10
28.833024
 20
120.534021
 30
0.0
 11
29.698619
 21
121.847333
 31
0.0
  0
LINE
  5
517
100
AcDbEntity
  8
S
 62
7
100
AcDbLine
 10
29.698619
 20
121.847333
 30
0.0
 11
30.595137
 21
123.139773
 31
0.0
  0
LINE
  5
518
100
AcDbEntity
  8
S
 62
7
100
AcDbLine
 10
30.595137
 20
123.139773
 30
0.0
 11
30.818203
 21
123.404198
 31
0.0
  0
LINE
  5
519
100
AcDbEntity
  8
S
 62
7
100
AcDbLine
 10
30.818203
 20
123.404198
 30
0.0
 11
31.079786
 21
123.629857
 31
0.0
  0
LINE
  5
51a
100
AcDbEntity
  8
S
 62
7
100
AcDbLine
 10
31.079786
 20
123.629857
 30
0.0
 11
31.372631
 21
123.814140
 31
0.0
  0
LINE
  5
51b
100
AcDbEntity
  8
S
 62
7
100
AcDbLine
 10
31.372631
 20
123.814140
 30
0.0
 11
31.689485
 21
123.954427
 31
0.0
  0
LINE
  5
51c
100
AcDbEntity
  8
S
 62
7
100
AcDbLine
 10
31.689485
 20
123.954427
 30
0.0
 11
32.023091
 21
124.048108
 31
0.0
  0
LINE
  5
51d
100
AcDbEntity
  8
S
 62
7
100
AcDbLine
 10
32.023091
 20
124.048108
 30
0.0
 11
32.366200
 21
124.092566
 31
0.0
  0
LINE
  5
51e
100
AcDbEntity
  8
S
 62
7
100
AcDbLine
 10
32.366200
 20
124.092566
 30
0.0
 11
32.711556
 21
124.085200
 31
0.0
  0
LINE
  5
51f
100
AcDbEntity
  8
S
 62
7
100
AcDbLine
 10
32.711556
 20
124.085200
 30
0.0
 11
33.051904
 21
124.023377
 31
0.0
  0
LINE
  5
520
100
AcDbEntity
  8
S
 62
7
100
AcDbLine
 10
33.051904
 20
124.023377
 30
0.0
 11
33.588169
 21
123.879647
 31
0.0
  0
LINE
  5
521
100
AcDbEntity
  8
S
 62
7
100
AcDbLine
 10
33.588169
 20
123.879647
 30
0.0
 11
34.124431
 21
123.735919
 31
0.0
  0
LINE
  5
522
100
AcDbEntity
  8
S
 62
7
100
AcDbLine
 10
34.124431
 20
123.735919
 30
0.0
 11
34.660695
 21
123.592189
 31
0.0
  0
LINE
  5
523
100
AcDbEntity
  8
S
 62
7
100
AcDbLine
 10
34.660695
 20
123.592189
 30
0.0
 11
35.196960
 21
123.448462
 31
0.0
  0
LINE
  5
524
100
AcDbEntity
  8
S
 62
7
100
AcDbLine
 10
35.196960
 20
123.448462
 30
0.0
 11
35.733222
 21
123.304732
 31
0.0
  0
LINE
  5
525
100
AcDbEntity
  8
S
 62
7
100
AcDbLine
 10
35.733222
 20
123.304732
 30
0.0
 11
36.269486
 21
123.161002
 31
0.0
  0
LINE
  5
526
100
AcDbEntity
  8
S
 62
7
100
AcDbLine
 10
36.269486
 20
123.161002
 30
0.0
 11
36.805748
 21
123.017274
 31
0.0
  0
LINE
  5
527
100
AcDbEntity
  8
S
 62
7
100
AcDbLine
 10
36.805748
 20
123.017274
 30
0.0
 11
37.342012
 21
122.873544
 31
0.0
  0
LINE
  5
528
100
AcDbEntity
  8
S
 62
7
100
AcDbLine
 10
37.342012
 20
122.873544
 30
0.0
 11
37.655795
 21
122.814280
 31
0.0
  0
LINE
  5
529
100
AcDbEntity
  8
S
 62
7
100
AcDbLine
 10
37.655795
 20
122.814280
 30
0.0
 11
37.974537
 21
122.801016
 31
0.0
  0
LINE
  5
52a
100
AcDbEntity
  8
S
 62
7
100
AcDbLine
 10
37.974537
 20
122.801016
 30
0.0
 11
38.292421
 21
122.831950
 31
0.0
  0
LINE
  5
52b
100
AcDbEntity
  8
S
 62
7
100
AcDbLine
 10
38.292421
 20
122.831950
 30
0.0
 11
38.603633
 21
122.905311
 31
0.0
  0
LINE
  5
52c
100
AcDbEntity
  8
S
 62
7
100
AcDbLine
 10
38.603633
 20
122.905311
 30
0.0
 11
38.902351
 21
123.019315
 31
0.0
  0
LINE
  5
52d
100
AcDbEntity
  8
S
 62
7
100
AcDbLine
 10
38.902351
 20
123.019315
 30
0.0
 11
39.182762
 21
123.172180
 31
0.0
  0
LINE
  5
52e
100
AcDbEntity
  8
S
 62
7
100
AcDbLine
 10
39.182762
 20
123.172180
 30
0.0
 11
39.439045
 21
123.362130
 31
0.0
  0
LINE
  5
52f
100
AcDbEntity
  8
S
 62
7
100
AcDbLine
 10
39.439045
 20
123.362130
 30
0.0
 11
39.665387
 21
123.587375
 31
0.0
  0
LINE
  5
530
100
AcDbEntity
  8
S
 62
7
100
AcDbLine
 10
39.665387
 20
123.587375
 30
0.0
 11
40.376604
 21
124.394798
 31
0.0
  0
LINE
  5
531
100
AcDbEntity
  8
S
 62
7
100
AcDbLine
 10
40.376604
 20
124.394798
 30
0.0
 11
41.102265
 21
125.189231
 31
0.0
  0
LINE
  5
532
100
AcDbEntity
  8
S
 62
7
100
AcDbLine
 10
41.102265
 20
125.189231
 30
0.0
 11
41.842133
 21
125.970425
 31
0.0
  0
LINE
  5
533
100
AcDbEntity
  8
S
 62
7
100
AcDbLine
 10
41.842133
 20
125.970425
 30
0.0
 11
42.595974
 21
126.738123
 31
0.0
  0
LINE
  5
534
100
AcDbEntity
  8
S
 62
7
100
AcDbLine
 10
42.595974
 20
126.738123
 30
0.0
 11
43.363556
 21
127.492074
 31
0.0
  0
LINE
  5
535
100
AcDbEntity
  8
S
 62
7
100
AcDbLine
 10
43.363556
 20
127.492074
 30
0.0
 11
44.144640
 21
128.232030
 31
0.0
  0
LINE
  5
536
100
AcDbEntity
  8
S
 62
7
100
AcDbLine
 10
44.144640
 20
128.232030
 30
0.0
 11
44.939000
 21
128.957733
 31
0.0
  0
LINE
  5
537
100
AcDbEntity
  8
S
 62
7
100
AcDbLine
 10
44.939000
 20
128.957733
 30
0.0
 11
45.746393
 21
129.668933
 31
0.0
  0
LINE
  5
538
100
AcDbEntity
  8
S
 62
7
100
AcDbLine
 10
45.746393
 20
129.668933
 30
0.0
 11
45.971631
 21
129.895284
 31
0.0
  0
LINE
  5
539
100
AcDbEntity
  8
S
 62
7
100
AcDbLine
 10
45.971631
 20
129.895284
 30
0.0
 11
46.161623
 21
130.151570
 31
0.0
  0
LINE
  5
53a
100
AcDbEntity
  8
S
 62
7
100
AcDbLine
 10
46.161623
 20
130.151570
 30
0.0
 11
46.314568
 21
130.431977
 31
0.0
  0
LINE
  5
53b
100
AcDbEntity
  8
S
 62
7
100
AcDbLine
 10
46.314568
 20
130.431977
 30
0.0
 11
46.428673
 21
130.730693
 31
0.0
  0
LINE
  5
53c
100
AcDbEntity
  8
S
 62
7
100
AcDbLine
 10
46.428673
 20
130.730693
 30
0.0
 11
46.502141
 21
131.041896
 31
0.0
  0
LINE
  5
53d
100
AcDbEntity
  8
S
 62
7
100
AcDbLine
 10
46.502141
 20
131.041896
 30
0.0
 11
46.533177
 21
131.359777
 31
0.0
  0
LINE
  5
53e
100
AcDbEntity
  8
S
 62
7
100
AcDbLine
 10
46.533177
 20
131.359777
 30
0.0
 11
46.519998
 21
131.678519
 31
0.0
  0
LINE
  5
53f
100
AcDbEntity
  8
S
 62
7
100
AcDbLine
 10
46.519998
 20
131.678519
 30
0.0
 11
46.460779
 21
131.992305
 31
0.0
  0
LINE
  5
540
100
AcDbEntity
  8
S
 62
7
100
AcDbLine
 10
46.460779
 20
131.992305
 30
0.0
 11
46.317049
 21
132.528637
 31
0.0
  0
LINE
  5
541
100
AcDbEntity
  8
S
 62
7
100
AcDbLine
 10
46.317049
 20
132.528637
 30
0.0
 11
46.173319
 21
133.064970
 31
0.0
  0
LINE
  5
542
100
AcDbEntity
  8
S
 62
7
100
AcDbLine
 10
46.173319
 20
133.064970
 30
0.0
 11
46.029591
 21
133.601302
 31
0.0
  0
LINE
  5
543
100
AcDbEntity
  8
S
 62
7
100
AcDbLine
 10
46.029591
 20
133.601302
 30
0.0
 11
45.885861
 21
134.137637
 31
0.0
  0
LINE
  5
544
100
AcDbEntity
  8
S
 62
7
100
AcDbLine
 10
45.885861
 20
134.137637
 30
0.0
 11
45.742131
 21
134.673969
 31
0.0
  0
LINE
  5
545
100
AcDbEntity
  8
S
 62
7
100
AcDbLine
 10
45.742131
 20
134.673969
 30
0.0
 11
45.598404
 21
135.210302
 31
0.0
  0
LINE
  5
546
100
AcDbEntity
  8
S
 62
7
100
AcDbLine
 10
45.598404
 20
135.210302
 30
0.0
 11
45.454674
 21
135.746634
 31
0.0
  0
LINE
  5
547
100
AcDbEntity
  8
S
 62
7
100
AcDbLine
 10
45.454674
 20
135.746634
 30
0.0
 11
45.310943
 21
136.282966
 31
0.0
  0
LINE
  5
548
100
AcDbEntity
  8
S
 62
7
100
AcDbLine
 10
45.310943
 20
136.282966
 30
0.0
 11
45.310876
 21
136.282760
 31
0.0
  0
LINE
  5
549
100
AcDbEntity
  8
S
 62
7
100
AcDbLine
 10
45.310876
 20
136.282760
 30
0.0
 11
45.310805
 21
136.282554
 31
0.0
  0
LINE
  5
54a
100
AcDbEntity
  8
S
 62
7
100
AcDbLine
 10
45.310805
 20
136.282554
 30
0.0
 11
45.310737
 21
136.282345
 31
0.0
  0
LINE
  5
54b
100
AcDbEntity
  8
S
 62
7
100
AcDbLine
 10
45.310737
 20
136.282345
 30
0.0
 11
45.310667
 21
136.282139
 31
0.0
  0
LINE
  5
54c
100
AcDbEntity
  8
S
 62
7
100
AcDbLine
 10
45.310667
 20
136.282139
 30
0.0
 11
45.310599
 21
136.281933
 31
0.0
  0
LINE
  5
54d
100
AcDbEntity
  8
S
 62
7
100
AcDbLine
 10
45.310599
 20
136.281933
 30
0.0
 11
45.310531
 21
136.281724
 31
0.0
  0
LINE
  5
54e
100
AcDbEntity
  8
S
 62
7
100
AcDbLine
 10
45.310531
 20
136.281724
 30
0.0
 11
45.310461
 21
136.281518
 31
0.0
  0
LINE
  5
54f
100
AcDbEntity
  8
S
 62
7
100
AcDbLine
 10
45.310461
 20
136.281518
 30
0.0
 11
45.310393
 21
136.281312
 31
0.0
  0
LINE
  5
550
100
AcDbEntity
  8
S
 62
7
100
AcDbLine
 10
45.310393
 20
136.281312
 30
0.0
 11
45.248564
 21
136.621687
 31
0.0
  0
LINE
  5
551
100
AcDbEntity
  8
S
 62
7
100
AcDbLine
 10
45.248564
 20
136.621687
 30
0.0
 11
45.241198
 21
136.967056
 31
0.0
  0
LINE
  5
552
100
AcDbEntity
  8
S
 62
7
100
AcDbLine
 10
45.241198
 20
136.967056
 30
0.0
 11
45.285662
 21
137.310170
 31
0.0
  0
LINE
  5
553
100
AcDbEntity
  8
S
 62
7
100
AcDbLine
 10
45.285662
 20
137.310170
 30
0.0
 11
45.379346
 21
137.643774
 31
0.0
  0
LINE
  5
554
100
AcDbEntity
  8
S
 62
7
100
AcDbLine
 10
45.379346
 20
137.643774
 30
0.0
 11
45.519638
 21
137.960622
 31
0.0
  0
LINE
  5
555
100
AcDbEntity
  8
S
 62
7
100
AcDbLine
 10
45.519638
 20
137.960622
 30
0.0
 11
45.703921
 21
138.253456
 31
0.0
  0
LINE
  5
556
100
AcDbEntity
  8
S
 62
7
100
AcDbLine
 10
45.703921
 20
138.253456
 30
0.0
 11
45.929580
 21
138.515025
 31
0.0
  0
LINE
  5
557
100
AcDbEntity
  8
S
 62
7
100
AcDbLine
 10
45.929580
 20
138.515025
 30
0.0
 11
46.194003
 21
138.738079
 31
0.0
  0
LINE
  5
558
100
AcDbEntity
  8
S
 62
7
100
AcDbLine
 10
46.194003
 20
138.738079
 30
0.0
 11
47.486360
 21
139.634677
 31
0.0
  0
LINE
  5
559
100
AcDbEntity
  8
S
 62
7
100
AcDbLine
 10
47.486360
 20
139.634677
 30
0.0
 11
48.799574
 21
140.500340
 31
0.0
  0
LINE
  5
55a
100
AcDbEntity
  8
S
 62
7
100
AcDbLine
 10
48.799574
 20
140.500340
 30
0.0
 11
50.132896
 21
141.334629
 31
0.0
  0
LINE
  5
55b
100
AcDbEntity
  8
S
 62
7
100
AcDbLine
 10
50.132896
 20
141.334629
 30
0.0
 11
51.485582
 21
142.137112
 31
0.0
  0
LINE
  5
55c
100
AcDbEntity
  8
S
 62
7
100
AcDbLine
 10
51.485582
 20
142.137112
 30
0.0
 11
52.856880
 21
142.907353
 31
0.0
  0
LINE
  5
55d
100
AcDbEntity
  8
S
 62
7
100
AcDbLine
 10
52.856880
 20
142.907353
 30
0.0
 11
54.246048
 21
143.644918
 31
0.0
  0
LINE
  5
55e
100
AcDbEntity
  8
S
 62
7
100
AcDbLine
 10
54.246048
 20
143.644918
 30
0.0
 11
55.652333
 21
144.349372
 31
0.0
  0
LINE
  5
55f
100
AcDbEntity
  8
S
 62
7
100
AcDbLine
 10
55.652333
 20
144.349372
 30
0.0
 11
57.074993
 21
145.020279
 31
0.0
  0
LINE
  5
560
100
AcDbEntity
  8
S
 62
7
100
AcDbLine
 10
57.074993
 20
145.020279
 30
0.0
 11
57.400347
 21
145.137779
 31
0.0
  0
LINE
  5
561
100
AcDbEntity
  8
S
 62
7
100
AcDbLine
 10
57.400347
 20
145.137779
 30
0.0
 11
57.739669
 21
145.202442
 31
0.0
  0
LINE
  5
562
100
AcDbEntity
  8
S
 62
7
100
AcDbLine
 10
57.739669
 20
145.202442
 30
0.0
 11
58.085371
 21
145.215633
 31
0.0
  0
LINE
  5
563
100
AcDbEntity
  8
S
 62
7
100
AcDbLine
 10
58.085371
 20
145.215633
 30
0.0
 11
58.429874
 21
145.178715
 31
0.0
  0
LINE
  5
564
100
AcDbEntity
  8
S
 62
7
100
AcDbLine
 10
58.429874
 20
145.178715
 30
0.0
 11
58.765592
 21
145.093054
 31
0.0
  0
LINE
  5
565
100
AcDbEntity
  8
S
 62
7
100
AcDbLine
 10
58.765592
 20
145.093054
 30
0.0
 11
59.084943
 21
144.960014
 31
0.0
  0
LINE
  5
566
100
AcDbEntity
  8
S
 62
7
100
AcDbLine
 10
59.084943
 20
144.960014
 30
0.0
 11
59.380342
 21
144.780961
 31
0.0
  0
LINE
  5
567
100
AcDbEntity
  8
S
 62
7
100
AcDbLine
 10
59.380342
 20
144.780961
 30
0.0
 11
59.644206
 21
144.557259
 31
0.0
  0
LINE
  5
568
100
AcDbEntity
  8
S
 62
7
100
AcDbLine
 10
59.644206
 20
144.557259
 30
0.0
 11
60.036808
 21
144.164587
 31
0.0
  0
LINE
  5
569
100
AcDbEntity
  8
S
 62
7
100
AcDbLine
 10
60.036808
 20
144.164587
 30
0.0
 11
60.429413
 21
143.771915
 31
0.0
  0
LINE
  5
56a
100
AcDbEntity
  8
S
 62
7
100
AcDbLine
 10
60.429413
 20
143.771915
 30
0.0
 11
60.822015
 21
143.379243
 31
0.0
  0
LINE
  5
56b
100
AcDbEntity
  8
S
 62
7
100
AcDbLine
 10
60.822015
 20
143.379243
 30
0.0
 11
61.214617
 21
142.986571
 31
0.0
  0
LINE
  5
56c
100
AcDbEntity
  8
S
 62
7
100
AcDbLine
 10
61.214617
 20
142.986571
 30
0.0
 11
61.607222
 21
142.593899
 31
0.0
  0
LINE
  5
56d
100
AcDbEntity
  8
S
 62
7
100
AcDbLine
 10
61.607222
 20
142.593899
 30
0.0
 11
61.999824
 21
142.201227
 31
0.0
  0
LINE
  5
56e
100
AcDbEntity
  8
S
 62
7
100
AcDbLine
 10
61.999824
 20
142.201227
 30
0.0
 11
62.392429
 21
141.808555
 31
0.0
  0
LINE
  5
56f
100
AcDbEntity
  8
S
 62
7
100
AcDbLine
 10
62.392429
 20
141.808555
 30
0.0
 11
62.785031
 21
141.415883
 31
0.0
  0
LINE
  5
570
100
AcDbEntity
  8
S
 62
7
100
AcDbLine
 10
62.785031
 20
141.415883
 30
0.0
 11
63.027099
 21
141.207637
 31
0.0
  0
LINE
  5
571
100
AcDbEntity
  8
S
 62
7
100
AcDbLine
 10
63.027099
 20
141.207637
 30
0.0
 11
63.296432
 21
141.036764
 31
0.0
  0
LINE
  5
572
100
AcDbEntity
  8
S
 62
7
100
AcDbLine
 10
63.296432
 20
141.036764
 30
0.0
 11
63.587118
 21
140.904624
 31
0.0
  0
LINE
  5
573
100
AcDbEntity
  8
S
 62
7
100
AcDbLine
 10
63.587118
 20
140.904624
 30
0.0
 11
63.893231
 21
140.812572
 31
0.0
  0
LINE
  5
574
100
AcDbEntity
  8
S
 62
7
100
AcDbLine
 10
63.893231
 20
140.812572
 30
0.0
 11
64.208857
 21
140.761967
 31
0.0
  0
LINE
  5
575
100
AcDbEntity
  8
S
 62
7
100
AcDbLine
 10
64.208857
 20
140.761967
 30
0.0
 11
64.528073
 21
140.754149
 31
0.0
  0
LINE
  5
576
100
AcDbEntity
  8
S
 62
7
100
AcDbLine
 10
64.528073
 20
140.754149
 30
0.0
 11
64.844960
 21
140.790502
 31
0.0
  0
LINE
  5
577
100
AcDbEntity
  8
S
 62
7
100
AcDbLine
 10
64.844960
 20
140.790502
 30
0.0
 11
65.153604
 21
140.872372
 31
0.0
  0
LINE
  5
578
100
AcDbEntity
  8
S
 62
7
100
AcDbLine
 10
65.153604
 20
140.872372
 30
0.0
 11
66.173180
 21
141.216022
 31
0.0
  0
LINE
  5
579
100
AcDbEntity
  8
S
 62
7
100
AcDbLine
 10
66.173180
 20
141.216022
 30
0.0
 11
67.198829
 21
141.541155
 31
0.0
  0
LINE
  5
57a
100
AcDbEntity
  8
S
 62
7
100
AcDbLine
 10
67.198829
 20
141.541155
 30
0.0
 11
68.230204
 21
141.847683
 31
0.0
  0
LINE
  5
57b
100
AcDbEntity
  8
S
 62
7
100
AcDbLine
 10
68.230204
 20
141.847683
 30
0.0
 11
69.266965
 21
142.135518
 31
0.0
  0
LINE
  5
57c
100
AcDbEntity
  8
S
 62
7
100
AcDbLine
 10
69.266965
 20
142.135518
 30
0.0
 11
70.308765
 21
142.404573
 31
0.0
  0
LINE
  5
57d
100
AcDbEntity
  8
S
 62
7
100
AcDbLine
 10
70.308765
 20
142.404573
 30
0.0
 11
71.355262
 21
142.654760
 31
0.0
  0
LINE
  5
57e
100
AcDbEntity
  8
S
 62
7
100
AcDbLine
 10
71.355262
 20
142.654760
 30
0.0
 11
72.406111
 21
142.885991
 31
0.0
  0
LINE
  5
57f
100
AcDbEntity
  8
S
 62
7
100
AcDbLine
 10
72.406111
 20
142.885991
 30
0.0
 11
73.460968
 21
143.098179
 31
0.0
  0
LINE
  5
580
100
AcDbEntity
  8
S
 62
7
100
AcDbLine
 10
73.460968
 20
143.098179
 30
0.0
 11
73.769151
 21
143.181645
 31
0.0
  0
LINE
  5
581
100
AcDbEntity
  8
S
 62
7
100
AcDbLine
 10
73.769151
 20
143.181645
 30
0.0
 11
74.061723
 21
143.308665
 31
0.0
  0
LINE
  5
582
100
AcDbEntity
  8
S
 62
7
100
AcDbLine
 10
74.061723
 20
143.308665
 30
0.0
 11
74.334239
 21
143.475098
 31
0.0
  0
LINE
  5
583
100
AcDbEntity
  8
S
 62
7
100
AcDbLine
 10
74.334239
 20
143.475098
 30
0.0
 11
74.582251
 21
143.676802
 31
0.0
  0
LINE
  5
584
100
AcDbEntity
  8
S
 62
7
100
AcDbLine
 10
74.582251
 20
143.676802
 30
0.0
 11
74.801309
 21
143.909633
 31
0.0
  0
LINE
  5
585
100
AcDbEntity
  8
S
 62
7
100
AcDbLine
 10
74.801309
 20
143.909633
 30
0.0
 11
74.986966
 21
144.169451
 31
0.0
  0
LINE
  5
586
100
AcDbEntity
  8
S
 62
7
100
AcDbLine
 10
74.986966
 20
144.169451
 30
0.0
 11
75.134777
 21
144.452113
 31
0.0
  0
LINE
  5
587
100
AcDbEntity
  8
S
 62
7
100
AcDbLine
 10
75.134777
 20
144.452113
 30
0.0
 11
75.240291
 21
144.753478
 31
0.0
  0
LINE
  5
588
100
AcDbEntity
  8
S
 62
7
100
AcDbLine
 10
75.240291
 20
144.753478
 30
0.0
 11
75.384021
 21
145.289810
 31
0.0
  0
LINE
  5
589
100
AcDbEntity
  8
S
 62
7
100
AcDbLine
 10
75.384021
 20
145.289810
 30
0.0
 11
75.527749
 21
145.826143
 31
0.0
  0
LINE
  5
58a
100
AcDbEntity
  8
S
 62
7
100
AcDbLine
 10
75.527749
 20
145.826143
 30
0.0
 11
75.671479
 21
146.362475
 31
0.0
  0
LINE
  5
58b
100
AcDbEntity
  8
S
 62
7
100
AcDbLine
 10
75.671479
 20
146.362475
 30
0.0
 11
75.815209
 21
146.898808
 31
0.0
  0
LINE
  5
58c
100
AcDbEntity
  8
S
 62
7
100
AcDbLine
 10
75.815209
 20
146.898808
 30
0.0
 11
75.958939
 21
147.435140
 31
0.0
  0
LINE
  5
58d
100
AcDbEntity
  8
S
 62
7
100
AcDbLine
 10
75.958939
 20
147.435140
 30
0.0
 11
76.102666
 21
147.971473
 31
0.0
  0
LINE
  5
58e
100
AcDbEntity
  8
S
 62
7
100
AcDbLine
 10
76.102666
 20
147.971473
 30
0.0
 11
76.246396
 21
148.507805
 31
0.0
  0
LINE
  5
58f
100
AcDbEntity
  8
S
 62
7
100
AcDbLine
 10
76.246396
 20
148.507805
 30
0.0
 11
76.390127
 21
149.044138
 31
0.0
  0
LINE
  5
590
100
AcDbEntity
  8
S
 62
7
100
AcDbLine
 10
76.390127
 20
149.044138
 30
0.0
 11
76.506797
 21
149.369836
 31
0.0
  0
LINE
  5
591
100
AcDbEntity
  8
S
 62
7
100
AcDbLine
 10
76.506797
 20
149.369836
 30
0.0
 11
76.673122
 21
149.672667
 31
0.0
  0
LINE
  5
592
100
AcDbEntity
  8
S
 62
7
100
AcDbLine
 10
76.673122
 20
149.672667
 30
0.0
 11
76.883206
 21
149.947647
 31
0.0
  0
LINE
  5
593
100
AcDbEntity
  8
S
 62
7
100
AcDbLine
 10
76.883206
 20
149.947647
 30
0.0
 11
77.131160
 21
150.189791
 31
0.0
  0
LINE
  5
594
100
AcDbEntity
  8
S
 62
7
100
AcDbLine
 10
77.131160
 20
150.189791
 30
0.0
 11
77.411097
 21
150.394114
 31
0.0
  0
LINE
  5
595
100
AcDbEntity
  8
S
 62
7
100
AcDbLine
 10
77.411097
 20
150.394114
 30
0.0
 11
77.717119
 21
150.555631
 31
0.0
  0
LINE
  5
596
100
AcDbEntity
  8
S
 62
7
100
AcDbLine
 10
77.717119
 20
150.555631
 30
0.0
 11
78.043342
 21
150.669356
 31
0.0
  0
LINE
  5
597
100
AcDbEntity
  8
S
 62
7
100
AcDbLine
 10
78.043342
 20
150.669356
 30
0.0
 11
78.383871
 21
150.730305
 31
0.0
  0
LINE
  5
598
100
AcDbEntity
  8
S
 62
7
100
AcDbLine
 10
78.383871
 20
150.730305
 30
0.0
 11
79.951235
 21
150.860584
 31
0.0
  0
LINE
  5
599
100
AcDbEntity
  8
S
 62
7
100
AcDbLine
 10
79.951235
 20
150.860584
 30
0.0
 11
81.521212
 21
150.953641
 31
0.0
  0
LINE
  5
59a
100
AcDbEntity
  8
S
 62
7
100
AcDbLine
 10
81.521212
 20
150.953641
 30
0.0
 11
83.092930
 21
151.009475
 31
0.0
  0
LINE
  5
59b
100
AcDbEntity
  8
S
 62
7
100
AcDbLine
 10
83.092930
 20
151.009475
 30
0.0
 11
84.665520
 21
151.028087
 31
0.0
  0
LINE
  5
59c
100
AcDbEntity
  8
S
 62
7
100
AcDbLine
 10
84.665520
 20
151.028087
 30
0.0
 11
86.238113
 21
151.009475
 31
0.0
  0
LINE
  5
59d
100
AcDbEntity
  8
S
 62
7
100
AcDbLine
 10
86.238113
 20
151.009475
 30
0.0
 11
87.809831
 21
150.953641
 31
0.0
  0
LINE
  5
59e
100
AcDbEntity
  8
S
 62
7
100
AcDbLine
 10
87.809831
 20
150.953641
 30
0.0
 11
89.379808
 21
150.860584
 31
0.0
  0
LINE
  5
59f
100
AcDbEntity
  8
S
 62
7
100
AcDbLine
 10
89.379808
 20
150.860584
 30
0.0
 11
90.947171
 21
150.730305
 31
0.0
  0
LINE
  5
5a0
100
AcDbEntity
  8
S
 62
7
100
AcDbLine
 10
90.947171
 20
150.730305
 30
0.0
 11
91.287701
 21
150.669361
 31
0.0
  0
LINE
  5
5a1
100
AcDbEntity
  8
S
 62
7
100
AcDbLine
 10
91.287701
 20
150.669361
 30
0.0
 11
91.613921
 21
150.555638
 31
0.0
  0
LINE
  5
5a2
100
AcDbEntity
  8
S
 62
7
100
AcDbLine
 10
91.613921
 20
150.555638
 30
0.0
 11
91.919946
 21
150.394122
 31
0.0
  0
LINE
  5
5a3
100
AcDbEntity
  8
S
 62
7
100
AcDbLine
 10
91.919946
 20
150.394122
 30
0.0
 11
92.199880
 21
150.189798
 31
0.0
  0
LINE
  5
5a4
100
AcDbEntity
  8
S
 62
7
100
AcDbLine
 10
92.199880
 20
150.189798
 30
0.0
 11
92.447834
 21
149.947652
 31
0.0
  0
LINE
  5
5a5
100
AcDbEntity
  8
S
 62
7
100
AcDbLine
 10
92.447834
 20
149.947652
 30
0.0
 11
92.657918
 21
149.672670
 31
0.0
  0
LINE
  5
5a6
100
AcDbEntity
  8
S
 62
7
100
AcDbLine
 10
92.657918
 20
149.672670
 30
0.0
 11
92.824243
 21
149.369836
 31
0.0
  0
LINE
  5
5a7
100
AcDbEntity
  8
S
 62
7
100
AcDbLine
 10
92.824243
 20
149.369836
 30
0.0
 11
92.940916
 21
149.044138
 31
0.0
  0
LINE
  5
5a8
100
AcDbEntity
  8
S
 62
7
100
AcDbLine
 10
92.940916
 20
149.044138
 30
0.0
 11
93.084646
 21
148.507805
 31
0.0
  0
LINE
  5
5a9
100
AcDbEntity
  8
S
 62
7
100
AcDbLine
 10
93.084646
 20
148.507805
 30
0.0
 11
93.228374
 21
147.971473
 31
0.0
  0
LINE
  5
5aa
100
AcDbEntity
  8
S
 62
7
100
AcDbLine
 10
93.228374
 20
147.971473
 30
0.0
 11
93.372104
 21
147.435140
 31
0.0
  0
LINE
  5
5ab
100
AcDbEntity
  8
S
 62
7
100
AcDbLine
 10
93.372104
 20
147.435140
 30
0.0
 11
93.515834
 21
146.898808
 31
0.0
  0
LINE
  5
5ac
100
AcDbEntity
  8
S
 62
7
100
AcDbLine
 10
93.515834
 20
146.898808
 30
0.0
 11
93.659564
 21
146.362475
 31
0.0
  0
LINE
  5
5ad
100
AcDbEntity
  8
S
 62
7
100
AcDbLine
 10
93.659564
 20
146.362475
 30
0.0
 11
93.803291
 21
145.826143
 31
0.0
  0
LINE
  5
5ae
100
AcDbEntity
  8
S
 62
7
100
AcDbLine
 10
93.803291
 20
145.826143
 30
0.0
 11
93.947021
 21
145.289810
 31
0.0
  0
LINE
  5
5af
100
AcDbEntity
  8
S
 62
7
100
AcDbLine
 10
93.947021
 20
145.289810
 30
0.0
 11
94.090752
 21
144.753478
 31
0.0
  0
LINE
  5
5b0
100
AcDbEntity
  8
S
 62
7
100
AcDbLine
 10
94.090752
 20
144.753478
 30
0.0
 11
94.196275
 21
144.452114
 31
0.0
  0
LINE
  5
5b1
100
AcDbEntity
  8
S
 62
7
100
AcDbLine
 10
94.196275
 20
144.452114
 30
0.0
 11
94.344088
 21
144.169452
 31
0.0
  0
LINE
  5
5b2
100
AcDbEntity
  8
S
 62
7
100
AcDbLine
 10
94.344088
 20
144.169452
 30
0.0
 11
94.529751
 21
143.909635
 31
0.0
  0
LINE
  5
5b3
100
AcDbEntity
  8
S
 62
7
100
AcDbLine
 10
94.529751
 20
143.909635
 30
0.0
 11
94.748812
 21
143.676803
 31
0.0
  0
LINE
  5
5b4
100
AcDbEntity
  8
S
 62
7
100
AcDbLine
 10
94.748812
 20
143.676803
 30
0.0
 11
94.996823
 21
143.475100
 31
0.0
  0
LINE
  5
5b5
100
AcDbEntity
  8
S
 62
7
100
AcDbLine
 10
94.996823
 20
143.475100
 30
0.0
 11
95.269334
 21
143.308667
 31
0.0
  0
LINE
  5
5b6
100
AcDbEntity
  8
S
 62
7
100
AcDbLine
 10
95.269334
 20
143.308667
 30
0.0
 11
95.561903
 21
143.181646
 31
0.0
  0
LINE
  5
5b7
100
AcDbEntity
  8
S
 62
7
100
AcDbLine
 10
95.561903
 20
143.181646
 30
0.0
 11
95.870075
 21
143.098179
 31
0.0
  0
LINE
  5
5b8
100
AcDbEntity
  8
S
 62
7
100
AcDbLine
 10
95.870075
 20
143.098179
 30
0.0
 11
97.155135
 21
142.837022
 31
0.0
  0
LINE
  5
5b9
100
AcDbEntity
  8
S
 62
7
100
AcDbLine
 10
97.155135
 20
142.837022
 30
0.0
 11
98.434078
 21
142.547600
 31
0.0
  0
LINE
  5
5ba
100
AcDbEntity
  8
S
 62
7
100
AcDbLine
 10
98.434078
 20
142.547600
 30
0.0
 11
99.706305
 21
142.230082
 31
0.0
  0
LINE
  5
5bb
100
AcDbEntity
  8
S
 62
7
100
AcDbLine
 10
99.706305
 20
142.230082
 30
0.0
 11
100.971217
 21
141.884634
 31
0.0
  0
LINE
  5
5bc
100
AcDbEntity
  8
S
 62
7
100
AcDbLine
 10
100.971217
 20
141.884634
 30
0.0
 11
102.228217
 21
141.511424
 31
0.0
  0
LINE
  5
5bd
100
AcDbEntity
  8
S
 62
7
100
AcDbLine
 10
102.228217
 20
141.511424
 30
0.0
 11
103.476701
 21
141.110618
 31
0.0
  0
LINE
  5
5be
100
AcDbEntity
  8
S
 62
7
100
AcDbLine
 10
103.476701
 20
141.110618
 30
0.0
 11
104.716077
 21
140.682388
 31
0.0
  0
LINE
  5
5bf
100
AcDbEntity
  8
S
 62
7
100
AcDbLine
 10
104.716077
 20
140.682388
 30
0.0
 11
105.945739
 21
140.226899
 31
0.0
  0
LINE
  5
5c0
100
AcDbEntity
  8
S
 62
7
100
AcDbLine
 10
105.945739
 20
140.226899
 30
0.0
 11
106.260417
 21
140.133537
 31
0.0
  0
LINE
  5
5c1
100
AcDbEntity
  8
S
 62
7
100
AcDbLine
 10
106.260417
 20
140.133537
 30
0.0
 11
106.585136
 21
140.088110
 31
0.0
  0
LINE
  5
5c2
100
AcDbEntity
  8
S
 62
7
100
AcDbLine
 10
106.585136
 20
140.088110
 30
0.0
 11
106.913439
 21
140.089239
 31
0.0
  0
LINE
  5
5c3
100
AcDbEntity
  8
S
 62
7
100
AcDbLine
 10
106.913439
 20
140.089239
 30
0.0
 11
107.238867
 21
140.135580
 31
0.0
  0
LINE
  5
5c4
100
AcDbEntity
  8
S
 62
7
100
AcDbLine
 10
107.238867
 20
140.135580
 30
0.0
 11
107.554961
 21
140.225756
 31
0.0
  0
LINE
  5
5c5
100
AcDbEntity
  8
S
 62
7
100
AcDbLine
 10
107.554961
 20
140.225756
 30
0.0
 11
107.855263
 21
140.358392
 31
0.0
  0
LINE
  5
5c6
100
AcDbEntity
  8
S
 62
7
100
AcDbLine
 10
107.855263
 20
140.358392
 30
0.0
 11
108.133317
 21
140.532122
 31
0.0
  0
LINE
  5
5c7
100
AcDbEntity
  8
S
 62
7
100
AcDbLine
 10
108.133317
 20
140.532122
 30
0.0
 11
108.382660
 21
140.745578
 31
0.0
  0
LINE
  5
5c8
100
AcDbEntity
  8
S
 62
7
100
AcDbLine
 10
108.382660
 20
140.745578
 30
0.0
 11
110.328520
 21
142.691575
 31
0.0
  0
LINE
  5
5c9
100
AcDbEntity
  8
S
 62
7
100
AcDbLine
 10
110.328520
 20
142.691575
 30
0.0
 11
112.274377
 21
144.637571
 31
0.0
  0
LINE
  5
5ca
100
AcDbEntity
  8
S
 62
7
100
AcDbLine
 10
112.274377
 20
144.637571
 30
0.0
 11
114.220238
 21
146.583568
 31
0.0
  0
LINE
  5
5cb
100
AcDbEntity
  8
S
 62
7
100
AcDbLine
 10
114.220238
 20
146.583568
 30
0.0
 11
116.166095
 21
148.529564
 31
0.0
  0
LINE
  5
5cc
100
AcDbEntity
  8
S
 62
7
100
AcDbLine
 10
116.166095
 20
148.529564
 30
0.0
 11
118.111955
 21
150.475561
 31
0.0
  0
LINE
  5
5cd
100
AcDbEntity
  8
S
 62
7
100
AcDbLine
 10
118.111955
 20
150.475561
 30
0.0
 11
120.057815
 21
152.421558
 31
0.0
  0
LINE
  5
5ce
100
AcDbEntity
  8
S
 62
7
100
AcDbLine
 10
120.057815
 20
152.421558
 30
0.0
 11
122.003672
 21
154.367554
 31
0.0
  0
LINE
  5
5cf
100
AcDbEntity
  8
S
 62
7
100
AcDbLine
 10
122.003672
 20
154.367554
 30
0.0
 11
123.949533
 21
156.313551
 31
0.0
  0
LINE
  5
5d0
100
AcDbEntity
  8
S
 62
7
100
AcDbLine
 10
123.949533
 20
156.313551
 30
0.0
 11
124.127372
 21
156.514840
 31
0.0
  0
LINE
  5
5d1
100
AcDbEntity
  8
S
 62
7
100
AcDbLine
 10
124.127372
 20
156.514840
 30
0.0
 11
124.279600
 21
156.735948
 31
0.0
  0
LINE
  5
5d2
100
AcDbEntity
  8
S
 62
7
100
AcDbLine
 10
124.279600
 20
156.735948
 30
0.0
 11
124.405090
 21
156.973417
 31
0.0
  0
LINE
  5
5d3
100
AcDbEntity
  8
S
 62
7
100
AcDbLine
 10
124.405090
 20
156.973417
 30
0.0
 11
124.502725
 21
157.223793
 31
0.0
  0
LINE
  5
5d4
100
AcDbEntity
  8
S
 62
7
100
AcDbLine
 10
124.502725
 20
157.223793
 30
0.0
 11
124.571381
 21
157.483620
 31
0.0
  0
LINE
  5
5d5
100
AcDbEntity
  8
S
 62
7
100
AcDbLine
 10
124.571381
 20
157.483620
 30
0.0
 11
124.609933
 21
157.749441
 31
0.0
  0
LINE
  5
5d6
100
AcDbEntity
  8
S
 62
7
100
AcDbLine
 10
124.609933
 20
157.749441
 30
0.0
 11
124.617270
 21
158.017802
 31
0.0
  0
LINE
  5
5d7
100
AcDbEntity
  8
S
 62
7
100
AcDbLine
 10
124.617270
 20
158.017802
 30
0.0
 11
124.592265
 21
158.285248
 31
0.0
  0
LINE
  5
5d8
100
AcDbEntity
  8
S
 62
7
100
AcDbLine
 10
124.592265
 20
158.285248
 30
0.0
 11
124.534463
 21
158.547556
 31
0.0
  0
LINE
  5
5d9
100
AcDbEntity
  8
S
 62
7
100
AcDbLine
 10
124.534463
 20
158.547556
 30
0.0
 11
124.445580
 21
158.800847
 31
0.0
  0
LINE
  5
5da
100
AcDbEntity
  8
S
 62
7
100
AcDbLine
 10
124.445580
 20
158.800847
 30
0.0
 11
124.327744
 21
159.042178
 31
0.0
  0
LINE
  5
5db
100
AcDbEntity
  8
S
 62
7
100
AcDbLine
 10
124.327744
 20
159.042178
 30
0.0
 11
124.183071
 21
159.268608
 31
0.0
  0
LINE
  5
5dc
100
AcDbEntity
  8
S
 62
7
100
AcDbLine
 10
124.183071
 20
159.268608
 30
0.0
 11
124.013687
 21
159.477192
 31
0.0
  0
LINE
  5
5dd
100
AcDbEntity
  8
S
 62
7
100
AcDbLine
 10
124.013687
 20
159.477192
 30
0.0
 11
123.821714
 21
159.664990
 31
0.0
  0
LINE
  5
5de
100
AcDbEntity
  8
S
 62
7
100
AcDbLine
 10
123.821714
 20
159.664990
 30
0.0
 11
123.609274
 21
159.829058
 31
0.0
  0
LINE
  5
5df
100
AcDbEntity
  8
S
 62
7
100
AcDbLine
 10
123.609274
 20
159.829058
 30
0.0
 11
123.378490
 21
159.966454
 31
0.0
  0
LINE
  5
5e0
100
AcDbEntity
  8
S
 62
7
100
AcDbLine
 10
123.378490
 20
159.966454
 30
0.0
 11
120.286257
 21
161.477097
 31
0.0
  0
LINE
  5
5e1
100
AcDbEntity
  8
S
 62
7
100
AcDbLine
 10
120.286257
 20
161.477097
 30
0.0
 11
117.135043
 21
162.860435
 31
0.0
  0
LINE
  5
5e2
100
AcDbEntity
  8
S
 62
7
100
AcDbLine
 10
117.135043
 20
162.860435
 30
0.0
 11
113.930237
 21
164.114718
 31
0.0
  0
LINE
  5
5e3
100
AcDbEntity
  8
S
 62
7
100
AcDbLine
 10
113.930237
 20
164.114718
 30
0.0
 11
110.677237
 21
165.238194
 31
0.0
  0
LINE
  5
5e4
100
AcDbEntity
  8
S
 62
7
100
AcDbLine
 10
110.677237
 20
165.238194
 30
0.0
 11
107.381431
 21
166.229114
 31
0.0
  0
LINE
  5
5e5
100
AcDbEntity
  8
S
 62
7
100
AcDbLine
 10
107.381431
 20
166.229114
 30
0.0
 11
104.048215
 21
167.085726
 31
0.0
  0
LINE
  5
5e6
100
AcDbEntity
  8
S
 62
7
100
AcDbLine
 10
104.048215
 20
167.085726
 30
0.0
 11
100.682980
 21
167.806280
 31
0.0
  0
LINE
  5
5e7
100
AcDbEntity
  8
S
 62
7
100
AcDbLine
 10
100.682980
 20
167.806280
 30
0.0
 11
97.291123
 21
168.389024
 31
0.0
  0
LINE
  5
5e8
100
AcDbEntity
  8
S
 62
7
100
AcDbLine
 10
97.291123
 20
168.389024
 30
0.0
 11
95.800217
 21
168.600218
 31
0.0
  0
LINE
  5
5e9
100
AcDbEntity
  8
S
 62
7
100
AcDbLine
 10
95.800217
 20
168.600218
 30
0.0
 11
94.305765
 21
168.784707
 31
0.0
  0
LINE
  5
5ea
100
AcDbEntity
  8
S
 62
7
100
AcDbLine
 10
94.305765
 20
168.784707
 30
0.0
 11
92.808258
 21
168.942494
 31
0.0
  0
LINE
  5
5eb
100
AcDbEntity
  8
S
 62
7
100
AcDbLine
 10
92.808258
 20
168.942494
 30
0.0
 11
91.308173
 21
169.073583
 31
0.0
  0
LINE
  5
5ec
100
AcDbEntity
  8
S
 62
7
100
AcDbLine
 10
91.308173
 20
169.073583
 30
0.0
 11
89.805995
 21
169.177979
 31
0.0
  0
LINE
  5
5ed
100
AcDbEntity
  8
S
 62
7
100
AcDbLine
 10
89.805995
 20
169.177979
 30
0.0
 11
88.302202
 21
169.255686
 31
0.0
  0
LINE
  5
5ee
100
AcDbEntity
  8
S
 62
7
100
AcDbLine
 10
88.302202
 20
169.255686
 30
0.0
 11
86.797283
 21
169.306708
 31
0.0
  0
LINE
  5
5ef
100
AcDbEntity
  8
S
 62
7
100
AcDbLine
 10
86.797283
 20
169.306708
 30
0.0
 11
85.291744
 21
169.331128
 31
0.0
  0
ENDSEC
  0
SECTION
  2
OBJECTS
  0
DICTIONARY
  5
C
330
0
100
AcDbDictionary
  3
ACAD_GROUP
350
D
  3
ACAD_MLINESTYLE
350
17
  0
DICTIONARY
  5
D
330
C
100
AcDbDictionary
  0
DICTIONARY
  5
1A
330
C
100
AcDbDictionary
  0
DICTIONARY
  5
17
330
C
100
AcDbDictionary
  3
STANDARD
350
18
  0
DICTIONARY
  5
19
330
C
100
AcDbDictionary
  0
ENDSEC
  0
EOF
